<?xml version="1.0" encoding="UTF-8" standalone="no"?>
<!DOCTYPE svg PUBLIC "-//W3C//DTD SVG 1.1//EN"
 "http://www.w3.org/Graphics/SVG/1.1/DTD/svg11.dtd">
<!-- Generated by graphviz version 2.43.0 (0)
 -->
<!-- Title: /media/jvincent/Kingspec512/repos/RADix&#45;OS/RADixKernel/platforms Pages: 1 -->
<svg width="192pt" height="175pt"
 viewBox="0.00 0.00 192.00 175.00" xmlns="http://www.w3.org/2000/svg" xmlns:xlink="http://www.w3.org/1999/xlink">
<g id="graph0" class="graph" transform="scale(1 1) rotate(0) translate(4 171)">
<title>/media/jvincent/Kingspec512/repos/RADix&#45;OS/RADixKernel/platforms</title>
<polygon fill="white" stroke="transparent" points="-4,4 -4,-171 188,-171 188,4 -4,4"/>
<g id="clust1" class="cluster">
<title>clusterdir_c6ea6a2c6f18e288f8a52f2b5881a08c</title>
<g id="a_clust1"><a xlink:href="dir_c6ea6a2c6f18e288f8a52f2b5881a08c.html" target="_top" xlink:title="RADixKernel">
<polygon fill="#ddddee" stroke="black" points="8,-8 8,-159 176,-159 176,-8 8,-8"/>
<text text-anchor="middle" x="92" y="-147" font-family="Helvetica,sans-Serif" font-size="10.00">RADixKernel</text>
</a>
</g>
</g>
<g id="clust2" class="cluster">
<title>clusterdir_d3e8a5e38ac62c56c5e4dac4bdc22ab5</title>
<g id="a_clust2"><a xlink:href="dir_d3e8a5e38ac62c56c5e4dac4bdc22ab5.html" target="_top">
<polygon fill="#eeeeff" stroke="black" points="16,-80 16,-132 168,-132 168,-80 16,-80"/>
</a>
</g>
</g>
<!-- dir_d139445b9618bc029f90a26cd49e9c06 -->
<g id="node1" class="node">
<title>dir_d139445b9618bc029f90a26cd49e9c06</title>
<g id="a_node1"><a xlink:href="dir_d139445b9618bc029f90a26cd49e9c06.html" target="_top" xlink:title="headers">
<polygon fill="white" stroke="red" points="79,-52 23,-52 23,-16 79,-16 79,-52"/>
<text text-anchor="middle" x="51" y="-31.5" font-family="Helvetica,sans-Serif" font-size="10.00">headers</text>
</a>
</g>
</g>
<!-- dir_d3e8a5e38ac62c56c5e4dac4bdc22ab5 -->
<g id="node2" class="node">
<title>dir_d3e8a5e38ac62c56c5e4dac4bdc22ab5</title>
<text text-anchor="middle" x="128" y="-103.5" font-family="Helvetica,sans-Serif" font-size="10.00">platforms</text>
</g>
<!-- dir_9390953ee0b0003e6a4366422957859d -->
<g id="node3" class="node">
<title>dir_9390953ee0b0003e6a4366422957859d</title>
<g id="a_node3"><a xlink:href="dir_9390953ee0b0003e6a4366422957859d.html" target="_top" xlink:title="a53">
<polygon fill="white" stroke="black" points="78,-124 24,-124 24,-88 78,-88 78,-124"/>
<text text-anchor="middle" x="51" y="-103.5" font-family="Helvetica,sans-Serif" font-size="10.00">a53</text>
</a>
</g>
</g>
<!-- dir_9390953ee0b0003e6a4366422957859d&#45;&gt;dir_d139445b9618bc029f90a26cd49e9c06 -->
<g id="edge1" class="edge">
<title>dir_9390953ee0b0003e6a4366422957859d&#45;&gt;dir_d139445b9618bc029f90a26cd49e9c06</title>
<path fill="none" stroke="black" d="M51,-87.7C51,-79.98 51,-70.71 51,-62.11"/>
<polygon fill="black" stroke="black" points="54.5,-62.1 51,-52.1 47.5,-62.1 54.5,-62.1"/>
<g id="a_edge1&#45;headlabel"><a xlink:href="dir_000008_000005.html" target="_top" xlink:title="1">
<text text-anchor="middle" x="57.34" y="-63.2" font-family="Helvetica,sans-Serif" font-size="10.00">1</text>
</a>
</g>
</g>
</g>
</svg>
