<?xml version="1.0" encoding="UTF-8" standalone="no"?>
<!DOCTYPE svg PUBLIC "-//W3C//DTD SVG 1.1//EN"
 "http://www.w3.org/Graphics/SVG/1.1/DTD/svg11.dtd">
<!-- Generated by graphviz version 2.43.0 (0)
 -->
<!-- Title: /media/jvincent/Kingspec512/repos/RADix&#45;OS/RADixKernel/headers/radixkernel/radixkernel.h Pages: 1 -->
<svg width="5548pt" height="128pt"
 viewBox="0.00 0.00 5548.00 128.00" xmlns="http://www.w3.org/2000/svg" xmlns:xlink="http://www.w3.org/1999/xlink">
<g id="graph0" class="graph" transform="scale(1 1) rotate(0) translate(4 124)">
<title>/media/jvincent/Kingspec512/repos/RADix&#45;OS/RADixKernel/headers/radixkernel/radixkernel.h</title>
<polygon fill="white" stroke="transparent" points="-4,4 -4,-124 5544,-124 5544,4 -4,4"/>
<!-- Node1 -->
<g id="node1" class="node">
<title>Node1</title>
<g id="a_node1"><a xlink:title="Portable RADix kernel service ABI for RADLib and RADix&#45;OS targets.">
<polygon fill="#bfbfbf" stroke="black" points="2703.5,-78.5 2703.5,-119.5 2886.5,-119.5 2886.5,-78.5 2703.5,-78.5"/>
<text text-anchor="start" x="2711.5" y="-107.5" font-family="Helvetica,sans-Serif" font-size="10.00">/media/jvincent/Kingspec512</text>
<text text-anchor="start" x="2711.5" y="-96.5" font-family="Helvetica,sans-Serif" font-size="10.00">/repos/RADix&#45;OS/RADixKernel</text>
<text text-anchor="middle" x="2795" y="-85.5" font-family="Helvetica,sans-Serif" font-size="10.00">/headers/radixkernel/radixkernel.h</text>
</a>
</g>
</g>
<!-- Node2 -->
<g id="node2" class="node">
<title>Node2</title>
<g id="a_node2"><a xlink:href="rad__audio_8h_source.html" target="_top" xlink:title=" ">
<polygon fill="white" stroke="black" points="0,-0.5 0,-41.5 176,-41.5 176,-0.5 0,-0.5"/>
<text text-anchor="start" x="8" y="-29.5" font-family="Helvetica,sans-Serif" font-size="10.00">/media/jvincent/Kingspec512</text>
<text text-anchor="start" x="8" y="-18.5" font-family="Helvetica,sans-Serif" font-size="10.00">/repos/RADix&#45;OS/RADixKernel</text>
<text text-anchor="middle" x="88" y="-7.5" font-family="Helvetica,sans-Serif" font-size="10.00">/headers/radixkernel/rad_audio.h</text>
</a>
</g>
</g>
<!-- Node1&#45;&gt;Node2 -->
<g id="edge1" class="edge">
<title>Node1&#45;&gt;Node2</title>
<path fill="none" stroke="midnightblue" d="M2693.22,-98.29C2274.55,-99.1 683.97,-98.32 185,-42 182.1,-41.67 179.15,-41.3 176.18,-40.89"/>
<polygon fill="midnightblue" stroke="midnightblue" points="2693.49,-101.79 2703.48,-98.27 2693.47,-94.79 2693.49,-101.79"/>
</g>
<!-- Node3 -->
<g id="node3" class="node">
<title>Node3</title>
<g id="a_node3"><a xlink:href="rad__block_8h_source.html" target="_top" xlink:title=" ">
<polygon fill="white" stroke="black" points="194,-0.5 194,-41.5 370,-41.5 370,-0.5 194,-0.5"/>
<text text-anchor="start" x="202" y="-29.5" font-family="Helvetica,sans-Serif" font-size="10.00">/media/jvincent/Kingspec512</text>
<text text-anchor="start" x="202" y="-18.5" font-family="Helvetica,sans-Serif" font-size="10.00">/repos/RADix&#45;OS/RADixKernel</text>
<text text-anchor="middle" x="282" y="-7.5" font-family="Helvetica,sans-Serif" font-size="10.00">/headers/radixkernel/rad_block.h</text>
</a>
</g>
</g>
<!-- Node1&#45;&gt;Node3 -->
<g id="edge2" class="edge">
<title>Node1&#45;&gt;Node3</title>
<path fill="none" stroke="midnightblue" d="M2693.16,-98.11C2294.21,-98.17 837.04,-94.69 378,-42 375.38,-41.7 372.72,-41.36 370.05,-40.99"/>
<polygon fill="midnightblue" stroke="midnightblue" points="2693.24,-101.61 2703.24,-98.11 2693.24,-94.61 2693.24,-101.61"/>
</g>
<!-- Node4 -->
<g id="node4" class="node">
<title>Node4</title>
<g id="a_node4"><a xlink:href="rad__cpp_8h.html" target="_top" xlink:title="Small C++ convenience wrappers over the RADix&#45;OS C kernel ABI.">
<polygon fill="white" stroke="black" points="387.5,-0.5 387.5,-41.5 554.5,-41.5 554.5,-0.5 387.5,-0.5"/>
<text text-anchor="start" x="395.5" y="-29.5" font-family="Helvetica,sans-Serif" font-size="10.00">/media/jvincent/Kingspec512</text>
<text text-anchor="start" x="395.5" y="-18.5" font-family="Helvetica,sans-Serif" font-size="10.00">/repos/RADix&#45;OS/RADixKernel</text>
<text text-anchor="middle" x="471" y="-7.5" font-family="Helvetica,sans-Serif" font-size="10.00">/headers/radixkernel/rad_cpp.h</text>
</a>
</g>
</g>
<!-- Node1&#45;&gt;Node4 -->
<g id="edge3" class="edge">
<title>Node1&#45;&gt;Node4</title>
<path fill="none" stroke="midnightblue" d="M2693.15,-97.97C2314.01,-97.46 984.57,-92.06 564,-42 560.88,-41.63 557.72,-41.2 554.53,-40.73"/>
<polygon fill="midnightblue" stroke="midnightblue" points="2693.28,-101.47 2703.28,-97.98 2693.29,-94.47 2693.28,-101.47"/>
</g>
<!-- Node5 -->
<g id="node5" class="node">
<title>Node5</title>
<g id="a_node5"><a xlink:href="rad__device_8h_source.html" target="_top" xlink:title=" ">
<polygon fill="white" stroke="black" points="573,-0.5 573,-41.5 755,-41.5 755,-0.5 573,-0.5"/>
<text text-anchor="start" x="581" y="-29.5" font-family="Helvetica,sans-Serif" font-size="10.00">/media/jvincent/Kingspec512</text>
<text text-anchor="start" x="581" y="-18.5" font-family="Helvetica,sans-Serif" font-size="10.00">/repos/RADix&#45;OS/RADixKernel</text>
<text text-anchor="middle" x="664" y="-7.5" font-family="Helvetica,sans-Serif" font-size="10.00">/headers/radixkernel/rad_device.h</text>
</a>
</g>
</g>
<!-- Node1&#45;&gt;Node5 -->
<g id="edge4" class="edge">
<title>Node1&#45;&gt;Node5</title>
<path fill="none" stroke="midnightblue" d="M2693.4,-97.48C2336.89,-95.31 1143.94,-84.92 764,-42 761.1,-41.67 758.15,-41.3 755.19,-40.9"/>
<polygon fill="midnightblue" stroke="midnightblue" points="2693.43,-100.98 2703.45,-97.54 2693.47,-93.98 2693.43,-100.98"/>
</g>
<!-- Node6 -->
<g id="node6" class="node">
<title>Node6</title>
<g id="a_node6"><a xlink:href="rad__display_8h_source.html" target="_top" xlink:title=" ">
<polygon fill="white" stroke="black" points="773.5,-0.5 773.5,-41.5 956.5,-41.5 956.5,-0.5 773.5,-0.5"/>
<text text-anchor="start" x="781.5" y="-29.5" font-family="Helvetica,sans-Serif" font-size="10.00">/media/jvincent/Kingspec512</text>
<text text-anchor="start" x="781.5" y="-18.5" font-family="Helvetica,sans-Serif" font-size="10.00">/repos/RADix&#45;OS/RADixKernel</text>
<text text-anchor="middle" x="865" y="-7.5" font-family="Helvetica,sans-Serif" font-size="10.00">/headers/radixkernel/rad_display.h</text>
</a>
</g>
</g>
<!-- Node1&#45;&gt;Node6 -->
<g id="edge5" class="edge">
<title>Node1&#45;&gt;Node6</title>
<path fill="none" stroke="midnightblue" d="M2693.15,-97.12C2359.85,-93.89 1303.73,-80.78 965,-42 962.27,-41.69 959.51,-41.34 956.73,-40.96"/>
<polygon fill="midnightblue" stroke="midnightblue" points="2693.24,-100.62 2703.27,-97.22 2693.31,-93.62 2693.24,-100.62"/>
</g>
<!-- Node7 -->
<g id="node7" class="node">
<title>Node7</title>
<g id="a_node7"><a xlink:href="rad__dma_8h_source.html" target="_top" xlink:title=" ">
<polygon fill="white" stroke="black" points="974.5,-0.5 974.5,-41.5 1145.5,-41.5 1145.5,-0.5 974.5,-0.5"/>
<text text-anchor="start" x="982.5" y="-29.5" font-family="Helvetica,sans-Serif" font-size="10.00">/media/jvincent/Kingspec512</text>
<text text-anchor="start" x="982.5" y="-18.5" font-family="Helvetica,sans-Serif" font-size="10.00">/repos/RADix&#45;OS/RADixKernel</text>
<text text-anchor="middle" x="1060" y="-7.5" font-family="Helvetica,sans-Serif" font-size="10.00">/headers/radixkernel/rad_dma.h</text>
</a>
</g>
</g>
<!-- Node1&#45;&gt;Node7 -->
<g id="edge6" class="edge">
<title>Node1&#45;&gt;Node7</title>
<path fill="none" stroke="midnightblue" d="M2692.94,-96.86C2382.74,-93.04 1453.97,-78.74 1154,-42 1151.27,-41.67 1148.5,-41.29 1145.7,-40.88"/>
<polygon fill="midnightblue" stroke="midnightblue" points="2693.23,-100.37 2703.27,-96.99 2693.31,-93.37 2693.23,-100.37"/>
</g>
<!-- Node8 -->
<g id="node8" class="node">
<title>Node8</title>
<g id="a_node8"><a xlink:href="rad__event_8h_source.html" target="_top" xlink:title=" ">
<polygon fill="white" stroke="black" points="1163.5,-0.5 1163.5,-41.5 1340.5,-41.5 1340.5,-0.5 1163.5,-0.5"/>
<text text-anchor="start" x="1171.5" y="-29.5" font-family="Helvetica,sans-Serif" font-size="10.00">/media/jvincent/Kingspec512</text>
<text text-anchor="start" x="1171.5" y="-18.5" font-family="Helvetica,sans-Serif" font-size="10.00">/repos/RADix&#45;OS/RADixKernel</text>
<text text-anchor="middle" x="1252" y="-7.5" font-family="Helvetica,sans-Serif" font-size="10.00">/headers/radixkernel/rad_event.h</text>
</a>
</g>
</g>
<!-- Node1&#45;&gt;Node8 -->
<g id="edge7" class="edge">
<title>Node1&#45;&gt;Node8</title>
<path fill="none" stroke="midnightblue" d="M2692.77,-96.2C2408.14,-90.85 1610.36,-73.4 1350,-42 1346.9,-41.63 1343.75,-41.21 1340.57,-40.75"/>
<polygon fill="midnightblue" stroke="midnightblue" points="2693.02,-99.71 2703.09,-96.39 2693.15,-92.71 2693.02,-99.71"/>
</g>
<!-- Node9 -->
<g id="node9" class="node">
<title>Node9</title>
<g id="a_node9"><a xlink:href="rad__i2c_8h_source.html" target="_top" xlink:title=" ">
<polygon fill="white" stroke="black" points="1359,-0.5 1359,-41.5 1523,-41.5 1523,-0.5 1359,-0.5"/>
<text text-anchor="start" x="1367" y="-29.5" font-family="Helvetica,sans-Serif" font-size="10.00">/media/jvincent/Kingspec512</text>
<text text-anchor="start" x="1367" y="-18.5" font-family="Helvetica,sans-Serif" font-size="10.00">/repos/RADix&#45;OS/RADixKernel</text>
<text text-anchor="middle" x="1441" y="-7.5" font-family="Helvetica,sans-Serif" font-size="10.00">/headers/radixkernel/rad_i2c.h</text>
</a>
</g>
</g>
<!-- Node1&#45;&gt;Node9 -->
<g id="edge8" class="edge">
<title>Node1&#45;&gt;Node9</title>
<path fill="none" stroke="midnightblue" d="M2693.07,-95.74C2434.11,-89.65 1755.61,-71.31 1532,-42 1529.11,-41.62 1526.18,-41.2 1523.23,-40.74"/>
<polygon fill="midnightblue" stroke="midnightblue" points="2693.14,-99.25 2703.22,-95.98 2693.3,-92.25 2693.14,-99.25"/>
</g>
<!-- Node10 -->
<g id="node10" class="node">
<title>Node10</title>
<g id="a_node10"><a xlink:href="rad__input_8h_source.html" target="_top" xlink:title=" ">
<polygon fill="white" stroke="black" points="1541,-0.5 1541,-41.5 1715,-41.5 1715,-0.5 1541,-0.5"/>
<text text-anchor="start" x="1549" y="-29.5" font-family="Helvetica,sans-Serif" font-size="10.00">/media/jvincent/Kingspec512</text>
<text text-anchor="start" x="1549" y="-18.5" font-family="Helvetica,sans-Serif" font-size="10.00">/repos/RADix&#45;OS/RADixKernel</text>
<text text-anchor="middle" x="1628" y="-7.5" font-family="Helvetica,sans-Serif" font-size="10.00">/headers/radixkernel/rad_input.h</text>
</a>
</g>
</g>
<!-- Node1&#45;&gt;Node10 -->
<g id="edge9" class="edge">
<title>Node1&#45;&gt;Node10</title>
<path fill="none" stroke="midnightblue" d="M2693.22,-97.85C2502.35,-96.43 2077.96,-87.85 1724,-42 1721.05,-41.62 1718.05,-41.19 1715.02,-40.74"/>
<polygon fill="midnightblue" stroke="midnightblue" points="2693.22,-101.35 2703.24,-97.92 2693.26,-94.35 2693.22,-101.35"/>
</g>
<!-- Node11 -->
<g id="node11" class="node">
<title>Node11</title>
<g id="a_node11"><a xlink:href="rad__ioctl_8h_source.html" target="_top" xlink:title=" ">
<polygon fill="white" stroke="black" points="1733,-0.5 1733,-41.5 1903,-41.5 1903,-0.5 1733,-0.5"/>
<text text-anchor="start" x="1741" y="-29.5" font-family="Helvetica,sans-Serif" font-size="10.00">/media/jvincent/Kingspec512</text>
<text text-anchor="start" x="1741" y="-18.5" font-family="Helvetica,sans-Serif" font-size="10.00">/repos/RADix&#45;OS/RADixKernel</text>
<text text-anchor="middle" x="1818" y="-7.5" font-family="Helvetica,sans-Serif" font-size="10.00">/headers/radixkernel/rad_ioctl.h</text>
</a>
</g>
</g>
<!-- Node1&#45;&gt;Node11 -->
<g id="edge10" class="edge">
<title>Node1&#45;&gt;Node11</title>
<path fill="none" stroke="midnightblue" d="M2693.23,-96.37C2528.41,-92.66 2193.16,-80.61 1912,-42 1909.11,-41.6 1906.17,-41.17 1903.21,-40.7"/>
<polygon fill="midnightblue" stroke="midnightblue" points="2693.28,-99.88 2703.36,-96.6 2693.44,-92.88 2693.28,-99.88"/>
</g>
<!-- Node12 -->
<g id="node12" class="node">
<title>Node12</title>
<g id="a_node12"><a xlink:href="rad__irq_8h_source.html" target="_top" xlink:title=" ">
<polygon fill="white" stroke="black" points="1921,-0.5 1921,-41.5 2083,-41.5 2083,-0.5 1921,-0.5"/>
<text text-anchor="start" x="1929" y="-29.5" font-family="Helvetica,sans-Serif" font-size="10.00">/media/jvincent/Kingspec512</text>
<text text-anchor="start" x="1929" y="-18.5" font-family="Helvetica,sans-Serif" font-size="10.00">/repos/RADix&#45;OS/RADixKernel</text>
<text text-anchor="middle" x="2002" y="-7.5" font-family="Helvetica,sans-Serif" font-size="10.00">/headers/radixkernel/rad_irq.h</text>
</a>
</g>
</g>
<!-- Node1&#45;&gt;Node12 -->
<g id="edge11" class="edge">
<title>Node1&#45;&gt;Node12</title>
<path fill="none" stroke="midnightblue" d="M2693.17,-94.34C2555.98,-88.39 2304.47,-73.91 2092,-42 2089.15,-41.57 2086.26,-41.11 2083.34,-40.61"/>
<polygon fill="midnightblue" stroke="midnightblue" points="2693.11,-97.84 2703.26,-94.77 2693.41,-90.84 2693.11,-97.84"/>
</g>
<!-- Node13 -->
<g id="node13" class="node">
<title>Node13</title>
<g id="a_node13"><a xlink:href="rad__memory_8h_source.html" target="_top" xlink:title=" ">
<polygon fill="white" stroke="black" points="2101.5,-0.5 2101.5,-41.5 2290.5,-41.5 2290.5,-0.5 2101.5,-0.5"/>
<text text-anchor="start" x="2109.5" y="-29.5" font-family="Helvetica,sans-Serif" font-size="10.00">/media/jvincent/Kingspec512</text>
<text text-anchor="start" x="2109.5" y="-18.5" font-family="Helvetica,sans-Serif" font-size="10.00">/repos/RADix&#45;OS/RADixKernel</text>
<text text-anchor="middle" x="2196" y="-7.5" font-family="Helvetica,sans-Serif" font-size="10.00">/headers/radixkernel/rad_memory.h</text>
</a>
</g>
</g>
<!-- Node1&#45;&gt;Node13 -->
<g id="edge12" class="edge">
<title>Node1&#45;&gt;Node13</title>
<path fill="none" stroke="midnightblue" d="M2693.36,-88.82C2593.08,-79.22 2435.56,-62.67 2300,-42 2296.91,-41.53 2293.77,-41.03 2290.61,-40.52"/>
<polygon fill="midnightblue" stroke="midnightblue" points="2693.2,-92.32 2703.49,-89.79 2693.86,-85.35 2693.2,-92.32"/>
</g>
<!-- Node14 -->
<g id="node14" class="node">
<title>Node14</title>
<g id="a_node14"><a xlink:href="rad__module_8h_source.html" target="_top" xlink:title=" ">
<polygon fill="white" stroke="black" points="2309,-0.5 2309,-41.5 2495,-41.5 2495,-0.5 2309,-0.5"/>
<text text-anchor="start" x="2317" y="-29.5" font-family="Helvetica,sans-Serif" font-size="10.00">/media/jvincent/Kingspec512</text>
<text text-anchor="start" x="2317" y="-18.5" font-family="Helvetica,sans-Serif" font-size="10.00">/repos/RADix&#45;OS/RADixKernel</text>
<text text-anchor="middle" x="2402" y="-7.5" font-family="Helvetica,sans-Serif" font-size="10.00">/headers/radixkernel/rad_module.h</text>
</a>
</g>
</g>
<!-- Node1&#45;&gt;Node14 -->
<g id="edge13" class="edge">
<title>Node1&#45;&gt;Node14</title>
<path fill="none" stroke="midnightblue" d="M2693.34,-78.53C2637.45,-67.8 2566.89,-54.22 2504,-42 2501.08,-41.43 2498.11,-40.85 2495.11,-40.27"/>
<polygon fill="midnightblue" stroke="midnightblue" points="2692.76,-81.98 2703.24,-80.43 2694.08,-75.11 2692.76,-81.98"/>
</g>
<!-- Node15 -->
<g id="node15" class="node">
<title>Node15</title>
<g id="a_node15"><a xlink:href="rad__mutex_8h_source.html" target="_top" xlink:title=" ">
<polygon fill="white" stroke="black" points="2513.5,-0.5 2513.5,-41.5 2694.5,-41.5 2694.5,-0.5 2513.5,-0.5"/>
<text text-anchor="start" x="2521.5" y="-29.5" font-family="Helvetica,sans-Serif" font-size="10.00">/media/jvincent/Kingspec512</text>
<text text-anchor="start" x="2521.5" y="-18.5" font-family="Helvetica,sans-Serif" font-size="10.00">/repos/RADix&#45;OS/RADixKernel</text>
<text text-anchor="middle" x="2604" y="-7.5" font-family="Helvetica,sans-Serif" font-size="10.00">/headers/radixkernel/rad_mutex.h</text>
</a>
</g>
</g>
<!-- Node1&#45;&gt;Node15 -->
<g id="edge14" class="edge">
<title>Node1&#45;&gt;Node15</title>
<path fill="none" stroke="midnightblue" d="M2736.21,-74.61C2709.55,-64 2678.39,-51.6 2653.02,-41.51"/>
<polygon fill="midnightblue" stroke="midnightblue" points="2735.23,-77.98 2745.81,-78.43 2737.82,-71.48 2735.23,-77.98"/>
</g>
<!-- Node16 -->
<g id="node16" class="node">
<title>Node16</title>
<g id="a_node16"><a xlink:href="rad__net_8h_source.html" target="_top" xlink:title=" ">
<polygon fill="white" stroke="black" points="2712.5,-0.5 2712.5,-41.5 2877.5,-41.5 2877.5,-0.5 2712.5,-0.5"/>
<text text-anchor="start" x="2720.5" y="-29.5" font-family="Helvetica,sans-Serif" font-size="10.00">/media/jvincent/Kingspec512</text>
<text text-anchor="start" x="2720.5" y="-18.5" font-family="Helvetica,sans-Serif" font-size="10.00">/repos/RADix&#45;OS/RADixKernel</text>
<text text-anchor="middle" x="2795" y="-7.5" font-family="Helvetica,sans-Serif" font-size="10.00">/headers/radixkernel/rad_net.h</text>
</a>
</g>
</g>
<!-- Node1&#45;&gt;Node16 -->
<g id="edge15" class="edge">
<title>Node1&#45;&gt;Node16</title>
<path fill="none" stroke="midnightblue" d="M2795,-68.3C2795,-59.3 2795,-49.65 2795,-41.51"/>
<polygon fill="midnightblue" stroke="midnightblue" points="2791.5,-68.43 2795,-78.43 2798.5,-68.43 2791.5,-68.43"/>
</g>
<!-- Node17 -->
<g id="node17" class="node">
<title>Node17</title>
<g id="a_node17"><a xlink:href="rad__overlay_8h_source.html" target="_top" xlink:title=" ">
<polygon fill="white" stroke="black" points="2895.5,-0.5 2895.5,-41.5 3080.5,-41.5 3080.5,-0.5 2895.5,-0.5"/>
<text text-anchor="start" x="2903.5" y="-29.5" font-family="Helvetica,sans-Serif" font-size="10.00">/media/jvincent/Kingspec512</text>
<text text-anchor="start" x="2903.5" y="-18.5" font-family="Helvetica,sans-Serif" font-size="10.00">/repos/RADix&#45;OS/RADixKernel</text>
<text text-anchor="middle" x="2988" y="-7.5" font-family="Helvetica,sans-Serif" font-size="10.00">/headers/radixkernel/rad_overlay.h</text>
</a>
</g>
</g>
<!-- Node1&#45;&gt;Node17 -->
<g id="edge16" class="edge">
<title>Node1&#45;&gt;Node17</title>
<path fill="none" stroke="midnightblue" d="M2854.05,-74.75C2881.06,-64.11 2912.72,-51.65 2938.47,-41.51"/>
<polygon fill="midnightblue" stroke="midnightblue" points="2852.72,-71.51 2844.7,-78.43 2855.29,-78.02 2852.72,-71.51"/>
</g>
<!-- Node18 -->
<g id="node18" class="node">
<title>Node18</title>
<g id="a_node18"><a xlink:href="rad__posix_8h_source.html" target="_top" xlink:title=" ">
<polygon fill="white" stroke="black" points="3098,-0.5 3098,-41.5 3274,-41.5 3274,-0.5 3098,-0.5"/>
<text text-anchor="start" x="3106" y="-29.5" font-family="Helvetica,sans-Serif" font-size="10.00">/media/jvincent/Kingspec512</text>
<text text-anchor="start" x="3106" y="-18.5" font-family="Helvetica,sans-Serif" font-size="10.00">/repos/RADix&#45;OS/RADixKernel</text>
<text text-anchor="middle" x="3186" y="-7.5" font-family="Helvetica,sans-Serif" font-size="10.00">/headers/radixkernel/rad_posix.h</text>
</a>
</g>
</g>
<!-- Node1&#45;&gt;Node18 -->
<g id="edge17" class="edge">
<title>Node1&#45;&gt;Node18</title>
<path fill="none" stroke="midnightblue" d="M2896.84,-79.13C2953.72,-68.47 3025.85,-54.77 3090,-42 3092.59,-41.48 3095.21,-40.96 3097.87,-40.42"/>
<polygon fill="midnightblue" stroke="midnightblue" points="2895.95,-75.73 2886.77,-81.01 2897.24,-82.62 2895.95,-75.73"/>
</g>
<!-- Node19 -->
<g id="node19" class="node">
<title>Node19</title>
<g id="a_node19"><a xlink:href="rad__pty_8h_source.html" target="_top" xlink:title=" ">
<polygon fill="white" stroke="black" points="3292,-0.5 3292,-41.5 3456,-41.5 3456,-0.5 3292,-0.5"/>
<text text-anchor="start" x="3300" y="-29.5" font-family="Helvetica,sans-Serif" font-size="10.00">/media/jvincent/Kingspec512</text>
<text text-anchor="start" x="3300" y="-18.5" font-family="Helvetica,sans-Serif" font-size="10.00">/repos/RADix&#45;OS/RADixKernel</text>
<text text-anchor="middle" x="3374" y="-7.5" font-family="Helvetica,sans-Serif" font-size="10.00">/headers/radixkernel/rad_pty.h</text>
</a>
</g>
</g>
<!-- Node1&#45;&gt;Node19 -->
<g id="edge18" class="edge">
<title>Node1&#45;&gt;Node19</title>
<path fill="none" stroke="midnightblue" d="M2896.68,-89.38C2995.69,-80.27 3150.24,-64.15 3283,-42 3285.87,-41.52 3288.79,-41.01 3291.73,-40.48"/>
<polygon fill="midnightblue" stroke="midnightblue" points="2896.32,-85.9 2886.68,-90.29 2896.96,-92.87 2896.32,-85.9"/>
</g>
<!-- Node20 -->
<g id="node20" class="node">
<title>Node20</title>
<g id="a_node20"><a xlink:href="rad__service_8h_source.html" target="_top" xlink:title=" ">
<polygon fill="white" stroke="black" points="3474.5,-0.5 3474.5,-41.5 3659.5,-41.5 3659.5,-0.5 3474.5,-0.5"/>
<text text-anchor="start" x="3482.5" y="-29.5" font-family="Helvetica,sans-Serif" font-size="10.00">/media/jvincent/Kingspec512</text>
<text text-anchor="start" x="3482.5" y="-18.5" font-family="Helvetica,sans-Serif" font-size="10.00">/repos/RADix&#45;OS/RADixKernel</text>
<text text-anchor="middle" x="3567" y="-7.5" font-family="Helvetica,sans-Serif" font-size="10.00">/headers/radixkernel/rad_service.h</text>
</a>
</g>
</g>
<!-- Node1&#45;&gt;Node20 -->
<g id="edge19" class="edge">
<title>Node1&#45;&gt;Node20</title>
<path fill="none" stroke="midnightblue" d="M2896.73,-92.99C3028.36,-85.72 3264.58,-69.94 3465,-42 3468.04,-41.58 3471.12,-41.12 3474.23,-40.64"/>
<polygon fill="midnightblue" stroke="midnightblue" points="2896.45,-89.5 2886.66,-93.55 2896.83,-96.49 2896.45,-89.5"/>
</g>
<!-- Node21 -->
<g id="node21" class="node">
<title>Node21</title>
<g id="a_node21"><a xlink:href="rad__spi_8h_source.html" target="_top" xlink:title=" ">
<polygon fill="white" stroke="black" points="3678,-0.5 3678,-41.5 3842,-41.5 3842,-0.5 3678,-0.5"/>
<text text-anchor="start" x="3686" y="-29.5" font-family="Helvetica,sans-Serif" font-size="10.00">/media/jvincent/Kingspec512</text>
<text text-anchor="start" x="3686" y="-18.5" font-family="Helvetica,sans-Serif" font-size="10.00">/repos/RADix&#45;OS/RADixKernel</text>
<text text-anchor="middle" x="3760" y="-7.5" font-family="Helvetica,sans-Serif" font-size="10.00">/headers/radixkernel/rad_spi.h</text>
</a>
</g>
</g>
<!-- Node1&#45;&gt;Node21 -->
<g id="edge20" class="edge">
<title>Node1&#45;&gt;Node21</title>
<path fill="none" stroke="midnightblue" d="M2896.74,-96.5C3060.27,-92.96 3391.39,-81.17 3669,-42 3671.88,-41.59 3674.81,-41.14 3677.76,-40.66"/>
<polygon fill="midnightblue" stroke="midnightblue" points="2896.61,-93 2886.69,-96.71 2896.76,-100 2896.61,-93"/>
</g>
<!-- Node22 -->
<g id="node22" class="node">
<title>Node22</title>
<g id="a_node22"><a xlink:href="rad__task_8h_source.html" target="_top" xlink:title=" ">
<polygon fill="white" stroke="black" points="3860,-0.5 3860,-41.5 4030,-41.5 4030,-0.5 3860,-0.5"/>
<text text-anchor="start" x="3868" y="-29.5" font-family="Helvetica,sans-Serif" font-size="10.00">/media/jvincent/Kingspec512</text>
<text text-anchor="start" x="3868" y="-18.5" font-family="Helvetica,sans-Serif" font-size="10.00">/repos/RADix&#45;OS/RADixKernel</text>
<text text-anchor="middle" x="3945" y="-7.5" font-family="Helvetica,sans-Serif" font-size="10.00">/headers/radixkernel/rad_task.h</text>
</a>
</g>
</g>
<!-- Node1&#45;&gt;Node22 -->
<g id="edge21" class="edge">
<title>Node1&#45;&gt;Node22</title>
<path fill="none" stroke="midnightblue" d="M2896.74,-97.89C3085.62,-96.51 3502.94,-87.97 3851,-42 3853.89,-41.62 3856.83,-41.19 3859.8,-40.74"/>
<polygon fill="midnightblue" stroke="midnightblue" points="2896.53,-94.39 2886.55,-97.96 2896.57,-101.39 2896.53,-94.39"/>
</g>
<!-- Node23 -->
<g id="node23" class="node">
<title>Node23</title>
<g id="a_node23"><a xlink:href="rad__terminal_8h_source.html" target="_top" xlink:title=" ">
<polygon fill="white" stroke="black" points="4048.5,-0.5 4048.5,-41.5 4239.5,-41.5 4239.5,-0.5 4048.5,-0.5"/>
<text text-anchor="start" x="4056.5" y="-29.5" font-family="Helvetica,sans-Serif" font-size="10.00">/media/jvincent/Kingspec512</text>
<text text-anchor="start" x="4056.5" y="-18.5" font-family="Helvetica,sans-Serif" font-size="10.00">/repos/RADix&#45;OS/RADixKernel</text>
<text text-anchor="middle" x="4144" y="-7.5" font-family="Helvetica,sans-Serif" font-size="10.00">/headers/radixkernel/rad_terminal.h</text>
</a>
</g>
</g>
<!-- Node1&#45;&gt;Node23 -->
<g id="edge22" class="edge">
<title>Node1&#45;&gt;Node23</title>
<path fill="none" stroke="midnightblue" d="M2896.88,-98.34C3109.77,-97.97 3617,-91.43 4039,-42 4042.04,-41.64 4045.13,-41.25 4048.24,-40.83"/>
<polygon fill="midnightblue" stroke="midnightblue" points="2896.66,-94.84 2886.66,-98.35 2896.67,-101.84 2896.66,-94.84"/>
</g>
<!-- Node24 -->
<g id="node24" class="node">
<title>Node24</title>
<g id="a_node24"><a xlink:href="rad__time_8h_source.html" target="_top" xlink:title=" ">
<polygon fill="white" stroke="black" points="4258,-0.5 4258,-41.5 4430,-41.5 4430,-0.5 4258,-0.5"/>
<text text-anchor="start" x="4266" y="-29.5" font-family="Helvetica,sans-Serif" font-size="10.00">/media/jvincent/Kingspec512</text>
<text text-anchor="start" x="4266" y="-18.5" font-family="Helvetica,sans-Serif" font-size="10.00">/repos/RADix&#45;OS/RADixKernel</text>
<text text-anchor="middle" x="4344" y="-7.5" font-family="Helvetica,sans-Serif" font-size="10.00">/headers/radixkernel/rad_time.h</text>
</a>
</g>
</g>
<!-- Node1&#45;&gt;Node24 -->
<g id="edge23" class="edge">
<title>Node1&#45;&gt;Node24</title>
<path fill="none" stroke="midnightblue" d="M2896.86,-96.32C3182.41,-91.24 3986.8,-74.41 4249,-42 4251.93,-41.64 4254.9,-41.23 4257.89,-40.79"/>
<polygon fill="midnightblue" stroke="midnightblue" points="2896.45,-92.82 2886.52,-96.5 2896.58,-99.82 2896.45,-92.82"/>
</g>
<!-- Node25 -->
<g id="node25" class="node">
<title>Node25</title>
<g id="a_node25"><a xlink:href="rad__tree_8h_source.html" target="_top" xlink:title=" ">
<polygon fill="white" stroke="black" points="4448.5,-0.5 4448.5,-41.5 4617.5,-41.5 4617.5,-0.5 4448.5,-0.5"/>
<text text-anchor="start" x="4456.5" y="-29.5" font-family="Helvetica,sans-Serif" font-size="10.00">/media/jvincent/Kingspec512</text>
<text text-anchor="start" x="4456.5" y="-18.5" font-family="Helvetica,sans-Serif" font-size="10.00">/repos/RADix&#45;OS/RADixKernel</text>
<text text-anchor="middle" x="4533" y="-7.5" font-family="Helvetica,sans-Serif" font-size="10.00">/headers/radixkernel/rad_tree.h</text>
</a>
</g>
</g>
<!-- Node1&#45;&gt;Node25 -->
<g id="edge24" class="edge">
<title>Node1&#45;&gt;Node25</title>
<path fill="none" stroke="midnightblue" d="M2896.97,-96.87C3207.47,-93.06 4138.4,-78.81 4439,-42 4442.06,-41.62 4445.18,-41.2 4448.31,-40.73"/>
<polygon fill="midnightblue" stroke="midnightblue" points="2896.59,-93.38 2886.63,-97 2896.68,-100.38 2896.59,-93.38"/>
</g>
<!-- Node26 -->
<g id="node26" class="node">
<title>Node26</title>
<g id="a_node26"><a xlink:href="rad__tty_8h_source.html" target="_top" xlink:title=" ">
<polygon fill="white" stroke="black" points="4635.5,-0.5 4635.5,-41.5 4796.5,-41.5 4796.5,-0.5 4635.5,-0.5"/>
<text text-anchor="start" x="4643.5" y="-29.5" font-family="Helvetica,sans-Serif" font-size="10.00">/media/jvincent/Kingspec512</text>
<text text-anchor="start" x="4643.5" y="-18.5" font-family="Helvetica,sans-Serif" font-size="10.00">/repos/RADix&#45;OS/RADixKernel</text>
<text text-anchor="middle" x="4716" y="-7.5" font-family="Helvetica,sans-Serif" font-size="10.00">/headers/radixkernel/rad_tty.h</text>
</a>
</g>
</g>
<!-- Node1&#45;&gt;Node26 -->
<g id="edge25" class="edge">
<title>Node1&#45;&gt;Node26</title>
<path fill="none" stroke="midnightblue" d="M2896.71,-97.44C3230.17,-95.21 4288.28,-84.84 4627,-42 4629.67,-41.66 4632.38,-41.28 4635.11,-40.86"/>
<polygon fill="midnightblue" stroke="midnightblue" points="2896.56,-93.94 2886.58,-97.51 2896.61,-100.94 2896.56,-93.94"/>
</g>
<!-- Node27 -->
<g id="node27" class="node">
<title>Node27</title>
<g id="a_node27"><a xlink:href="rad__usb_8h_source.html" target="_top" xlink:title=" ">
<polygon fill="white" stroke="black" points="4814.5,-0.5 4814.5,-41.5 4981.5,-41.5 4981.5,-0.5 4814.5,-0.5"/>
<text text-anchor="start" x="4822.5" y="-29.5" font-family="Helvetica,sans-Serif" font-size="10.00">/media/jvincent/Kingspec512</text>
<text text-anchor="start" x="4822.5" y="-18.5" font-family="Helvetica,sans-Serif" font-size="10.00">/repos/RADix&#45;OS/RADixKernel</text>
<text text-anchor="middle" x="4898" y="-7.5" font-family="Helvetica,sans-Serif" font-size="10.00">/headers/radixkernel/rad_usb.h</text>
</a>
</g>
</g>
<!-- Node1&#45;&gt;Node27 -->
<g id="edge26" class="edge">
<title>Node1&#45;&gt;Node27</title>
<path fill="none" stroke="midnightblue" d="M2896.8,-97.67C3251.32,-96.13 4430.59,-87.63 4806,-42 4808.76,-41.66 4811.56,-41.29 4814.38,-40.87"/>
<polygon fill="midnightblue" stroke="midnightblue" points="2896.53,-94.17 2886.55,-97.71 2896.56,-101.17 2896.53,-94.17"/>
</g>
<!-- Node28 -->
<g id="node28" class="node">
<title>Node28</title>
<g id="a_node28"><a xlink:href="rad__vfs_8h_source.html" target="_top" xlink:title=" ">
<polygon fill="white" stroke="black" points="5000,-0.5 5000,-41.5 5164,-41.5 5164,-0.5 5000,-0.5"/>
<text text-anchor="start" x="5008" y="-29.5" font-family="Helvetica,sans-Serif" font-size="10.00">/media/jvincent/Kingspec512</text>
<text text-anchor="start" x="5008" y="-18.5" font-family="Helvetica,sans-Serif" font-size="10.00">/repos/RADix&#45;OS/RADixKernel</text>
<text text-anchor="middle" x="5082" y="-7.5" font-family="Helvetica,sans-Serif" font-size="10.00">/headers/radixkernel/rad_vfs.h</text>
</a>
</g>
</g>
<!-- Node1&#45;&gt;Node28 -->
<g id="edge27" class="edge">
<title>Node1&#45;&gt;Node28</title>
<path fill="none" stroke="midnightblue" d="M2896.53,-97.98C3271.45,-97.51 4577.61,-92.23 4991,-42 4993.89,-41.65 4996.82,-41.25 4999.78,-40.81"/>
<polygon fill="midnightblue" stroke="midnightblue" points="2896.5,-94.48 2886.51,-97.99 2896.51,-101.48 2896.5,-94.48"/>
</g>
<!-- Node29 -->
<g id="node29" class="node">
<title>Node29</title>
<g id="a_node29"><a xlink:href="radboot_8h.html" target="_top" xlink:title="Helpers for constructing rad_boot_info_t records during platform handoff.">
<polygon fill="white" stroke="black" points="5182.5,-0.5 5182.5,-41.5 5343.5,-41.5 5343.5,-0.5 5182.5,-0.5"/>
<text text-anchor="start" x="5190.5" y="-29.5" font-family="Helvetica,sans-Serif" font-size="10.00">/media/jvincent/Kingspec512</text>
<text text-anchor="start" x="5190.5" y="-18.5" font-family="Helvetica,sans-Serif" font-size="10.00">/repos/RADix&#45;OS/RADixKernel</text>
<text text-anchor="middle" x="5263" y="-7.5" font-family="Helvetica,sans-Serif" font-size="10.00">/boot/radboot.h</text>
</a>
</g>
</g>
<!-- Node1&#45;&gt;Node29 -->
<g id="edge28" class="edge">
<title>Node1&#45;&gt;Node29</title>
<path fill="none" stroke="midnightblue" d="M2896.84,-98.25C3291.75,-98.79 4722.35,-96.85 5173,-42 5176.02,-41.63 5179.09,-41.21 5182.18,-40.74"/>
<polygon fill="midnightblue" stroke="midnightblue" points="2896.58,-94.75 2886.58,-98.23 2896.57,-101.75 2896.58,-94.75"/>
</g>
<!-- Node30 -->
<g id="node30" class="node">
<title>Node30</title>
<g id="a_node30"><a xlink:href="radixkernel__a53_8h_source.html" target="_top" xlink:title=" ">
<polygon fill="white" stroke="black" points="5362,-0.5 5362,-41.5 5540,-41.5 5540,-0.5 5362,-0.5"/>
<text text-anchor="start" x="5370" y="-29.5" font-family="Helvetica,sans-Serif" font-size="10.00">/media/jvincent/Kingspec512</text>
<text text-anchor="start" x="5370" y="-18.5" font-family="Helvetica,sans-Serif" font-size="10.00">/repos/RADix&#45;OS/RADixKernel</text>
<text text-anchor="middle" x="5451" y="-7.5" font-family="Helvetica,sans-Serif" font-size="10.00">/platforms/a53/radixkernel_a53.h</text>
</a>
</g>
</g>
<!-- Node1&#45;&gt;Node30 -->
<g id="edge29" class="edge">
<title>Node1&#45;&gt;Node30</title>
<path fill="none" stroke="midnightblue" d="M2896.83,-98.21C3310.3,-98.69 4864.74,-96.72 5353,-42 5355.93,-41.67 5358.91,-41.3 5361.91,-40.89"/>
<polygon fill="midnightblue" stroke="midnightblue" points="2896.69,-94.71 2886.69,-98.2 2896.68,-101.71 2896.69,-94.71"/>
</g>
</g>
</svg>
