<?xml version="1.0" encoding="UTF-8" standalone="no"?>
<!DOCTYPE svg PUBLIC "-//W3C//DTD SVG 1.1//EN"
 "http://www.w3.org/Graphics/SVG/1.1/DTD/svg11.dtd">
<!-- Generated by graphviz version 2.43.0 (0)
 -->
<!-- Title: /media/jvincent/Kingspec512/repos/RADix&#45;OS/RADixKernel/boot Pages: 1 -->
<svg width="101pt" height="167pt"
 viewBox="0.00 0.00 101.00 167.00" xmlns="http://www.w3.org/2000/svg" xmlns:xlink="http://www.w3.org/1999/xlink">
<g id="graph0" class="graph" transform="scale(1 1) rotate(0) translate(4 163)">
<title>/media/jvincent/Kingspec512/repos/RADix&#45;OS/RADixKernel/boot</title>
<polygon fill="white" stroke="transparent" points="-4,4 -4,-163 97,-163 97,4 -4,4"/>
<g id="clust1" class="cluster">
<title>clusterdir_c6ea6a2c6f18e288f8a52f2b5881a08c</title>
<g id="a_clust1"><a xlink:href="dir_c6ea6a2c6f18e288f8a52f2b5881a08c.html" target="_top" xlink:title="RADixKernel">
<polygon fill="#ddddee" stroke="black" points="8,-8 8,-151 85,-151 85,-8 8,-8"/>
<text text-anchor="middle" x="46.5" y="-139" font-family="Helvetica,sans-Serif" font-size="10.00">RADixKernel</text>
</a>
</g>
</g>
<!-- dir_d139445b9618bc029f90a26cd49e9c06 -->
<g id="node1" class="node">
<title>dir_d139445b9618bc029f90a26cd49e9c06</title>
<g id="a_node1"><a xlink:href="dir_d139445b9618bc029f90a26cd49e9c06.html" target="_top" xlink:title="headers">
<polygon fill="white" stroke="red" points="74,-52 18,-52 18,-16 74,-16 74,-52"/>
<text text-anchor="middle" x="46" y="-31.5" font-family="Helvetica,sans-Serif" font-size="10.00">headers</text>
</a>
</g>
</g>
<!-- dir_e71d2c5dab3b5ff0864964e95174a67b -->
<g id="node2" class="node">
<title>dir_e71d2c5dab3b5ff0864964e95174a67b</title>
<g id="a_node2"><a xlink:href="dir_e71d2c5dab3b5ff0864964e95174a67b.html" target="_top" xlink:title="boot">
<polygon fill="#eeeeff" stroke="black" points="73,-124 19,-124 19,-88 73,-88 73,-124"/>
<text text-anchor="middle" x="46" y="-103.5" font-family="Helvetica,sans-Serif" font-size="10.00">boot</text>
</a>
</g>
</g>
<!-- dir_e71d2c5dab3b5ff0864964e95174a67b&#45;&gt;dir_d139445b9618bc029f90a26cd49e9c06 -->
<g id="edge1" class="edge">
<title>dir_e71d2c5dab3b5ff0864964e95174a67b&#45;&gt;dir_d139445b9618bc029f90a26cd49e9c06</title>
<path fill="none" stroke="black" d="M46,-87.7C46,-79.98 46,-70.71 46,-62.11"/>
<polygon fill="black" stroke="black" points="49.5,-62.1 46,-52.1 42.5,-62.1 49.5,-62.1"/>
<g id="a_edge1&#45;headlabel"><a xlink:href="dir_000004_000005.html" target="_top" xlink:title="1">
<text text-anchor="middle" x="52.34" y="-63.2" font-family="Helvetica,sans-Serif" font-size="10.00">1</text>
</a>
</g>
</g>
</g>
</svg>
