<?xml version="1.0" encoding="UTF-8" standalone="no"?>
<!DOCTYPE svg PUBLIC "-//W3C//DTD SVG 1.1//EN"
 "http://www.w3.org/Graphics/SVG/1.1/DTD/svg11.dtd">
<!-- Generated by graphviz version 2.43.0 (0)
 -->
<!-- Title: /media/jvincent/Kingspec512/repos/RADix&#45;OS/RADixKernel/headers/radixkernel/radixkernel.h Pages: 1 -->
<svg width="6626pt" height="128pt"
 viewBox="0.00 0.00 6625.50 128.00" xmlns="http://www.w3.org/2000/svg" xmlns:xlink="http://www.w3.org/1999/xlink">
<g id="graph0" class="graph" transform="scale(1 1) rotate(0) translate(4 124)">
<title>/media/jvincent/Kingspec512/repos/RADix&#45;OS/RADixKernel/headers/radixkernel/radixkernel.h</title>
<polygon fill="white" stroke="transparent" points="-4,4 -4,-124 6621.5,-124 6621.5,4 -4,4"/>
<!-- Node1 -->
<g id="node1" class="node">
<title>Node1</title>
<g id="a_node1"><a xlink:title="Portable RADix kernel service ABI for RADLib and RADix&#45;OS targets.">
<polygon fill="#bfbfbf" stroke="black" points="3282.5,-78.5 3282.5,-119.5 3465.5,-119.5 3465.5,-78.5 3282.5,-78.5"/>
<text text-anchor="start" x="3290.5" y="-107.5" font-family="Helvetica,sans-Serif" font-size="10.00">/media/jvincent/Kingspec512</text>
<text text-anchor="start" x="3290.5" y="-96.5" font-family="Helvetica,sans-Serif" font-size="10.00">/repos/RADix&#45;OS/RADixKernel</text>
<text text-anchor="middle" x="3374" y="-85.5" font-family="Helvetica,sans-Serif" font-size="10.00">/headers/radixkernel/radixkernel.h</text>
</a>
</g>
</g>
<!-- Node2 -->
<g id="node2" class="node">
<title>Node2</title>
<g id="a_node2"><a xlink:href="rad__audio_8h_source.html" target="_top" xlink:title=" ">
<polygon fill="white" stroke="black" points="0,-0.5 0,-41.5 176,-41.5 176,-0.5 0,-0.5"/>
<text text-anchor="start" x="8" y="-29.5" font-family="Helvetica,sans-Serif" font-size="10.00">/media/jvincent/Kingspec512</text>
<text text-anchor="start" x="8" y="-18.5" font-family="Helvetica,sans-Serif" font-size="10.00">/repos/RADix&#45;OS/RADixKernel</text>
<text text-anchor="middle" x="88" y="-7.5" font-family="Helvetica,sans-Serif" font-size="10.00">/headers/radixkernel/rad_audio.h</text>
</a>
</g>
</g>
<!-- Node1&#45;&gt;Node2 -->
<g id="edge1" class="edge">
<title>Node1&#45;&gt;Node2</title>
<path fill="none" stroke="midnightblue" d="M3272.11,-97.34C2761.94,-93.87 497.24,-76.63 185,-42 182.09,-41.68 179.15,-41.31 176.18,-40.9"/>
<polygon fill="midnightblue" stroke="midnightblue" points="3272.37,-100.84 3282.39,-97.41 3272.42,-93.84 3272.37,-100.84"/>
</g>
<!-- Node3 -->
<g id="node3" class="node">
<title>Node3</title>
<g id="a_node3"><a xlink:href="rad__block_8h_source.html" target="_top" xlink:title=" ">
<polygon fill="white" stroke="black" points="194,-0.5 194,-41.5 370,-41.5 370,-0.5 194,-0.5"/>
<text text-anchor="start" x="202" y="-29.5" font-family="Helvetica,sans-Serif" font-size="10.00">/media/jvincent/Kingspec512</text>
<text text-anchor="start" x="202" y="-18.5" font-family="Helvetica,sans-Serif" font-size="10.00">/repos/RADix&#45;OS/RADixKernel</text>
<text text-anchor="middle" x="282" y="-7.5" font-family="Helvetica,sans-Serif" font-size="10.00">/headers/radixkernel/rad_block.h</text>
</a>
</g>
</g>
<!-- Node1&#45;&gt;Node3 -->
<g id="edge2" class="edge">
<title>Node1&#45;&gt;Node3</title>
<path fill="none" stroke="midnightblue" d="M3271.93,-97.22C2780.51,-93.34 670.02,-74.86 378,-42 375.38,-41.7 372.72,-41.37 370.04,-41.01"/>
<polygon fill="midnightblue" stroke="midnightblue" points="3272.16,-100.73 3282.19,-97.31 3272.22,-93.73 3272.16,-100.73"/>
</g>
<!-- Node4 -->
<g id="node4" class="node">
<title>Node4</title>
<g id="a_node4"><a xlink:href="rad__cpp_8h.html" target="_top" xlink:title="Small C++ convenience wrappers over the RADix&#45;OS C kernel ABI.">
<polygon fill="white" stroke="black" points="387.5,-0.5 387.5,-41.5 554.5,-41.5 554.5,-0.5 387.5,-0.5"/>
<text text-anchor="start" x="395.5" y="-29.5" font-family="Helvetica,sans-Serif" font-size="10.00">/media/jvincent/Kingspec512</text>
<text text-anchor="start" x="395.5" y="-18.5" font-family="Helvetica,sans-Serif" font-size="10.00">/repos/RADix&#45;OS/RADixKernel</text>
<text text-anchor="middle" x="471" y="-7.5" font-family="Helvetica,sans-Serif" font-size="10.00">/headers/radixkernel/rad_cpp.h</text>
</a>
</g>
</g>
<!-- Node1&#45;&gt;Node4 -->
<g id="edge3" class="edge">
<title>Node1&#45;&gt;Node4</title>
<path fill="none" stroke="midnightblue" d="M3272.14,-97.13C2800.08,-92.94 836.59,-73.73 564,-42 560.88,-41.64 557.72,-41.22 554.53,-40.75"/>
<polygon fill="midnightblue" stroke="midnightblue" points="3272.31,-100.63 3282.34,-97.22 3272.37,-93.63 3272.31,-100.63"/>
</g>
<!-- Node5 -->
<g id="node5" class="node">
<title>Node5</title>
<g id="a_node5"><a xlink:href="rad__device_8h_source.html" target="_top" xlink:title=" ">
<polygon fill="white" stroke="black" points="573,-0.5 573,-41.5 755,-41.5 755,-0.5 573,-0.5"/>
<text text-anchor="start" x="581" y="-29.5" font-family="Helvetica,sans-Serif" font-size="10.00">/media/jvincent/Kingspec512</text>
<text text-anchor="start" x="581" y="-18.5" font-family="Helvetica,sans-Serif" font-size="10.00">/repos/RADix&#45;OS/RADixKernel</text>
<text text-anchor="middle" x="664" y="-7.5" font-family="Helvetica,sans-Serif" font-size="10.00">/headers/radixkernel/rad_device.h</text>
</a>
</g>
</g>
<!-- Node1&#45;&gt;Node5 -->
<g id="edge4" class="edge">
<title>Node1&#45;&gt;Node5</title>
<path fill="none" stroke="midnightblue" d="M3272.22,-98.21C2853.6,-98.7 1263.14,-96.84 764,-42 761.1,-41.68 758.15,-41.32 755.18,-40.92"/>
<polygon fill="midnightblue" stroke="midnightblue" points="3272.49,-101.71 3282.49,-98.2 3272.48,-94.71 3272.49,-101.71"/>
</g>
<!-- Node6 -->
<g id="node6" class="node">
<title>Node6</title>
<g id="a_node6"><a xlink:href="rad__display_8h_source.html" target="_top" xlink:title=" ">
<polygon fill="white" stroke="black" points="773.5,-0.5 773.5,-41.5 956.5,-41.5 956.5,-0.5 773.5,-0.5"/>
<text text-anchor="start" x="781.5" y="-29.5" font-family="Helvetica,sans-Serif" font-size="10.00">/media/jvincent/Kingspec512</text>
<text text-anchor="start" x="781.5" y="-18.5" font-family="Helvetica,sans-Serif" font-size="10.00">/repos/RADix&#45;OS/RADixKernel</text>
<text text-anchor="middle" x="865" y="-7.5" font-family="Helvetica,sans-Serif" font-size="10.00">/headers/radixkernel/rad_display.h</text>
</a>
</g>
</g>
<!-- Node1&#45;&gt;Node6 -->
<g id="edge5" class="edge">
<title>Node1&#45;&gt;Node6</title>
<path fill="none" stroke="midnightblue" d="M3272.18,-98C2874.1,-97.61 1422.59,-92.69 965,-42 962.27,-41.7 959.51,-41.36 956.72,-40.99"/>
<polygon fill="midnightblue" stroke="midnightblue" points="3272.23,-101.5 3282.23,-98 3272.24,-94.5 3272.23,-101.5"/>
</g>
<!-- Node7 -->
<g id="node7" class="node">
<title>Node7</title>
<g id="a_node7"><a xlink:href="rad__dma_8h_source.html" target="_top" xlink:title=" ">
<polygon fill="white" stroke="black" points="974.5,-0.5 974.5,-41.5 1145.5,-41.5 1145.5,-0.5 974.5,-0.5"/>
<text text-anchor="start" x="982.5" y="-29.5" font-family="Helvetica,sans-Serif" font-size="10.00">/media/jvincent/Kingspec512</text>
<text text-anchor="start" x="982.5" y="-18.5" font-family="Helvetica,sans-Serif" font-size="10.00">/repos/RADix&#45;OS/RADixKernel</text>
<text text-anchor="middle" x="1060" y="-7.5" font-family="Helvetica,sans-Serif" font-size="10.00">/headers/radixkernel/rad_dma.h</text>
</a>
</g>
</g>
<!-- Node1&#45;&gt;Node7 -->
<g id="edge6" class="edge">
<title>Node1&#45;&gt;Node7</title>
<path fill="none" stroke="midnightblue" d="M3272.34,-97.92C2894.64,-97.26 1572.44,-91.36 1154,-42 1151.27,-41.68 1148.49,-41.31 1145.7,-40.91"/>
<polygon fill="midnightblue" stroke="midnightblue" points="3272.42,-101.42 3282.43,-97.94 3272.44,-94.42 3272.42,-101.42"/>
</g>
<!-- Node8 -->
<g id="node8" class="node">
<title>Node8</title>
<g id="a_node8"><a xlink:href="rad__event_8h_source.html" target="_top" xlink:title=" ">
<polygon fill="white" stroke="black" points="1163.5,-0.5 1163.5,-41.5 1340.5,-41.5 1340.5,-0.5 1163.5,-0.5"/>
<text text-anchor="start" x="1171.5" y="-29.5" font-family="Helvetica,sans-Serif" font-size="10.00">/media/jvincent/Kingspec512</text>
<text text-anchor="start" x="1171.5" y="-18.5" font-family="Helvetica,sans-Serif" font-size="10.00">/repos/RADix&#45;OS/RADixKernel</text>
<text text-anchor="middle" x="1252" y="-7.5" font-family="Helvetica,sans-Serif" font-size="10.00">/headers/radixkernel/rad_event.h</text>
</a>
</g>
</g>
<!-- Node1&#45;&gt;Node8 -->
<g id="edge7" class="edge">
<title>Node1&#45;&gt;Node8</title>
<path fill="none" stroke="midnightblue" d="M3272.44,-97.52C2916.76,-95.49 1728.43,-85.52 1350,-42 1346.89,-41.64 1343.74,-41.24 1340.56,-40.79"/>
<polygon fill="midnightblue" stroke="midnightblue" points="3272.45,-101.02 3282.47,-97.58 3272.49,-94.02 3272.45,-101.02"/>
</g>
<!-- Node9 -->
<g id="node9" class="node">
<title>Node9</title>
<g id="a_node9"><a xlink:href="rad__i2c_8h_source.html" target="_top" xlink:title=" ">
<polygon fill="white" stroke="black" points="1359,-0.5 1359,-41.5 1523,-41.5 1523,-0.5 1359,-0.5"/>
<text text-anchor="start" x="1367" y="-29.5" font-family="Helvetica,sans-Serif" font-size="10.00">/media/jvincent/Kingspec512</text>
<text text-anchor="start" x="1367" y="-18.5" font-family="Helvetica,sans-Serif" font-size="10.00">/repos/RADix&#45;OS/RADixKernel</text>
<text text-anchor="middle" x="1441" y="-7.5" font-family="Helvetica,sans-Serif" font-size="10.00">/headers/radixkernel/rad_i2c.h</text>
</a>
</g>
</g>
<!-- Node1&#45;&gt;Node9 -->
<g id="edge8" class="edge">
<title>Node1&#45;&gt;Node9</title>
<path fill="none" stroke="midnightblue" d="M3272.32,-97.4C2937.71,-95.03 1872.87,-84.27 1532,-42 1529.11,-41.64 1526.18,-41.23 1523.22,-40.79"/>
<polygon fill="midnightblue" stroke="midnightblue" points="3272.46,-100.9 3282.48,-97.47 3272.51,-93.9 3272.46,-100.9"/>
</g>
<!-- Node10 -->
<g id="node10" class="node">
<title>Node10</title>
<g id="a_node10"><a xlink:href="rad__input_8h_source.html" target="_top" xlink:title=" ">
<polygon fill="white" stroke="black" points="1541,-0.5 1541,-41.5 1715,-41.5 1715,-0.5 1541,-0.5"/>
<text text-anchor="start" x="1549" y="-29.5" font-family="Helvetica,sans-Serif" font-size="10.00">/media/jvincent/Kingspec512</text>
<text text-anchor="start" x="1549" y="-18.5" font-family="Helvetica,sans-Serif" font-size="10.00">/repos/RADix&#45;OS/RADixKernel</text>
<text text-anchor="middle" x="1628" y="-7.5" font-family="Helvetica,sans-Serif" font-size="10.00">/headers/radixkernel/rad_input.h</text>
</a>
</g>
</g>
<!-- Node1&#45;&gt;Node10 -->
<g id="edge9" class="edge">
<title>Node1&#45;&gt;Node10</title>
<path fill="none" stroke="midnightblue" d="M3271.93,-96.83C2960.59,-92.89 2025.87,-78.29 1724,-42 1721.04,-41.64 1718.04,-41.24 1715.01,-40.81"/>
<polygon fill="midnightblue" stroke="midnightblue" points="3272.26,-100.33 3282.3,-96.96 3272.34,-93.33 3272.26,-100.33"/>
</g>
<!-- Node11 -->
<g id="node11" class="node">
<title>Node11</title>
<g id="a_node11"><a xlink:href="rad__ioctl_8h_source.html" target="_top" xlink:title=" ">
<polygon fill="white" stroke="black" points="1733,-0.5 1733,-41.5 1903,-41.5 1903,-0.5 1733,-0.5"/>
<text text-anchor="start" x="1741" y="-29.5" font-family="Helvetica,sans-Serif" font-size="10.00">/media/jvincent/Kingspec512</text>
<text text-anchor="start" x="1741" y="-18.5" font-family="Helvetica,sans-Serif" font-size="10.00">/repos/RADix&#45;OS/RADixKernel</text>
<text text-anchor="middle" x="1818" y="-7.5" font-family="Helvetica,sans-Serif" font-size="10.00">/headers/radixkernel/rad_ioctl.h</text>
</a>
</g>
</g>
<!-- Node1&#45;&gt;Node11 -->
<g id="edge10" class="edge">
<title>Node1&#45;&gt;Node11</title>
<path fill="none" stroke="midnightblue" d="M3272.08,-96.37C2985.4,-91.42 2175.76,-74.87 1912,-42 1909.1,-41.64 1906.16,-41.23 1903.2,-40.79"/>
<polygon fill="midnightblue" stroke="midnightblue" points="3272.41,-99.88 3282.47,-96.55 3272.53,-92.88 3272.41,-99.88"/>
</g>
<!-- Node12 -->
<g id="node12" class="node">
<title>Node12</title>
<g id="a_node12"><a xlink:href="rad__irq_8h_source.html" target="_top" xlink:title=" ">
<polygon fill="white" stroke="black" points="1921,-0.5 1921,-41.5 2083,-41.5 2083,-0.5 1921,-0.5"/>
<text text-anchor="start" x="1929" y="-29.5" font-family="Helvetica,sans-Serif" font-size="10.00">/media/jvincent/Kingspec512</text>
<text text-anchor="start" x="1929" y="-18.5" font-family="Helvetica,sans-Serif" font-size="10.00">/repos/RADix&#45;OS/RADixKernel</text>
<text text-anchor="middle" x="2002" y="-7.5" font-family="Helvetica,sans-Serif" font-size="10.00">/headers/radixkernel/rad_irq.h</text>
</a>
</g>
</g>
<!-- Node1&#45;&gt;Node12 -->
<g id="edge11" class="edge">
<title>Node1&#45;&gt;Node12</title>
<path fill="none" stroke="midnightblue" d="M3271.95,-95.85C3010.15,-89.96 2319.36,-71.99 2092,-42 2089.14,-41.62 2086.24,-41.2 2083.32,-40.74"/>
<polygon fill="midnightblue" stroke="midnightblue" points="3272.13,-99.35 3282.21,-96.08 3272.29,-92.36 3272.13,-99.35"/>
</g>
<!-- Node13 -->
<g id="node13" class="node">
<title>Node13</title>
<g id="a_node13"><a xlink:href="rad__memory_8h_source.html" target="_top" xlink:title=" ">
<polygon fill="white" stroke="black" points="2101.5,-0.5 2101.5,-41.5 2290.5,-41.5 2290.5,-0.5 2101.5,-0.5"/>
<text text-anchor="start" x="2109.5" y="-29.5" font-family="Helvetica,sans-Serif" font-size="10.00">/media/jvincent/Kingspec512</text>
<text text-anchor="start" x="2109.5" y="-18.5" font-family="Helvetica,sans-Serif" font-size="10.00">/repos/RADix&#45;OS/RADixKernel</text>
<text text-anchor="middle" x="2196" y="-7.5" font-family="Helvetica,sans-Serif" font-size="10.00">/headers/radixkernel/rad_memory.h</text>
</a>
</g>
</g>
<!-- Node1&#45;&gt;Node13 -->
<g id="edge12" class="edge">
<title>Node1&#45;&gt;Node13</title>
<path fill="none" stroke="midnightblue" d="M3272.37,-97.36C3081.25,-95.12 2655.53,-85.24 2300,-42 2296.9,-41.62 2293.75,-41.21 2290.57,-40.76"/>
<polygon fill="midnightblue" stroke="midnightblue" points="3272.36,-100.86 3282.4,-97.47 3272.44,-93.86 3272.36,-100.86"/>
</g>
<!-- Node14 -->
<g id="node14" class="node">
<title>Node14</title>
<g id="a_node14"><a xlink:href="rad__module_8h_source.html" target="_top" xlink:title=" ">
<polygon fill="white" stroke="black" points="2309,-0.5 2309,-41.5 2495,-41.5 2495,-0.5 2309,-0.5"/>
<text text-anchor="start" x="2317" y="-29.5" font-family="Helvetica,sans-Serif" font-size="10.00">/media/jvincent/Kingspec512</text>
<text text-anchor="start" x="2317" y="-18.5" font-family="Helvetica,sans-Serif" font-size="10.00">/repos/RADix&#45;OS/RADixKernel</text>
<text text-anchor="middle" x="2402" y="-7.5" font-family="Helvetica,sans-Serif" font-size="10.00">/headers/radixkernel/rad_module.h</text>
</a>
</g>
</g>
<!-- Node1&#45;&gt;Node14 -->
<g id="edge13" class="edge">
<title>Node1&#45;&gt;Node14</title>
<path fill="none" stroke="midnightblue" d="M3272.18,-95.71C3109.31,-91.09 2780.4,-77.84 2504,-42 2501.05,-41.62 2498.05,-41.2 2495.03,-40.76"/>
<polygon fill="midnightblue" stroke="midnightblue" points="3272.09,-99.21 3282.19,-95.99 3272.29,-92.21 3272.09,-99.21"/>
</g>
<!-- Node15 -->
<g id="node15" class="node">
<title>Node15</title>
<g id="a_node15"><a xlink:href="rad__mutex_8h_source.html" target="_top" xlink:title=" ">
<polygon fill="white" stroke="black" points="2513.5,-0.5 2513.5,-41.5 2694.5,-41.5 2694.5,-0.5 2513.5,-0.5"/>
<text text-anchor="start" x="2521.5" y="-29.5" font-family="Helvetica,sans-Serif" font-size="10.00">/media/jvincent/Kingspec512</text>
<text text-anchor="start" x="2521.5" y="-18.5" font-family="Helvetica,sans-Serif" font-size="10.00">/repos/RADix&#45;OS/RADixKernel</text>
<text text-anchor="middle" x="2604" y="-7.5" font-family="Helvetica,sans-Serif" font-size="10.00">/headers/radixkernel/rad_mutex.h</text>
</a>
</g>
</g>
<!-- Node1&#45;&gt;Node15 -->
<g id="edge14" class="edge">
<title>Node1&#45;&gt;Node15</title>
<path fill="none" stroke="midnightblue" d="M3272.37,-93.2C3140.57,-86.13 2903.77,-70.56 2703,-42 2700.22,-41.6 2697.41,-41.18 2694.56,-40.73"/>
<polygon fill="midnightblue" stroke="midnightblue" points="3272.28,-96.7 3282.46,-93.73 3272.66,-89.71 3272.28,-96.7"/>
</g>
<!-- Node16 -->
<g id="node16" class="node">
<title>Node16</title>
<g id="a_node16"><a xlink:href="rad__net_8h_source.html" target="_top" xlink:title=" ">
<polygon fill="white" stroke="black" points="2712.5,-0.5 2712.5,-41.5 2877.5,-41.5 2877.5,-0.5 2712.5,-0.5"/>
<text text-anchor="start" x="2720.5" y="-29.5" font-family="Helvetica,sans-Serif" font-size="10.00">/media/jvincent/Kingspec512</text>
<text text-anchor="start" x="2720.5" y="-18.5" font-family="Helvetica,sans-Serif" font-size="10.00">/repos/RADix&#45;OS/RADixKernel</text>
<text text-anchor="middle" x="2795" y="-7.5" font-family="Helvetica,sans-Serif" font-size="10.00">/headers/radixkernel/rad_net.h</text>
</a>
</g>
</g>
<!-- Node1&#45;&gt;Node16 -->
<g id="edge15" class="edge">
<title>Node1&#45;&gt;Node16</title>
<path fill="none" stroke="midnightblue" d="M3272.32,-89.38C3173.31,-80.27 3018.76,-64.15 2886,-42 2883.29,-41.55 2880.53,-41.07 2877.76,-40.56"/>
<polygon fill="midnightblue" stroke="midnightblue" points="3272.04,-92.87 3282.32,-90.29 3272.68,-85.9 3272.04,-92.87"/>
</g>
<!-- Node17 -->
<g id="node17" class="node">
<title>Node17</title>
<g id="a_node17"><a xlink:href="rad__overlay_8h_source.html" target="_top" xlink:title=" ">
<polygon fill="white" stroke="black" points="2895.5,-0.5 2895.5,-41.5 3080.5,-41.5 3080.5,-0.5 2895.5,-0.5"/>
<text text-anchor="start" x="2903.5" y="-29.5" font-family="Helvetica,sans-Serif" font-size="10.00">/media/jvincent/Kingspec512</text>
<text text-anchor="start" x="2903.5" y="-18.5" font-family="Helvetica,sans-Serif" font-size="10.00">/repos/RADix&#45;OS/RADixKernel</text>
<text text-anchor="middle" x="2988" y="-7.5" font-family="Helvetica,sans-Serif" font-size="10.00">/headers/radixkernel/rad_overlay.h</text>
</a>
</g>
</g>
<!-- Node1&#45;&gt;Node17 -->
<g id="edge16" class="edge">
<title>Node1&#45;&gt;Node17</title>
<path fill="none" stroke="midnightblue" d="M3272.23,-78.04C3217.86,-67.37 3149.78,-53.99 3089,-42 3086.28,-41.46 3083.52,-40.92 3080.74,-40.37"/>
<polygon fill="midnightblue" stroke="midnightblue" points="3271.74,-81.51 3282.22,-80 3273.08,-74.64 3271.74,-81.51"/>
</g>
<!-- Node18 -->
<g id="node18" class="node">
<title>Node18</title>
<g id="a_node18"><a xlink:href="rad__posix_8h_source.html" target="_top" xlink:title=" ">
<polygon fill="white" stroke="black" points="3098,-0.5 3098,-41.5 3274,-41.5 3274,-0.5 3098,-0.5"/>
<text text-anchor="start" x="3106" y="-29.5" font-family="Helvetica,sans-Serif" font-size="10.00">/media/jvincent/Kingspec512</text>
<text text-anchor="start" x="3106" y="-18.5" font-family="Helvetica,sans-Serif" font-size="10.00">/repos/RADix&#45;OS/RADixKernel</text>
<text text-anchor="middle" x="3186" y="-7.5" font-family="Helvetica,sans-Serif" font-size="10.00">/headers/radixkernel/rad_posix.h</text>
</a>
</g>
</g>
<!-- Node1&#45;&gt;Node18 -->
<g id="edge17" class="edge">
<title>Node1&#45;&gt;Node18</title>
<path fill="none" stroke="midnightblue" d="M3316.14,-74.61C3289.9,-64 3259.22,-51.6 3234.25,-41.51"/>
<polygon fill="midnightblue" stroke="midnightblue" points="3315,-77.93 3325.59,-78.43 3317.63,-71.44 3315,-77.93"/>
</g>
<!-- Node19 -->
<g id="node19" class="node">
<title>Node19</title>
<g id="a_node19"><a xlink:href="rad__pty_8h_source.html" target="_top" xlink:title=" ">
<polygon fill="white" stroke="black" points="3292,-0.5 3292,-41.5 3456,-41.5 3456,-0.5 3292,-0.5"/>
<text text-anchor="start" x="3300" y="-29.5" font-family="Helvetica,sans-Serif" font-size="10.00">/media/jvincent/Kingspec512</text>
<text text-anchor="start" x="3300" y="-18.5" font-family="Helvetica,sans-Serif" font-size="10.00">/repos/RADix&#45;OS/RADixKernel</text>
<text text-anchor="middle" x="3374" y="-7.5" font-family="Helvetica,sans-Serif" font-size="10.00">/headers/radixkernel/rad_pty.h</text>
</a>
</g>
</g>
<!-- Node1&#45;&gt;Node19 -->
<g id="edge18" class="edge">
<title>Node1&#45;&gt;Node19</title>
<path fill="none" stroke="midnightblue" d="M3374,-68.3C3374,-59.3 3374,-49.65 3374,-41.51"/>
<polygon fill="midnightblue" stroke="midnightblue" points="3370.5,-68.43 3374,-78.43 3377.5,-68.43 3370.5,-68.43"/>
</g>
<!-- Node20 -->
<g id="node20" class="node">
<title>Node20</title>
<g id="a_node20"><a xlink:href="rad__service_8h_source.html" target="_top" xlink:title=" ">
<polygon fill="white" stroke="black" points="3474.5,-0.5 3474.5,-41.5 3659.5,-41.5 3659.5,-0.5 3474.5,-0.5"/>
<text text-anchor="start" x="3482.5" y="-29.5" font-family="Helvetica,sans-Serif" font-size="10.00">/media/jvincent/Kingspec512</text>
<text text-anchor="start" x="3482.5" y="-18.5" font-family="Helvetica,sans-Serif" font-size="10.00">/repos/RADix&#45;OS/RADixKernel</text>
<text text-anchor="middle" x="3567" y="-7.5" font-family="Helvetica,sans-Serif" font-size="10.00">/headers/radixkernel/rad_service.h</text>
</a>
</g>
</g>
<!-- Node1&#45;&gt;Node20 -->
<g id="edge19" class="edge">
<title>Node1&#45;&gt;Node20</title>
<path fill="none" stroke="midnightblue" d="M3433.05,-74.75C3460.06,-64.11 3491.72,-51.65 3517.47,-41.51"/>
<polygon fill="midnightblue" stroke="midnightblue" points="3431.72,-71.51 3423.7,-78.43 3434.29,-78.02 3431.72,-71.51"/>
</g>
<!-- Node21 -->
<g id="node21" class="node">
<title>Node21</title>
<g id="a_node21"><a xlink:href="rad__spi_8h_source.html" target="_top" xlink:title=" ">
<polygon fill="white" stroke="black" points="3678,-0.5 3678,-41.5 3842,-41.5 3842,-0.5 3678,-0.5"/>
<text text-anchor="start" x="3686" y="-29.5" font-family="Helvetica,sans-Serif" font-size="10.00">/media/jvincent/Kingspec512</text>
<text text-anchor="start" x="3686" y="-18.5" font-family="Helvetica,sans-Serif" font-size="10.00">/repos/RADix&#45;OS/RADixKernel</text>
<text text-anchor="middle" x="3760" y="-7.5" font-family="Helvetica,sans-Serif" font-size="10.00">/headers/radixkernel/rad_spi.h</text>
</a>
</g>
</g>
<!-- Node1&#45;&gt;Node21 -->
<g id="edge20" class="edge">
<title>Node1&#45;&gt;Node21</title>
<path fill="none" stroke="midnightblue" d="M3475.9,-79.4C3532.8,-68.83 3604.92,-55.12 3669,-42 3671.85,-41.42 3674.75,-40.82 3677.68,-40.2"/>
<polygon fill="midnightblue" stroke="midnightblue" points="3475.02,-76.01 3465.82,-81.27 3476.29,-82.89 3475.02,-76.01"/>
</g>
<!-- Node22 -->
<g id="node22" class="node">
<title>Node22</title>
<g id="a_node22"><a xlink:href="rad__task_8h_source.html" target="_top" xlink:title=" ">
<polygon fill="white" stroke="black" points="3860,-0.5 3860,-41.5 4030,-41.5 4030,-0.5 3860,-0.5"/>
<text text-anchor="start" x="3868" y="-29.5" font-family="Helvetica,sans-Serif" font-size="10.00">/media/jvincent/Kingspec512</text>
<text text-anchor="start" x="3868" y="-18.5" font-family="Helvetica,sans-Serif" font-size="10.00">/repos/RADix&#45;OS/RADixKernel</text>
<text text-anchor="middle" x="3945" y="-7.5" font-family="Helvetica,sans-Serif" font-size="10.00">/headers/radixkernel/rad_task.h</text>
</a>
</g>
</g>
<!-- Node1&#45;&gt;Node22 -->
<g id="edge21" class="edge">
<title>Node1&#45;&gt;Node22</title>
<path fill="none" stroke="midnightblue" d="M3475.88,-88.8C3572.72,-79.41 3722.27,-63.2 3851,-42 3853.88,-41.53 3856.81,-41.02 3859.76,-40.5"/>
<polygon fill="midnightblue" stroke="midnightblue" points="3475.42,-85.33 3465.8,-89.77 3476.09,-92.3 3475.42,-85.33"/>
</g>
<!-- Node23 -->
<g id="node23" class="node">
<title>Node23</title>
<g id="a_node23"><a xlink:href="rad__terminal_8h_source.html" target="_top" xlink:title=" ">
<polygon fill="white" stroke="black" points="4048.5,-0.5 4048.5,-41.5 4239.5,-41.5 4239.5,-0.5 4048.5,-0.5"/>
<text text-anchor="start" x="4056.5" y="-29.5" font-family="Helvetica,sans-Serif" font-size="10.00">/media/jvincent/Kingspec512</text>
<text text-anchor="start" x="4056.5" y="-18.5" font-family="Helvetica,sans-Serif" font-size="10.00">/repos/RADix&#45;OS/RADixKernel</text>
<text text-anchor="middle" x="4144" y="-7.5" font-family="Helvetica,sans-Serif" font-size="10.00">/headers/radixkernel/rad_terminal.h</text>
</a>
</g>
</g>
<!-- Node1&#45;&gt;Node23 -->
<g id="edge22" class="edge">
<title>Node1&#45;&gt;Node23</title>
<path fill="none" stroke="midnightblue" d="M3475.77,-92.73C3606.56,-85.21 3840.42,-69.2 4039,-42 4042.03,-41.58 4045.11,-41.14 4048.22,-40.67"/>
<polygon fill="midnightblue" stroke="midnightblue" points="3475.55,-89.24 3465.76,-93.3 3475.95,-96.23 3475.55,-89.24"/>
</g>
<!-- Node24 -->
<g id="node24" class="node">
<title>Node24</title>
<g id="a_node24"><a xlink:href="rad__time_8h_source.html" target="_top" xlink:title=" ">
<polygon fill="white" stroke="black" points="4258,-0.5 4258,-41.5 4430,-41.5 4430,-0.5 4258,-0.5"/>
<text text-anchor="start" x="4266" y="-29.5" font-family="Helvetica,sans-Serif" font-size="10.00">/media/jvincent/Kingspec512</text>
<text text-anchor="start" x="4266" y="-18.5" font-family="Helvetica,sans-Serif" font-size="10.00">/repos/RADix&#45;OS/RADixKernel</text>
<text text-anchor="middle" x="4344" y="-7.5" font-family="Helvetica,sans-Serif" font-size="10.00">/headers/radixkernel/rad_time.h</text>
</a>
</g>
</g>
<!-- Node1&#45;&gt;Node24 -->
<g id="edge23" class="edge">
<title>Node1&#45;&gt;Node24</title>
<path fill="none" stroke="midnightblue" d="M3475.82,-96.22C3639.47,-92.3 3970.9,-79.97 4249,-42 4251.92,-41.6 4254.89,-41.16 4257.88,-40.69"/>
<polygon fill="midnightblue" stroke="midnightblue" points="3475.67,-92.72 3465.76,-96.46 3475.84,-99.72 3475.67,-92.72"/>
</g>
<!-- Node25 -->
<g id="node25" class="node">
<title>Node25</title>
<g id="a_node25"><a xlink:href="rad__tree_8h_source.html" target="_top" xlink:title=" ">
<polygon fill="white" stroke="black" points="4448.5,-0.5 4448.5,-41.5 4617.5,-41.5 4617.5,-0.5 4448.5,-0.5"/>
<text text-anchor="start" x="4456.5" y="-29.5" font-family="Helvetica,sans-Serif" font-size="10.00">/media/jvincent/Kingspec512</text>
<text text-anchor="start" x="4456.5" y="-18.5" font-family="Helvetica,sans-Serif" font-size="10.00">/repos/RADix&#45;OS/RADixKernel</text>
<text text-anchor="middle" x="4533" y="-7.5" font-family="Helvetica,sans-Serif" font-size="10.00">/headers/radixkernel/rad_tree.h</text>
</a>
</g>
</g>
<!-- Node1&#45;&gt;Node25 -->
<g id="edge24" class="edge">
<title>Node1&#45;&gt;Node25</title>
<path fill="none" stroke="midnightblue" d="M3475.88,-97.95C3666.02,-96.69 4087.52,-88.34 4439,-42 4442.06,-41.6 4445.17,-41.15 4448.3,-40.66"/>
<polygon fill="midnightblue" stroke="midnightblue" points="3475.6,-94.45 3465.62,-98.02 3475.64,-101.45 3475.6,-94.45"/>
</g>
<!-- Node26 -->
<g id="node26" class="node">
<title>Node26</title>
<g id="a_node26"><a xlink:href="rad__tty_8h_source.html" target="_top" xlink:title=" ">
<polygon fill="white" stroke="black" points="4635.5,-0.5 4635.5,-41.5 4796.5,-41.5 4796.5,-0.5 4635.5,-0.5"/>
<text text-anchor="start" x="4643.5" y="-29.5" font-family="Helvetica,sans-Serif" font-size="10.00">/media/jvincent/Kingspec512</text>
<text text-anchor="start" x="4643.5" y="-18.5" font-family="Helvetica,sans-Serif" font-size="10.00">/repos/RADix&#45;OS/RADixKernel</text>
<text text-anchor="middle" x="4716" y="-7.5" font-family="Helvetica,sans-Serif" font-size="10.00">/headers/radixkernel/rad_tty.h</text>
</a>
</g>
</g>
<!-- Node1&#45;&gt;Node26 -->
<g id="edge25" class="edge">
<title>Node1&#45;&gt;Node26</title>
<path fill="none" stroke="midnightblue" d="M3475.6,-95.77C3732.87,-89.76 4405.36,-71.62 4627,-42 4629.67,-41.64 4632.38,-41.25 4635.1,-40.81"/>
<polygon fill="midnightblue" stroke="midnightblue" points="3475.43,-92.27 3465.51,-96.01 3475.59,-99.27 3475.43,-92.27"/>
</g>
<!-- Node27 -->
<g id="node27" class="node">
<title>Node27</title>
<g id="a_node27"><a xlink:href="rad__usb_8h_source.html" target="_top" xlink:title=" ">
<polygon fill="white" stroke="black" points="4814.5,-0.5 4814.5,-41.5 4981.5,-41.5 4981.5,-0.5 4814.5,-0.5"/>
<text text-anchor="start" x="4822.5" y="-29.5" font-family="Helvetica,sans-Serif" font-size="10.00">/media/jvincent/Kingspec512</text>
<text text-anchor="start" x="4822.5" y="-18.5" font-family="Helvetica,sans-Serif" font-size="10.00">/repos/RADix&#45;OS/RADixKernel</text>
<text text-anchor="middle" x="4898" y="-7.5" font-family="Helvetica,sans-Serif" font-size="10.00">/headers/radixkernel/rad_usb.h</text>
</a>
</g>
</g>
<!-- Node1&#45;&gt;Node27 -->
<g id="edge26" class="edge">
<title>Node1&#45;&gt;Node27</title>
<path fill="none" stroke="midnightblue" d="M3475.83,-96.33C3758.39,-91.34 4548.34,-74.79 4806,-42 4808.76,-41.65 4811.55,-41.26 4814.37,-40.83"/>
<polygon fill="midnightblue" stroke="midnightblue" points="3475.53,-92.84 3465.59,-96.51 3475.65,-99.84 3475.53,-92.84"/>
</g>
<!-- Node28 -->
<g id="node28" class="node">
<title>Node28</title>
<g id="a_node28"><a xlink:href="rad__vfs_8h_source.html" target="_top" xlink:title=" ">
<polygon fill="white" stroke="black" points="5000,-0.5 5000,-41.5 5164,-41.5 5164,-0.5 5000,-0.5"/>
<text text-anchor="start" x="5008" y="-29.5" font-family="Helvetica,sans-Serif" font-size="10.00">/media/jvincent/Kingspec512</text>
<text text-anchor="start" x="5008" y="-18.5" font-family="Helvetica,sans-Serif" font-size="10.00">/repos/RADix&#45;OS/RADixKernel</text>
<text text-anchor="middle" x="5082" y="-7.5" font-family="Helvetica,sans-Serif" font-size="10.00">/headers/radixkernel/rad_vfs.h</text>
</a>
</g>
</g>
<!-- Node1&#45;&gt;Node28 -->
<g id="edge27" class="edge">
<title>Node1&#45;&gt;Node28</title>
<path fill="none" stroke="midnightblue" d="M3475.92,-96.89C3782.94,-93.18 4695.98,-79.21 4991,-42 4993.89,-41.64 4996.82,-41.22 4999.78,-40.77"/>
<polygon fill="midnightblue" stroke="midnightblue" points="3475.65,-93.4 3465.69,-97.02 3475.73,-100.4 3475.65,-93.4"/>
</g>
<!-- Node29 -->
<g id="node29" class="node">
<title>Node29</title>
<g id="a_node29"><a xlink:href="radboot_8h.html" target="_top" xlink:title="Helpers for constructing rad_boot_info_t records during platform handoff.">
<polygon fill="white" stroke="black" points="5182.5,-0.5 5182.5,-41.5 5343.5,-41.5 5343.5,-0.5 5182.5,-0.5"/>
<text text-anchor="start" x="5190.5" y="-29.5" font-family="Helvetica,sans-Serif" font-size="10.00">/media/jvincent/Kingspec512</text>
<text text-anchor="start" x="5190.5" y="-18.5" font-family="Helvetica,sans-Serif" font-size="10.00">/repos/RADix&#45;OS/RADixKernel</text>
<text text-anchor="middle" x="5263" y="-7.5" font-family="Helvetica,sans-Serif" font-size="10.00">/boot/radboot.h</text>
</a>
</g>
</g>
<!-- Node1&#45;&gt;Node29 -->
<g id="edge28" class="edge">
<title>Node1&#45;&gt;Node29</title>
<path fill="none" stroke="midnightblue" d="M3475.58,-97.34C3804.91,-94.82 4840.91,-83.69 5173,-42 5176.02,-41.62 5179.08,-41.19 5182.17,-40.71"/>
<polygon fill="midnightblue" stroke="midnightblue" points="3475.55,-93.84 3465.58,-97.42 3475.6,-100.84 3475.55,-93.84"/>
</g>
<!-- Node30 -->
<g id="node30" class="node">
<title>Node30</title>
<g id="a_node30"><a xlink:href="radixkernel__a53_8h_source.html" target="_top" xlink:title=" ">
<polygon fill="white" stroke="black" points="5362,-0.5 5362,-41.5 5540,-41.5 5540,-0.5 5362,-0.5"/>
<text text-anchor="start" x="5370" y="-29.5" font-family="Helvetica,sans-Serif" font-size="10.00">/media/jvincent/Kingspec512</text>
<text text-anchor="start" x="5370" y="-18.5" font-family="Helvetica,sans-Serif" font-size="10.00">/repos/RADix&#45;OS/RADixKernel</text>
<text text-anchor="middle" x="5451" y="-7.5" font-family="Helvetica,sans-Serif" font-size="10.00">/platforms/a53/radixkernel_a53.h</text>
</a>
</g>
</g>
<!-- Node1&#45;&gt;Node30 -->
<g id="edge29" class="edge">
<title>Node1&#45;&gt;Node30</title>
<path fill="none" stroke="midnightblue" d="M3475.66,-97.45C3826.29,-95.18 4983.82,-84.57 5353,-42 5355.93,-41.66 5358.91,-41.28 5361.91,-40.86"/>
<polygon fill="midnightblue" stroke="midnightblue" points="3475.5,-93.95 3465.52,-97.51 3475.54,-100.95 3475.5,-93.95"/>
</g>
<!-- Node31 -->
<g id="node31" class="node">
<title>Node31</title>
<g id="a_node31"><a xlink:href="x86__cpu_8h_source.html" target="_top" xlink:title=" ">
<polygon fill="white" stroke="black" points="5558.5,-0.5 5558.5,-41.5 5719.5,-41.5 5719.5,-0.5 5558.5,-0.5"/>
<text text-anchor="start" x="5566.5" y="-29.5" font-family="Helvetica,sans-Serif" font-size="10.00">/media/jvincent/Kingspec512</text>
<text text-anchor="start" x="5566.5" y="-18.5" font-family="Helvetica,sans-Serif" font-size="10.00">/repos/RADix&#45;OS/RADixKernel</text>
<text text-anchor="middle" x="5639" y="-7.5" font-family="Helvetica,sans-Serif" font-size="10.00">/platforms/x86_64/x86_cpu.h</text>
</a>
</g>
</g>
<!-- Node1&#45;&gt;Node31 -->
<g id="edge30" class="edge">
<title>Node1&#45;&gt;Node31</title>
<path fill="none" stroke="midnightblue" d="M3475.79,-97.98C3848.75,-97.52 5140.07,-92.22 5549,-42 5552.02,-41.63 5555.08,-41.2 5558.17,-40.73"/>
<polygon fill="midnightblue" stroke="midnightblue" points="3475.55,-94.48 3465.55,-98 3475.56,-101.48 3475.55,-94.48"/>
</g>
<!-- Node32 -->
<g id="node32" class="node">
<title>Node32</title>
<g id="a_node32"><a xlink:href="x86__ext2_8h_source.html" target="_top" xlink:title=" ">
<polygon fill="white" stroke="black" points="5738,-0.5 5738,-41.5 5900,-41.5 5900,-0.5 5738,-0.5"/>
<text text-anchor="start" x="5746" y="-29.5" font-family="Helvetica,sans-Serif" font-size="10.00">/media/jvincent/Kingspec512</text>
<text text-anchor="start" x="5746" y="-18.5" font-family="Helvetica,sans-Serif" font-size="10.00">/repos/RADix&#45;OS/RADixKernel</text>
<text text-anchor="middle" x="5819" y="-7.5" font-family="Helvetica,sans-Serif" font-size="10.00">/platforms/x86_64/x86_ext2.h</text>
</a>
</g>
</g>
<!-- Node1&#45;&gt;Node32 -->
<g id="edge31" class="edge">
<title>Node1&#45;&gt;Node32</title>
<path fill="none" stroke="midnightblue" d="M3475.85,-98.22C3868.34,-98.65 5283.09,-96.32 5729,-42 5731.86,-41.65 5734.76,-41.25 5737.69,-40.81"/>
<polygon fill="midnightblue" stroke="midnightblue" points="3475.65,-94.72 3465.65,-98.21 3475.64,-101.72 3475.65,-94.72"/>
</g>
<!-- Node33 -->
<g id="node33" class="node">
<title>Node33</title>
<g id="a_node33"><a xlink:href="x86__ext4_8h_source.html" target="_top" xlink:title=" ">
<polygon fill="white" stroke="black" points="5918,-0.5 5918,-41.5 6080,-41.5 6080,-0.5 5918,-0.5"/>
<text text-anchor="start" x="5926" y="-29.5" font-family="Helvetica,sans-Serif" font-size="10.00">/media/jvincent/Kingspec512</text>
<text text-anchor="start" x="5926" y="-18.5" font-family="Helvetica,sans-Serif" font-size="10.00">/repos/RADix&#45;OS/RADixKernel</text>
<text text-anchor="middle" x="5999" y="-7.5" font-family="Helvetica,sans-Serif" font-size="10.00">/platforms/x86_64/x86_ext4.h</text>
</a>
</g>
</g>
<!-- Node1&#45;&gt;Node33 -->
<g id="edge32" class="edge">
<title>Node1&#45;&gt;Node33</title>
<path fill="none" stroke="midnightblue" d="M3475.63,-98.42C3886.52,-99.71 5425.9,-100.44 5909,-42 5911.86,-41.65 5914.76,-41.26 5917.69,-40.82"/>
<polygon fill="midnightblue" stroke="midnightblue" points="3475.56,-94.92 3465.55,-98.39 3475.54,-101.92 3475.56,-94.92"/>
</g>
<!-- Node34 -->
<g id="node34" class="node">
<title>Node34</title>
<g id="a_node34"><a xlink:href="x86__fat_8h_source.html" target="_top" xlink:title=" ">
<polygon fill="white" stroke="black" points="6098.5,-0.5 6098.5,-41.5 6259.5,-41.5 6259.5,-0.5 6098.5,-0.5"/>
<text text-anchor="start" x="6106.5" y="-29.5" font-family="Helvetica,sans-Serif" font-size="10.00">/media/jvincent/Kingspec512</text>
<text text-anchor="start" x="6106.5" y="-18.5" font-family="Helvetica,sans-Serif" font-size="10.00">/repos/RADix&#45;OS/RADixKernel</text>
<text text-anchor="middle" x="6179" y="-7.5" font-family="Helvetica,sans-Serif" font-size="10.00">/platforms/x86_64/x86_fat.h</text>
</a>
</g>
</g>
<!-- Node1&#45;&gt;Node34 -->
<g id="edge33" class="edge">
<title>Node1&#45;&gt;Node34</title>
<path fill="none" stroke="midnightblue" d="M3476.19,-97.09C3938.88,-92.81 5826.46,-73.56 6089,-42 6092.02,-41.64 6095.09,-41.22 6098.18,-40.75"/>
<polygon fill="midnightblue" stroke="midnightblue" points="3475.82,-93.59 3465.85,-97.19 3475.88,-100.59 3475.82,-93.59"/>
</g>
<!-- Node35 -->
<g id="node35" class="node">
<title>Node35</title>
<g id="a_node35"><a xlink:href="x86__user_8h_source.html" target="_top" xlink:title=" ">
<polygon fill="white" stroke="black" points="6277.5,-0.5 6277.5,-41.5 6438.5,-41.5 6438.5,-0.5 6277.5,-0.5"/>
<text text-anchor="start" x="6285.5" y="-29.5" font-family="Helvetica,sans-Serif" font-size="10.00">/media/jvincent/Kingspec512</text>
<text text-anchor="start" x="6285.5" y="-18.5" font-family="Helvetica,sans-Serif" font-size="10.00">/repos/RADix&#45;OS/RADixKernel</text>
<text text-anchor="middle" x="6358" y="-7.5" font-family="Helvetica,sans-Serif" font-size="10.00">/platforms/x86_64/x86_user.h</text>
</a>
</g>
</g>
<!-- Node1&#45;&gt;Node35 -->
<g id="edge34" class="edge">
<title>Node1&#45;&gt;Node35</title>
<path fill="none" stroke="midnightblue" d="M3475.79,-97.25C3956.5,-93.54 5987.7,-75.97 6269,-42 6271.67,-41.68 6274.38,-41.31 6277.11,-40.9"/>
<polygon fill="midnightblue" stroke="midnightblue" points="3475.72,-93.75 3465.75,-97.33 3475.78,-100.75 3475.72,-93.75"/>
</g>
<!-- Node36 -->
<g id="node36" class="node">
<title>Node36</title>
<g id="a_node36"><a xlink:href="x86__vm_8h_source.html" target="_top" xlink:title=" ">
<polygon fill="white" stroke="black" points="6456.5,-0.5 6456.5,-41.5 6617.5,-41.5 6617.5,-0.5 6456.5,-0.5"/>
<text text-anchor="start" x="6464.5" y="-29.5" font-family="Helvetica,sans-Serif" font-size="10.00">/media/jvincent/Kingspec512</text>
<text text-anchor="start" x="6464.5" y="-18.5" font-family="Helvetica,sans-Serif" font-size="10.00">/repos/RADix&#45;OS/RADixKernel</text>
<text text-anchor="middle" x="6537" y="-7.5" font-family="Helvetica,sans-Serif" font-size="10.00">/platforms/x86_64/x86_vm.h</text>
</a>
</g>
</g>
<!-- Node1&#45;&gt;Node36 -->
<g id="edge35" class="edge">
<title>Node1&#45;&gt;Node36</title>
<path fill="none" stroke="midnightblue" d="M3475.89,-97.37C3974.8,-94.13 6148.07,-78.05 6448,-42 6450.67,-41.68 6453.38,-41.31 6456.11,-40.91"/>
<polygon fill="midnightblue" stroke="midnightblue" points="3475.81,-93.87 3465.83,-97.44 3475.85,-100.87 3475.81,-93.87"/>
</g>
</g>
</svg>
