<?xml version="1.0" encoding="UTF-8" standalone="no"?>
<!DOCTYPE svg PUBLIC "-//W3C//DTD SVG 1.1//EN"
 "http://www.w3.org/Graphics/SVG/1.1/DTD/svg11.dtd">
<!-- Generated by graphviz version 2.43.0 (0)
 -->
<!-- Title: rad_boot_handoff Pages: 1 -->
<svg width="248pt" height="162pt"
 viewBox="0.00 0.00 248.00 162.00" xmlns="http://www.w3.org/2000/svg" xmlns:xlink="http://www.w3.org/1999/xlink">
<g id="graph0" class="graph" transform="scale(1 1) rotate(0) translate(4 158)">
<title>rad_boot_handoff</title>
<polygon fill="white" stroke="transparent" points="-4,4 -4,-158 244,-158 244,4 -4,4"/>
<!-- Node1 -->
<g id="node1" class="node">
<title>Node1</title>
<g id="a_node1"><a xlink:title="Public data structure for rad_boot_handoff.">
<polygon fill="#bfbfbf" stroke="black" points="84.5,-0.5 84.5,-19.5 185.5,-19.5 185.5,-0.5 84.5,-0.5"/>
<text text-anchor="middle" x="135" y="-7.5" font-family="Helvetica,sans-Serif" font-size="10.00">rad_boot_handoff</text>
</a>
</g>
</g>
<!-- Node2 -->
<g id="node2" class="node">
<title>Node2</title>
<g id="a_node2"><a xlink:href="structrad__boot__info.html" target="_top" xlink:title="Public data structure for rad_boot_info.">
<polygon fill="white" stroke="black" points="93.5,-67.5 93.5,-86.5 176.5,-86.5 176.5,-67.5 93.5,-67.5"/>
<text text-anchor="middle" x="135" y="-74.5" font-family="Helvetica,sans-Serif" font-size="10.00">rad_boot_info</text>
</a>
</g>
</g>
<!-- Node2&#45;&gt;Node1 -->
<g id="edge1" class="edge">
<title>Node2&#45;&gt;Node1</title>
<path fill="none" stroke="#9a32cd" stroke-dasharray="5,2" d="M135,-57.04C135,-44.67 135,-29.12 135,-19.63"/>
<polygon fill="#9a32cd" stroke="#9a32cd" points="131.5,-57.23 135,-67.23 138.5,-57.23 131.5,-57.23"/>
<text text-anchor="middle" x="147.5" y="-41" font-family="Helvetica,sans-Serif" font-size="10.00"> boot</text>
</g>
<!-- Node3 -->
<g id="node3" class="node">
<title>Node3</title>
<g id="a_node3"><a xlink:href="structrad__boot__memory__region.html" target="_top" xlink:title="Public data structure for rad_boot_memory_region.">
<polygon fill="white" stroke="black" points="0,-134.5 0,-153.5 142,-153.5 142,-134.5 0,-134.5"/>
<text text-anchor="middle" x="71" y="-141.5" font-family="Helvetica,sans-Serif" font-size="10.00">rad_boot_memory_region</text>
</a>
</g>
</g>
<!-- Node3&#45;&gt;Node2 -->
<g id="edge2" class="edge">
<title>Node3&#45;&gt;Node2</title>
<path fill="none" stroke="#9a32cd" stroke-dasharray="5,2" d="M78.51,-125.16C81.95,-118.34 86.5,-110.81 92,-105 99.03,-97.57 108.51,-91.33 116.79,-86.73"/>
<polygon fill="#9a32cd" stroke="#9a32cd" points="75.28,-123.81 74.28,-134.36 81.64,-126.74 75.28,-123.81"/>
<text text-anchor="middle" x="135" y="-108" font-family="Helvetica,sans-Serif" font-size="10.00"> memory_regions</text>
</g>
<!-- Node4 -->
<g id="node4" class="node">
<title>Node4</title>
<g id="a_node4"><a xlink:href="structrad__boot__arg.html" target="_top" xlink:title="Public data structure for rad_boot_arg.">
<polygon fill="white" stroke="black" points="160,-134.5 160,-153.5 240,-153.5 240,-134.5 160,-134.5"/>
<text text-anchor="middle" x="200" y="-141.5" font-family="Helvetica,sans-Serif" font-size="10.00">rad_boot_arg</text>
</a>
</g>
</g>
<!-- Node4&#45;&gt;Node2 -->
<g id="edge3" class="edge">
<title>Node4&#45;&gt;Node2</title>
<path fill="none" stroke="#9a32cd" stroke-dasharray="5,2" d="M191.99,-125.17C188.36,-118.35 183.62,-110.82 178,-105 170.78,-97.51 161.08,-91.19 152.72,-86.55"/>
<polygon fill="#9a32cd" stroke="#9a32cd" points="188.94,-126.91 196.47,-134.37 195.23,-123.85 188.94,-126.91"/>
<text text-anchor="middle" x="198.5" y="-108" font-family="Helvetica,sans-Serif" font-size="10.00"> args</text>
</g>
</g>
</svg>
