<?xml version="1.0" encoding="UTF-8" standalone="no"?>
<!DOCTYPE svg PUBLIC "-//W3C//DTD SVG 1.1//EN"
 "http://www.w3.org/Graphics/SVG/1.1/DTD/svg11.dtd">
<!-- Generated by graphviz version 2.43.0 (0)
 -->
<!-- Title: rad_ntp_query Pages: 1 -->
<svg width="185pt" height="162pt"
 viewBox="0.00 0.00 184.50 162.00" xmlns="http://www.w3.org/2000/svg" xmlns:xlink="http://www.w3.org/1999/xlink">
<g id="graph0" class="graph" transform="scale(1 1) rotate(0) translate(4 158)">
<title>rad_ntp_query</title>
<polygon fill="white" stroke="transparent" points="-4,4 -4,-158 180.5,-158 180.5,4 -4,4"/>
<!-- Node1 -->
<g id="node1" class="node">
<title>Node1</title>
<g id="a_node1"><a xlink:title="Public data structure for rad_ntp_query.">
<polygon fill="#bfbfbf" stroke="black" points="24,-0.5 24,-19.5 110,-19.5 110,-0.5 24,-0.5"/>
<text text-anchor="middle" x="67" y="-7.5" font-family="Helvetica,sans-Serif" font-size="10.00">rad_ntp_query</text>
</a>
</g>
</g>
<!-- Node2 -->
<g id="node2" class="node">
<title>Node2</title>
<g id="a_node2"><a xlink:href="structrad__ntp__status.html" target="_top" xlink:title="Public data structure for rad_ntp_status.">
<polygon fill="white" stroke="black" points="87.5,-67.5 87.5,-86.5 176.5,-86.5 176.5,-67.5 87.5,-67.5"/>
<text text-anchor="middle" x="132" y="-74.5" font-family="Helvetica,sans-Serif" font-size="10.00">rad_ntp_status</text>
</a>
</g>
</g>
<!-- Node2&#45;&gt;Node1 -->
<g id="edge1" class="edge">
<title>Node2&#45;&gt;Node1</title>
<path fill="none" stroke="#9a32cd" stroke-dasharray="5,2" d="M116,-60C103.25,-47.25 85.89,-29.89 75.63,-19.63"/>
<polygon fill="#9a32cd" stroke="#9a32cd" points="113.69,-62.64 123.23,-67.23 118.64,-57.69 113.69,-62.64"/>
<text text-anchor="middle" x="120" y="-41" font-family="Helvetica,sans-Serif" font-size="10.00"> status</text>
</g>
<!-- Node3 -->
<g id="node3" class="node">
<title>Node3</title>
<g id="a_node3"><a xlink:href="structrad__ipv4__address.html" target="_top" xlink:title="Public data structure for rad_ipv4_address.">
<polygon fill="white" stroke="black" points="0,-134.5 0,-153.5 102,-153.5 102,-134.5 0,-134.5"/>
<text text-anchor="middle" x="51" y="-141.5" font-family="Helvetica,sans-Serif" font-size="10.00">rad_ipv4_address</text>
</a>
</g>
</g>
<!-- Node3&#45;&gt;Node1 -->
<g id="edge3" class="edge">
<title>Node3&#45;&gt;Node1</title>
<path fill="none" stroke="#9a32cd" stroke-dasharray="5,2" d="M46.85,-124.63C43.99,-109.15 41.31,-86.46 45,-67 48.3,-49.55 56.92,-30.58 62.34,-19.81"/>
<polygon fill="#9a32cd" stroke="#9a32cd" points="43.43,-125.4 48.87,-134.49 50.29,-123.99 43.43,-125.4"/>
<text text-anchor="middle" x="62" y="-74.5" font-family="Helvetica,sans-Serif" font-size="10.00"> server</text>
</g>
<!-- Node3&#45;&gt;Node2 -->
<g id="edge2" class="edge">
<title>Node3&#45;&gt;Node2</title>
<path fill="none" stroke="#9a32cd" stroke-dasharray="5,2" d="M70.05,-127.71C86.01,-114.91 108.21,-97.09 121.25,-86.63"/>
<polygon fill="#9a32cd" stroke="#9a32cd" points="67.53,-125.25 61.92,-134.23 71.91,-130.7 67.53,-125.25"/>
<text text-anchor="middle" x="113" y="-108" font-family="Helvetica,sans-Serif" font-size="10.00"> server</text>
</g>
</g>
</svg>
