<?xml version="1.0" encoding="UTF-8" standalone="no"?>
<!DOCTYPE svg PUBLIC "-//W3C//DTD SVG 1.1//EN"
 "http://www.w3.org/Graphics/SVG/1.1/DTD/svg11.dtd">
<!-- Generated by graphviz version 2.43.0 (0)
 -->
<!-- Title: /media/jvincent/Kingspec512/repos/RADix&#45;OS/RADixKernel Pages: 1 -->
<svg width="288pt" height="183pt"
 viewBox="0.00 0.00 288.00 183.00" xmlns="http://www.w3.org/2000/svg" xmlns:xlink="http://www.w3.org/1999/xlink">
<g id="graph0" class="graph" transform="scale(1 1) rotate(0) translate(4 179)">
<title>/media/jvincent/Kingspec512/repos/RADix&#45;OS/RADixKernel</title>
<polygon fill="white" stroke="transparent" points="-4,4 -4,-179 284,-179 284,4 -4,4"/>
<g id="clust1" class="cluster">
<title>clusterdir_48839732f9b542bb6946fdb926a6718d</title>
<g id="a_clust1"><a xlink:href="dir_48839732f9b542bb6946fdb926a6718d.html" target="_top" xlink:title="RADix&#45;OS">
<polygon fill="#ddddee" stroke="black" points="8,-8 8,-167 272,-167 272,-8 8,-8"/>
<text text-anchor="middle" x="140" y="-155" font-family="Helvetica,sans-Serif" font-size="10.00">RADix&#45;OS</text>
</a>
</g>
</g>
<g id="clust2" class="cluster">
<title>clusterdir_c6ea6a2c6f18e288f8a52f2b5881a08c</title>
<g id="a_clust2"><a xlink:href="dir_c6ea6a2c6f18e288f8a52f2b5881a08c.html" target="_top">
<polygon fill="#eeeeff" stroke="black" points="16,-16 16,-140 264,-140 264,-16 16,-16"/>
</a>
</g>
</g>
<!-- dir_c6ea6a2c6f18e288f8a52f2b5881a08c -->
<g id="node1" class="node">
<title>dir_c6ea6a2c6f18e288f8a52f2b5881a08c</title>
<text text-anchor="middle" x="217" y="-111.5" font-family="Helvetica,sans-Serif" font-size="10.00">RADixKernel</text>
</g>
<!-- dir_e71d2c5dab3b5ff0864964e95174a67b -->
<g id="node2" class="node">
<title>dir_e71d2c5dab3b5ff0864964e95174a67b</title>
<g id="a_node2"><a xlink:href="dir_e71d2c5dab3b5ff0864964e95174a67b.html" target="_top" xlink:title="boot">
<polygon fill="white" stroke="black" points="160,-132 106,-132 106,-96 160,-96 160,-132"/>
<text text-anchor="middle" x="133" y="-111.5" font-family="Helvetica,sans-Serif" font-size="10.00">boot</text>
</a>
</g>
</g>
<!-- dir_d139445b9618bc029f90a26cd49e9c06 -->
<g id="node3" class="node">
<title>dir_d139445b9618bc029f90a26cd49e9c06</title>
<g id="a_node3"><a xlink:href="dir_d139445b9618bc029f90a26cd49e9c06.html" target="_top" xlink:title="headers">
<polygon fill="white" stroke="red" points="122,-60 66,-60 66,-24 122,-24 122,-60"/>
<text text-anchor="middle" x="94" y="-39.5" font-family="Helvetica,sans-Serif" font-size="10.00">headers</text>
</a>
</g>
</g>
<!-- dir_e71d2c5dab3b5ff0864964e95174a67b&#45;&gt;dir_d139445b9618bc029f90a26cd49e9c06 -->
<g id="edge2" class="edge">
<title>dir_e71d2c5dab3b5ff0864964e95174a67b&#45;&gt;dir_d139445b9618bc029f90a26cd49e9c06</title>
<path fill="none" stroke="black" d="M123.36,-95.7C118.87,-87.64 113.44,-77.89 108.48,-68.98"/>
<polygon fill="black" stroke="black" points="111.45,-67.14 103.53,-60.1 105.34,-70.54 111.45,-67.14"/>
<g id="a_edge2&#45;headlabel"><a xlink:href="dir_000004_000005.html" target="_top" xlink:title="1">
<text text-anchor="middle" x="115.68" y="-66.39" font-family="Helvetica,sans-Serif" font-size="10.00">1</text>
</a>
</g>
</g>
<!-- dir_d3e8a5e38ac62c56c5e4dac4bdc22ab5 -->
<g id="node4" class="node">
<title>dir_d3e8a5e38ac62c56c5e4dac4bdc22ab5</title>
<g id="a_node4"><a xlink:href="dir_d3e8a5e38ac62c56c5e4dac4bdc22ab5.html" target="_top" xlink:title="platforms">
<polygon fill="white" stroke="red" points="88,-132 24,-132 24,-96 88,-96 88,-132"/>
<text text-anchor="middle" x="56" y="-111.5" font-family="Helvetica,sans-Serif" font-size="10.00">platforms</text>
</a>
</g>
</g>
<!-- dir_d3e8a5e38ac62c56c5e4dac4bdc22ab5&#45;&gt;dir_d139445b9618bc029f90a26cd49e9c06 -->
<g id="edge1" class="edge">
<title>dir_d3e8a5e38ac62c56c5e4dac4bdc22ab5&#45;&gt;dir_d139445b9618bc029f90a26cd49e9c06</title>
<path fill="none" stroke="black" d="M65.39,-95.7C69.76,-87.64 75.06,-77.89 79.9,-68.98"/>
<polygon fill="black" stroke="black" points="83.02,-70.56 84.71,-60.1 76.87,-67.22 83.02,-70.56"/>
<g id="a_edge1&#45;headlabel"><a xlink:href="dir_000007_000005.html" target="_top" xlink:title="1">
<text text-anchor="middle" x="83.8" y="-72.58" font-family="Helvetica,sans-Serif" font-size="10.00">1</text>
</a>
</g>
</g>
</g>
</svg>
