<?xml version="1.0" encoding="UTF-8" standalone="no"?>
<!DOCTYPE svg PUBLIC "-//W3C//DTD SVG 1.1//EN"
 "http://www.w3.org/Graphics/SVG/1.1/DTD/svg11.dtd">
<!-- Generated by graphviz version 2.43.0 (0)
 -->
<!-- Title: /media/jvincent/Kingspec512/repos/RADix&#45;OS/RADixKernel Pages: 1 -->
<svg width="206pt" height="183pt"
 viewBox="0.00 0.00 206.00 183.00" xmlns="http://www.w3.org/2000/svg" xmlns:xlink="http://www.w3.org/1999/xlink">
<g id="graph0" class="graph" transform="scale(1 1) rotate(0) translate(4 179)">
<title>/media/jvincent/Kingspec512/repos/RADix&#45;OS/RADixKernel</title>
<polygon fill="white" stroke="transparent" points="-4,4 -4,-179 202,-179 202,4 -4,4"/>
<g id="clust1" class="cluster">
<title>clusterdir_48839732f9b542bb6946fdb926a6718d</title>
<g id="a_clust1"><a xlink:href="dir_48839732f9b542bb6946fdb926a6718d.html" target="_top" xlink:title="RADix&#45;OS">
<polygon fill="#ddddee" stroke="black" points="8,-8 8,-167 190,-167 190,-8 8,-8"/>
<text text-anchor="middle" x="99" y="-155" font-family="Helvetica,sans-Serif" font-size="10.00">RADix&#45;OS</text>
</a>
</g>
</g>
<g id="clust2" class="cluster">
<title>clusterdir_c6ea6a2c6f18e288f8a52f2b5881a08c</title>
<g id="a_clust2"><a xlink:href="dir_c6ea6a2c6f18e288f8a52f2b5881a08c.html" target="_top">
<polygon fill="#eeeeff" stroke="black" points="16,-16 16,-140 182,-140 182,-16 16,-16"/>
</a>
</g>
</g>
<!-- dir_c6ea6a2c6f18e288f8a52f2b5881a08c -->
<g id="node1" class="node">
<title>dir_c6ea6a2c6f18e288f8a52f2b5881a08c</title>
<text text-anchor="middle" x="135" y="-111.5" font-family="Helvetica,sans-Serif" font-size="10.00">RADixKernel</text>
</g>
<!-- dir_e71d2c5dab3b5ff0864964e95174a67b -->
<g id="node2" class="node">
<title>dir_e71d2c5dab3b5ff0864964e95174a67b</title>
<g id="a_node2"><a xlink:href="dir_e71d2c5dab3b5ff0864964e95174a67b.html" target="_top" xlink:title="boot">
<polygon fill="white" stroke="black" points="78,-132 24,-132 24,-96 78,-96 78,-132"/>
<text text-anchor="middle" x="51" y="-111.5" font-family="Helvetica,sans-Serif" font-size="10.00">boot</text>
</a>
</g>
</g>
<!-- dir_d139445b9618bc029f90a26cd49e9c06 -->
<g id="node3" class="node">
<title>dir_d139445b9618bc029f90a26cd49e9c06</title>
<g id="a_node3"><a xlink:href="dir_d139445b9618bc029f90a26cd49e9c06.html" target="_top" xlink:title="headers">
<polygon fill="white" stroke="red" points="80,-60 24,-60 24,-24 80,-24 80,-60"/>
<text text-anchor="middle" x="52" y="-39.5" font-family="Helvetica,sans-Serif" font-size="10.00">headers</text>
</a>
</g>
</g>
<!-- dir_e71d2c5dab3b5ff0864964e95174a67b&#45;&gt;dir_d139445b9618bc029f90a26cd49e9c06 -->
<g id="edge1" class="edge">
<title>dir_e71d2c5dab3b5ff0864964e95174a67b&#45;&gt;dir_d139445b9618bc029f90a26cd49e9c06</title>
<path fill="none" stroke="black" d="M51.25,-95.7C51.36,-87.98 51.49,-78.71 51.61,-70.11"/>
<polygon fill="black" stroke="black" points="55.11,-70.15 51.76,-60.1 48.11,-70.05 55.11,-70.15"/>
<g id="a_edge1&#45;headlabel"><a xlink:href="dir_000004_000005.html" target="_top" xlink:title="1">
<text text-anchor="middle" x="57.9" y="-71.29" font-family="Helvetica,sans-Serif" font-size="10.00">1</text>
</a>
</g>
</g>
</g>
</svg>
