<?xml version="1.0" encoding="UTF-8" standalone="no"?>
<!DOCTYPE svg PUBLIC "-//W3C//DTD SVG 1.1//EN"
 "http://www.w3.org/Graphics/SVG/1.1/DTD/svg11.dtd">
<!-- Generated by graphviz version 2.43.0 (0)
 -->
<!-- Title: /media/jvincent/Kingspec512/repos/RADix&#45;OS/RADixKernel/headers/radixkernel/rad_cpp.h Pages: 1 -->
<svg width="233pt" height="162pt"
 viewBox="0.00 0.00 232.50 162.00" xmlns="http://www.w3.org/2000/svg" xmlns:xlink="http://www.w3.org/1999/xlink">
<g id="graph0" class="graph" transform="scale(1 1) rotate(0) translate(4 158)">
<title>/media/jvincent/Kingspec512/repos/RADix&#45;OS/RADixKernel/headers/radixkernel/rad_cpp.h</title>
<polygon fill="white" stroke="transparent" points="-4,4 -4,-158 228.5,-158 228.5,4 -4,4"/>
<!-- Node1 -->
<g id="node1" class="node">
<title>Node1</title>
<g id="a_node1"><a xlink:title=" ">
<polygon fill="#bfbfbf" stroke="black" points="29.5,-112.5 29.5,-153.5 196.5,-153.5 196.5,-112.5 29.5,-112.5"/>
<text text-anchor="start" x="37.5" y="-141.5" font-family="Helvetica,sans-Serif" font-size="10.00">/media/jvincent/Kingspec512</text>
<text text-anchor="start" x="37.5" y="-130.5" font-family="Helvetica,sans-Serif" font-size="10.00">/repos/RADix&#45;OS/RADixKernel</text>
<text text-anchor="middle" x="113" y="-119.5" font-family="Helvetica,sans-Serif" font-size="10.00">/headers/radixkernel/rad_cpp.h</text>
</a>
</g>
</g>
<!-- Node2 -->
<g id="node2" class="node">
<title>Node2</title>
<g id="a_node2"><a xlink:href="radixkernel_8h.html" target="_top" xlink:title="Portable embedded kernel service ABI for RADLib.">
<polygon fill="white" stroke="black" points="44,-56.5 44,-75.5 182,-75.5 182,-56.5 44,-56.5"/>
<text text-anchor="middle" x="113" y="-63.5" font-family="Helvetica,sans-Serif" font-size="10.00">radixkernel/radixkernel.h</text>
</a>
</g>
</g>
<!-- Node1&#45;&gt;Node2 -->
<g id="edge1" class="edge">
<title>Node1&#45;&gt;Node2</title>
<path fill="none" stroke="midnightblue" d="M113,-112.5C113,-104.07 113,-94.24 113,-85.87"/>
<polygon fill="midnightblue" stroke="midnightblue" points="116.5,-85.65 113,-75.65 109.5,-85.65 116.5,-85.65"/>
</g>
<!-- Node3 -->
<g id="node3" class="node">
<title>Node3</title>
<g id="a_node3"><a xlink:title=" ">
<polygon fill="white" stroke="#bfbfbf" points="0,-0.5 0,-19.5 56,-19.5 56,-0.5 0,-0.5"/>
<text text-anchor="middle" x="28" y="-7.5" font-family="Helvetica,sans-Serif" font-size="10.00">stddef.h</text>
</a>
</g>
</g>
<!-- Node1&#45;&gt;Node3 -->
<g id="edge5" class="edge">
<title>Node1&#45;&gt;Node3</title>
<path fill="none" stroke="midnightblue" d="M72.8,-112.32C58.52,-103.26 43.81,-91.12 35,-76 26.87,-62.06 25.61,-43.55 26.1,-29.85"/>
<polygon fill="midnightblue" stroke="midnightblue" points="29.61,-29.9 26.81,-19.68 22.62,-29.41 29.61,-29.9"/>
</g>
<!-- Node4 -->
<g id="node4" class="node">
<title>Node4</title>
<g id="a_node4"><a xlink:title=" ">
<polygon fill="white" stroke="#bfbfbf" points="171.5,-0.5 171.5,-19.5 224.5,-19.5 224.5,-0.5 171.5,-0.5"/>
<text text-anchor="middle" x="198" y="-7.5" font-family="Helvetica,sans-Serif" font-size="10.00">stdint.h</text>
</a>
</g>
</g>
<!-- Node1&#45;&gt;Node4 -->
<g id="edge6" class="edge">
<title>Node1&#45;&gt;Node4</title>
<path fill="none" stroke="midnightblue" d="M153.2,-112.32C167.48,-103.26 182.19,-91.12 191,-76 199.13,-62.06 200.39,-43.55 199.9,-29.85"/>
<polygon fill="midnightblue" stroke="midnightblue" points="203.38,-29.41 199.19,-19.68 196.39,-29.9 203.38,-29.41"/>
</g>
<!-- Node2&#45;&gt;Node3 -->
<g id="edge2" class="edge">
<title>Node2&#45;&gt;Node3</title>
<path fill="none" stroke="midnightblue" d="M99.34,-56.32C86.08,-47.9 65.73,-34.97 50.15,-25.07"/>
<polygon fill="midnightblue" stroke="midnightblue" points="51.94,-22.06 41.62,-19.65 48.19,-27.97 51.94,-22.06"/>
</g>
<!-- Node2&#45;&gt;Node4 -->
<g id="edge3" class="edge">
<title>Node2&#45;&gt;Node4</title>
<path fill="none" stroke="midnightblue" d="M126.66,-56.32C139.92,-47.9 160.27,-34.97 175.85,-25.07"/>
<polygon fill="midnightblue" stroke="midnightblue" points="177.81,-27.97 184.38,-19.65 174.06,-22.06 177.81,-27.97"/>
</g>
<!-- Node5 -->
<g id="node5" class="node">
<title>Node5</title>
<g id="a_node5"><a xlink:title=" ">
<polygon fill="white" stroke="#bfbfbf" points="85,-0.5 85,-19.5 141,-19.5 141,-0.5 85,-0.5"/>
<text text-anchor="middle" x="113" y="-7.5" font-family="Helvetica,sans-Serif" font-size="10.00">stdarg.h</text>
</a>
</g>
</g>
<!-- Node2&#45;&gt;Node5 -->
<g id="edge4" class="edge">
<title>Node2&#45;&gt;Node5</title>
<path fill="none" stroke="midnightblue" d="M113,-56.08C113,-49.01 113,-38.86 113,-29.99"/>
<polygon fill="midnightblue" stroke="midnightblue" points="116.5,-29.75 113,-19.75 109.5,-29.75 116.5,-29.75"/>
</g>
</g>
</svg>
