<?xml version="1.0" encoding="UTF-8" standalone="no"?>
<!DOCTYPE svg PUBLIC "-//W3C//DTD SVG 1.1//EN"
 "http://www.w3.org/Graphics/SVG/1.1/DTD/svg11.dtd">
<!-- Generated by graphviz version 2.43.0 (0)
 -->
<!-- Title: /media/jvincent/Kingspec512/repos/RADix&#45;OS/RADixKernel/headers/radixkernel/radixkernel.h Pages: 1 -->
<svg width="5167pt" height="128pt"
 viewBox="0.00 0.00 5166.50 128.00" xmlns="http://www.w3.org/2000/svg" xmlns:xlink="http://www.w3.org/1999/xlink">
<g id="graph0" class="graph" transform="scale(1 1) rotate(0) translate(4 124)">
<title>/media/jvincent/Kingspec512/repos/RADix&#45;OS/RADixKernel/headers/radixkernel/radixkernel.h</title>
<polygon fill="white" stroke="transparent" points="-4,4 -4,-124 5162.5,-124 5162.5,4 -4,4"/>
<!-- Node1 -->
<g id="node1" class="node">
<title>Node1</title>
<g id="a_node1"><a xlink:title="Portable RADix kernel service ABI for RADLib and RADix&#45;OS targets.">
<polygon fill="#bfbfbf" stroke="black" points="2512.5,-78.5 2512.5,-119.5 2695.5,-119.5 2695.5,-78.5 2512.5,-78.5"/>
<text text-anchor="start" x="2520.5" y="-107.5" font-family="Helvetica,sans-Serif" font-size="10.00">/media/jvincent/Kingspec512</text>
<text text-anchor="start" x="2520.5" y="-96.5" font-family="Helvetica,sans-Serif" font-size="10.00">/repos/RADix&#45;OS/RADixKernel</text>
<text text-anchor="middle" x="2604" y="-85.5" font-family="Helvetica,sans-Serif" font-size="10.00">/headers/radixkernel/radixkernel.h</text>
</a>
</g>
</g>
<!-- Node2 -->
<g id="node2" class="node">
<title>Node2</title>
<g id="a_node2"><a xlink:href="rad__audio_8h_source.html" target="_top" xlink:title=" ">
<polygon fill="white" stroke="black" points="0,-0.5 0,-41.5 176,-41.5 176,-0.5 0,-0.5"/>
<text text-anchor="start" x="8" y="-29.5" font-family="Helvetica,sans-Serif" font-size="10.00">/media/jvincent/Kingspec512</text>
<text text-anchor="start" x="8" y="-18.5" font-family="Helvetica,sans-Serif" font-size="10.00">/repos/RADix&#45;OS/RADixKernel</text>
<text text-anchor="middle" x="88" y="-7.5" font-family="Helvetica,sans-Serif" font-size="10.00">/headers/radixkernel/rad_audio.h</text>
</a>
</g>
</g>
<!-- Node1&#45;&gt;Node2 -->
<g id="edge1" class="edge">
<title>Node1&#45;&gt;Node2</title>
<path fill="none" stroke="midnightblue" d="M2502.42,-98.09C2103.63,-98.05 644.6,-94.27 185,-42 182.1,-41.67 179.15,-41.3 176.18,-40.88"/>
<polygon fill="midnightblue" stroke="midnightblue" points="2502.49,-101.59 2512.49,-98.09 2502.49,-94.59 2502.49,-101.59"/>
</g>
<!-- Node3 -->
<g id="node3" class="node">
<title>Node3</title>
<g id="a_node3"><a xlink:href="rad__block_8h_source.html" target="_top" xlink:title=" ">
<polygon fill="white" stroke="black" points="194,-0.5 194,-41.5 370,-41.5 370,-0.5 194,-0.5"/>
<text text-anchor="start" x="202" y="-29.5" font-family="Helvetica,sans-Serif" font-size="10.00">/media/jvincent/Kingspec512</text>
<text text-anchor="start" x="202" y="-18.5" font-family="Helvetica,sans-Serif" font-size="10.00">/repos/RADix&#45;OS/RADixKernel</text>
<text text-anchor="middle" x="282" y="-7.5" font-family="Helvetica,sans-Serif" font-size="10.00">/headers/radixkernel/rad_block.h</text>
</a>
</g>
</g>
<!-- Node1&#45;&gt;Node3 -->
<g id="edge2" class="edge">
<title>Node1&#45;&gt;Node3</title>
<path fill="none" stroke="midnightblue" d="M2502.39,-97.88C2124.13,-97.03 797.79,-90.61 378,-42 375.38,-41.7 372.72,-41.36 370.05,-40.99"/>
<polygon fill="midnightblue" stroke="midnightblue" points="2502.49,-101.38 2512.5,-97.9 2502.51,-94.38 2502.49,-101.38"/>
</g>
<!-- Node4 -->
<g id="node4" class="node">
<title>Node4</title>
<g id="a_node4"><a xlink:href="rad__cpp_8h.html" target="_top" xlink:title="Small C++ convenience wrappers over the RADix&#45;OS C kernel ABI.">
<polygon fill="white" stroke="black" points="387.5,-0.5 387.5,-41.5 554.5,-41.5 554.5,-0.5 387.5,-0.5"/>
<text text-anchor="start" x="395.5" y="-29.5" font-family="Helvetica,sans-Serif" font-size="10.00">/media/jvincent/Kingspec512</text>
<text text-anchor="start" x="395.5" y="-18.5" font-family="Helvetica,sans-Serif" font-size="10.00">/repos/RADix&#45;OS/RADixKernel</text>
<text text-anchor="middle" x="471" y="-7.5" font-family="Helvetica,sans-Serif" font-size="10.00">/headers/radixkernel/rad_cpp.h</text>
</a>
</g>
</g>
<!-- Node1&#45;&gt;Node4 -->
<g id="edge3" class="edge">
<title>Node1&#45;&gt;Node4</title>
<path fill="none" stroke="midnightblue" d="M2502.24,-97.69C2144.45,-96.21 945.41,-87.85 564,-42 560.88,-41.63 557.72,-41.2 554.53,-40.72"/>
<polygon fill="midnightblue" stroke="midnightblue" points="2502.31,-101.19 2512.32,-97.73 2502.33,-94.19 2502.31,-101.19"/>
</g>
<!-- Node5 -->
<g id="node5" class="node">
<title>Node5</title>
<g id="a_node5"><a xlink:href="rad__device_8h_source.html" target="_top" xlink:title=" ">
<polygon fill="white" stroke="black" points="573,-0.5 573,-41.5 755,-41.5 755,-0.5 573,-0.5"/>
<text text-anchor="start" x="581" y="-29.5" font-family="Helvetica,sans-Serif" font-size="10.00">/media/jvincent/Kingspec512</text>
<text text-anchor="start" x="581" y="-18.5" font-family="Helvetica,sans-Serif" font-size="10.00">/repos/RADix&#45;OS/RADixKernel</text>
<text text-anchor="middle" x="664" y="-7.5" font-family="Helvetica,sans-Serif" font-size="10.00">/headers/radixkernel/rad_device.h</text>
</a>
</g>
</g>
<!-- Node1&#45;&gt;Node5 -->
<g id="edge4" class="edge">
<title>Node1&#45;&gt;Node5</title>
<path fill="none" stroke="midnightblue" d="M2502.17,-97.14C2167.7,-93.97 1104.78,-80.99 764,-42 761.1,-41.67 758.15,-41.3 755.19,-40.89"/>
<polygon fill="midnightblue" stroke="midnightblue" points="2502.3,-100.64 2512.33,-97.24 2502.36,-93.64 2502.3,-100.64"/>
</g>
<!-- Node6 -->
<g id="node6" class="node">
<title>Node6</title>
<g id="a_node6"><a xlink:href="rad__display_8h_source.html" target="_top" xlink:title=" ">
<polygon fill="white" stroke="black" points="773.5,-0.5 773.5,-41.5 956.5,-41.5 956.5,-0.5 773.5,-0.5"/>
<text text-anchor="start" x="781.5" y="-29.5" font-family="Helvetica,sans-Serif" font-size="10.00">/media/jvincent/Kingspec512</text>
<text text-anchor="start" x="781.5" y="-18.5" font-family="Helvetica,sans-Serif" font-size="10.00">/repos/RADix&#45;OS/RADixKernel</text>
<text text-anchor="middle" x="865" y="-7.5" font-family="Helvetica,sans-Serif" font-size="10.00">/headers/radixkernel/rad_display.h</text>
</a>
</g>
</g>
<!-- Node1&#45;&gt;Node6 -->
<g id="edge5" class="edge">
<title>Node1&#45;&gt;Node6</title>
<path fill="none" stroke="midnightblue" d="M2502.09,-96.7C2192.32,-92.39 1264.82,-76.87 965,-42 962.27,-41.68 959.51,-41.33 956.73,-40.95"/>
<polygon fill="midnightblue" stroke="midnightblue" points="2502.35,-100.2 2512.4,-96.84 2502.45,-93.2 2502.35,-100.2"/>
</g>
<!-- Node7 -->
<g id="node7" class="node">
<title>Node7</title>
<g id="a_node7"><a xlink:href="rad__dma_8h_source.html" target="_top" xlink:title=" ">
<polygon fill="white" stroke="black" points="974.5,-0.5 974.5,-41.5 1145.5,-41.5 1145.5,-0.5 974.5,-0.5"/>
<text text-anchor="start" x="982.5" y="-29.5" font-family="Helvetica,sans-Serif" font-size="10.00">/media/jvincent/Kingspec512</text>
<text text-anchor="start" x="982.5" y="-18.5" font-family="Helvetica,sans-Serif" font-size="10.00">/repos/RADix&#45;OS/RADixKernel</text>
<text text-anchor="middle" x="1060" y="-7.5" font-family="Helvetica,sans-Serif" font-size="10.00">/headers/radixkernel/rad_dma.h</text>
</a>
</g>
</g>
<!-- Node1&#45;&gt;Node7 -->
<g id="edge6" class="edge">
<title>Node1&#45;&gt;Node7</title>
<path fill="none" stroke="midnightblue" d="M2501.91,-96.33C2216.69,-91.3 1415.29,-74.6 1154,-42 1151.27,-41.66 1148.5,-41.28 1145.71,-40.87"/>
<polygon fill="midnightblue" stroke="midnightblue" points="2502.18,-99.83 2512.24,-96.51 2502.31,-92.84 2502.18,-99.83"/>
</g>
<!-- Node8 -->
<g id="node8" class="node">
<title>Node8</title>
<g id="a_node8"><a xlink:href="rad__event_8h_source.html" target="_top" xlink:title=" ">
<polygon fill="white" stroke="black" points="1163.5,-0.5 1163.5,-41.5 1340.5,-41.5 1340.5,-0.5 1163.5,-0.5"/>
<text text-anchor="start" x="1171.5" y="-29.5" font-family="Helvetica,sans-Serif" font-size="10.00">/media/jvincent/Kingspec512</text>
<text text-anchor="start" x="1171.5" y="-18.5" font-family="Helvetica,sans-Serif" font-size="10.00">/repos/RADix&#45;OS/RADixKernel</text>
<text text-anchor="middle" x="1252" y="-7.5" font-family="Helvetica,sans-Serif" font-size="10.00">/headers/radixkernel/rad_event.h</text>
</a>
</g>
</g>
<!-- Node1&#45;&gt;Node8 -->
<g id="edge7" class="edge">
<title>Node1&#45;&gt;Node8</title>
<path fill="none" stroke="midnightblue" d="M2502.05,-98.84C2287.82,-99.42 1775.59,-94.6 1350,-42 1346.9,-41.62 1343.75,-41.19 1340.57,-40.72"/>
<polygon fill="midnightblue" stroke="midnightblue" points="2502.34,-102.34 2512.33,-98.81 2502.32,-95.34 2502.34,-102.34"/>
</g>
<!-- Node9 -->
<g id="node9" class="node">
<title>Node9</title>
<g id="a_node9"><a xlink:href="rad__i2c_8h_source.html" target="_top" xlink:title=" ">
<polygon fill="white" stroke="black" points="1359,-0.5 1359,-41.5 1523,-41.5 1523,-0.5 1359,-0.5"/>
<text text-anchor="start" x="1367" y="-29.5" font-family="Helvetica,sans-Serif" font-size="10.00">/media/jvincent/Kingspec512</text>
<text text-anchor="start" x="1367" y="-18.5" font-family="Helvetica,sans-Serif" font-size="10.00">/repos/RADix&#45;OS/RADixKernel</text>
<text text-anchor="middle" x="1441" y="-7.5" font-family="Helvetica,sans-Serif" font-size="10.00">/headers/radixkernel/rad_i2c.h</text>
</a>
</g>
</g>
<!-- Node1&#45;&gt;Node9 -->
<g id="edge8" class="edge">
<title>Node1&#45;&gt;Node9</title>
<path fill="none" stroke="midnightblue" d="M2502.44,-98.23C2311.49,-97.44 1886.26,-89.85 1532,-42 1529.11,-41.61 1526.19,-41.18 1523.23,-40.71"/>
<polygon fill="midnightblue" stroke="midnightblue" points="2502.45,-101.73 2512.47,-98.27 2502.48,-94.73 2502.45,-101.73"/>
</g>
<!-- Node10 -->
<g id="node10" class="node">
<title>Node10</title>
<g id="a_node10"><a xlink:href="rad__input_8h_source.html" target="_top" xlink:title=" ">
<polygon fill="white" stroke="black" points="1541,-0.5 1541,-41.5 1715,-41.5 1715,-0.5 1541,-0.5"/>
<text text-anchor="start" x="1549" y="-29.5" font-family="Helvetica,sans-Serif" font-size="10.00">/media/jvincent/Kingspec512</text>
<text text-anchor="start" x="1549" y="-18.5" font-family="Helvetica,sans-Serif" font-size="10.00">/repos/RADix&#45;OS/RADixKernel</text>
<text text-anchor="middle" x="1628" y="-7.5" font-family="Helvetica,sans-Serif" font-size="10.00">/headers/radixkernel/rad_input.h</text>
</a>
</g>
</g>
<!-- Node1&#45;&gt;Node10 -->
<g id="edge9" class="edge">
<title>Node1&#45;&gt;Node10</title>
<path fill="none" stroke="midnightblue" d="M2502.27,-96.21C2337.92,-92.26 2004.1,-79.89 1724,-42 1721.05,-41.6 1718.05,-41.16 1715.03,-40.69"/>
<polygon fill="midnightblue" stroke="midnightblue" points="2502.29,-99.71 2512.37,-96.44 2502.45,-92.71 2502.29,-99.71"/>
</g>
<!-- Node11 -->
<g id="node11" class="node">
<title>Node11</title>
<g id="a_node11"><a xlink:href="rad__ioctl_8h_source.html" target="_top" xlink:title=" ">
<polygon fill="white" stroke="black" points="1733,-0.5 1733,-41.5 1903,-41.5 1903,-0.5 1733,-0.5"/>
<text text-anchor="start" x="1741" y="-29.5" font-family="Helvetica,sans-Serif" font-size="10.00">/media/jvincent/Kingspec512</text>
<text text-anchor="start" x="1741" y="-18.5" font-family="Helvetica,sans-Serif" font-size="10.00">/repos/RADix&#45;OS/RADixKernel</text>
<text text-anchor="middle" x="1818" y="-7.5" font-family="Helvetica,sans-Serif" font-size="10.00">/headers/radixkernel/rad_ioctl.h</text>
</a>
</g>
</g>
<!-- Node1&#45;&gt;Node11 -->
<g id="edge10" class="edge">
<title>Node1&#45;&gt;Node11</title>
<path fill="none" stroke="midnightblue" d="M2501.99,-93.86C2366.6,-87.43 2120.35,-72.47 1912,-42 1909.11,-41.58 1906.18,-41.12 1903.22,-40.63"/>
<polygon fill="midnightblue" stroke="midnightblue" points="2502.19,-97.37 2512.34,-94.35 2502.52,-90.38 2502.19,-97.37"/>
</g>
<!-- Node12 -->
<g id="node12" class="node">
<title>Node12</title>
<g id="a_node12"><a xlink:href="rad__irq_8h_source.html" target="_top" xlink:title=" ">
<polygon fill="white" stroke="black" points="1921,-0.5 1921,-41.5 2083,-41.5 2083,-0.5 1921,-0.5"/>
<text text-anchor="start" x="1929" y="-29.5" font-family="Helvetica,sans-Serif" font-size="10.00">/media/jvincent/Kingspec512</text>
<text text-anchor="start" x="1929" y="-18.5" font-family="Helvetica,sans-Serif" font-size="10.00">/repos/RADix&#45;OS/RADixKernel</text>
<text text-anchor="middle" x="2002" y="-7.5" font-family="Helvetica,sans-Serif" font-size="10.00">/headers/radixkernel/rad_irq.h</text>
</a>
</g>
</g>
<!-- Node1&#45;&gt;Node12 -->
<g id="edge11" class="edge">
<title>Node1&#45;&gt;Node12</title>
<path fill="none" stroke="midnightblue" d="M2502.34,-90.19C2398.71,-81.46 2233.52,-65.39 2092,-42 2089.16,-41.53 2086.27,-41.03 2083.36,-40.5"/>
<polygon fill="midnightblue" stroke="midnightblue" points="2502.23,-93.69 2512.49,-91.04 2502.81,-86.72 2502.23,-93.69"/>
</g>
<!-- Node13 -->
<g id="node13" class="node">
<title>Node13</title>
<g id="a_node13"><a xlink:href="rad__memory_8h_source.html" target="_top" xlink:title=" ">
<polygon fill="white" stroke="black" points="2101.5,-0.5 2101.5,-41.5 2290.5,-41.5 2290.5,-0.5 2101.5,-0.5"/>
<text text-anchor="start" x="2109.5" y="-29.5" font-family="Helvetica,sans-Serif" font-size="10.00">/media/jvincent/Kingspec512</text>
<text text-anchor="start" x="2109.5" y="-18.5" font-family="Helvetica,sans-Serif" font-size="10.00">/repos/RADix&#45;OS/RADixKernel</text>
<text text-anchor="middle" x="2196" y="-7.5" font-family="Helvetica,sans-Serif" font-size="10.00">/headers/radixkernel/rad_memory.h</text>
</a>
</g>
</g>
<!-- Node1&#45;&gt;Node13 -->
<g id="edge12" class="edge">
<title>Node1&#45;&gt;Node13</title>
<path fill="none" stroke="midnightblue" d="M2502.1,-79.43C2443.05,-68.62 2367.3,-54.67 2300,-42 2296.93,-41.42 2293.81,-40.83 2290.65,-40.24"/>
<polygon fill="midnightblue" stroke="midnightblue" points="2501.71,-82.92 2512.17,-81.28 2502.97,-76.03 2501.71,-82.92"/>
</g>
<!-- Node14 -->
<g id="node14" class="node">
<title>Node14</title>
<g id="a_node14"><a xlink:href="rad__module_8h_source.html" target="_top" xlink:title=" ">
<polygon fill="white" stroke="black" points="2309,-0.5 2309,-41.5 2495,-41.5 2495,-0.5 2309,-0.5"/>
<text text-anchor="start" x="2317" y="-29.5" font-family="Helvetica,sans-Serif" font-size="10.00">/media/jvincent/Kingspec512</text>
<text text-anchor="start" x="2317" y="-18.5" font-family="Helvetica,sans-Serif" font-size="10.00">/repos/RADix&#45;OS/RADixKernel</text>
<text text-anchor="middle" x="2402" y="-7.5" font-family="Helvetica,sans-Serif" font-size="10.00">/headers/radixkernel/rad_module.h</text>
</a>
</g>
</g>
<!-- Node1&#45;&gt;Node14 -->
<g id="edge13" class="edge">
<title>Node1&#45;&gt;Node14</title>
<path fill="none" stroke="midnightblue" d="M2542.57,-74.89C2514.21,-64.22 2480.91,-51.69 2453.84,-41.51"/>
<polygon fill="midnightblue" stroke="midnightblue" points="2541.39,-78.18 2551.98,-78.43 2543.85,-71.63 2541.39,-78.18"/>
</g>
<!-- Node15 -->
<g id="node15" class="node">
<title>Node15</title>
<g id="a_node15"><a xlink:href="rad__mutex_8h_source.html" target="_top" xlink:title=" ">
<polygon fill="white" stroke="black" points="2513.5,-0.5 2513.5,-41.5 2694.5,-41.5 2694.5,-0.5 2513.5,-0.5"/>
<text text-anchor="start" x="2521.5" y="-29.5" font-family="Helvetica,sans-Serif" font-size="10.00">/media/jvincent/Kingspec512</text>
<text text-anchor="start" x="2521.5" y="-18.5" font-family="Helvetica,sans-Serif" font-size="10.00">/repos/RADix&#45;OS/RADixKernel</text>
<text text-anchor="middle" x="2604" y="-7.5" font-family="Helvetica,sans-Serif" font-size="10.00">/headers/radixkernel/rad_mutex.h</text>
</a>
</g>
</g>
<!-- Node1&#45;&gt;Node15 -->
<g id="edge14" class="edge">
<title>Node1&#45;&gt;Node15</title>
<path fill="none" stroke="midnightblue" d="M2604,-68.3C2604,-59.3 2604,-49.65 2604,-41.51"/>
<polygon fill="midnightblue" stroke="midnightblue" points="2600.5,-68.43 2604,-78.43 2607.5,-68.43 2600.5,-68.43"/>
</g>
<!-- Node16 -->
<g id="node16" class="node">
<title>Node16</title>
<g id="a_node16"><a xlink:href="rad__net_8h_source.html" target="_top" xlink:title=" ">
<polygon fill="white" stroke="black" points="2712.5,-0.5 2712.5,-41.5 2877.5,-41.5 2877.5,-0.5 2712.5,-0.5"/>
<text text-anchor="start" x="2720.5" y="-29.5" font-family="Helvetica,sans-Serif" font-size="10.00">/media/jvincent/Kingspec512</text>
<text text-anchor="start" x="2720.5" y="-18.5" font-family="Helvetica,sans-Serif" font-size="10.00">/repos/RADix&#45;OS/RADixKernel</text>
<text text-anchor="middle" x="2795" y="-7.5" font-family="Helvetica,sans-Serif" font-size="10.00">/headers/radixkernel/rad_net.h</text>
</a>
</g>
</g>
<!-- Node1&#45;&gt;Node16 -->
<g id="edge15" class="edge">
<title>Node1&#45;&gt;Node16</title>
<path fill="none" stroke="midnightblue" d="M2662.79,-74.61C2689.45,-64 2720.61,-51.6 2745.98,-41.51"/>
<polygon fill="midnightblue" stroke="midnightblue" points="2661.18,-71.48 2653.19,-78.43 2663.77,-77.98 2661.18,-71.48"/>
</g>
<!-- Node17 -->
<g id="node17" class="node">
<title>Node17</title>
<g id="a_node17"><a xlink:href="rad__overlay_8h_source.html" target="_top" xlink:title=" ">
<polygon fill="white" stroke="black" points="2895.5,-0.5 2895.5,-41.5 3080.5,-41.5 3080.5,-0.5 2895.5,-0.5"/>
<text text-anchor="start" x="2903.5" y="-29.5" font-family="Helvetica,sans-Serif" font-size="10.00">/media/jvincent/Kingspec512</text>
<text text-anchor="start" x="2903.5" y="-18.5" font-family="Helvetica,sans-Serif" font-size="10.00">/repos/RADix&#45;OS/RADixKernel</text>
<text text-anchor="middle" x="2988" y="-7.5" font-family="Helvetica,sans-Serif" font-size="10.00">/headers/radixkernel/rad_overlay.h</text>
</a>
</g>
</g>
<!-- Node1&#45;&gt;Node17 -->
<g id="edge16" class="edge">
<title>Node1&#45;&gt;Node17</title>
<path fill="none" stroke="midnightblue" d="M2705.67,-77.89C2759.56,-67.22 2826.87,-53.9 2887,-42 2889.72,-41.46 2892.48,-40.92 2895.26,-40.36"/>
<polygon fill="midnightblue" stroke="midnightblue" points="2704.9,-74.47 2695.77,-79.84 2706.26,-81.34 2704.9,-74.47"/>
</g>
<!-- Node18 -->
<g id="node18" class="node">
<title>Node18</title>
<g id="a_node18"><a xlink:href="rad__posix_8h_source.html" target="_top" xlink:title=" ">
<polygon fill="white" stroke="black" points="3098,-0.5 3098,-41.5 3274,-41.5 3274,-0.5 3098,-0.5"/>
<text text-anchor="start" x="3106" y="-29.5" font-family="Helvetica,sans-Serif" font-size="10.00">/media/jvincent/Kingspec512</text>
<text text-anchor="start" x="3106" y="-18.5" font-family="Helvetica,sans-Serif" font-size="10.00">/repos/RADix&#45;OS/RADixKernel</text>
<text text-anchor="middle" x="3186" y="-7.5" font-family="Helvetica,sans-Serif" font-size="10.00">/headers/radixkernel/rad_posix.h</text>
</a>
</g>
</g>
<!-- Node1&#45;&gt;Node18 -->
<g id="edge17" class="edge">
<title>Node1&#45;&gt;Node18</title>
<path fill="none" stroke="midnightblue" d="M2705.66,-88.99C2804.25,-79.62 2957.87,-63.33 3090,-42 3092.61,-41.58 3095.25,-41.14 3097.91,-40.68"/>
<polygon fill="midnightblue" stroke="midnightblue" points="2705.33,-85.51 2695.7,-89.93 2705.99,-92.48 2705.33,-85.51"/>
</g>
<!-- Node19 -->
<g id="node19" class="node">
<title>Node19</title>
<g id="a_node19"><a xlink:href="rad__pty_8h_source.html" target="_top" xlink:title=" ">
<polygon fill="white" stroke="black" points="3292,-0.5 3292,-41.5 3456,-41.5 3456,-0.5 3292,-0.5"/>
<text text-anchor="start" x="3300" y="-29.5" font-family="Helvetica,sans-Serif" font-size="10.00">/media/jvincent/Kingspec512</text>
<text text-anchor="start" x="3300" y="-18.5" font-family="Helvetica,sans-Serif" font-size="10.00">/repos/RADix&#45;OS/RADixKernel</text>
<text text-anchor="middle" x="3374" y="-7.5" font-family="Helvetica,sans-Serif" font-size="10.00">/headers/radixkernel/rad_pty.h</text>
</a>
</g>
</g>
<!-- Node1&#45;&gt;Node19 -->
<g id="edge18" class="edge">
<title>Node1&#45;&gt;Node19</title>
<path fill="none" stroke="midnightblue" d="M2705.8,-93.86C2839.03,-87.48 3079.52,-72.61 3283,-42 3285.88,-41.57 3288.8,-41.1 3291.75,-40.59"/>
<polygon fill="midnightblue" stroke="midnightblue" points="2705.43,-90.38 2695.61,-94.35 2705.76,-97.37 2705.43,-90.38"/>
</g>
<!-- Node20 -->
<g id="node20" class="node">
<title>Node20</title>
<g id="a_node20"><a xlink:href="rad__service_8h_source.html" target="_top" xlink:title=" ">
<polygon fill="white" stroke="black" points="3474.5,-0.5 3474.5,-41.5 3659.5,-41.5 3659.5,-0.5 3474.5,-0.5"/>
<text text-anchor="start" x="3482.5" y="-29.5" font-family="Helvetica,sans-Serif" font-size="10.00">/media/jvincent/Kingspec512</text>
<text text-anchor="start" x="3482.5" y="-18.5" font-family="Helvetica,sans-Serif" font-size="10.00">/repos/RADix&#45;OS/RADixKernel</text>
<text text-anchor="middle" x="3567" y="-7.5" font-family="Helvetica,sans-Serif" font-size="10.00">/headers/radixkernel/rad_service.h</text>
</a>
</g>
</g>
<!-- Node1&#45;&gt;Node20 -->
<g id="edge19" class="edge">
<title>Node1&#45;&gt;Node20</title>
<path fill="none" stroke="midnightblue" d="M2706.22,-95.6C2867.9,-90.86 3192.28,-77.46 3465,-42 3468.04,-41.6 3471.13,-41.17 3474.24,-40.71"/>
<polygon fill="midnightblue" stroke="midnightblue" points="2705.7,-92.12 2695.81,-95.9 2705.9,-99.11 2705.7,-92.12"/>
</g>
<!-- Node21 -->
<g id="node21" class="node">
<title>Node21</title>
<g id="a_node21"><a xlink:href="rad__spi_8h_source.html" target="_top" xlink:title=" ">
<polygon fill="white" stroke="black" points="3678,-0.5 3678,-41.5 3842,-41.5 3842,-0.5 3678,-0.5"/>
<text text-anchor="start" x="3686" y="-29.5" font-family="Helvetica,sans-Serif" font-size="10.00">/media/jvincent/Kingspec512</text>
<text text-anchor="start" x="3686" y="-18.5" font-family="Helvetica,sans-Serif" font-size="10.00">/repos/RADix&#45;OS/RADixKernel</text>
<text text-anchor="middle" x="3760" y="-7.5" font-family="Helvetica,sans-Serif" font-size="10.00">/headers/radixkernel/rad_spi.h</text>
</a>
</g>
</g>
<!-- Node1&#45;&gt;Node21 -->
<g id="edge20" class="edge">
<title>Node1&#45;&gt;Node21</title>
<path fill="none" stroke="midnightblue" d="M2705.91,-98.18C2896.1,-97.28 3317.68,-89.52 3669,-42 3671.89,-41.61 3674.81,-41.18 3677.77,-40.71"/>
<polygon fill="midnightblue" stroke="midnightblue" points="2705.63,-94.68 2695.65,-98.22 2705.66,-101.68 2705.63,-94.68"/>
</g>
<!-- Node22 -->
<g id="node22" class="node">
<title>Node22</title>
<g id="a_node22"><a xlink:href="rad__task_8h_source.html" target="_top" xlink:title=" ">
<polygon fill="white" stroke="black" points="3860,-0.5 3860,-41.5 4030,-41.5 4030,-0.5 3860,-0.5"/>
<text text-anchor="start" x="3868" y="-29.5" font-family="Helvetica,sans-Serif" font-size="10.00">/media/jvincent/Kingspec512</text>
<text text-anchor="start" x="3868" y="-18.5" font-family="Helvetica,sans-Serif" font-size="10.00">/repos/RADix&#45;OS/RADixKernel</text>
<text text-anchor="middle" x="3945" y="-7.5" font-family="Helvetica,sans-Serif" font-size="10.00">/headers/radixkernel/rad_task.h</text>
</a>
</g>
</g>
<!-- Node1&#45;&gt;Node22 -->
<g id="edge21" class="edge">
<title>Node1&#45;&gt;Node22</title>
<path fill="none" stroke="midnightblue" d="M2705.55,-95.6C2961.89,-89.19 3630.39,-70.23 3851,-42 3853.9,-41.63 3856.84,-41.22 3859.8,-40.77"/>
<polygon fill="midnightblue" stroke="midnightblue" points="2705.41,-92.1 2695.5,-95.85 2705.59,-99.1 2705.41,-92.1"/>
</g>
<!-- Node23 -->
<g id="node23" class="node">
<title>Node23</title>
<g id="a_node23"><a xlink:href="rad__terminal_8h_source.html" target="_top" xlink:title=" ">
<polygon fill="white" stroke="black" points="4048.5,-0.5 4048.5,-41.5 4239.5,-41.5 4239.5,-0.5 4048.5,-0.5"/>
<text text-anchor="start" x="4056.5" y="-29.5" font-family="Helvetica,sans-Serif" font-size="10.00">/media/jvincent/Kingspec512</text>
<text text-anchor="start" x="4056.5" y="-18.5" font-family="Helvetica,sans-Serif" font-size="10.00">/repos/RADix&#45;OS/RADixKernel</text>
<text text-anchor="middle" x="4144" y="-7.5" font-family="Helvetica,sans-Serif" font-size="10.00">/headers/radixkernel/rad_terminal.h</text>
</a>
</g>
</g>
<!-- Node1&#45;&gt;Node23 -->
<g id="edge22" class="edge">
<title>Node1&#45;&gt;Node23</title>
<path fill="none" stroke="midnightblue" d="M2706,-96C2989.05,-90.13 3780.39,-71.51 4039,-42 4042.04,-41.65 4045.13,-41.27 4048.24,-40.85"/>
<polygon fill="midnightblue" stroke="midnightblue" points="2705.67,-92.51 2695.75,-96.21 2705.82,-99.5 2705.67,-92.51"/>
</g>
<!-- Node24 -->
<g id="node24" class="node">
<title>Node24</title>
<g id="a_node24"><a xlink:href="rad__time_8h_source.html" target="_top" xlink:title=" ">
<polygon fill="white" stroke="black" points="4258,-0.5 4258,-41.5 4430,-41.5 4430,-0.5 4258,-0.5"/>
<text text-anchor="start" x="4266" y="-29.5" font-family="Helvetica,sans-Serif" font-size="10.00">/media/jvincent/Kingspec512</text>
<text text-anchor="start" x="4266" y="-18.5" font-family="Helvetica,sans-Serif" font-size="10.00">/repos/RADix&#45;OS/RADixKernel</text>
<text text-anchor="middle" x="4344" y="-7.5" font-family="Helvetica,sans-Serif" font-size="10.00">/headers/radixkernel/rad_time.h</text>
</a>
</g>
</g>
<!-- Node1&#45;&gt;Node24 -->
<g id="edge23" class="edge">
<title>Node1&#45;&gt;Node24</title>
<path fill="none" stroke="midnightblue" d="M2706.03,-96.84C3016.71,-92.96 3948.18,-78.51 4249,-42 4251.93,-41.64 4254.9,-41.24 4257.9,-40.81"/>
<polygon fill="midnightblue" stroke="midnightblue" points="2705.64,-93.35 2695.69,-96.97 2705.73,-100.35 2705.64,-93.35"/>
</g>
<!-- Node25 -->
<g id="node25" class="node">
<title>Node25</title>
<g id="a_node25"><a xlink:href="rad__tree_8h_source.html" target="_top" xlink:title=" ">
<polygon fill="white" stroke="black" points="4448.5,-0.5 4448.5,-41.5 4617.5,-41.5 4617.5,-0.5 4448.5,-0.5"/>
<text text-anchor="start" x="4456.5" y="-29.5" font-family="Helvetica,sans-Serif" font-size="10.00">/media/jvincent/Kingspec512</text>
<text text-anchor="start" x="4456.5" y="-18.5" font-family="Helvetica,sans-Serif" font-size="10.00">/repos/RADix&#45;OS/RADixKernel</text>
<text text-anchor="middle" x="4533" y="-7.5" font-family="Helvetica,sans-Serif" font-size="10.00">/headers/radixkernel/rad_tree.h</text>
</a>
</g>
</g>
<!-- Node1&#45;&gt;Node25 -->
<g id="edge24" class="edge">
<title>Node1&#45;&gt;Node25</title>
<path fill="none" stroke="midnightblue" d="M2705.86,-97.29C3039.81,-94.6 4099.49,-82.96 4439,-42 4442.06,-41.63 4445.18,-41.21 4448.31,-40.75"/>
<polygon fill="midnightblue" stroke="midnightblue" points="2705.69,-93.79 2695.72,-97.37 2705.74,-100.79 2705.69,-93.79"/>
</g>
<!-- Node26 -->
<g id="node26" class="node">
<title>Node26</title>
<g id="a_node26"><a xlink:href="rad__tty_8h_source.html" target="_top" xlink:title=" ">
<polygon fill="white" stroke="black" points="4635.5,-0.5 4635.5,-41.5 4796.5,-41.5 4796.5,-0.5 4635.5,-0.5"/>
<text text-anchor="start" x="4643.5" y="-29.5" font-family="Helvetica,sans-Serif" font-size="10.00">/media/jvincent/Kingspec512</text>
<text text-anchor="start" x="4643.5" y="-18.5" font-family="Helvetica,sans-Serif" font-size="10.00">/repos/RADix&#45;OS/RADixKernel</text>
<text text-anchor="middle" x="4716" y="-7.5" font-family="Helvetica,sans-Serif" font-size="10.00">/headers/radixkernel/rad_tty.h</text>
</a>
</g>
</g>
<!-- Node1&#45;&gt;Node26 -->
<g id="edge25" class="edge">
<title>Node1&#45;&gt;Node26</title>
<path fill="none" stroke="midnightblue" d="M2705.54,-97.78C3061.15,-96.63 4249.2,-89.23 4627,-42 4629.67,-41.67 4632.38,-41.29 4635.11,-40.87"/>
<polygon fill="midnightblue" stroke="midnightblue" points="2705.51,-94.28 2695.52,-97.82 2705.53,-101.28 2705.51,-94.28"/>
</g>
<!-- Node27 -->
<g id="node27" class="node">
<title>Node27</title>
<g id="a_node27"><a xlink:href="rad__vfs_8h_source.html" target="_top" xlink:title=" ">
<polygon fill="white" stroke="black" points="4815,-0.5 4815,-41.5 4979,-41.5 4979,-0.5 4815,-0.5"/>
<text text-anchor="start" x="4823" y="-29.5" font-family="Helvetica,sans-Serif" font-size="10.00">/media/jvincent/Kingspec512</text>
<text text-anchor="start" x="4823" y="-18.5" font-family="Helvetica,sans-Serif" font-size="10.00">/repos/RADix&#45;OS/RADixKernel</text>
<text text-anchor="middle" x="4897" y="-7.5" font-family="Helvetica,sans-Serif" font-size="10.00">/headers/radixkernel/rad_vfs.h</text>
</a>
</g>
</g>
<!-- Node1&#45;&gt;Node27 -->
<g id="edge26" class="edge">
<title>Node1&#45;&gt;Node27</title>
<path fill="none" stroke="midnightblue" d="M2705.81,-97.99C3081.75,-97.55 4391.48,-92.35 4806,-42 4808.89,-41.65 4811.82,-41.25 4814.78,-40.81"/>
<polygon fill="midnightblue" stroke="midnightblue" points="2705.75,-94.49 2695.76,-98 2705.76,-101.49 2705.75,-94.49"/>
</g>
<!-- Node28 -->
<g id="node28" class="node">
<title>Node28</title>
<g id="a_node28"><a xlink:href="radboot_8h.html" target="_top" xlink:title="Helpers for constructing rad_boot_info_t records during platform handoff.">
<polygon fill="white" stroke="black" points="4997.5,-0.5 4997.5,-41.5 5158.5,-41.5 5158.5,-0.5 4997.5,-0.5"/>
<text text-anchor="start" x="5005.5" y="-29.5" font-family="Helvetica,sans-Serif" font-size="10.00">/media/jvincent/Kingspec512</text>
<text text-anchor="start" x="5005.5" y="-18.5" font-family="Helvetica,sans-Serif" font-size="10.00">/repos/RADix&#45;OS/RADixKernel</text>
<text text-anchor="middle" x="5078" y="-7.5" font-family="Helvetica,sans-Serif" font-size="10.00">/boot/radboot.h</text>
</a>
</g>
</g>
<!-- Node1&#45;&gt;Node28 -->
<g id="edge27" class="edge">
<title>Node1&#45;&gt;Node28</title>
<path fill="none" stroke="midnightblue" d="M2706.09,-98.25C3102,-98.83 4536.21,-96.97 4988,-42 4991.02,-41.63 4994.09,-41.21 4997.18,-40.74"/>
<polygon fill="midnightblue" stroke="midnightblue" points="2705.81,-94.75 2695.81,-98.24 2705.8,-101.75 2705.81,-94.75"/>
</g>
</g>
</svg>
