<?xml version="1.0" encoding="UTF-8" standalone="no"?>
<!DOCTYPE svg PUBLIC "-//W3C//DTD SVG 1.1//EN"
 "http://www.w3.org/Graphics/SVG/1.1/DTD/svg11.dtd">
<!-- Generated by graphviz version 2.43.0 (0)
 -->
<!-- Title: /media/jvincent/Kingspec512/repos/RADix&#45;OS/RADixKernel/headers/radixkernel/radixkernel.h Pages: 1 -->
<svg width="4963pt" height="128pt"
 viewBox="0.00 0.00 4962.50 128.00" xmlns="http://www.w3.org/2000/svg" xmlns:xlink="http://www.w3.org/1999/xlink">
<g id="graph0" class="graph" transform="scale(1 1) rotate(0) translate(4 124)">
<title>/media/jvincent/Kingspec512/repos/RADix&#45;OS/RADixKernel/headers/radixkernel/radixkernel.h</title>
<polygon fill="white" stroke="transparent" points="-4,4 -4,-124 4958.5,-124 4958.5,4 -4,4"/>
<!-- Node1 -->
<g id="node1" class="node">
<title>Node1</title>
<g id="a_node1"><a xlink:title="Portable embedded kernel service ABI for RADLib.">
<polygon fill="#bfbfbf" stroke="black" points="2411.5,-78.5 2411.5,-119.5 2594.5,-119.5 2594.5,-78.5 2411.5,-78.5"/>
<text text-anchor="start" x="2419.5" y="-107.5" font-family="Helvetica,sans-Serif" font-size="10.00">/media/jvincent/Kingspec512</text>
<text text-anchor="start" x="2419.5" y="-96.5" font-family="Helvetica,sans-Serif" font-size="10.00">/repos/RADix&#45;OS/RADixKernel</text>
<text text-anchor="middle" x="2503" y="-85.5" font-family="Helvetica,sans-Serif" font-size="10.00">/headers/radixkernel/radixkernel.h</text>
</a>
</g>
</g>
<!-- Node2 -->
<g id="node2" class="node">
<title>Node2</title>
<g id="a_node2"><a xlink:href="rad__audio_8h.html" target="_top" xlink:title=" ">
<polygon fill="white" stroke="black" points="0,-0.5 0,-41.5 176,-41.5 176,-0.5 0,-0.5"/>
<text text-anchor="start" x="8" y="-29.5" font-family="Helvetica,sans-Serif" font-size="10.00">/media/jvincent/Kingspec512</text>
<text text-anchor="start" x="8" y="-18.5" font-family="Helvetica,sans-Serif" font-size="10.00">/repos/RADix&#45;OS/RADixKernel</text>
<text text-anchor="middle" x="88" y="-7.5" font-family="Helvetica,sans-Serif" font-size="10.00">/headers/radixkernel/rad_audio.h</text>
</a>
</g>
</g>
<!-- Node1&#45;&gt;Node2 -->
<g id="edge1" class="edge">
<title>Node1&#45;&gt;Node2</title>
<path fill="none" stroke="midnightblue" d="M2401.14,-97.97C2012.62,-97.46 623.68,-92.11 185,-42 182.1,-41.67 179.15,-41.29 176.18,-40.88"/>
<polygon fill="midnightblue" stroke="midnightblue" points="2401.23,-101.47 2411.24,-97.98 2401.24,-94.47 2401.23,-101.47"/>
</g>
<!-- Node3 -->
<g id="node3" class="node">
<title>Node3</title>
<g id="a_node3"><a xlink:href="rad__block_8h.html" target="_top" xlink:title=" ">
<polygon fill="white" stroke="black" points="194,-0.5 194,-41.5 370,-41.5 370,-0.5 194,-0.5"/>
<text text-anchor="start" x="202" y="-29.5" font-family="Helvetica,sans-Serif" font-size="10.00">/media/jvincent/Kingspec512</text>
<text text-anchor="start" x="202" y="-18.5" font-family="Helvetica,sans-Serif" font-size="10.00">/repos/RADix&#45;OS/RADixKernel</text>
<text text-anchor="middle" x="282" y="-7.5" font-family="Helvetica,sans-Serif" font-size="10.00">/headers/radixkernel/rad_block.h</text>
</a>
</g>
</g>
<!-- Node1&#45;&gt;Node3 -->
<g id="edge2" class="edge">
<title>Node1&#45;&gt;Node3</title>
<path fill="none" stroke="midnightblue" d="M2401.39,-97.73C2034.25,-96.39 777.04,-88.45 378,-42 375.38,-41.69 372.72,-41.35 370.05,-40.98"/>
<polygon fill="midnightblue" stroke="midnightblue" points="2401.46,-101.23 2411.47,-97.77 2401.48,-94.23 2401.46,-101.23"/>
</g>
<!-- Node4 -->
<g id="node4" class="node">
<title>Node4</title>
<g id="a_node4"><a xlink:href="rad__cpp_8h.html" target="_top" xlink:title=" ">
<polygon fill="white" stroke="black" points="387.5,-0.5 387.5,-41.5 554.5,-41.5 554.5,-0.5 387.5,-0.5"/>
<text text-anchor="start" x="395.5" y="-29.5" font-family="Helvetica,sans-Serif" font-size="10.00">/media/jvincent/Kingspec512</text>
<text text-anchor="start" x="395.5" y="-18.5" font-family="Helvetica,sans-Serif" font-size="10.00">/repos/RADix&#45;OS/RADixKernel</text>
<text text-anchor="middle" x="471" y="-7.5" font-family="Helvetica,sans-Serif" font-size="10.00">/headers/radixkernel/rad_cpp.h</text>
</a>
</g>
</g>
<!-- Node1&#45;&gt;Node4 -->
<g id="edge3" class="edge">
<title>Node1&#45;&gt;Node4</title>
<path fill="none" stroke="midnightblue" d="M2401.31,-97.52C2055.24,-95.5 924.76,-85.63 564,-42 560.88,-41.62 557.72,-41.19 554.53,-40.72"/>
<polygon fill="midnightblue" stroke="midnightblue" points="2401.3,-101.02 2411.32,-97.58 2401.34,-94.02 2401.3,-101.02"/>
</g>
<!-- Node5 -->
<g id="node5" class="node">
<title>Node5</title>
<g id="a_node5"><a xlink:href="rad__device_8h.html" target="_top" xlink:title=" ">
<polygon fill="white" stroke="black" points="573,-0.5 573,-41.5 755,-41.5 755,-0.5 573,-0.5"/>
<text text-anchor="start" x="581" y="-29.5" font-family="Helvetica,sans-Serif" font-size="10.00">/media/jvincent/Kingspec512</text>
<text text-anchor="start" x="581" y="-18.5" font-family="Helvetica,sans-Serif" font-size="10.00">/repos/RADix&#45;OS/RADixKernel</text>
<text text-anchor="middle" x="664" y="-7.5" font-family="Helvetica,sans-Serif" font-size="10.00">/headers/radixkernel/rad_device.h</text>
</a>
</g>
</g>
<!-- Node1&#45;&gt;Node5 -->
<g id="edge4" class="edge">
<title>Node1&#45;&gt;Node5</title>
<path fill="none" stroke="midnightblue" d="M2401.03,-96.93C2078.68,-93.2 1084.14,-78.91 764,-42 761.1,-41.67 758.15,-41.29 755.19,-40.88"/>
<polygon fill="midnightblue" stroke="midnightblue" points="2401.25,-100.43 2411.29,-97.05 2401.33,-93.43 2401.25,-100.43"/>
</g>
<!-- Node6 -->
<g id="node6" class="node">
<title>Node6</title>
<g id="a_node6"><a xlink:href="rad__display_8h.html" target="_top" xlink:title=" ">
<polygon fill="white" stroke="black" points="773.5,-0.5 773.5,-41.5 956.5,-41.5 956.5,-0.5 773.5,-0.5"/>
<text text-anchor="start" x="781.5" y="-29.5" font-family="Helvetica,sans-Serif" font-size="10.00">/media/jvincent/Kingspec512</text>
<text text-anchor="start" x="781.5" y="-18.5" font-family="Helvetica,sans-Serif" font-size="10.00">/repos/RADix&#45;OS/RADixKernel</text>
<text text-anchor="middle" x="865" y="-7.5" font-family="Helvetica,sans-Serif" font-size="10.00">/headers/radixkernel/rad_display.h</text>
</a>
</g>
</g>
<!-- Node1&#45;&gt;Node6 -->
<g id="edge5" class="edge">
<title>Node1&#45;&gt;Node6</title>
<path fill="none" stroke="midnightblue" d="M2401,-96.43C2104.19,-91.52 1244.3,-74.8 965,-42 962.27,-41.68 959.51,-41.33 956.73,-40.94"/>
<polygon fill="midnightblue" stroke="midnightblue" points="2401.26,-99.94 2411.32,-96.6 2401.38,-92.94 2401.26,-99.94"/>
</g>
<!-- Node7 -->
<g id="node7" class="node">
<title>Node7</title>
<g id="a_node7"><a xlink:href="rad__dma_8h.html" target="_top" xlink:title=" ">
<polygon fill="white" stroke="black" points="974.5,-0.5 974.5,-41.5 1145.5,-41.5 1145.5,-0.5 974.5,-0.5"/>
<text text-anchor="start" x="982.5" y="-29.5" font-family="Helvetica,sans-Serif" font-size="10.00">/media/jvincent/Kingspec512</text>
<text text-anchor="start" x="982.5" y="-18.5" font-family="Helvetica,sans-Serif" font-size="10.00">/repos/RADix&#45;OS/RADixKernel</text>
<text text-anchor="middle" x="1060" y="-7.5" font-family="Helvetica,sans-Serif" font-size="10.00">/headers/radixkernel/rad_dma.h</text>
</a>
</g>
</g>
<!-- Node1&#45;&gt;Node7 -->
<g id="edge6" class="edge">
<title>Node1&#45;&gt;Node7</title>
<path fill="none" stroke="midnightblue" d="M2400.94,-95.99C2129.64,-90.28 1394.94,-72.41 1154,-42 1151.27,-41.66 1148.5,-41.27 1145.71,-40.86"/>
<polygon fill="midnightblue" stroke="midnightblue" points="2401.1,-99.49 2411.17,-96.2 2401.24,-92.49 2401.1,-99.49"/>
</g>
<!-- Node8 -->
<g id="node8" class="node">
<title>Node8</title>
<g id="a_node8"><a xlink:href="rad__event_8h.html" target="_top" xlink:title=" ">
<polygon fill="white" stroke="black" points="1163.5,-0.5 1163.5,-41.5 1340.5,-41.5 1340.5,-0.5 1163.5,-0.5"/>
<text text-anchor="start" x="1171.5" y="-29.5" font-family="Helvetica,sans-Serif" font-size="10.00">/media/jvincent/Kingspec512</text>
<text text-anchor="start" x="1171.5" y="-18.5" font-family="Helvetica,sans-Serif" font-size="10.00">/repos/RADix&#45;OS/RADixKernel</text>
<text text-anchor="middle" x="1252" y="-7.5" font-family="Helvetica,sans-Serif" font-size="10.00">/headers/radixkernel/rad_event.h</text>
</a>
</g>
</g>
<!-- Node1&#45;&gt;Node8 -->
<g id="edge7" class="edge">
<title>Node1&#45;&gt;Node8</title>
<path fill="none" stroke="midnightblue" d="M2401.14,-98.26C2199.6,-97.63 1736.01,-90.47 1350,-42 1346.9,-41.61 1343.75,-41.18 1340.57,-40.71"/>
<polygon fill="midnightblue" stroke="midnightblue" points="2401.4,-101.76 2411.41,-98.29 2401.42,-94.76 2401.4,-101.76"/>
</g>
<!-- Node9 -->
<g id="node9" class="node">
<title>Node9</title>
<g id="a_node9"><a xlink:href="rad__i2c_8h.html" target="_top" xlink:title=" ">
<polygon fill="white" stroke="black" points="1359,-0.5 1359,-41.5 1523,-41.5 1523,-0.5 1359,-0.5"/>
<text text-anchor="start" x="1367" y="-29.5" font-family="Helvetica,sans-Serif" font-size="10.00">/media/jvincent/Kingspec512</text>
<text text-anchor="start" x="1367" y="-18.5" font-family="Helvetica,sans-Serif" font-size="10.00">/repos/RADix&#45;OS/RADixKernel</text>
<text text-anchor="middle" x="1441" y="-7.5" font-family="Helvetica,sans-Serif" font-size="10.00">/headers/radixkernel/rad_i2c.h</text>
</a>
</g>
</g>
<!-- Node1&#45;&gt;Node9 -->
<g id="edge8" class="edge">
<title>Node1&#45;&gt;Node9</title>
<path fill="none" stroke="midnightblue" d="M2401.06,-97.43C2223.62,-95.25 1846.85,-85.4 1532,-42 1529.12,-41.6 1526.19,-41.16 1523.23,-40.69"/>
<polygon fill="midnightblue" stroke="midnightblue" points="2401.12,-100.93 2411.16,-97.55 2401.2,-93.93 2401.12,-100.93"/>
</g>
<!-- Node10 -->
<g id="node10" class="node">
<title>Node10</title>
<g id="a_node10"><a xlink:href="rad__input_8h.html" target="_top" xlink:title=" ">
<polygon fill="white" stroke="black" points="1541,-0.5 1541,-41.5 1715,-41.5 1715,-0.5 1541,-0.5"/>
<text text-anchor="start" x="1549" y="-29.5" font-family="Helvetica,sans-Serif" font-size="10.00">/media/jvincent/Kingspec512</text>
<text text-anchor="start" x="1549" y="-18.5" font-family="Helvetica,sans-Serif" font-size="10.00">/repos/RADix&#45;OS/RADixKernel</text>
<text text-anchor="middle" x="1628" y="-7.5" font-family="Helvetica,sans-Serif" font-size="10.00">/headers/radixkernel/rad_input.h</text>
</a>
</g>
</g>
<!-- Node1&#45;&gt;Node10 -->
<g id="edge9" class="edge">
<title>Node1&#45;&gt;Node10</title>
<path fill="none" stroke="midnightblue" d="M2401.38,-95.03C2252.23,-89.68 1965.55,-75.69 1724,-42 1721.05,-41.59 1718.05,-41.14 1715.03,-40.66"/>
<polygon fill="midnightblue" stroke="midnightblue" points="2401.32,-98.53 2411.44,-95.38 2401.57,-91.53 2401.32,-98.53"/>
</g>
<!-- Node11 -->
<g id="node11" class="node">
<title>Node11</title>
<g id="a_node11"><a xlink:href="rad__ioctl_8h.html" target="_top" xlink:title=" ">
<polygon fill="white" stroke="black" points="1733,-0.5 1733,-41.5 1903,-41.5 1903,-0.5 1733,-0.5"/>
<text text-anchor="start" x="1741" y="-29.5" font-family="Helvetica,sans-Serif" font-size="10.00">/media/jvincent/Kingspec512</text>
<text text-anchor="start" x="1741" y="-18.5" font-family="Helvetica,sans-Serif" font-size="10.00">/repos/RADix&#45;OS/RADixKernel</text>
<text text-anchor="middle" x="1818" y="-7.5" font-family="Helvetica,sans-Serif" font-size="10.00">/headers/radixkernel/rad_ioctl.h</text>
</a>
</g>
</g>
<!-- Node1&#45;&gt;Node11 -->
<g id="edge10" class="edge">
<title>Node1&#45;&gt;Node11</title>
<path fill="none" stroke="midnightblue" d="M2401.36,-91.94C2283.27,-84.08 2082.76,-68.17 1912,-42 1909.11,-41.56 1906.18,-41.08 1903.23,-40.58"/>
<polygon fill="midnightblue" stroke="midnightblue" points="2401.27,-95.44 2411.48,-92.61 2401.73,-88.46 2401.27,-95.44"/>
</g>
<!-- Node12 -->
<g id="node12" class="node">
<title>Node12</title>
<g id="a_node12"><a xlink:href="rad__irq_8h.html" target="_top" xlink:title=" ">
<polygon fill="white" stroke="black" points="1921,-0.5 1921,-41.5 2083,-41.5 2083,-0.5 1921,-0.5"/>
<text text-anchor="start" x="1929" y="-29.5" font-family="Helvetica,sans-Serif" font-size="10.00">/media/jvincent/Kingspec512</text>
<text text-anchor="start" x="1929" y="-18.5" font-family="Helvetica,sans-Serif" font-size="10.00">/repos/RADix&#45;OS/RADixKernel</text>
<text text-anchor="middle" x="2002" y="-7.5" font-family="Helvetica,sans-Serif" font-size="10.00">/headers/radixkernel/rad_irq.h</text>
</a>
</g>
</g>
<!-- Node1&#45;&gt;Node12 -->
<g id="edge11" class="edge">
<title>Node1&#45;&gt;Node12</title>
<path fill="none" stroke="midnightblue" d="M2401.26,-86.53C2317.86,-76.55 2196.9,-60.77 2092,-42 2089.16,-41.49 2086.28,-40.96 2083.37,-40.4"/>
<polygon fill="midnightblue" stroke="midnightblue" points="2400.9,-90.01 2411.24,-87.72 2401.73,-83.06 2400.9,-90.01"/>
</g>
<!-- Node13 -->
<g id="node13" class="node">
<title>Node13</title>
<g id="a_node13"><a xlink:href="rad__memory_8h.html" target="_top" xlink:title=" ">
<polygon fill="white" stroke="black" points="2101.5,-0.5 2101.5,-41.5 2290.5,-41.5 2290.5,-0.5 2101.5,-0.5"/>
<text text-anchor="start" x="2109.5" y="-29.5" font-family="Helvetica,sans-Serif" font-size="10.00">/media/jvincent/Kingspec512</text>
<text text-anchor="start" x="2109.5" y="-18.5" font-family="Helvetica,sans-Serif" font-size="10.00">/repos/RADix&#45;OS/RADixKernel</text>
<text text-anchor="middle" x="2196" y="-7.5" font-family="Helvetica,sans-Serif" font-size="10.00">/headers/radixkernel/rad_memory.h</text>
</a>
</g>
</g>
<!-- Node1&#45;&gt;Node13 -->
<g id="edge12" class="edge">
<title>Node1&#45;&gt;Node13</title>
<path fill="none" stroke="midnightblue" d="M2414.11,-75.99C2370.07,-65.09 2317.36,-52.04 2274.79,-41.51"/>
<polygon fill="midnightblue" stroke="midnightblue" points="2413.39,-79.42 2423.94,-78.43 2415.07,-72.63 2413.39,-79.42"/>
</g>
<!-- Node14 -->
<g id="node14" class="node">
<title>Node14</title>
<g id="a_node14"><a xlink:href="rad__module_8h.html" target="_top" xlink:title=" ">
<polygon fill="white" stroke="black" points="2309,-0.5 2309,-41.5 2495,-41.5 2495,-0.5 2309,-0.5"/>
<text text-anchor="start" x="2317" y="-29.5" font-family="Helvetica,sans-Serif" font-size="10.00">/media/jvincent/Kingspec512</text>
<text text-anchor="start" x="2317" y="-18.5" font-family="Helvetica,sans-Serif" font-size="10.00">/repos/RADix&#45;OS/RADixKernel</text>
<text text-anchor="middle" x="2402" y="-7.5" font-family="Helvetica,sans-Serif" font-size="10.00">/headers/radixkernel/rad_module.h</text>
</a>
</g>
</g>
<!-- Node1&#45;&gt;Node14 -->
<g id="edge13" class="edge">
<title>Node1&#45;&gt;Node14</title>
<path fill="none" stroke="midnightblue" d="M2468.91,-72.35C2455.52,-62.27 2440.4,-50.89 2427.92,-41.51"/>
<polygon fill="midnightblue" stroke="midnightblue" points="2466.9,-75.21 2476.99,-78.43 2471.1,-69.62 2466.9,-75.21"/>
</g>
<!-- Node15 -->
<g id="node15" class="node">
<title>Node15</title>
<g id="a_node15"><a xlink:href="rad__mutex_8h.html" target="_top" xlink:title=" ">
<polygon fill="white" stroke="black" points="2513.5,-0.5 2513.5,-41.5 2694.5,-41.5 2694.5,-0.5 2513.5,-0.5"/>
<text text-anchor="start" x="2521.5" y="-29.5" font-family="Helvetica,sans-Serif" font-size="10.00">/media/jvincent/Kingspec512</text>
<text text-anchor="start" x="2521.5" y="-18.5" font-family="Helvetica,sans-Serif" font-size="10.00">/repos/RADix&#45;OS/RADixKernel</text>
<text text-anchor="middle" x="2604" y="-7.5" font-family="Helvetica,sans-Serif" font-size="10.00">/headers/radixkernel/rad_mutex.h</text>
</a>
</g>
</g>
<!-- Node1&#45;&gt;Node15 -->
<g id="edge14" class="edge">
<title>Node1&#45;&gt;Node15</title>
<path fill="none" stroke="midnightblue" d="M2537.09,-72.35C2550.48,-62.27 2565.6,-50.89 2578.08,-41.51"/>
<polygon fill="midnightblue" stroke="midnightblue" points="2534.9,-69.62 2529.01,-78.43 2539.1,-75.21 2534.9,-69.62"/>
</g>
<!-- Node16 -->
<g id="node16" class="node">
<title>Node16</title>
<g id="a_node16"><a xlink:href="rad__net_8h.html" target="_top" xlink:title=" ">
<polygon fill="white" stroke="black" points="2712.5,-0.5 2712.5,-41.5 2877.5,-41.5 2877.5,-0.5 2712.5,-0.5"/>
<text text-anchor="start" x="2720.5" y="-29.5" font-family="Helvetica,sans-Serif" font-size="10.00">/media/jvincent/Kingspec512</text>
<text text-anchor="start" x="2720.5" y="-18.5" font-family="Helvetica,sans-Serif" font-size="10.00">/repos/RADix&#45;OS/RADixKernel</text>
<text text-anchor="middle" x="2795" y="-7.5" font-family="Helvetica,sans-Serif" font-size="10.00">/headers/radixkernel/rad_net.h</text>
</a>
</g>
</g>
<!-- Node1&#45;&gt;Node16 -->
<g id="edge15" class="edge">
<title>Node1&#45;&gt;Node16</title>
<path fill="none" stroke="midnightblue" d="M2588.08,-75.86C2629.85,-64.98 2679.74,-52 2720.06,-41.51"/>
<polygon fill="midnightblue" stroke="midnightblue" points="2586.99,-72.52 2578.2,-78.43 2588.76,-79.3 2586.99,-72.52"/>
</g>
<!-- Node17 -->
<g id="node17" class="node">
<title>Node17</title>
<g id="a_node17"><a xlink:href="rad__overlay_8h.html" target="_top" xlink:title=" ">
<polygon fill="white" stroke="black" points="2895.5,-0.5 2895.5,-41.5 3080.5,-41.5 3080.5,-0.5 2895.5,-0.5"/>
<text text-anchor="start" x="2903.5" y="-29.5" font-family="Helvetica,sans-Serif" font-size="10.00">/media/jvincent/Kingspec512</text>
<text text-anchor="start" x="2903.5" y="-18.5" font-family="Helvetica,sans-Serif" font-size="10.00">/repos/RADix&#45;OS/RADixKernel</text>
<text text-anchor="middle" x="2988" y="-7.5" font-family="Helvetica,sans-Serif" font-size="10.00">/headers/radixkernel/rad_overlay.h</text>
</a>
</g>
</g>
<!-- Node1&#45;&gt;Node17 -->
<g id="edge16" class="edge">
<title>Node1&#45;&gt;Node17</title>
<path fill="none" stroke="midnightblue" d="M2605,-84.56C2682.51,-74 2791.68,-58.38 2887,-42 2889.73,-41.53 2892.5,-41.05 2895.3,-40.55"/>
<polygon fill="midnightblue" stroke="midnightblue" points="2604.2,-81.14 2594.76,-85.95 2605.14,-88.07 2604.2,-81.14"/>
</g>
<!-- Node18 -->
<g id="node18" class="node">
<title>Node18</title>
<g id="a_node18"><a xlink:href="rad__posix_8h.html" target="_top" xlink:title=" ">
<polygon fill="white" stroke="black" points="3098,-0.5 3098,-41.5 3274,-41.5 3274,-0.5 3098,-0.5"/>
<text text-anchor="start" x="3106" y="-29.5" font-family="Helvetica,sans-Serif" font-size="10.00">/media/jvincent/Kingspec512</text>
<text text-anchor="start" x="3106" y="-18.5" font-family="Helvetica,sans-Serif" font-size="10.00">/repos/RADix&#45;OS/RADixKernel</text>
<text text-anchor="middle" x="3186" y="-7.5" font-family="Helvetica,sans-Serif" font-size="10.00">/headers/radixkernel/rad_posix.h</text>
</a>
</g>
</g>
<!-- Node1&#45;&gt;Node18 -->
<g id="edge17" class="edge">
<title>Node1&#45;&gt;Node18</title>
<path fill="none" stroke="midnightblue" d="M2604.69,-91.72C2722.07,-83.67 2920.71,-67.63 3090,-42 3092.61,-41.61 3095.25,-41.18 3097.92,-40.74"/>
<polygon fill="midnightblue" stroke="midnightblue" points="2604.38,-88.23 2594.64,-92.4 2604.85,-95.21 2604.38,-88.23"/>
</g>
<!-- Node19 -->
<g id="node19" class="node">
<title>Node19</title>
<g id="a_node19"><a xlink:href="rad__pty_8h.html" target="_top" xlink:title=" ">
<polygon fill="white" stroke="black" points="3292,-0.5 3292,-41.5 3456,-41.5 3456,-0.5 3292,-0.5"/>
<text text-anchor="start" x="3300" y="-29.5" font-family="Helvetica,sans-Serif" font-size="10.00">/media/jvincent/Kingspec512</text>
<text text-anchor="start" x="3300" y="-18.5" font-family="Helvetica,sans-Serif" font-size="10.00">/repos/RADix&#45;OS/RADixKernel</text>
<text text-anchor="middle" x="3374" y="-7.5" font-family="Helvetica,sans-Serif" font-size="10.00">/headers/radixkernel/rad_pty.h</text>
</a>
</g>
</g>
<!-- Node1&#45;&gt;Node19 -->
<g id="edge18" class="edge">
<title>Node1&#45;&gt;Node19</title>
<path fill="none" stroke="midnightblue" d="M2604.8,-95.39C2754.21,-90.49 3041.33,-77.04 3283,-42 3285.88,-41.58 3288.81,-41.12 3291.76,-40.63"/>
<polygon fill="midnightblue" stroke="midnightblue" points="2604.61,-91.89 2594.72,-95.71 2604.83,-98.89 2604.61,-91.89"/>
</g>
<!-- Node20 -->
<g id="node20" class="node">
<title>Node20</title>
<g id="a_node20"><a xlink:href="rad__spi_8h.html" target="_top" xlink:title=" ">
<polygon fill="white" stroke="black" points="3474,-0.5 3474,-41.5 3638,-41.5 3638,-0.5 3474,-0.5"/>
<text text-anchor="start" x="3482" y="-29.5" font-family="Helvetica,sans-Serif" font-size="10.00">/media/jvincent/Kingspec512</text>
<text text-anchor="start" x="3482" y="-18.5" font-family="Helvetica,sans-Serif" font-size="10.00">/repos/RADix&#45;OS/RADixKernel</text>
<text text-anchor="middle" x="3556" y="-7.5" font-family="Helvetica,sans-Serif" font-size="10.00">/headers/radixkernel/rad_spi.h</text>
</a>
</g>
</g>
<!-- Node1&#45;&gt;Node20 -->
<g id="edge19" class="edge">
<title>Node1&#45;&gt;Node20</title>
<path fill="none" stroke="midnightblue" d="M2604.69,-97.35C2780.77,-95.06 3153.48,-85.02 3465,-42 3467.88,-41.6 3470.81,-41.16 3473.77,-40.68"/>
<polygon fill="midnightblue" stroke="midnightblue" points="2604.61,-93.85 2594.66,-97.48 2604.7,-100.85 2604.61,-93.85"/>
</g>
<!-- Node21 -->
<g id="node21" class="node">
<title>Node21</title>
<g id="a_node21"><a xlink:href="rad__task_8h.html" target="_top" xlink:title=" ">
<polygon fill="white" stroke="black" points="3656,-0.5 3656,-41.5 3826,-41.5 3826,-0.5 3656,-0.5"/>
<text text-anchor="start" x="3664" y="-29.5" font-family="Helvetica,sans-Serif" font-size="10.00">/media/jvincent/Kingspec512</text>
<text text-anchor="start" x="3664" y="-18.5" font-family="Helvetica,sans-Serif" font-size="10.00">/repos/RADix&#45;OS/RADixKernel</text>
<text text-anchor="middle" x="3741" y="-7.5" font-family="Helvetica,sans-Serif" font-size="10.00">/headers/radixkernel/rad_task.h</text>
</a>
</g>
</g>
<!-- Node1&#45;&gt;Node21 -->
<g id="edge20" class="edge">
<title>Node1&#45;&gt;Node21</title>
<path fill="none" stroke="midnightblue" d="M2604.86,-98.49C2805.3,-98.24 3264.69,-91.7 3647,-42 3649.9,-41.62 3652.83,-41.21 3655.8,-40.75"/>
<polygon fill="midnightblue" stroke="midnightblue" points="2604.64,-94.99 2594.64,-98.49 2604.65,-101.99 2604.64,-94.99"/>
</g>
<!-- Node22 -->
<g id="node22" class="node">
<title>Node22</title>
<g id="a_node22"><a xlink:href="rad__terminal_8h.html" target="_top" xlink:title=" ">
<polygon fill="white" stroke="black" points="3844.5,-0.5 3844.5,-41.5 4035.5,-41.5 4035.5,-0.5 3844.5,-0.5"/>
<text text-anchor="start" x="3852.5" y="-29.5" font-family="Helvetica,sans-Serif" font-size="10.00">/media/jvincent/Kingspec512</text>
<text text-anchor="start" x="3852.5" y="-18.5" font-family="Helvetica,sans-Serif" font-size="10.00">/repos/RADix&#45;OS/RADixKernel</text>
<text text-anchor="middle" x="3940" y="-7.5" font-family="Helvetica,sans-Serif" font-size="10.00">/headers/radixkernel/rad_terminal.h</text>
</a>
</g>
</g>
<!-- Node1&#45;&gt;Node22 -->
<g id="edge21" class="edge">
<title>Node1&#45;&gt;Node22</title>
<path fill="none" stroke="midnightblue" d="M2604.67,-98.78C2828.05,-99.38 3378.15,-94.83 3835,-42 3838.04,-41.65 3841.13,-41.26 3844.24,-40.84"/>
<polygon fill="midnightblue" stroke="midnightblue" points="2604.62,-95.28 2594.6,-98.75 2604.59,-102.28 2604.62,-95.28"/>
</g>
<!-- Node23 -->
<g id="node23" class="node">
<title>Node23</title>
<g id="a_node23"><a xlink:href="rad__time_8h.html" target="_top" xlink:title=" ">
<polygon fill="white" stroke="black" points="4054,-0.5 4054,-41.5 4226,-41.5 4226,-0.5 4054,-0.5"/>
<text text-anchor="start" x="4062" y="-29.5" font-family="Helvetica,sans-Serif" font-size="10.00">/media/jvincent/Kingspec512</text>
<text text-anchor="start" x="4062" y="-18.5" font-family="Helvetica,sans-Serif" font-size="10.00">/repos/RADix&#45;OS/RADixKernel</text>
<text text-anchor="middle" x="4140" y="-7.5" font-family="Helvetica,sans-Serif" font-size="10.00">/headers/radixkernel/rad_time.h</text>
</a>
</g>
</g>
<!-- Node1&#45;&gt;Node23 -->
<g id="edge22" class="edge">
<title>Node1&#45;&gt;Node23</title>
<path fill="none" stroke="midnightblue" d="M2605.02,-96.58C2902.4,-92.06 3765.06,-76.29 4045,-42 4047.93,-41.64 4050.9,-41.24 4053.89,-40.8"/>
<polygon fill="midnightblue" stroke="midnightblue" points="2604.63,-93.08 2594.68,-96.73 2604.73,-100.08 2604.63,-93.08"/>
</g>
<!-- Node24 -->
<g id="node24" class="node">
<title>Node24</title>
<g id="a_node24"><a xlink:href="rad__tree_8h.html" target="_top" xlink:title=" ">
<polygon fill="white" stroke="black" points="4244.5,-0.5 4244.5,-41.5 4413.5,-41.5 4413.5,-0.5 4244.5,-0.5"/>
<text text-anchor="start" x="4252.5" y="-29.5" font-family="Helvetica,sans-Serif" font-size="10.00">/media/jvincent/Kingspec512</text>
<text text-anchor="start" x="4252.5" y="-18.5" font-family="Helvetica,sans-Serif" font-size="10.00">/repos/RADix&#45;OS/RADixKernel</text>
<text text-anchor="middle" x="4329" y="-7.5" font-family="Helvetica,sans-Serif" font-size="10.00">/headers/radixkernel/rad_tree.h</text>
</a>
</g>
</g>
<!-- Node1&#45;&gt;Node24 -->
<g id="edge23" class="edge">
<title>Node1&#45;&gt;Node24</title>
<path fill="none" stroke="midnightblue" d="M2604.86,-97.08C2926.26,-93.8 3916.47,-80.72 4235,-42 4238.06,-41.63 4241.18,-41.2 4244.31,-40.74"/>
<polygon fill="midnightblue" stroke="midnightblue" points="2604.59,-93.58 2594.63,-97.18 2604.66,-100.58 2604.59,-93.58"/>
</g>
<!-- Node25 -->
<g id="node25" class="node">
<title>Node25</title>
<g id="a_node25"><a xlink:href="rad__tty_8h.html" target="_top" xlink:title=" ">
<polygon fill="white" stroke="black" points="4431.5,-0.5 4431.5,-41.5 4592.5,-41.5 4592.5,-0.5 4431.5,-0.5"/>
<text text-anchor="start" x="4439.5" y="-29.5" font-family="Helvetica,sans-Serif" font-size="10.00">/media/jvincent/Kingspec512</text>
<text text-anchor="start" x="4439.5" y="-18.5" font-family="Helvetica,sans-Serif" font-size="10.00">/repos/RADix&#45;OS/RADixKernel</text>
<text text-anchor="middle" x="4512" y="-7.5" font-family="Helvetica,sans-Serif" font-size="10.00">/headers/radixkernel/rad_tty.h</text>
</a>
</g>
</g>
<!-- Node1&#45;&gt;Node25 -->
<g id="edge24" class="edge">
<title>Node1&#45;&gt;Node25</title>
<path fill="none" stroke="midnightblue" d="M2604.85,-97.61C2948.91,-95.87 4066.37,-86.85 4423,-42 4425.67,-41.66 4428.38,-41.28 4431.11,-40.87"/>
<polygon fill="midnightblue" stroke="midnightblue" points="2604.64,-94.11 2594.65,-97.66 2604.67,-101.11 2604.64,-94.11"/>
</g>
<!-- Node26 -->
<g id="node26" class="node">
<title>Node26</title>
<g id="a_node26"><a xlink:href="rad__vfs_8h.html" target="_top" xlink:title=" ">
<polygon fill="white" stroke="black" points="4611,-0.5 4611,-41.5 4775,-41.5 4775,-0.5 4611,-0.5"/>
<text text-anchor="start" x="4619" y="-29.5" font-family="Helvetica,sans-Serif" font-size="10.00">/media/jvincent/Kingspec512</text>
<text text-anchor="start" x="4619" y="-18.5" font-family="Helvetica,sans-Serif" font-size="10.00">/repos/RADix&#45;OS/RADixKernel</text>
<text text-anchor="middle" x="4693" y="-7.5" font-family="Helvetica,sans-Serif" font-size="10.00">/headers/radixkernel/rad_vfs.h</text>
</a>
</g>
</g>
<!-- Node1&#45;&gt;Node26 -->
<g id="edge25" class="edge">
<title>Node1&#45;&gt;Node26</title>
<path fill="none" stroke="midnightblue" d="M2604.62,-97.84C2968.92,-96.87 4208.55,-90.04 4602,-42 4604.89,-41.65 4607.82,-41.24 4610.78,-40.8"/>
<polygon fill="midnightblue" stroke="midnightblue" points="2604.61,-94.34 2594.62,-97.87 2604.63,-101.34 2604.61,-94.34"/>
</g>
<!-- Node27 -->
<g id="node27" class="node">
<title>Node27</title>
<g id="a_node27"><a xlink:href="radboot_8h.html" target="_top" xlink:title=" ">
<polygon fill="white" stroke="black" points="4793.5,-0.5 4793.5,-41.5 4954.5,-41.5 4954.5,-0.5 4793.5,-0.5"/>
<text text-anchor="start" x="4801.5" y="-29.5" font-family="Helvetica,sans-Serif" font-size="10.00">/media/jvincent/Kingspec512</text>
<text text-anchor="start" x="4801.5" y="-18.5" font-family="Helvetica,sans-Serif" font-size="10.00">/repos/RADix&#45;OS/RADixKernel</text>
<text text-anchor="middle" x="4874" y="-7.5" font-family="Helvetica,sans-Serif" font-size="10.00">/boot/radboot.h</text>
</a>
</g>
</g>
<!-- Node1&#45;&gt;Node27 -->
<g id="edge26" class="edge">
<title>Node1&#45;&gt;Node27</title>
<path fill="none" stroke="midnightblue" d="M2604.84,-98.13C2989.43,-98.19 4353.32,-94.63 4784,-42 4787.02,-41.63 4790.09,-41.21 4793.18,-40.74"/>
<polygon fill="midnightblue" stroke="midnightblue" points="2604.57,-94.63 2594.57,-98.12 2604.57,-101.63 2604.57,-94.63"/>
</g>
</g>
</svg>
