<?xml version="1.0" encoding="UTF-8" standalone="no"?>
<!DOCTYPE svg PUBLIC "-//W3C//DTD SVG 1.1//EN"
 "http://www.w3.org/Graphics/SVG/1.1/DTD/svg11.dtd">
<!-- Generated by graphviz version 2.43.0 (0)
 -->
<!-- Title: /media/jvincent/Kingspec512/repos/RADix&#45;OS/RADixKernel/headers/radixkernel/radixkernel.h Pages: 1 -->
<svg width="5352pt" height="128pt"
 viewBox="0.00 0.00 5351.50 128.00" xmlns="http://www.w3.org/2000/svg" xmlns:xlink="http://www.w3.org/1999/xlink">
<g id="graph0" class="graph" transform="scale(1 1) rotate(0) translate(4 124)">
<title>/media/jvincent/Kingspec512/repos/RADix&#45;OS/RADixKernel/headers/radixkernel/radixkernel.h</title>
<polygon fill="white" stroke="transparent" points="-4,4 -4,-124 5347.5,-124 5347.5,4 -4,4"/>
<!-- Node1 -->
<g id="node1" class="node">
<title>Node1</title>
<g id="a_node1"><a xlink:title="Portable RADix kernel service ABI for RADLib and RADix&#45;OS targets.">
<polygon fill="#bfbfbf" stroke="black" points="2607.5,-78.5 2607.5,-119.5 2790.5,-119.5 2790.5,-78.5 2607.5,-78.5"/>
<text text-anchor="start" x="2615.5" y="-107.5" font-family="Helvetica,sans-Serif" font-size="10.00">/media/jvincent/Kingspec512</text>
<text text-anchor="start" x="2615.5" y="-96.5" font-family="Helvetica,sans-Serif" font-size="10.00">/repos/RADix&#45;OS/RADixKernel</text>
<text text-anchor="middle" x="2699" y="-85.5" font-family="Helvetica,sans-Serif" font-size="10.00">/headers/radixkernel/radixkernel.h</text>
</a>
</g>
</g>
<!-- Node2 -->
<g id="node2" class="node">
<title>Node2</title>
<g id="a_node2"><a xlink:href="rad__audio_8h_source.html" target="_top" xlink:title=" ">
<polygon fill="white" stroke="black" points="0,-0.5 0,-41.5 176,-41.5 176,-0.5 0,-0.5"/>
<text text-anchor="start" x="8" y="-29.5" font-family="Helvetica,sans-Serif" font-size="10.00">/media/jvincent/Kingspec512</text>
<text text-anchor="start" x="8" y="-18.5" font-family="Helvetica,sans-Serif" font-size="10.00">/repos/RADix&#45;OS/RADixKernel</text>
<text text-anchor="middle" x="88" y="-7.5" font-family="Helvetica,sans-Serif" font-size="10.00">/headers/radixkernel/rad_audio.h</text>
</a>
</g>
</g>
<!-- Node1&#45;&gt;Node2 -->
<g id="edge1" class="edge">
<title>Node1&#45;&gt;Node2</title>
<path fill="none" stroke="midnightblue" d="M2597.2,-98.19C2188.27,-98.58 664.13,-96.28 185,-42 182.1,-41.67 179.15,-41.3 176.18,-40.89"/>
<polygon fill="midnightblue" stroke="midnightblue" points="2597.24,-101.69 2607.24,-98.18 2597.23,-94.69 2597.24,-101.69"/>
</g>
<!-- Node3 -->
<g id="node3" class="node">
<title>Node3</title>
<g id="a_node3"><a xlink:href="rad__block_8h_source.html" target="_top" xlink:title=" ">
<polygon fill="white" stroke="black" points="194,-0.5 194,-41.5 370,-41.5 370,-0.5 194,-0.5"/>
<text text-anchor="start" x="202" y="-29.5" font-family="Helvetica,sans-Serif" font-size="10.00">/media/jvincent/Kingspec512</text>
<text text-anchor="start" x="202" y="-18.5" font-family="Helvetica,sans-Serif" font-size="10.00">/repos/RADix&#45;OS/RADixKernel</text>
<text text-anchor="middle" x="282" y="-7.5" font-family="Helvetica,sans-Serif" font-size="10.00">/headers/radixkernel/rad_block.h</text>
</a>
</g>
</g>
<!-- Node1&#45;&gt;Node3 -->
<g id="edge2" class="edge">
<title>Node1&#45;&gt;Node3</title>
<path fill="none" stroke="midnightblue" d="M2597.33,-98C2208.75,-97.61 817.32,-92.64 378,-42 375.38,-41.7 372.72,-41.36 370.05,-40.99"/>
<polygon fill="midnightblue" stroke="midnightblue" points="2597.43,-101.5 2607.43,-98.01 2597.43,-94.5 2597.43,-101.5"/>
</g>
<!-- Node4 -->
<g id="node4" class="node">
<title>Node4</title>
<g id="a_node4"><a xlink:href="rad__cpp_8h.html" target="_top" xlink:title="Small C++ convenience wrappers over the RADix&#45;OS C kernel ABI.">
<polygon fill="white" stroke="black" points="387.5,-0.5 387.5,-41.5 554.5,-41.5 554.5,-0.5 387.5,-0.5"/>
<text text-anchor="start" x="395.5" y="-29.5" font-family="Helvetica,sans-Serif" font-size="10.00">/media/jvincent/Kingspec512</text>
<text text-anchor="start" x="395.5" y="-18.5" font-family="Helvetica,sans-Serif" font-size="10.00">/repos/RADix&#45;OS/RADixKernel</text>
<text text-anchor="middle" x="471" y="-7.5" font-family="Helvetica,sans-Serif" font-size="10.00">/headers/radixkernel/rad_cpp.h</text>
</a>
</g>
</g>
<!-- Node1&#45;&gt;Node4 -->
<g id="edge3" class="edge">
<title>Node1&#45;&gt;Node4</title>
<path fill="none" stroke="midnightblue" d="M2597.22,-97.83C2228.72,-96.84 964.88,-89.94 564,-42 560.88,-41.63 557.72,-41.2 554.53,-40.73"/>
<polygon fill="midnightblue" stroke="midnightblue" points="2597.32,-101.33 2607.33,-97.86 2597.34,-94.33 2597.32,-101.33"/>
</g>
<!-- Node5 -->
<g id="node5" class="node">
<title>Node5</title>
<g id="a_node5"><a xlink:href="rad__device_8h_source.html" target="_top" xlink:title=" ">
<polygon fill="white" stroke="black" points="573,-0.5 573,-41.5 755,-41.5 755,-0.5 573,-0.5"/>
<text text-anchor="start" x="581" y="-29.5" font-family="Helvetica,sans-Serif" font-size="10.00">/media/jvincent/Kingspec512</text>
<text text-anchor="start" x="581" y="-18.5" font-family="Helvetica,sans-Serif" font-size="10.00">/repos/RADix&#45;OS/RADixKernel</text>
<text text-anchor="middle" x="664" y="-7.5" font-family="Helvetica,sans-Serif" font-size="10.00">/headers/radixkernel/rad_device.h</text>
</a>
</g>
</g>
<!-- Node1&#45;&gt;Node5 -->
<g id="edge4" class="edge">
<title>Node1&#45;&gt;Node5</title>
<path fill="none" stroke="midnightblue" d="M2596.99,-97.32C2251.06,-94.64 1124.13,-82.93 764,-42 761.1,-41.67 758.15,-41.3 755.19,-40.9"/>
<polygon fill="midnightblue" stroke="midnightblue" points="2597.21,-100.82 2607.24,-97.39 2597.27,-93.82 2597.21,-100.82"/>
</g>
<!-- Node6 -->
<g id="node6" class="node">
<title>Node6</title>
<g id="a_node6"><a xlink:href="rad__display_8h_source.html" target="_top" xlink:title=" ">
<polygon fill="white" stroke="black" points="773.5,-0.5 773.5,-41.5 956.5,-41.5 956.5,-0.5 773.5,-0.5"/>
<text text-anchor="start" x="781.5" y="-29.5" font-family="Helvetica,sans-Serif" font-size="10.00">/media/jvincent/Kingspec512</text>
<text text-anchor="start" x="781.5" y="-18.5" font-family="Helvetica,sans-Serif" font-size="10.00">/repos/RADix&#45;OS/RADixKernel</text>
<text text-anchor="middle" x="865" y="-7.5" font-family="Helvetica,sans-Serif" font-size="10.00">/headers/radixkernel/rad_display.h</text>
</a>
</g>
</g>
<!-- Node1&#45;&gt;Node6 -->
<g id="edge5" class="edge">
<title>Node1&#45;&gt;Node6</title>
<path fill="none" stroke="midnightblue" d="M2597.04,-96.92C2275.33,-93.16 1284.13,-78.81 965,-42 962.27,-41.69 959.51,-41.34 956.73,-40.96"/>
<polygon fill="midnightblue" stroke="midnightblue" points="2597.24,-100.42 2607.28,-97.04 2597.32,-93.42 2597.24,-100.42"/>
</g>
<!-- Node7 -->
<g id="node7" class="node">
<title>Node7</title>
<g id="a_node7"><a xlink:href="rad__dma_8h_source.html" target="_top" xlink:title=" ">
<polygon fill="white" stroke="black" points="974.5,-0.5 974.5,-41.5 1145.5,-41.5 1145.5,-0.5 974.5,-0.5"/>
<text text-anchor="start" x="982.5" y="-29.5" font-family="Helvetica,sans-Serif" font-size="10.00">/media/jvincent/Kingspec512</text>
<text text-anchor="start" x="982.5" y="-18.5" font-family="Helvetica,sans-Serif" font-size="10.00">/repos/RADix&#45;OS/RADixKernel</text>
<text text-anchor="middle" x="1060" y="-7.5" font-family="Helvetica,sans-Serif" font-size="10.00">/headers/radixkernel/rad_dma.h</text>
</a>
</g>
</g>
<!-- Node1&#45;&gt;Node7 -->
<g id="edge6" class="edge">
<title>Node1&#45;&gt;Node7</title>
<path fill="none" stroke="midnightblue" d="M2597.04,-96.61C2299.31,-92.2 1434.53,-76.66 1154,-42 1151.27,-41.66 1148.5,-41.29 1145.7,-40.88"/>
<polygon fill="midnightblue" stroke="midnightblue" points="2597.34,-100.12 2607.39,-96.77 2597.45,-93.12 2597.34,-100.12"/>
</g>
<!-- Node8 -->
<g id="node8" class="node">
<title>Node8</title>
<g id="a_node8"><a xlink:href="rad__event_8h_source.html" target="_top" xlink:title=" ">
<polygon fill="white" stroke="black" points="1163.5,-0.5 1163.5,-41.5 1340.5,-41.5 1340.5,-0.5 1163.5,-0.5"/>
<text text-anchor="start" x="1171.5" y="-29.5" font-family="Helvetica,sans-Serif" font-size="10.00">/media/jvincent/Kingspec512</text>
<text text-anchor="start" x="1171.5" y="-18.5" font-family="Helvetica,sans-Serif" font-size="10.00">/repos/RADix&#45;OS/RADixKernel</text>
<text text-anchor="middle" x="1252" y="-7.5" font-family="Helvetica,sans-Serif" font-size="10.00">/headers/radixkernel/rad_event.h</text>
</a>
</g>
</g>
<!-- Node1&#45;&gt;Node8 -->
<g id="edge7" class="edge">
<title>Node1&#45;&gt;Node8</title>
<path fill="none" stroke="midnightblue" d="M2596.95,-95.88C2325.69,-89.9 1591.07,-71.41 1350,-42 1346.9,-41.62 1343.75,-41.2 1340.57,-40.74"/>
<polygon fill="midnightblue" stroke="midnightblue" points="2597.11,-99.38 2607.18,-96.1 2597.26,-92.38 2597.11,-99.38"/>
</g>
<!-- Node9 -->
<g id="node9" class="node">
<title>Node9</title>
<g id="a_node9"><a xlink:href="rad__i2c_8h_source.html" target="_top" xlink:title=" ">
<polygon fill="white" stroke="black" points="1359,-0.5 1359,-41.5 1523,-41.5 1523,-0.5 1359,-0.5"/>
<text text-anchor="start" x="1367" y="-29.5" font-family="Helvetica,sans-Serif" font-size="10.00">/media/jvincent/Kingspec512</text>
<text text-anchor="start" x="1367" y="-18.5" font-family="Helvetica,sans-Serif" font-size="10.00">/repos/RADix&#45;OS/RADixKernel</text>
<text text-anchor="middle" x="1441" y="-7.5" font-family="Helvetica,sans-Serif" font-size="10.00">/headers/radixkernel/rad_i2c.h</text>
</a>
</g>
</g>
<!-- Node1&#45;&gt;Node9 -->
<g id="edge8" class="edge">
<title>Node1&#45;&gt;Node9</title>
<path fill="none" stroke="midnightblue" d="M2597.3,-98.86C2393.98,-99.31 1923.26,-94.01 1532,-42 1529.11,-41.62 1526.18,-41.19 1523.23,-40.72"/>
<polygon fill="midnightblue" stroke="midnightblue" points="2597.38,-102.36 2607.37,-98.83 2597.36,-95.36 2597.38,-102.36"/>
</g>
<!-- Node10 -->
<g id="node10" class="node">
<title>Node10</title>
<g id="a_node10"><a xlink:href="rad__input_8h_source.html" target="_top" xlink:title=" ">
<polygon fill="white" stroke="black" points="1541,-0.5 1541,-41.5 1715,-41.5 1715,-0.5 1541,-0.5"/>
<text text-anchor="start" x="1549" y="-29.5" font-family="Helvetica,sans-Serif" font-size="10.00">/media/jvincent/Kingspec512</text>
<text text-anchor="start" x="1549" y="-18.5" font-family="Helvetica,sans-Serif" font-size="10.00">/repos/RADix&#45;OS/RADixKernel</text>
<text text-anchor="middle" x="1628" y="-7.5" font-family="Helvetica,sans-Serif" font-size="10.00">/headers/radixkernel/rad_input.h</text>
</a>
</g>
</g>
<!-- Node1&#45;&gt;Node10 -->
<g id="edge9" class="edge">
<title>Node1&#45;&gt;Node10</title>
<path fill="none" stroke="midnightblue" d="M2597.03,-97.1C2419.08,-94.42 2040.58,-83.84 1724,-42 1721.05,-41.61 1718.05,-41.18 1715.02,-40.72"/>
<polygon fill="midnightblue" stroke="midnightblue" points="2597.12,-100.6 2607.17,-97.25 2597.22,-93.6 2597.12,-100.6"/>
</g>
<!-- Node11 -->
<g id="node11" class="node">
<title>Node11</title>
<g id="a_node11"><a xlink:href="rad__ioctl_8h_source.html" target="_top" xlink:title=" ">
<polygon fill="white" stroke="black" points="1733,-0.5 1733,-41.5 1903,-41.5 1903,-0.5 1733,-0.5"/>
<text text-anchor="start" x="1741" y="-29.5" font-family="Helvetica,sans-Serif" font-size="10.00">/media/jvincent/Kingspec512</text>
<text text-anchor="start" x="1741" y="-18.5" font-family="Helvetica,sans-Serif" font-size="10.00">/repos/RADix&#45;OS/RADixKernel</text>
<text text-anchor="middle" x="1818" y="-7.5" font-family="Helvetica,sans-Serif" font-size="10.00">/headers/radixkernel/rad_ioctl.h</text>
</a>
</g>
</g>
<!-- Node1&#45;&gt;Node11 -->
<g id="edge10" class="edge">
<title>Node1&#45;&gt;Node11</title>
<path fill="none" stroke="midnightblue" d="M2597.23,-95.26C2446.79,-90.2 2156.45,-76.53 1912,-42 1909.11,-41.59 1906.17,-41.15 1903.21,-40.67"/>
<polygon fill="midnightblue" stroke="midnightblue" points="2597.27,-98.77 2607.38,-95.6 2597.5,-91.77 2597.27,-98.77"/>
</g>
<!-- Node12 -->
<g id="node12" class="node">
<title>Node12</title>
<g id="a_node12"><a xlink:href="rad__irq_8h_source.html" target="_top" xlink:title=" ">
<polygon fill="white" stroke="black" points="1921,-0.5 1921,-41.5 2083,-41.5 2083,-0.5 1921,-0.5"/>
<text text-anchor="start" x="1929" y="-29.5" font-family="Helvetica,sans-Serif" font-size="10.00">/media/jvincent/Kingspec512</text>
<text text-anchor="start" x="1929" y="-18.5" font-family="Helvetica,sans-Serif" font-size="10.00">/repos/RADix&#45;OS/RADixKernel</text>
<text text-anchor="middle" x="2002" y="-7.5" font-family="Helvetica,sans-Serif" font-size="10.00">/headers/radixkernel/rad_irq.h</text>
</a>
</g>
</g>
<!-- Node1&#45;&gt;Node12 -->
<g id="edge11" class="edge">
<title>Node1&#45;&gt;Node12</title>
<path fill="none" stroke="midnightblue" d="M2597.29,-92.56C2476.33,-85.19 2268.57,-69.65 2092,-42 2089.15,-41.55 2086.26,-41.07 2083.35,-40.56"/>
<polygon fill="midnightblue" stroke="midnightblue" points="2597.1,-96.06 2607.29,-93.17 2597.52,-89.07 2597.1,-96.06"/>
</g>
<!-- Node13 -->
<g id="node13" class="node">
<title>Node13</title>
<g id="a_node13"><a xlink:href="rad__memory_8h_source.html" target="_top" xlink:title=" ">
<polygon fill="white" stroke="black" points="2101.5,-0.5 2101.5,-41.5 2290.5,-41.5 2290.5,-0.5 2101.5,-0.5"/>
<text text-anchor="start" x="2109.5" y="-29.5" font-family="Helvetica,sans-Serif" font-size="10.00">/media/jvincent/Kingspec512</text>
<text text-anchor="start" x="2109.5" y="-18.5" font-family="Helvetica,sans-Serif" font-size="10.00">/repos/RADix&#45;OS/RADixKernel</text>
<text text-anchor="middle" x="2196" y="-7.5" font-family="Helvetica,sans-Serif" font-size="10.00">/headers/radixkernel/rad_memory.h</text>
</a>
</g>
</g>
<!-- Node1&#45;&gt;Node13 -->
<g id="edge12" class="edge">
<title>Node1&#45;&gt;Node13</title>
<path fill="none" stroke="midnightblue" d="M2597.12,-85.14C2516.36,-74.61 2400.75,-58.75 2300,-42 2296.92,-41.49 2293.78,-40.95 2290.62,-40.41"/>
<polygon fill="midnightblue" stroke="midnightblue" points="2596.91,-88.65 2607.28,-86.47 2597.82,-81.71 2596.91,-88.65"/>
</g>
<!-- Node14 -->
<g id="node14" class="node">
<title>Node14</title>
<g id="a_node14"><a xlink:href="rad__module_8h_source.html" target="_top" xlink:title=" ">
<polygon fill="white" stroke="black" points="2309,-0.5 2309,-41.5 2495,-41.5 2495,-0.5 2309,-0.5"/>
<text text-anchor="start" x="2317" y="-29.5" font-family="Helvetica,sans-Serif" font-size="10.00">/media/jvincent/Kingspec512</text>
<text text-anchor="start" x="2317" y="-18.5" font-family="Helvetica,sans-Serif" font-size="10.00">/repos/RADix&#45;OS/RADixKernel</text>
<text text-anchor="middle" x="2402" y="-7.5" font-family="Helvetica,sans-Serif" font-size="10.00">/headers/radixkernel/rad_module.h</text>
</a>
</g>
</g>
<!-- Node1&#45;&gt;Node14 -->
<g id="edge13" class="edge">
<title>Node1&#45;&gt;Node14</title>
<path fill="none" stroke="midnightblue" d="M2612.73,-75.92C2570.19,-65.04 2519.32,-52.02 2478.23,-41.51"/>
<polygon fill="midnightblue" stroke="midnightblue" points="2611.96,-79.34 2622.52,-78.43 2613.69,-72.56 2611.96,-79.34"/>
</g>
<!-- Node15 -->
<g id="node15" class="node">
<title>Node15</title>
<g id="a_node15"><a xlink:href="rad__mutex_8h_source.html" target="_top" xlink:title=" ">
<polygon fill="white" stroke="black" points="2513.5,-0.5 2513.5,-41.5 2694.5,-41.5 2694.5,-0.5 2513.5,-0.5"/>
<text text-anchor="start" x="2521.5" y="-29.5" font-family="Helvetica,sans-Serif" font-size="10.00">/media/jvincent/Kingspec512</text>
<text text-anchor="start" x="2521.5" y="-18.5" font-family="Helvetica,sans-Serif" font-size="10.00">/repos/RADix&#45;OS/RADixKernel</text>
<text text-anchor="middle" x="2604" y="-7.5" font-family="Helvetica,sans-Serif" font-size="10.00">/headers/radixkernel/rad_mutex.h</text>
</a>
</g>
</g>
<!-- Node1&#45;&gt;Node15 -->
<g id="edge14" class="edge">
<title>Node1&#45;&gt;Node15</title>
<path fill="none" stroke="midnightblue" d="M2666.58,-72.06C2654.07,-62.06 2640.01,-50.8 2628.38,-41.51"/>
<polygon fill="midnightblue" stroke="midnightblue" points="2664.54,-74.91 2674.54,-78.43 2668.91,-69.45 2664.54,-74.91"/>
</g>
<!-- Node16 -->
<g id="node16" class="node">
<title>Node16</title>
<g id="a_node16"><a xlink:href="rad__net_8h_source.html" target="_top" xlink:title=" ">
<polygon fill="white" stroke="black" points="2712.5,-0.5 2712.5,-41.5 2877.5,-41.5 2877.5,-0.5 2712.5,-0.5"/>
<text text-anchor="start" x="2720.5" y="-29.5" font-family="Helvetica,sans-Serif" font-size="10.00">/media/jvincent/Kingspec512</text>
<text text-anchor="start" x="2720.5" y="-18.5" font-family="Helvetica,sans-Serif" font-size="10.00">/repos/RADix&#45;OS/RADixKernel</text>
<text text-anchor="middle" x="2795" y="-7.5" font-family="Helvetica,sans-Serif" font-size="10.00">/headers/radixkernel/rad_net.h</text>
</a>
</g>
</g>
<!-- Node1&#45;&gt;Node16 -->
<g id="edge15" class="edge">
<title>Node1&#45;&gt;Node16</title>
<path fill="none" stroke="midnightblue" d="M2731.76,-72.06C2744.4,-62.06 2758.62,-50.8 2770.36,-41.51"/>
<polygon fill="midnightblue" stroke="midnightblue" points="2729.39,-69.48 2723.72,-78.43 2733.74,-74.97 2729.39,-69.48"/>
</g>
<!-- Node17 -->
<g id="node17" class="node">
<title>Node17</title>
<g id="a_node17"><a xlink:href="rad__overlay_8h_source.html" target="_top" xlink:title=" ">
<polygon fill="white" stroke="black" points="2895.5,-0.5 2895.5,-41.5 3080.5,-41.5 3080.5,-0.5 2895.5,-0.5"/>
<text text-anchor="start" x="2903.5" y="-29.5" font-family="Helvetica,sans-Serif" font-size="10.00">/media/jvincent/Kingspec512</text>
<text text-anchor="start" x="2903.5" y="-18.5" font-family="Helvetica,sans-Serif" font-size="10.00">/repos/RADix&#45;OS/RADixKernel</text>
<text text-anchor="middle" x="2988" y="-7.5" font-family="Helvetica,sans-Serif" font-size="10.00">/headers/radixkernel/rad_overlay.h</text>
</a>
</g>
</g>
<!-- Node1&#45;&gt;Node17 -->
<g id="edge16" class="edge">
<title>Node1&#45;&gt;Node17</title>
<path fill="none" stroke="midnightblue" d="M2783.2,-75.86C2824.55,-64.98 2873.92,-52 2913.83,-41.51"/>
<polygon fill="midnightblue" stroke="midnightblue" points="2782.21,-72.5 2773.42,-78.43 2783.99,-79.27 2782.21,-72.5"/>
</g>
<!-- Node18 -->
<g id="node18" class="node">
<title>Node18</title>
<g id="a_node18"><a xlink:href="rad__posix_8h_source.html" target="_top" xlink:title=" ">
<polygon fill="white" stroke="black" points="3098,-0.5 3098,-41.5 3274,-41.5 3274,-0.5 3098,-0.5"/>
<text text-anchor="start" x="3106" y="-29.5" font-family="Helvetica,sans-Serif" font-size="10.00">/media/jvincent/Kingspec512</text>
<text text-anchor="start" x="3106" y="-18.5" font-family="Helvetica,sans-Serif" font-size="10.00">/repos/RADix&#45;OS/RADixKernel</text>
<text text-anchor="middle" x="3186" y="-7.5" font-family="Helvetica,sans-Serif" font-size="10.00">/headers/radixkernel/rad_posix.h</text>
</a>
</g>
</g>
<!-- Node1&#45;&gt;Node18 -->
<g id="edge17" class="edge">
<title>Node1&#45;&gt;Node18</title>
<path fill="none" stroke="midnightblue" d="M2800.47,-85.25C2879.56,-74.89 2992.03,-59.2 3090,-42 3092.6,-41.54 3095.24,-41.07 3097.89,-40.58"/>
<polygon fill="midnightblue" stroke="midnightblue" points="2799.97,-81.79 2790.51,-86.56 2800.88,-88.73 2799.97,-81.79"/>
</g>
<!-- Node19 -->
<g id="node19" class="node">
<title>Node19</title>
<g id="a_node19"><a xlink:href="rad__pty_8h_source.html" target="_top" xlink:title=" ">
<polygon fill="white" stroke="black" points="3292,-0.5 3292,-41.5 3456,-41.5 3456,-0.5 3292,-0.5"/>
<text text-anchor="start" x="3300" y="-29.5" font-family="Helvetica,sans-Serif" font-size="10.00">/media/jvincent/Kingspec512</text>
<text text-anchor="start" x="3300" y="-18.5" font-family="Helvetica,sans-Serif" font-size="10.00">/repos/RADix&#45;OS/RADixKernel</text>
<text text-anchor="middle" x="3374" y="-7.5" font-family="Helvetica,sans-Serif" font-size="10.00">/headers/radixkernel/rad_pty.h</text>
</a>
</g>
</g>
<!-- Node1&#45;&gt;Node19 -->
<g id="edge18" class="edge">
<title>Node1&#45;&gt;Node19</title>
<path fill="none" stroke="midnightblue" d="M2800.73,-91.98C2917.63,-84.2 3114.96,-68.42 3283,-42 3285.88,-41.55 3288.8,-41.06 3291.74,-40.54"/>
<polygon fill="midnightblue" stroke="midnightblue" points="2800.47,-88.49 2790.72,-92.64 2800.93,-95.48 2800.47,-88.49"/>
</g>
<!-- Node20 -->
<g id="node20" class="node">
<title>Node20</title>
<g id="a_node20"><a xlink:href="rad__service_8h_source.html" target="_top" xlink:title=" ">
<polygon fill="white" stroke="black" points="3474.5,-0.5 3474.5,-41.5 3659.5,-41.5 3659.5,-0.5 3474.5,-0.5"/>
<text text-anchor="start" x="3482.5" y="-29.5" font-family="Helvetica,sans-Serif" font-size="10.00">/media/jvincent/Kingspec512</text>
<text text-anchor="start" x="3482.5" y="-18.5" font-family="Helvetica,sans-Serif" font-size="10.00">/repos/RADix&#45;OS/RADixKernel</text>
<text text-anchor="middle" x="3567" y="-7.5" font-family="Helvetica,sans-Serif" font-size="10.00">/headers/radixkernel/rad_service.h</text>
</a>
</g>
</g>
<!-- Node1&#45;&gt;Node20 -->
<g id="edge19" class="edge">
<title>Node1&#45;&gt;Node20</title>
<path fill="none" stroke="midnightblue" d="M2801.12,-94.45C2948.33,-88.45 3228.5,-73.71 3465,-42 3468.04,-41.59 3471.13,-41.15 3474.24,-40.68"/>
<polygon fill="midnightblue" stroke="midnightblue" points="2800.6,-90.97 2790.75,-94.87 2800.88,-97.97 2800.6,-90.97"/>
</g>
<!-- Node21 -->
<g id="node21" class="node">
<title>Node21</title>
<g id="a_node21"><a xlink:href="rad__spi_8h_source.html" target="_top" xlink:title=" ">
<polygon fill="white" stroke="black" points="3678,-0.5 3678,-41.5 3842,-41.5 3842,-0.5 3678,-0.5"/>
<text text-anchor="start" x="3686" y="-29.5" font-family="Helvetica,sans-Serif" font-size="10.00">/media/jvincent/Kingspec512</text>
<text text-anchor="start" x="3686" y="-18.5" font-family="Helvetica,sans-Serif" font-size="10.00">/repos/RADix&#45;OS/RADixKernel</text>
<text text-anchor="middle" x="3760" y="-7.5" font-family="Helvetica,sans-Serif" font-size="10.00">/headers/radixkernel/rad_spi.h</text>
</a>
</g>
</g>
<!-- Node1&#45;&gt;Node21 -->
<g id="edge20" class="edge">
<title>Node1&#45;&gt;Node21</title>
<path fill="none" stroke="midnightblue" d="M2800.84,-97.42C2978.09,-95.23 3354.48,-85.36 3669,-42 3671.88,-41.6 3674.81,-41.16 3677.77,-40.69"/>
<polygon fill="midnightblue" stroke="midnightblue" points="2800.7,-93.92 2790.74,-97.54 2800.78,-100.92 2800.7,-93.92"/>
</g>
<!-- Node22 -->
<g id="node22" class="node">
<title>Node22</title>
<g id="a_node22"><a xlink:href="rad__task_8h_source.html" target="_top" xlink:title=" ">
<polygon fill="white" stroke="black" points="3860,-0.5 3860,-41.5 4030,-41.5 4030,-0.5 3860,-0.5"/>
<text text-anchor="start" x="3868" y="-29.5" font-family="Helvetica,sans-Serif" font-size="10.00">/media/jvincent/Kingspec512</text>
<text text-anchor="start" x="3868" y="-18.5" font-family="Helvetica,sans-Serif" font-size="10.00">/repos/RADix&#45;OS/RADixKernel</text>
<text text-anchor="middle" x="3945" y="-7.5" font-family="Helvetica,sans-Serif" font-size="10.00">/headers/radixkernel/rad_task.h</text>
</a>
</g>
</g>
<!-- Node1&#45;&gt;Node22 -->
<g id="edge21" class="edge">
<title>Node1&#45;&gt;Node22</title>
<path fill="none" stroke="midnightblue" d="M2800.81,-98.54C3002.24,-98.39 3465.53,-92.05 3851,-42 3853.9,-41.62 3856.83,-41.21 3859.8,-40.75"/>
<polygon fill="midnightblue" stroke="midnightblue" points="2800.54,-95.04 2790.54,-98.54 2800.54,-102.04 2800.54,-95.04"/>
</g>
<!-- Node23 -->
<g id="node23" class="node">
<title>Node23</title>
<g id="a_node23"><a xlink:href="rad__terminal_8h_source.html" target="_top" xlink:title=" ">
<polygon fill="white" stroke="black" points="4048.5,-0.5 4048.5,-41.5 4239.5,-41.5 4239.5,-0.5 4048.5,-0.5"/>
<text text-anchor="start" x="4056.5" y="-29.5" font-family="Helvetica,sans-Serif" font-size="10.00">/media/jvincent/Kingspec512</text>
<text text-anchor="start" x="4056.5" y="-18.5" font-family="Helvetica,sans-Serif" font-size="10.00">/repos/RADix&#45;OS/RADixKernel</text>
<text text-anchor="middle" x="4144" y="-7.5" font-family="Helvetica,sans-Serif" font-size="10.00">/headers/radixkernel/rad_terminal.h</text>
</a>
</g>
</g>
<!-- Node1&#45;&gt;Node23 -->
<g id="edge22" class="edge">
<title>Node1&#45;&gt;Node23</title>
<path fill="none" stroke="midnightblue" d="M2800.86,-98.82C3025.32,-99.51 3579.12,-95.12 4039,-42 4042.04,-41.65 4045.13,-41.26 4048.24,-40.84"/>
<polygon fill="midnightblue" stroke="midnightblue" points="2800.76,-95.32 2790.75,-98.78 2800.74,-102.32 2800.76,-95.32"/>
</g>
<!-- Node24 -->
<g id="node24" class="node">
<title>Node24</title>
<g id="a_node24"><a xlink:href="rad__time_8h_source.html" target="_top" xlink:title=" ">
<polygon fill="white" stroke="black" points="4258,-0.5 4258,-41.5 4430,-41.5 4430,-0.5 4258,-0.5"/>
<text text-anchor="start" x="4266" y="-29.5" font-family="Helvetica,sans-Serif" font-size="10.00">/media/jvincent/Kingspec512</text>
<text text-anchor="start" x="4266" y="-18.5" font-family="Helvetica,sans-Serif" font-size="10.00">/repos/RADix&#45;OS/RADixKernel</text>
<text text-anchor="middle" x="4344" y="-7.5" font-family="Helvetica,sans-Serif" font-size="10.00">/headers/radixkernel/rad_time.h</text>
</a>
</g>
</g>
<!-- Node1&#45;&gt;Node24 -->
<g id="edge23" class="edge">
<title>Node1&#45;&gt;Node24</title>
<path fill="none" stroke="midnightblue" d="M2801.02,-96.6C3099.46,-92.13 3967.44,-76.47 4249,-42 4251.93,-41.64 4254.9,-41.24 4257.89,-40.8"/>
<polygon fill="midnightblue" stroke="midnightblue" points="2800.59,-93.1 2790.65,-96.75 2800.7,-100.1 2800.59,-93.1"/>
</g>
<!-- Node25 -->
<g id="node25" class="node">
<title>Node25</title>
<g id="a_node25"><a xlink:href="rad__tree_8h_source.html" target="_top" xlink:title=" ">
<polygon fill="white" stroke="black" points="4448.5,-0.5 4448.5,-41.5 4617.5,-41.5 4617.5,-0.5 4448.5,-0.5"/>
<text text-anchor="start" x="4456.5" y="-29.5" font-family="Helvetica,sans-Serif" font-size="10.00">/media/jvincent/Kingspec512</text>
<text text-anchor="start" x="4456.5" y="-18.5" font-family="Helvetica,sans-Serif" font-size="10.00">/repos/RADix&#45;OS/RADixKernel</text>
<text text-anchor="middle" x="4533" y="-7.5" font-family="Helvetica,sans-Serif" font-size="10.00">/headers/radixkernel/rad_tree.h</text>
</a>
</g>
</g>
<!-- Node1&#45;&gt;Node25 -->
<g id="edge24" class="edge">
<title>Node1&#45;&gt;Node25</title>
<path fill="none" stroke="midnightblue" d="M2800.77,-97.1C3123.06,-93.86 4118.82,-80.9 4439,-42 4442.06,-41.63 4445.18,-41.2 4448.31,-40.74"/>
<polygon fill="midnightblue" stroke="midnightblue" points="2800.48,-93.6 2790.51,-97.2 2800.55,-100.6 2800.48,-93.6"/>
</g>
<!-- Node26 -->
<g id="node26" class="node">
<title>Node26</title>
<g id="a_node26"><a xlink:href="rad__tty_8h_source.html" target="_top" xlink:title=" ">
<polygon fill="white" stroke="black" points="4635.5,-0.5 4635.5,-41.5 4796.5,-41.5 4796.5,-0.5 4635.5,-0.5"/>
<text text-anchor="start" x="4643.5" y="-29.5" font-family="Helvetica,sans-Serif" font-size="10.00">/media/jvincent/Kingspec512</text>
<text text-anchor="start" x="4643.5" y="-18.5" font-family="Helvetica,sans-Serif" font-size="10.00">/repos/RADix&#45;OS/RADixKernel</text>
<text text-anchor="middle" x="4716" y="-7.5" font-family="Helvetica,sans-Serif" font-size="10.00">/headers/radixkernel/rad_tty.h</text>
</a>
</g>
</g>
<!-- Node1&#45;&gt;Node26 -->
<g id="edge25" class="edge">
<title>Node1&#45;&gt;Node26</title>
<path fill="none" stroke="midnightblue" d="M2800.98,-97.62C3146.13,-95.93 4268.78,-87.03 4627,-42 4629.67,-41.66 4632.38,-41.28 4635.11,-40.87"/>
<polygon fill="midnightblue" stroke="midnightblue" points="2800.73,-94.12 2790.75,-97.67 2800.77,-101.12 2800.73,-94.12"/>
</g>
<!-- Node27 -->
<g id="node27" class="node">
<title>Node27</title>
<g id="a_node27"><a xlink:href="rad__usb_8h_source.html" target="_top" xlink:title=" ">
<polygon fill="white" stroke="black" points="4814.5,-0.5 4814.5,-41.5 4981.5,-41.5 4981.5,-0.5 4814.5,-0.5"/>
<text text-anchor="start" x="4822.5" y="-29.5" font-family="Helvetica,sans-Serif" font-size="10.00">/media/jvincent/Kingspec512</text>
<text text-anchor="start" x="4822.5" y="-18.5" font-family="Helvetica,sans-Serif" font-size="10.00">/repos/RADix&#45;OS/RADixKernel</text>
<text text-anchor="middle" x="4898" y="-7.5" font-family="Helvetica,sans-Serif" font-size="10.00">/headers/radixkernel/rad_usb.h</text>
</a>
</g>
</g>
<!-- Node1&#45;&gt;Node27 -->
<g id="edge26" class="edge">
<title>Node1&#45;&gt;Node27</title>
<path fill="none" stroke="midnightblue" d="M2800.7,-97.82C3165.97,-96.79 4410.88,-89.77 4806,-42 4808.76,-41.67 4811.56,-41.29 4814.38,-40.88"/>
<polygon fill="midnightblue" stroke="midnightblue" points="2800.66,-94.32 2790.67,-97.85 2800.68,-101.32 2800.66,-94.32"/>
</g>
<!-- Node28 -->
<g id="node28" class="node">
<title>Node28</title>
<g id="a_node28"><a xlink:href="rad__vfs_8h_source.html" target="_top" xlink:title=" ">
<polygon fill="white" stroke="black" points="5000,-0.5 5000,-41.5 5164,-41.5 5164,-0.5 5000,-0.5"/>
<text text-anchor="start" x="5008" y="-29.5" font-family="Helvetica,sans-Serif" font-size="10.00">/media/jvincent/Kingspec512</text>
<text text-anchor="start" x="5008" y="-18.5" font-family="Helvetica,sans-Serif" font-size="10.00">/repos/RADix&#45;OS/RADixKernel</text>
<text text-anchor="middle" x="5082" y="-7.5" font-family="Helvetica,sans-Serif" font-size="10.00">/headers/radixkernel/rad_vfs.h</text>
</a>
</g>
</g>
<!-- Node1&#45;&gt;Node28 -->
<g id="edge27" class="edge">
<title>Node1&#45;&gt;Node28</title>
<path fill="none" stroke="midnightblue" d="M2800.72,-98.11C3186.31,-98.12 4557.95,-94.39 4991,-42 4993.89,-41.65 4996.82,-41.25 4999.78,-40.81"/>
<polygon fill="midnightblue" stroke="midnightblue" points="2800.7,-94.61 2790.7,-98.11 2800.7,-101.61 2800.7,-94.61"/>
</g>
<!-- Node29 -->
<g id="node29" class="node">
<title>Node29</title>
<g id="a_node29"><a xlink:href="radboot_8h.html" target="_top" xlink:title="Helpers for constructing rad_boot_info_t records during platform handoff.">
<polygon fill="white" stroke="black" points="5182.5,-0.5 5182.5,-41.5 5343.5,-41.5 5343.5,-0.5 5182.5,-0.5"/>
<text text-anchor="start" x="5190.5" y="-29.5" font-family="Helvetica,sans-Serif" font-size="10.00">/media/jvincent/Kingspec512</text>
<text text-anchor="start" x="5190.5" y="-18.5" font-family="Helvetica,sans-Serif" font-size="10.00">/repos/RADix&#45;OS/RADixKernel</text>
<text text-anchor="middle" x="5263" y="-7.5" font-family="Helvetica,sans-Serif" font-size="10.00">/boot/radboot.h</text>
</a>
</g>
</g>
<!-- Node1&#45;&gt;Node29 -->
<g id="edge28" class="edge">
<title>Node1&#45;&gt;Node29</title>
<path fill="none" stroke="midnightblue" d="M2800.86,-98.36C3205.82,-99.36 4702.57,-99.03 5173,-42 5176.02,-41.63 5179.09,-41.21 5182.18,-40.74"/>
<polygon fill="midnightblue" stroke="midnightblue" points="2800.64,-94.86 2790.63,-98.33 2800.62,-101.86 2800.64,-94.86"/>
</g>
</g>
</svg>
