<?xml version="1.0" encoding="UTF-8" standalone="no"?>
<!DOCTYPE svg PUBLIC "-//W3C//DTD SVG 1.1//EN"
 "http://www.w3.org/Graphics/SVG/1.1/DTD/svg11.dtd">
<!-- Generated by graphviz version 2.43.0 (0)
 -->
<!-- Title: rad_boot_info Pages: 1 -->
<svg width="248pt" height="95pt"
 viewBox="0.00 0.00 248.00 95.00" xmlns="http://www.w3.org/2000/svg" xmlns:xlink="http://www.w3.org/1999/xlink">
<g id="graph0" class="graph" transform="scale(1 1) rotate(0) translate(4 91)">
<title>rad_boot_info</title>
<polygon fill="white" stroke="transparent" points="-4,4 -4,-91 244,-91 244,4 -4,4"/>
<!-- Node1 -->
<g id="node1" class="node">
<title>Node1</title>
<g id="a_node1"><a xlink:title=" ">
<polygon fill="#bfbfbf" stroke="black" points="93.5,-0.5 93.5,-19.5 176.5,-19.5 176.5,-0.5 93.5,-0.5"/>
<text text-anchor="middle" x="135" y="-7.5" font-family="Helvetica,sans-Serif" font-size="10.00">rad_boot_info</text>
</a>
</g>
</g>
<!-- Node2 -->
<g id="node2" class="node">
<title>Node2</title>
<g id="a_node2"><a xlink:href="structrad__boot__memory__region.html" target="_top" xlink:title=" ">
<polygon fill="white" stroke="black" points="0,-67.5 0,-86.5 142,-86.5 142,-67.5 0,-67.5"/>
<text text-anchor="middle" x="71" y="-74.5" font-family="Helvetica,sans-Serif" font-size="10.00">rad_boot_memory_region</text>
</a>
</g>
</g>
<!-- Node2&#45;&gt;Node1 -->
<g id="edge1" class="edge">
<title>Node2&#45;&gt;Node1</title>
<path fill="none" stroke="#9a32cd" stroke-dasharray="5,2" d="M78.51,-58.16C81.95,-51.34 86.5,-43.81 92,-38 99.03,-30.57 108.51,-24.33 116.79,-19.73"/>
<polygon fill="#9a32cd" stroke="#9a32cd" points="75.28,-56.81 74.28,-67.36 81.64,-59.74 75.28,-56.81"/>
<text text-anchor="middle" x="135" y="-41" font-family="Helvetica,sans-Serif" font-size="10.00"> memory_regions</text>
</g>
<!-- Node3 -->
<g id="node3" class="node">
<title>Node3</title>
<g id="a_node3"><a xlink:href="structrad__boot__arg.html" target="_top" xlink:title=" ">
<polygon fill="white" stroke="black" points="160,-67.5 160,-86.5 240,-86.5 240,-67.5 160,-67.5"/>
<text text-anchor="middle" x="200" y="-74.5" font-family="Helvetica,sans-Serif" font-size="10.00">rad_boot_arg</text>
</a>
</g>
</g>
<!-- Node3&#45;&gt;Node1 -->
<g id="edge2" class="edge">
<title>Node3&#45;&gt;Node1</title>
<path fill="none" stroke="#9a32cd" stroke-dasharray="5,2" d="M191.99,-58.17C188.36,-51.35 183.62,-43.82 178,-38 170.78,-30.51 161.08,-24.19 152.72,-19.55"/>
<polygon fill="#9a32cd" stroke="#9a32cd" points="188.94,-59.91 196.47,-67.37 195.23,-56.85 188.94,-59.91"/>
<text text-anchor="middle" x="198.5" y="-41" font-family="Helvetica,sans-Serif" font-size="10.00"> args</text>
</g>
</g>
</svg>
