<?xml version="1.0" encoding="UTF-8" standalone="no"?>
<!DOCTYPE svg PUBLIC "-//W3C//DTD SVG 1.1//EN"
 "http://www.w3.org/Graphics/SVG/1.1/DTD/svg11.dtd">
<!-- Generated by graphviz version 2.43.0 (0)
 -->
<!-- Title: rad_framebuffer_config Pages: 1 -->
<svg width="252pt" height="95pt"
 viewBox="0.00 0.00 251.50 95.00" xmlns="http://www.w3.org/2000/svg" xmlns:xlink="http://www.w3.org/1999/xlink">
<g id="graph0" class="graph" transform="scale(1 1) rotate(0) translate(4 91)">
<title>rad_framebuffer_config</title>
<polygon fill="white" stroke="transparent" points="-4,4 -4,-91 247.5,-91 247.5,4 -4,4"/>
<!-- Node1 -->
<g id="node1" class="node">
<title>Node1</title>
<g id="a_node1"><a xlink:title=" ">
<polygon fill="#bfbfbf" stroke="black" points="53,-0.5 53,-19.5 183,-19.5 183,-0.5 53,-0.5"/>
<text text-anchor="middle" x="118" y="-7.5" font-family="Helvetica,sans-Serif" font-size="10.00">rad_framebuffer_config</text>
</a>
</g>
</g>
<!-- Node2 -->
<g id="node2" class="node">
<title>Node2</title>
<g id="a_node2"><a xlink:href="structrad__display__mode.html" target="_top" xlink:title=" ">
<polygon fill="white" stroke="black" points="0,-67.5 0,-86.5 106,-86.5 106,-67.5 0,-67.5"/>
<text text-anchor="middle" x="53" y="-74.5" font-family="Helvetica,sans-Serif" font-size="10.00">rad_display_mode</text>
</a>
</g>
</g>
<!-- Node2&#45;&gt;Node1 -->
<g id="edge1" class="edge">
<title>Node2&#45;&gt;Node1</title>
<path fill="none" stroke="#9a32cd" stroke-dasharray="5,2" d="M69,-60C81.75,-47.25 99.11,-29.89 109.37,-19.63"/>
<polygon fill="#9a32cd" stroke="#9a32cd" points="66.36,-57.69 61.77,-67.23 71.31,-62.64 66.36,-57.69"/>
<text text-anchor="middle" x="108.5" y="-41" font-family="Helvetica,sans-Serif" font-size="10.00"> modes</text>
</g>
<!-- Node3 -->
<g id="node3" class="node">
<title>Node3</title>
<g id="a_node3"><a xlink:href="structrad__framebuffer__info.html" target="_top" xlink:title=" ">
<polygon fill="white" stroke="black" points="124.5,-67.5 124.5,-86.5 243.5,-86.5 243.5,-67.5 124.5,-67.5"/>
<text text-anchor="middle" x="184" y="-74.5" font-family="Helvetica,sans-Serif" font-size="10.00">rad_framebuffer_info</text>
</a>
</g>
</g>
<!-- Node3&#45;&gt;Node1 -->
<g id="edge2" class="edge">
<title>Node3&#45;&gt;Node1</title>
<path fill="none" stroke="#9a32cd" stroke-dasharray="5,2" d="M167.75,-60C154.81,-47.25 137.19,-29.89 126.76,-19.63"/>
<polygon fill="#9a32cd" stroke="#9a32cd" points="165.52,-62.71 175.1,-67.23 170.43,-57.72 165.52,-62.71"/>
<text text-anchor="middle" x="165" y="-41" font-family="Helvetica,sans-Serif" font-size="10.00"> info</text>
</g>
</g>
</svg>
