<?xml version="1.0" encoding="UTF-8" standalone="no"?>
<!DOCTYPE svg PUBLIC "-//W3C//DTD SVG 1.1//EN"
 "http://www.w3.org/Graphics/SVG/1.1/DTD/svg11.dtd">
<!-- Generated by graphviz version 2.43.0 (0)
 -->
<!-- Title: RADUi::NotificationModel Pages: 1 -->
<svg width="408pt" height="116pt"
 viewBox="0.00 0.00 408.00 116.00" xmlns="http://www.w3.org/2000/svg" xmlns:xlink="http://www.w3.org/1999/xlink">
<g id="graph0" class="graph" transform="scale(1 1) rotate(0) translate(4 112)">
<title>RADUi::NotificationModel</title>
<polygon fill="white" stroke="transparent" points="-4,4 -4,-112 404,-112 404,4 -4,4"/>
<!-- Node1 -->
<g id="node1" class="node">
<title>Node1</title>
<g id="a_node1"><a xlink:title="Notification collection model.">
<polygon fill="#bfbfbf" stroke="black" points="260,-44.5 260,-63.5 400,-63.5 400,-44.5 260,-44.5"/>
<text text-anchor="middle" x="330" y="-51.5" font-family="Helvetica,sans-Serif" font-size="10.00">RADUi::NotificationModel</text>
</a>
</g>
</g>
<!-- Node2 -->
<g id="node2" class="node">
<title>Node2</title>
<g id="a_node2"><a xlink:href="classRADCore_1_1RADObject.html" target="_top" xlink:title="Base class for event receivers, senders, and thread&#45;affinity aware objects.">
<polygon fill="white" stroke="black" points="13,-88.5 13,-107.5 132,-107.5 132,-88.5 13,-88.5"/>
<text text-anchor="middle" x="72.5" y="-95.5" font-family="Helvetica,sans-Serif" font-size="10.00">RADCore::RADObject</text>
</a>
</g>
</g>
<!-- Node2&#45;&gt;Node1 -->
<g id="edge1" class="edge">
<title>Node2&#45;&gt;Node1</title>
<path fill="none" stroke="midnightblue" d="M138.79,-86.77C170.03,-81.39 207.95,-74.87 242,-69 252.27,-67.23 263.22,-65.34 273.77,-63.52"/>
<polygon fill="midnightblue" stroke="midnightblue" points="138.16,-83.32 128.9,-88.47 139.35,-90.22 138.16,-83.32"/>
</g>
<!-- Node3 -->
<g id="node3" class="node">
<title>Node3</title>
<g id="a_node3"><a xlink:href="classRADCore_1_1Event.html" target="_top" xlink:title=" ">
<polygon fill="white" stroke="black" points="7.5,-39 7.5,-69 137.5,-69 137.5,-39 7.5,-39"/>
<text text-anchor="start" x="15.5" y="-57" font-family="Helvetica,sans-Serif" font-size="10.00">RADCore::Event&lt; void</text>
<text text-anchor="middle" x="72.5" y="-46" font-family="Helvetica,sans-Serif" font-size="10.00">(uint64_t, std::string) &gt;</text>
</a>
</g>
</g>
<!-- Node3&#45;&gt;Node1 -->
<g id="edge2" class="edge">
<title>Node3&#45;&gt;Node1</title>
<path fill="none" stroke="#9a32cd" stroke-dasharray="5,2" d="M147.91,-54C183.26,-54 225.25,-54 259.9,-54"/>
<polygon fill="#9a32cd" stroke="#9a32cd" points="147.64,-50.5 137.64,-54 147.64,-57.5 147.64,-50.5"/>
<text text-anchor="middle" x="202.5" y="-57" font-family="Helvetica,sans-Serif" font-size="10.00"> actionTriggered</text>
</g>
<!-- Node4 -->
<g id="node4" class="node">
<title>Node4</title>
<g id="a_node4"><a xlink:href="classRADCore_1_1Event.html" target="_top" xlink:title=" ">
<polygon fill="white" stroke="black" points="0,-0.5 0,-19.5 145,-19.5 145,-0.5 0,-0.5"/>
<text text-anchor="middle" x="72.5" y="-7.5" font-family="Helvetica,sans-Serif" font-size="10.00">RADCore::Event&lt; void() &gt;</text>
</a>
</g>
</g>
<!-- Node4&#45;&gt;Node1 -->
<g id="edge3" class="edge">
<title>Node4&#45;&gt;Node1</title>
<path fill="none" stroke="#9a32cd" stroke-dasharray="5,2" d="M138.79,-21.23C170.03,-26.61 207.95,-33.13 242,-39 252.27,-40.77 263.22,-42.66 273.77,-44.48"/>
<polygon fill="#9a32cd" stroke="#9a32cd" points="139.35,-17.78 128.9,-19.53 138.16,-24.68 139.35,-17.78"/>
<text text-anchor="middle" x="202.5" y="-42" font-family="Helvetica,sans-Serif" font-size="10.00"> changed</text>
</g>
</g>
</svg>
