<?xml version="1.0" encoding="UTF-8" standalone="no"?>
<!DOCTYPE svg PUBLIC "-//W3C//DTD SVG 1.1//EN"
 "http://www.w3.org/Graphics/SVG/1.1/DTD/svg11.dtd">
<!-- Generated by graphviz version 2.43.0 (0)
 -->
<!-- Title: RADNet::RADHttpClient Pages: 1 -->
<svg width="414pt" height="127pt"
 viewBox="0.00 0.00 414.00 126.50" xmlns="http://www.w3.org/2000/svg" xmlns:xlink="http://www.w3.org/1999/xlink">
<g id="graph0" class="graph" transform="scale(1 1) rotate(0) translate(4 122.5)">
<title>RADNet::RADHttpClient</title>
<polygon fill="white" stroke="transparent" points="-4,4 -4,-122.5 410,-122.5 410,4 -4,4"/>
<!-- Node1 -->
<g id="node1" class="node">
<title>Node1</title>
<g id="a_node1"><a xlink:title="Small libcurl&#45;backed HTTP client with sync and event&#45;loop async APIs.">
<polygon fill="#bfbfbf" stroke="black" points="275,-55 275,-74 406,-74 406,-55 275,-55"/>
<text text-anchor="middle" x="340.5" y="-62" font-family="Helvetica,sans-Serif" font-size="10.00">RADNet::RADHttpClient</text>
</a>
</g>
</g>
<!-- Node2 -->
<g id="node2" class="node">
<title>Node2</title>
<g id="a_node2"><a xlink:href="classRADCore_1_1RADObject.html" target="_top" xlink:title="Base class for event receivers, senders, and thread&#45;affinity aware objects.">
<polygon fill="white" stroke="black" points="25,-99 25,-118 144,-118 144,-99 25,-99"/>
<text text-anchor="middle" x="84.5" y="-106" font-family="Helvetica,sans-Serif" font-size="10.00">RADCore::RADObject</text>
</a>
</g>
</g>
<!-- Node2&#45;&gt;Node1 -->
<g id="edge1" class="edge">
<title>Node2&#45;&gt;Node1</title>
<path fill="none" stroke="midnightblue" d="M153.1,-97.27C184.68,-91.97 222.78,-85.5 257,-79.5 266.89,-77.76 277.45,-75.87 287.59,-74.04"/>
<polygon fill="midnightblue" stroke="midnightblue" points="152.37,-93.84 143.09,-98.94 153.53,-100.74 152.37,-93.84"/>
</g>
<!-- Node3 -->
<g id="node3" class="node">
<title>Node3</title>
<g id="a_node3"><a xlink:href="classRADCore_1_1Event.html" target="_top" xlink:title=" ">
<polygon fill="white" stroke="black" points="21.5,-49.5 21.5,-79.5 147.5,-79.5 147.5,-49.5 21.5,-49.5"/>
<text text-anchor="start" x="29.5" y="-67.5" font-family="Helvetica,sans-Serif" font-size="10.00">RADCore::Event&lt; void</text>
<text text-anchor="middle" x="84.5" y="-56.5" font-family="Helvetica,sans-Serif" font-size="10.00">(std::string) &gt;</text>
</a>
</g>
</g>
<!-- Node3&#45;&gt;Node1 -->
<g id="edge2" class="edge">
<title>Node3&#45;&gt;Node1</title>
<path fill="none" stroke="#9a32cd" stroke-dasharray="5,2" d="M157.82,-64.5C194.7,-64.5 239.19,-64.5 274.91,-64.5"/>
<polygon fill="#9a32cd" stroke="#9a32cd" points="157.64,-61 147.64,-64.5 157.64,-68 157.64,-61"/>
<text text-anchor="middle" x="222" y="-67.5" font-family="Helvetica,sans-Serif" font-size="10.00"> errorOccurred</text>
</g>
<!-- Node4 -->
<g id="node4" class="node">
<title>Node4</title>
<g id="a_node4"><a xlink:href="classRADCore_1_1Event.html" target="_top" xlink:title=" ">
<polygon fill="white" stroke="black" points="0,-0.5 0,-30.5 169,-30.5 169,-0.5 0,-0.5"/>
<text text-anchor="start" x="8" y="-18.5" font-family="Helvetica,sans-Serif" font-size="10.00">RADCore::Event&lt; void</text>
<text text-anchor="middle" x="84.5" y="-7.5" font-family="Helvetica,sans-Serif" font-size="10.00">(RADNet::RADHttpResponse) &gt;</text>
</a>
</g>
</g>
<!-- Node4&#45;&gt;Node1 -->
<g id="edge3" class="edge">
<title>Node4&#45;&gt;Node1</title>
<path fill="none" stroke="#9a32cd" stroke-dasharray="5,2" d="M173.74,-32.52C212.72,-40.04 257.09,-48.6 290.11,-54.97"/>
<polygon fill="#9a32cd" stroke="#9a32cd" points="173.92,-28.99 163.43,-30.53 172.59,-35.87 173.92,-28.99"/>
<text text-anchor="middle" x="222" y="-50.5" font-family="Helvetica,sans-Serif" font-size="10.00"> finished</text>
</g>
</g>
</svg>
