<?xml version="1.0" encoding="UTF-8" standalone="no"?>
<!DOCTYPE svg PUBLIC "-//W3C//DTD SVG 1.1//EN"
 "http://www.w3.org/Graphics/SVG/1.1/DTD/svg11.dtd">
<!-- Generated by graphviz version 2.43.0 (0)
 -->
<!-- Title: RADCore::RADIODevice Pages: 1 -->
<svg width="682pt" height="180pt"
 viewBox="0.00 0.00 682.00 180.00" xmlns="http://www.w3.org/2000/svg" xmlns:xlink="http://www.w3.org/1999/xlink">
<g id="graph0" class="graph" transform="scale(1 1) rotate(0) translate(4 176)">
<title>RADCore::RADIODevice</title>
<polygon fill="white" stroke="transparent" points="-4,4 -4,-176 678,-176 678,4 -4,4"/>
<!-- Node1 -->
<g id="node1" class="node">
<title>Node1</title>
<g id="a_node1"><a xlink:title="Abstract byte&#45;oriented IO device similar to QIODevice.">
<polygon fill="#bfbfbf" stroke="black" points="155,-76.5 155,-95.5 286,-95.5 286,-76.5 155,-76.5"/>
<text text-anchor="middle" x="220.5" y="-83.5" font-family="Helvetica,sans-Serif" font-size="10.00">RADCore::RADIODevice</text>
</a>
</g>
</g>
<!-- Node3 -->
<g id="node3" class="node">
<title>Node3</title>
<g id="a_node3"><a xlink:href="classRADCore_1_1RADBuffer.html" target="_top" xlink:title="In&#45;memory RADIODevice backed by a byte vector.">
<polygon fill="white" stroke="black" points="342,-152.5 342,-171.5 458,-171.5 458,-152.5 342,-152.5"/>
<text text-anchor="middle" x="400" y="-159.5" font-family="Helvetica,sans-Serif" font-size="10.00">RADCore::RADBuffer</text>
</a>
</g>
</g>
<!-- Node1&#45;&gt;Node3 -->
<g id="edge2" class="edge">
<title>Node1&#45;&gt;Node3</title>
<path fill="none" stroke="midnightblue" d="M244.12,-101.23C263.92,-113.96 293.85,-131.79 322,-143 331.34,-146.72 341.61,-149.86 351.53,-152.45"/>
<polygon fill="midnightblue" stroke="midnightblue" points="245.81,-98.15 235.52,-95.61 241.98,-104.01 245.81,-98.15"/>
</g>
<!-- Node4 -->
<g id="node4" class="node">
<title>Node4</title>
<g id="a_node4"><a xlink:href="classRADCore_1_1RADFile.html" target="_top" xlink:title="File&#45;backed RADIODevice.">
<polygon fill="white" stroke="black" points="348,-114.5 348,-133.5 452,-133.5 452,-114.5 348,-114.5"/>
<text text-anchor="middle" x="400" y="-121.5" font-family="Helvetica,sans-Serif" font-size="10.00">RADCore::RADFile</text>
</a>
</g>
</g>
<!-- Node1&#45;&gt;Node4 -->
<g id="edge3" class="edge">
<title>Node1&#45;&gt;Node4</title>
<path fill="none" stroke="midnightblue" d="M276.4,-97.75C301.5,-103.13 330.84,-109.41 354.53,-114.48"/>
<polygon fill="midnightblue" stroke="midnightblue" points="276.8,-94.26 266.29,-95.59 275.34,-101.1 276.8,-94.26"/>
</g>
<!-- Node5 -->
<g id="node5" class="node">
<title>Node5</title>
<g id="a_node5"><a xlink:href="classRADMedia_1_1RADAudioDevice.html" target="_top" xlink:title="ALSA&#45;backed input or output audio device implementing RADIODevice.">
<polygon fill="white" stroke="black" points="322,-76.5 322,-95.5 478,-95.5 478,-76.5 322,-76.5"/>
<text text-anchor="middle" x="400" y="-83.5" font-family="Helvetica,sans-Serif" font-size="10.00">RADMedia::RADAudioDevice</text>
</a>
</g>
</g>
<!-- Node1&#45;&gt;Node5 -->
<g id="edge4" class="edge">
<title>Node1&#45;&gt;Node5</title>
<path fill="none" stroke="midnightblue" d="M296.27,-86C304.71,-86 313.32,-86 321.79,-86"/>
<polygon fill="midnightblue" stroke="midnightblue" points="296.08,-82.5 286.08,-86 296.08,-89.5 296.08,-82.5"/>
</g>
<!-- Node7 -->
<g id="node7" class="node">
<title>Node7</title>
<g id="a_node7"><a xlink:href="classRADNet_1_1RADTcpSocket.html" target="_top" xlink:title="Non&#45;blocking TCP socket that also implements RADCore::RADIODevice.">
<polygon fill="white" stroke="black" points="335,-38.5 335,-57.5 465,-57.5 465,-38.5 335,-38.5"/>
<text text-anchor="middle" x="400" y="-45.5" font-family="Helvetica,sans-Serif" font-size="10.00">RADNet::RADTcpSocket</text>
</a>
</g>
</g>
<!-- Node1&#45;&gt;Node7 -->
<g id="edge6" class="edge">
<title>Node1&#45;&gt;Node7</title>
<path fill="none" stroke="midnightblue" d="M276.4,-74.25C301.5,-68.87 330.84,-62.59 354.53,-57.52"/>
<polygon fill="midnightblue" stroke="midnightblue" points="275.34,-70.9 266.29,-76.41 276.8,-77.74 275.34,-70.9"/>
</g>
<!-- Node8 -->
<g id="node8" class="node">
<title>Node8</title>
<g id="a_node8"><a xlink:href="classRADSerial_1_1RADSerialPort.html" target="_top" xlink:title="Linux serial port backed by termios and RADCore::RADIODevice.">
<polygon fill="white" stroke="black" points="330,-0.5 330,-19.5 470,-19.5 470,-0.5 330,-0.5"/>
<text text-anchor="middle" x="400" y="-7.5" font-family="Helvetica,sans-Serif" font-size="10.00">RADSerial::RADSerialPort</text>
</a>
</g>
</g>
<!-- Node1&#45;&gt;Node8 -->
<g id="edge7" class="edge">
<title>Node1&#45;&gt;Node8</title>
<path fill="none" stroke="midnightblue" d="M244.12,-70.77C263.92,-58.04 293.85,-40.21 322,-29 331.34,-25.28 341.61,-22.14 351.53,-19.55"/>
<polygon fill="midnightblue" stroke="midnightblue" points="241.98,-67.99 235.52,-76.39 245.81,-73.85 241.98,-67.99"/>
</g>
<!-- Node2 -->
<g id="node2" class="node">
<title>Node2</title>
<g id="a_node2"><a xlink:href="classRADCore_1_1RADObject.html" target="_top" xlink:title="Base class for event receivers, senders, and thread&#45;affinity aware objects.">
<polygon fill="white" stroke="black" points="0,-76.5 0,-95.5 119,-95.5 119,-76.5 0,-76.5"/>
<text text-anchor="middle" x="59.5" y="-83.5" font-family="Helvetica,sans-Serif" font-size="10.00">RADCore::RADObject</text>
</a>
</g>
</g>
<!-- Node2&#45;&gt;Node1 -->
<g id="edge1" class="edge">
<title>Node2&#45;&gt;Node1</title>
<path fill="none" stroke="midnightblue" d="M129.44,-86C137.87,-86 146.47,-86 154.83,-86"/>
<polygon fill="midnightblue" stroke="midnightblue" points="129.25,-82.5 119.25,-86 129.25,-89.5 129.25,-82.5"/>
</g>
<!-- Node6 -->
<g id="node6" class="node">
<title>Node6</title>
<g id="a_node6"><a xlink:href="classRADMedia_1_1AudioInputDevice.html" target="_top" xlink:title="Convenience input&#45;only audio device.">
<polygon fill="white" stroke="black" points="514,-76.5 514,-95.5 674,-95.5 674,-76.5 514,-76.5"/>
<text text-anchor="middle" x="594" y="-83.5" font-family="Helvetica,sans-Serif" font-size="10.00">RADMedia::AudioInputDevice</text>
</a>
</g>
</g>
<!-- Node5&#45;&gt;Node6 -->
<g id="edge5" class="edge">
<title>Node5&#45;&gt;Node6</title>
<path fill="none" stroke="midnightblue" d="M488.46,-86C496.88,-86 505.38,-86 513.7,-86"/>
<polygon fill="midnightblue" stroke="midnightblue" points="488.26,-82.5 478.26,-86 488.26,-89.5 488.26,-82.5"/>
</g>
</g>
</svg>
