<?xml version="1.0" encoding="UTF-8" standalone="no"?>
<!DOCTYPE svg PUBLIC "-//W3C//DTD SVG 1.1//EN"
 "http://www.w3.org/Graphics/SVG/1.1/DTD/svg11.dtd">
<!-- Generated by graphviz version 2.43.0 (0)
 -->
<!-- Title: RADNet::RADUdpSocket Pages: 1 -->
<svg width="402pt" height="127pt"
 viewBox="0.00 0.00 402.00 126.50" xmlns="http://www.w3.org/2000/svg" xmlns:xlink="http://www.w3.org/1999/xlink">
<g id="graph0" class="graph" transform="scale(1 1) rotate(0) translate(4 122.5)">
<title>RADNet::RADUdpSocket</title>
<polygon fill="white" stroke="transparent" points="-4,4 -4,-122.5 398,-122.5 398,4 -4,4"/>
<!-- Node1 -->
<g id="node1" class="node">
<title>Node1</title>
<g id="a_node1"><a xlink:title="Event&#45;loop integrated UDP socket.">
<polygon fill="#bfbfbf" stroke="black" points="260,-55 260,-74 394,-74 394,-55 260,-55"/>
<text text-anchor="middle" x="327" y="-62" font-family="Helvetica,sans-Serif" font-size="10.00">RADNet::RADUdpSocket</text>
</a>
</g>
</g>
<!-- Node2 -->
<g id="node2" class="node">
<title>Node2</title>
<g id="a_node2"><a xlink:href="classRADCore_1_1RADObject.html" target="_top" xlink:title="Base class for event receivers, senders, and thread&#45;affinity aware objects.">
<polygon fill="white" stroke="black" points="4.5,-99 4.5,-118 123.5,-118 123.5,-99 4.5,-99"/>
<text text-anchor="middle" x="64" y="-106" font-family="Helvetica,sans-Serif" font-size="10.00">RADCore::RADObject</text>
</a>
</g>
</g>
<!-- Node2&#45;&gt;Node1 -->
<g id="edge1" class="edge">
<title>Node2&#45;&gt;Node1</title>
<path fill="none" stroke="midnightblue" d="M133.58,-97.5C166.41,-92.17 206.26,-85.62 242,-79.5 252.08,-77.78 262.82,-75.89 273.15,-74.06"/>
<polygon fill="midnightblue" stroke="midnightblue" points="132.94,-94.06 123.63,-99.11 134.06,-100.97 132.94,-94.06"/>
</g>
<!-- Node3 -->
<g id="node3" class="node">
<title>Node3</title>
<g id="a_node3"><a xlink:href="classRADCore_1_1Event.html" target="_top" xlink:title=" ">
<polygon fill="white" stroke="black" points="0,-49.5 0,-79.5 128,-79.5 128,-49.5 0,-49.5"/>
<text text-anchor="start" x="8" y="-67.5" font-family="Helvetica,sans-Serif" font-size="10.00">RADCore::Event&lt; void</text>
<text text-anchor="middle" x="64" y="-56.5" font-family="Helvetica,sans-Serif" font-size="10.00">(RADNet::Datagram) &gt;</text>
</a>
</g>
</g>
<!-- Node3&#45;&gt;Node1 -->
<g id="edge2" class="edge">
<title>Node3&#45;&gt;Node1</title>
<path fill="none" stroke="#9a32cd" stroke-dasharray="5,2" d="M138.2,-64.5C176.36,-64.5 222.67,-64.5 259.76,-64.5"/>
<polygon fill="#9a32cd" stroke="#9a32cd" points="138.18,-61 128.18,-64.5 138.18,-68 138.18,-61"/>
<text text-anchor="middle" x="194" y="-67.5" font-family="Helvetica,sans-Serif" font-size="10.00"> datagramReceived</text>
</g>
<!-- Node4 -->
<g id="node4" class="node">
<title>Node4</title>
<g id="a_node4"><a xlink:href="classRADCore_1_1Event.html" target="_top" xlink:title=" ">
<polygon fill="white" stroke="black" points="1,-0.5 1,-30.5 127,-30.5 127,-0.5 1,-0.5"/>
<text text-anchor="start" x="9" y="-18.5" font-family="Helvetica,sans-Serif" font-size="10.00">RADCore::Event&lt; void</text>
<text text-anchor="middle" x="64" y="-7.5" font-family="Helvetica,sans-Serif" font-size="10.00">(std::string) &gt;</text>
</a>
</g>
</g>
<!-- Node4&#45;&gt;Node1 -->
<g id="edge3" class="edge">
<title>Node4&#45;&gt;Node1</title>
<path fill="none" stroke="#9a32cd" stroke-dasharray="5,2" d="M137.22,-29.06C181.06,-37.29 235.96,-47.6 275.23,-54.97"/>
<polygon fill="#9a32cd" stroke="#9a32cd" points="137.66,-25.58 127.18,-27.17 136.37,-32.46 137.66,-25.58"/>
<text text-anchor="middle" x="194" y="-51.5" font-family="Helvetica,sans-Serif" font-size="10.00"> errorOccurred</text>
</g>
</g>
</svg>
