<?xml version="1.0" encoding="UTF-8" standalone="no"?>
<!DOCTYPE svg PUBLIC "-//W3C//DTD SVG 1.1//EN"
 "http://www.w3.org/Graphics/SVG/1.1/DTD/svg11.dtd">
<!-- Generated by graphviz version 2.43.0 (0)
 -->
<!-- Title: RADNet::RADTcpSocket Pages: 1 -->
<svg width="557pt" height="173pt"
 viewBox="0.00 0.00 557.00 172.50" xmlns="http://www.w3.org/2000/svg" xmlns:xlink="http://www.w3.org/1999/xlink">
<g id="graph0" class="graph" transform="scale(1 1) rotate(0) translate(4 168.5)">
<title>RADNet::RADTcpSocket</title>
<polygon fill="white" stroke="transparent" points="-4,4 -4,-168.5 553,-168.5 553,4 -4,4"/>
<!-- Node1 -->
<g id="node1" class="node">
<title>Node1</title>
<g id="a_node1"><a xlink:title="Non&#45;blocking TCP socket that also implements RADCore::RADIODevice.">
<polygon fill="#bfbfbf" stroke="black" points="419,-119 419,-138 549,-138 549,-119 419,-119"/>
<text text-anchor="middle" x="484" y="-126" font-family="Helvetica,sans-Serif" font-size="10.00">RADNet::RADTcpSocket</text>
</a>
</g>
</g>
<!-- Node2 -->
<g id="node2" class="node">
<title>Node2</title>
<g id="a_node2"><a xlink:href="classRADCore_1_1RADIODevice.html" target="_top" xlink:title="Abstract byte&#45;oriented IO device similar to QIODevice.">
<polygon fill="white" stroke="black" points="251,-90 251,-109 382,-109 382,-90 251,-90"/>
<text text-anchor="middle" x="316.5" y="-97" font-family="Helvetica,sans-Serif" font-size="10.00">RADCore::RADIODevice</text>
</a>
</g>
</g>
<!-- Node2&#45;&gt;Node1 -->
<g id="edge1" class="edge">
<title>Node2&#45;&gt;Node1</title>
<path fill="none" stroke="midnightblue" d="M382.12,-110.82C397.52,-113.52 413.8,-116.38 428.69,-118.98"/>
<polygon fill="midnightblue" stroke="midnightblue" points="382.6,-107.35 372.15,-109.08 381.4,-114.25 382.6,-107.35"/>
</g>
<!-- Node3 -->
<g id="node3" class="node">
<title>Node3</title>
<g id="a_node3"><a xlink:href="classRADCore_1_1RADObject.html" target="_top" xlink:title="Base class for event receivers, senders, and thread&#45;affinity aware objects.">
<polygon fill="white" stroke="black" points="13,-99 13,-118 132,-118 132,-99 13,-99"/>
<text text-anchor="middle" x="72.5" y="-106" font-family="Helvetica,sans-Serif" font-size="10.00">RADCore::RADObject</text>
</a>
</g>
</g>
<!-- Node3&#45;&gt;Node2 -->
<g id="edge2" class="edge">
<title>Node3&#45;&gt;Node2</title>
<path fill="none" stroke="midnightblue" d="M142.4,-105.94C176.41,-104.67 217.21,-103.16 250.65,-101.91"/>
<polygon fill="midnightblue" stroke="midnightblue" points="141.94,-102.45 132.08,-106.32 142.2,-109.45 141.94,-102.45"/>
</g>
<!-- Node4 -->
<g id="node4" class="node">
<title>Node4</title>
<g id="a_node4"><a xlink:href="classRADCore_1_1Event.html" target="_top" xlink:title=" ">
<polygon fill="white" stroke="black" points="0,-143 0,-162 145,-162 145,-143 0,-143"/>
<text text-anchor="middle" x="72.5" y="-150" font-family="Helvetica,sans-Serif" font-size="10.00">RADCore::Event&lt; void() &gt;</text>
</a>
</g>
</g>
<!-- Node4&#45;&gt;Node1 -->
<g id="edge6" class="edge">
<title>Node4&#45;&gt;Node1</title>
<path fill="none" stroke="#9a32cd" stroke-dasharray="5,2" d="M155.5,-148.6C180.4,-147.36 207.82,-145.94 233,-144.5 296.18,-140.89 368.3,-136.22 418.79,-132.85"/>
<polygon fill="#9a32cd" stroke="#9a32cd" points="155.18,-145.12 145.37,-149.11 155.53,-152.11 155.18,-145.12"/>
<text text-anchor="middle" x="316.5" y="-156.5" font-family="Helvetica,sans-Serif" font-size="10.00"> connected</text>
<text text-anchor="middle" x="316.5" y="-145.5" font-family="Helvetica,sans-Serif" font-size="10.00">disconnected</text>
</g>
<!-- Node4&#45;&gt;Node2 -->
<g id="edge3" class="edge">
<title>Node4&#45;&gt;Node2</title>
<path fill="none" stroke="#9a32cd" stroke-dasharray="5,2" d="M126.89,-140.81C170.45,-131.27 231.23,-117.96 271.9,-109.05"/>
<polygon fill="#9a32cd" stroke="#9a32cd" points="126.06,-137.41 117.04,-142.96 127.56,-144.24 126.06,-137.41"/>
<text text-anchor="middle" x="198" y="-134.5" font-family="Helvetica,sans-Serif" font-size="10.00"> readyRead</text>
</g>
<!-- Node5 -->
<g id="node5" class="node">
<title>Node5</title>
<g id="a_node5"><a xlink:href="classRADCore_1_1Event.html" target="_top" xlink:title=" ">
<polygon fill="white" stroke="black" points="9.5,-0.5 9.5,-30.5 135.5,-30.5 135.5,-0.5 9.5,-0.5"/>
<text text-anchor="start" x="17.5" y="-18.5" font-family="Helvetica,sans-Serif" font-size="10.00">RADCore::Event&lt; void</text>
<text text-anchor="middle" x="72.5" y="-7.5" font-family="Helvetica,sans-Serif" font-size="10.00">(std::string) &gt;</text>
</a>
</g>
</g>
<!-- Node5&#45;&gt;Node2 -->
<g id="edge4" class="edge">
<title>Node5&#45;&gt;Node2</title>
<path fill="none" stroke="#9a32cd" stroke-dasharray="5,2" d="M141.23,-33.27C169.83,-41.34 203.33,-51.53 233,-62.5 255.09,-70.66 279.61,-81.96 296.14,-89.92"/>
<polygon fill="#9a32cd" stroke="#9a32cd" points="141.9,-29.83 131.33,-30.51 140.02,-36.57 141.9,-29.83"/>
<text text-anchor="middle" x="198" y="-65.5" font-family="Helvetica,sans-Serif" font-size="10.00"> errorOccurred</text>
</g>
<!-- Node6 -->
<g id="node6" class="node">
<title>Node6</title>
<g id="a_node6"><a xlink:href="classRADCore_1_1Event.html" target="_top" xlink:title=" ">
<polygon fill="white" stroke="black" points="9.5,-49.5 9.5,-79.5 135.5,-79.5 135.5,-49.5 9.5,-49.5"/>
<text text-anchor="start" x="17.5" y="-67.5" font-family="Helvetica,sans-Serif" font-size="10.00">RADCore::Event&lt; void</text>
<text text-anchor="middle" x="72.5" y="-56.5" font-family="Helvetica,sans-Serif" font-size="10.00">(size_t) &gt;</text>
</a>
</g>
</g>
<!-- Node6&#45;&gt;Node2 -->
<g id="edge5" class="edge">
<title>Node6&#45;&gt;Node2</title>
<path fill="none" stroke="#9a32cd" stroke-dasharray="5,2" d="M145.87,-74.92C173.18,-78.85 204.52,-83.38 233,-87.5 238.73,-88.33 244.68,-89.19 250.65,-90.06"/>
<polygon fill="#9a32cd" stroke="#9a32cd" points="146.01,-71.4 135.61,-73.44 145.01,-78.33 146.01,-71.4"/>
<text text-anchor="middle" x="198" y="-90.5" font-family="Helvetica,sans-Serif" font-size="10.00"> bytesWritten</text>
</g>
</g>
</svg>
