<?xml version="1.0" encoding="UTF-8" standalone="no"?>
<!DOCTYPE svg PUBLIC "-//W3C//DTD SVG 1.1//EN"
 "http://www.w3.org/Graphics/SVG/1.1/DTD/svg11.dtd">
<!-- Generated by graphviz version 2.43.0 (0)
 -->
<!-- Title: RADNet::RADUdpServer Pages: 1 -->
<svg width="401pt" height="127pt"
 viewBox="0.00 0.00 401.00 126.50" xmlns="http://www.w3.org/2000/svg" xmlns:xlink="http://www.w3.org/1999/xlink">
<g id="graph0" class="graph" transform="scale(1 1) rotate(0) translate(4 122.5)">
<title>RADNet::RADUdpServer</title>
<polygon fill="white" stroke="transparent" points="-4,4 -4,-122.5 397,-122.5 397,4 -4,4"/>
<!-- Node1 -->
<g id="node1" class="node">
<title>Node1</title>
<g id="a_node1"><a xlink:title="Convenience UDP server built on RADUdpSocket.">
<polygon fill="#bfbfbf" stroke="black" points="260,-55 260,-74 393,-74 393,-55 260,-55"/>
<text text-anchor="middle" x="326.5" y="-62" font-family="Helvetica,sans-Serif" font-size="10.00">RADNet::RADUdpServer</text>
</a>
</g>
</g>
<!-- Node2 -->
<g id="node2" class="node">
<title>Node2</title>
<g id="a_node2"><a xlink:href="classRADCore_1_1RADObject.html" target="_top" xlink:title="Base class for event receivers, senders, and thread&#45;affinity aware objects.">
<polygon fill="white" stroke="black" points="4.5,-99 4.5,-118 123.5,-118 123.5,-99 4.5,-99"/>
<text text-anchor="middle" x="64" y="-106" font-family="Helvetica,sans-Serif" font-size="10.00">RADCore::RADObject</text>
</a>
</g>
</g>
<!-- Node2&#45;&gt;Node1 -->
<g id="edge1" class="edge">
<title>Node2&#45;&gt;Node1</title>
<path fill="none" stroke="midnightblue" d="M133.58,-97.51C166.41,-92.19 206.26,-85.64 242,-79.5 252.02,-77.78 262.7,-75.9 272.96,-74.06"/>
<polygon fill="midnightblue" stroke="midnightblue" points="132.95,-94.07 123.63,-99.12 134.07,-100.98 132.95,-94.07"/>
</g>
<!-- Node3 -->
<g id="node3" class="node">
<title>Node3</title>
<g id="a_node3"><a xlink:href="classRADCore_1_1Event.html" target="_top" xlink:title=" ">
<polygon fill="white" stroke="black" points="0,-49.5 0,-79.5 128,-79.5 128,-49.5 0,-49.5"/>
<text text-anchor="start" x="8" y="-67.5" font-family="Helvetica,sans-Serif" font-size="10.00">RADCore::Event&lt; void</text>
<text text-anchor="middle" x="64" y="-56.5" font-family="Helvetica,sans-Serif" font-size="10.00">(RADNet::Datagram) &gt;</text>
</a>
</g>
</g>
<!-- Node3&#45;&gt;Node1 -->
<g id="edge2" class="edge">
<title>Node3&#45;&gt;Node1</title>
<path fill="none" stroke="#9a32cd" stroke-dasharray="5,2" d="M138.1,-64.5C176.34,-64.5 222.77,-64.5 259.84,-64.5"/>
<polygon fill="#9a32cd" stroke="#9a32cd" points="138.06,-61 128.06,-64.5 138.06,-68 138.06,-61"/>
<text text-anchor="middle" x="194" y="-67.5" font-family="Helvetica,sans-Serif" font-size="10.00"> datagramReceived</text>
</g>
<!-- Node4 -->
<g id="node4" class="node">
<title>Node4</title>
<g id="a_node4"><a xlink:href="classRADCore_1_1Event.html" target="_top" xlink:title=" ">
<polygon fill="white" stroke="black" points="1,-0.5 1,-30.5 127,-30.5 127,-0.5 1,-0.5"/>
<text text-anchor="start" x="9" y="-18.5" font-family="Helvetica,sans-Serif" font-size="10.00">RADCore::Event&lt; void</text>
<text text-anchor="middle" x="64" y="-7.5" font-family="Helvetica,sans-Serif" font-size="10.00">(std::string) &gt;</text>
</a>
</g>
</g>
<!-- Node4&#45;&gt;Node1 -->
<g id="edge3" class="edge">
<title>Node4&#45;&gt;Node1</title>
<path fill="none" stroke="#9a32cd" stroke-dasharray="5,2" d="M137.08,-29.06C180.84,-37.29 235.63,-47.6 274.83,-54.97"/>
<polygon fill="#9a32cd" stroke="#9a32cd" points="137.54,-25.58 127.07,-27.17 136.25,-32.46 137.54,-25.58"/>
<text text-anchor="middle" x="194" y="-51.5" font-family="Helvetica,sans-Serif" font-size="10.00"> errorOccurred</text>
</g>
</g>
</svg>
