<?xml version="1.0" encoding="UTF-8" standalone="no"?>
<!DOCTYPE svg PUBLIC "-//W3C//DTD SVG 1.1//EN"
 "http://www.w3.org/Graphics/SVG/1.1/DTD/svg11.dtd">
<!-- Generated by graphviz version 2.43.0 (0)
 -->
<!-- Title: RADCore::RADAbstractItemModel Pages: 1 -->
<svg width="435pt" height="139pt"
 viewBox="0.00 0.00 435.00 139.00" xmlns="http://www.w3.org/2000/svg" xmlns:xlink="http://www.w3.org/1999/xlink">
<g id="graph0" class="graph" transform="scale(1 1) rotate(0) translate(4 135)">
<title>RADCore::RADAbstractItemModel</title>
<polygon fill="white" stroke="transparent" points="-4,4 -4,-135 431,-135 431,4 -4,4"/>
<!-- Node1 -->
<g id="node1" class="node">
<title>Node1</title>
<g id="a_node1"><a xlink:title="Minimal abstract item model for UI/model integrations.">
<polygon fill="#bfbfbf" stroke="black" points="125.5,-0.5 125.5,-30.5 275.5,-30.5 275.5,-0.5 125.5,-0.5"/>
<text text-anchor="start" x="133.5" y="-18.5" font-family="Helvetica,sans-Serif" font-size="10.00">RADCore::RADAbstractItem</text>
<text text-anchor="middle" x="200.5" y="-7.5" font-family="Helvetica,sans-Serif" font-size="10.00">Model</text>
</a>
</g>
</g>
<!-- Node2 -->
<g id="node2" class="node">
<title>Node2</title>
<g id="a_node2"><a xlink:href="classRADCore_1_1RADObject.html" target="_top" xlink:title="Base class for event receivers, senders, and thread&#45;affinity aware objects.">
<polygon fill="white" stroke="black" points="0,-106 0,-125 119,-125 119,-106 0,-106"/>
<text text-anchor="middle" x="59.5" y="-113" font-family="Helvetica,sans-Serif" font-size="10.00">RADCore::RADObject</text>
</a>
</g>
</g>
<!-- Node2&#45;&gt;Node1 -->
<g id="edge1" class="edge">
<title>Node2&#45;&gt;Node1</title>
<path fill="none" stroke="midnightblue" d="M80.31,-100.04C107.15,-81.38 153.55,-49.13 180.16,-30.64"/>
<polygon fill="midnightblue" stroke="midnightblue" points="78.23,-97.22 72.01,-105.8 82.22,-102.97 78.23,-97.22"/>
</g>
<!-- Node3 -->
<g id="node3" class="node">
<title>Node3</title>
<g id="a_node3"><a xlink:href="classRADCore_1_1Event.html" target="_top" xlink:title=" ">
<polygon fill="white" stroke="black" points="137.5,-100.5 137.5,-130.5 263.5,-130.5 263.5,-100.5 137.5,-100.5"/>
<text text-anchor="start" x="145.5" y="-118.5" font-family="Helvetica,sans-Serif" font-size="10.00">RADCore::Event&lt; void</text>
<text text-anchor="middle" x="200.5" y="-107.5" font-family="Helvetica,sans-Serif" font-size="10.00">(size_t, size_t) &gt;</text>
</a>
</g>
</g>
<!-- Node3&#45;&gt;Node1 -->
<g id="edge2" class="edge">
<title>Node3&#45;&gt;Node1</title>
<path fill="none" stroke="#9a32cd" stroke-dasharray="5,2" d="M200.5,-90.28C200.5,-71.48 200.5,-46.08 200.5,-30.51"/>
<polygon fill="#9a32cd" stroke="#9a32cd" points="197,-90.46 200.5,-100.46 204,-90.46 197,-90.46"/>
<text text-anchor="middle" x="235.5" y="-74" font-family="Helvetica,sans-Serif" font-size="10.00"> dataChanged</text>
<text text-anchor="middle" x="235.5" y="-63" font-family="Helvetica,sans-Serif" font-size="10.00">rowsInserted</text>
<text text-anchor="middle" x="235.5" y="-52" font-family="Helvetica,sans-Serif" font-size="10.00">rowsRemoved</text>
</g>
<!-- Node4 -->
<g id="node4" class="node">
<title>Node4</title>
<g id="a_node4"><a xlink:href="classRADCore_1_1Event.html" target="_top" xlink:title=" ">
<polygon fill="white" stroke="black" points="282,-106 282,-125 427,-125 427,-106 282,-106"/>
<text text-anchor="middle" x="354.5" y="-113" font-family="Helvetica,sans-Serif" font-size="10.00">RADCore::Event&lt; void() &gt;</text>
</a>
</g>
</g>
<!-- Node4&#45;&gt;Node1 -->
<g id="edge3" class="edge">
<title>Node4&#45;&gt;Node1</title>
<path fill="none" stroke="#9a32cd" stroke-dasharray="5,2" d="M338.12,-98.82C322.62,-84.55 298.26,-63.56 274.5,-49 263.14,-42.03 250.01,-35.76 238.01,-30.63"/>
<polygon fill="#9a32cd" stroke="#9a32cd" points="336.07,-101.69 345.76,-105.97 340.85,-96.58 336.07,-101.69"/>
<text text-anchor="middle" x="348.5" y="-63" font-family="Helvetica,sans-Serif" font-size="10.00"> modelReset</text>
</g>
</g>
</svg>
