<?xml version="1.0" encoding="UTF-8" standalone="no"?>
<!DOCTYPE svg PUBLIC "-//W3C//DTD SVG 1.1//EN"
 "http://www.w3.org/Graphics/SVG/1.1/DTD/svg11.dtd">
<!-- Generated by graphviz version 2.43.0 (0)
 -->
<!-- Title: RADCore::RADFile Pages: 1 -->
<svg width="531pt" height="165pt"
 viewBox="0.00 0.00 531.00 164.50" xmlns="http://www.w3.org/2000/svg" xmlns:xlink="http://www.w3.org/1999/xlink">
<g id="graph0" class="graph" transform="scale(1 1) rotate(0) translate(4 160.5)">
<title>RADCore::RADFile</title>
<polygon fill="white" stroke="transparent" points="-4,4 -4,-160.5 527,-160.5 527,4 -4,4"/>
<!-- Node1 -->
<g id="node1" class="node">
<title>Node1</title>
<g id="a_node1"><a xlink:title="File&#45;backed RADIODevice.">
<polygon fill="#bfbfbf" stroke="black" points="419,-77 419,-96 523,-96 523,-77 419,-77"/>
<text text-anchor="middle" x="471" y="-84" font-family="Helvetica,sans-Serif" font-size="10.00">RADCore::RADFile</text>
</a>
</g>
</g>
<!-- Node2 -->
<g id="node2" class="node">
<title>Node2</title>
<g id="a_node2"><a xlink:href="classRADCore_1_1RADIODevice.html" target="_top" xlink:title="Abstract byte&#45;oriented IO device similar to QIODevice.">
<polygon fill="white" stroke="black" points="251,-77 251,-96 382,-96 382,-77 251,-77"/>
<text text-anchor="middle" x="316.5" y="-84" font-family="Helvetica,sans-Serif" font-size="10.00">RADCore::RADIODevice</text>
</a>
</g>
</g>
<!-- Node2&#45;&gt;Node1 -->
<g id="edge1" class="edge">
<title>Node2&#45;&gt;Node1</title>
<path fill="none" stroke="midnightblue" d="M392.23,-86.5C401.16,-86.5 410.13,-86.5 418.63,-86.5"/>
<polygon fill="midnightblue" stroke="midnightblue" points="392.17,-83 382.17,-86.5 392.17,-90 392.17,-83"/>
</g>
<!-- Node3 -->
<g id="node3" class="node">
<title>Node3</title>
<g id="a_node3"><a xlink:href="classRADCore_1_1RADObject.html" target="_top" xlink:title="Base class for event receivers, senders, and thread&#45;affinity aware objects.">
<polygon fill="white" stroke="black" points="13,-137 13,-156 132,-156 132,-137 13,-137"/>
<text text-anchor="middle" x="72.5" y="-144" font-family="Helvetica,sans-Serif" font-size="10.00">RADCore::RADObject</text>
</a>
</g>
</g>
<!-- Node3&#45;&gt;Node2 -->
<g id="edge2" class="edge">
<title>Node3&#45;&gt;Node2</title>
<path fill="none" stroke="midnightblue" d="M140.32,-135.09C169.04,-129.67 202.87,-122.6 233,-114.5 252.43,-109.28 273.94,-101.92 290.12,-96.06"/>
<polygon fill="midnightblue" stroke="midnightblue" points="139.57,-131.66 130.38,-136.93 140.85,-138.55 139.57,-131.66"/>
</g>
<!-- Node4 -->
<g id="node4" class="node">
<title>Node4</title>
<g id="a_node4"><a xlink:href="classRADCore_1_1Event.html" target="_top" xlink:title=" ">
<polygon fill="white" stroke="black" points="0,-99 0,-118 145,-118 145,-99 0,-99"/>
<text text-anchor="middle" x="72.5" y="-106" font-family="Helvetica,sans-Serif" font-size="10.00">RADCore::Event&lt; void() &gt;</text>
</a>
</g>
</g>
<!-- Node4&#45;&gt;Node2 -->
<g id="edge3" class="edge">
<title>Node4&#45;&gt;Node2</title>
<path fill="none" stroke="#9a32cd" stroke-dasharray="5,2" d="M155.09,-101.08C186.23,-98.25 221.28,-95.07 250.66,-92.39"/>
<polygon fill="#9a32cd" stroke="#9a32cd" points="154.77,-97.6 145.13,-101.99 155.4,-104.57 154.77,-97.6"/>
<text text-anchor="middle" x="198" y="-102.5" font-family="Helvetica,sans-Serif" font-size="10.00"> readyRead</text>
</g>
<!-- Node5 -->
<g id="node5" class="node">
<title>Node5</title>
<g id="a_node5"><a xlink:href="classRADCore_1_1Event.html" target="_top" xlink:title=" ">
<polygon fill="white" stroke="black" points="9.5,-49.5 9.5,-79.5 135.5,-79.5 135.5,-49.5 9.5,-49.5"/>
<text text-anchor="start" x="17.5" y="-67.5" font-family="Helvetica,sans-Serif" font-size="10.00">RADCore::Event&lt; void</text>
<text text-anchor="middle" x="72.5" y="-56.5" font-family="Helvetica,sans-Serif" font-size="10.00">(std::string) &gt;</text>
</a>
</g>
</g>
<!-- Node5&#45;&gt;Node2 -->
<g id="edge4" class="edge">
<title>Node5&#45;&gt;Node2</title>
<path fill="none" stroke="#9a32cd" stroke-dasharray="5,2" d="M145.88,-70.71C173.19,-73.09 204.53,-75.87 233,-78.5 238.73,-79.03 244.69,-79.59 250.65,-80.16"/>
<polygon fill="#9a32cd" stroke="#9a32cd" points="145.89,-67.2 135.62,-69.82 145.28,-74.17 145.89,-67.2"/>
<text text-anchor="middle" x="198" y="-81.5" font-family="Helvetica,sans-Serif" font-size="10.00"> errorOccurred</text>
</g>
<!-- Node6 -->
<g id="node6" class="node">
<title>Node6</title>
<g id="a_node6"><a xlink:href="classRADCore_1_1Event.html" target="_top" xlink:title=" ">
<polygon fill="white" stroke="black" points="9.5,-0.5 9.5,-30.5 135.5,-30.5 135.5,-0.5 9.5,-0.5"/>
<text text-anchor="start" x="17.5" y="-18.5" font-family="Helvetica,sans-Serif" font-size="10.00">RADCore::Event&lt; void</text>
<text text-anchor="middle" x="72.5" y="-7.5" font-family="Helvetica,sans-Serif" font-size="10.00">(size_t) &gt;</text>
</a>
</g>
</g>
<!-- Node6&#45;&gt;Node2 -->
<g id="edge5" class="edge">
<title>Node6&#45;&gt;Node2</title>
<path fill="none" stroke="#9a32cd" stroke-dasharray="5,2" d="M145.15,-33.06C172.74,-40.16 204.47,-48.75 233,-57.5 252.3,-63.42 273.82,-71.02 290.03,-76.95"/>
<polygon fill="#9a32cd" stroke="#9a32cd" points="145.73,-29.59 135.18,-30.51 144,-36.38 145.73,-29.59"/>
<text text-anchor="middle" x="198" y="-60.5" font-family="Helvetica,sans-Serif" font-size="10.00"> bytesWritten</text>
</g>
</g>
</svg>
