<?xml version="1.0" encoding="UTF-8" standalone="no"?>
<!DOCTYPE svg PUBLIC "-//W3C//DTD SVG 1.1//EN"
 "http://www.w3.org/Graphics/SVG/1.1/DTD/svg11.dtd">
<!-- Generated by graphviz version 2.43.0 (0)
 -->
<!-- Title: RADUi/headers/RADAppKit.h Pages: 1 -->
<svg width="590pt" height="84pt"
 viewBox="0.00 0.00 589.50 84.00" xmlns="http://www.w3.org/2000/svg" xmlns:xlink="http://www.w3.org/1999/xlink">
<g id="graph0" class="graph" transform="scale(1 1) rotate(0) translate(4 80)">
<title>RADUi/headers/RADAppKit.h</title>
<polygon fill="white" stroke="transparent" points="-4,4 -4,-80 585.5,-80 585.5,4 -4,4"/>
<!-- Node1 -->
<g id="node1" class="node">
<title>Node1</title>
<g id="a_node1"><a xlink:title="Application&#45;shell, dock, workspace, command, notification, file, log, and virtual data models.">
<polygon fill="#bfbfbf" stroke="black" points="283.5,-56.5 283.5,-75.5 438.5,-75.5 438.5,-56.5 283.5,-56.5"/>
<text text-anchor="middle" x="361" y="-63.5" font-family="Helvetica,sans-Serif" font-size="10.00">RADUi/headers/RADAppKit.h</text>
</a>
</g>
</g>
<!-- Node2 -->
<g id="node2" class="node">
<title>Node2</title>
<g id="a_node2"><a xlink:title=" ">
<polygon fill="white" stroke="#bfbfbf" points="0,-0.5 0,-19.5 116,-19.5 116,-0.5 0,-0.5"/>
<text text-anchor="middle" x="58" y="-7.5" font-family="Helvetica,sans-Serif" font-size="10.00">RADCore/RADCore.h</text>
</a>
</g>
</g>
<!-- Node1&#45;&gt;Node2 -->
<g id="edge1" class="edge">
<title>Node1&#45;&gt;Node2</title>
<path fill="none" stroke="midnightblue" d="M312.99,-56.44C259.47,-46.9 172.93,-31.48 115.76,-21.29"/>
<polygon fill="midnightblue" stroke="midnightblue" points="116.25,-17.83 105.79,-19.52 115.02,-24.72 116.25,-17.83"/>
</g>
<!-- Node3 -->
<g id="node3" class="node">
<title>Node3</title>
<g id="a_node3"><a xlink:title=" ">
<polygon fill="white" stroke="#bfbfbf" points="134.5,-0.5 134.5,-19.5 255.5,-19.5 255.5,-0.5 134.5,-0.5"/>
<text text-anchor="middle" x="195" y="-7.5" font-family="Helvetica,sans-Serif" font-size="10.00">RADUi/RADWidgets.h</text>
</a>
</g>
</g>
<!-- Node1&#45;&gt;Node3 -->
<g id="edge2" class="edge">
<title>Node1&#45;&gt;Node3</title>
<path fill="none" stroke="midnightblue" d="M334.7,-56.44C306.65,-47.32 262.06,-32.81 230.82,-22.65"/>
<polygon fill="midnightblue" stroke="midnightblue" points="231.77,-19.28 221.18,-19.52 229.61,-25.94 231.77,-19.28"/>
</g>
<!-- Node4 -->
<g id="node4" class="node">
<title>Node4</title>
<g id="a_node4"><a xlink:title=" ">
<polygon fill="white" stroke="#bfbfbf" points="274,-0.5 274,-19.5 324,-19.5 324,-0.5 274,-0.5"/>
<text text-anchor="middle" x="299" y="-7.5" font-family="Helvetica,sans-Serif" font-size="10.00">cstdint</text>
</a>
</g>
</g>
<!-- Node1&#45;&gt;Node4 -->
<g id="edge3" class="edge">
<title>Node1&#45;&gt;Node4</title>
<path fill="none" stroke="midnightblue" d="M351.04,-56.32C341.87,-48.34 328.06,-36.31 316.97,-26.65"/>
<polygon fill="midnightblue" stroke="midnightblue" points="318.98,-23.76 309.14,-19.83 314.38,-29.04 318.98,-23.76"/>
</g>
<!-- Node5 -->
<g id="node5" class="node">
<title>Node5</title>
<g id="a_node5"><a xlink:title=" ">
<polygon fill="white" stroke="#bfbfbf" points="342,-0.5 342,-19.5 380,-19.5 380,-0.5 342,-0.5"/>
<text text-anchor="middle" x="361" y="-7.5" font-family="Helvetica,sans-Serif" font-size="10.00">map</text>
</a>
</g>
</g>
<!-- Node1&#45;&gt;Node5 -->
<g id="edge4" class="edge">
<title>Node1&#45;&gt;Node5</title>
<path fill="none" stroke="midnightblue" d="M361,-56.08C361,-49.01 361,-38.86 361,-29.99"/>
<polygon fill="midnightblue" stroke="midnightblue" points="364.5,-29.75 361,-19.75 357.5,-29.75 364.5,-29.75"/>
</g>
<!-- Node6 -->
<g id="node6" class="node">
<title>Node6</title>
<g id="a_node6"><a xlink:title=" ">
<polygon fill="white" stroke="#bfbfbf" points="398,-0.5 398,-19.5 454,-19.5 454,-0.5 398,-0.5"/>
<text text-anchor="middle" x="426" y="-7.5" font-family="Helvetica,sans-Serif" font-size="10.00">optional</text>
</a>
</g>
</g>
<!-- Node1&#45;&gt;Node6 -->
<g id="edge5" class="edge">
<title>Node1&#45;&gt;Node6</title>
<path fill="none" stroke="midnightblue" d="M371.44,-56.32C381.15,-48.26 395.82,-36.08 407.5,-26.37"/>
<polygon fill="midnightblue" stroke="midnightblue" points="409.91,-28.92 415.37,-19.83 405.44,-23.53 409.91,-28.92"/>
</g>
<!-- Node7 -->
<g id="node7" class="node">
<title>Node7</title>
<g id="a_node7"><a xlink:title=" ">
<polygon fill="white" stroke="#bfbfbf" points="472,-0.5 472,-19.5 516,-19.5 516,-0.5 472,-0.5"/>
<text text-anchor="middle" x="494" y="-7.5" font-family="Helvetica,sans-Serif" font-size="10.00">string</text>
</a>
</g>
</g>
<!-- Node1&#45;&gt;Node7 -->
<g id="edge6" class="edge">
<title>Node1&#45;&gt;Node7</title>
<path fill="none" stroke="midnightblue" d="M382.07,-56.44C404.06,-47.52 438.73,-33.44 463.66,-23.32"/>
<polygon fill="midnightblue" stroke="midnightblue" points="465.08,-26.52 473.02,-19.52 462.44,-20.04 465.08,-26.52"/>
</g>
<!-- Node8 -->
<g id="node8" class="node">
<title>Node8</title>
<g id="a_node8"><a xlink:title=" ">
<polygon fill="white" stroke="#bfbfbf" points="534.5,-0.5 534.5,-19.5 581.5,-19.5 581.5,-0.5 534.5,-0.5"/>
<text text-anchor="middle" x="558" y="-7.5" font-family="Helvetica,sans-Serif" font-size="10.00">vector</text>
</a>
</g>
</g>
<!-- Node1&#45;&gt;Node8 -->
<g id="edge7" class="edge">
<title>Node1&#45;&gt;Node8</title>
<path fill="none" stroke="midnightblue" d="M392.22,-56.44C428.31,-46.55 487.51,-30.32 524.53,-20.17"/>
<polygon fill="midnightblue" stroke="midnightblue" points="525.63,-23.5 534.35,-17.48 523.78,-16.75 525.63,-23.5"/>
</g>
</g>
</svg>
