<?xml version="1.0" encoding="UTF-8" standalone="no"?>
<!DOCTYPE svg PUBLIC "-//W3C//DTD SVG 1.1//EN"
 "http://www.w3.org/Graphics/SVG/1.1/DTD/svg11.dtd">
<!-- Generated by graphviz version 2.43.0 (0)
 -->
<!-- Title: RADCore/headers/RADCore.h Pages: 1 -->
<svg width="2160pt" height="84pt"
 viewBox="0.00 0.00 2159.50 84.00" xmlns="http://www.w3.org/2000/svg" xmlns:xlink="http://www.w3.org/1999/xlink">
<g id="graph0" class="graph" transform="scale(1 1) rotate(0) translate(4 80)">
<title>RADCore/headers/RADCore.h</title>
<polygon fill="white" stroke="transparent" points="-4,4 -4,-80 2155.5,-80 2155.5,4 -4,4"/>
<!-- Node1 -->
<g id="node1" class="node">
<title>Node1</title>
<g id="a_node1"><a xlink:title="Core RADLib primitives: events, event loops, timers, IO, JSON, settings, filesystem helpers,...">
<polygon fill="#bfbfbf" stroke="black" points="951.5,-56.5 951.5,-75.5 1109.5,-75.5 1109.5,-56.5 951.5,-56.5"/>
<text text-anchor="middle" x="1030.5" y="-63.5" font-family="Helvetica,sans-Serif" font-size="10.00">RADCore/headers/RADCore.h</text>
</a>
</g>
</g>
<!-- Node2 -->
<g id="node2" class="node">
<title>Node2</title>
<g id="a_node2"><a xlink:title=" ">
<polygon fill="white" stroke="#bfbfbf" points="0,-0.5 0,-19.5 153,-19.5 153,-0.5 0,-0.5"/>
<text text-anchor="middle" x="76.5" y="-7.5" font-family="Helvetica,sans-Serif" font-size="10.00">RADCore/RADLicenseGate.h</text>
</a>
</g>
</g>
<!-- Node1&#45;&gt;Node2 -->
<g id="edge1" class="edge">
<title>Node1&#45;&gt;Node2</title>
<path fill="none" stroke="midnightblue" d="M951.42,-62.29C800.47,-56.81 460.59,-43.02 163.48,-20.03"/>
<polygon fill="midnightblue" stroke="midnightblue" points="163.62,-16.53 153.38,-19.25 163.07,-23.51 163.62,-16.53"/>
</g>
<!-- Node3 -->
<g id="node3" class="node">
<title>Node3</title>
<g id="a_node3"><a xlink:title=" ">
<polygon fill="white" stroke="#bfbfbf" points="171.5,-0.5 171.5,-19.5 231.5,-19.5 231.5,-0.5 171.5,-0.5"/>
<text text-anchor="middle" x="201.5" y="-7.5" font-family="Helvetica,sans-Serif" font-size="10.00">iostream</text>
</a>
</g>
</g>
<!-- Node1&#45;&gt;Node3 -->
<g id="edge2" class="edge">
<title>Node1&#45;&gt;Node3</title>
<path fill="none" stroke="midnightblue" d="M951.29,-64.92C810.3,-63.82 506.56,-57.05 241.83,-19.93"/>
<polygon fill="midnightblue" stroke="midnightblue" points="242.03,-16.43 231.64,-18.49 241.05,-23.36 242.03,-16.43"/>
</g>
<!-- Node4 -->
<g id="node4" class="node">
<title>Node4</title>
<g id="a_node4"><a xlink:title=" ">
<polygon fill="white" stroke="#bfbfbf" points="249.5,-0.5 249.5,-19.5 291.5,-19.5 291.5,-0.5 249.5,-0.5"/>
<text text-anchor="middle" x="270.5" y="-7.5" font-family="Helvetica,sans-Serif" font-size="10.00">array</text>
</a>
</g>
</g>
<!-- Node1&#45;&gt;Node4 -->
<g id="edge3" class="edge">
<title>Node1&#45;&gt;Node4</title>
<path fill="none" stroke="midnightblue" d="M951.36,-62.42C793.04,-56.89 441.28,-42.67 301.73,-19.74"/>
<polygon fill="midnightblue" stroke="midnightblue" points="302.11,-16.26 291.66,-18 300.92,-23.15 302.11,-16.26"/>
</g>
<!-- Node5 -->
<g id="node5" class="node">
<title>Node5</title>
<g id="a_node5"><a xlink:title=" ">
<polygon fill="white" stroke="#bfbfbf" points="310,-0.5 310,-19.5 357,-19.5 357,-0.5 310,-0.5"/>
<text text-anchor="middle" x="333.5" y="-7.5" font-family="Helvetica,sans-Serif" font-size="10.00">vector</text>
</a>
</g>
</g>
<!-- Node1&#45;&gt;Node5 -->
<g id="edge4" class="edge">
<title>Node1&#45;&gt;Node5</title>
<path fill="none" stroke="midnightblue" d="M951.31,-64.91C827.93,-63.6 582.46,-56.35 367.05,-19.94"/>
<polygon fill="midnightblue" stroke="midnightblue" points="367.59,-16.48 357.14,-18.24 366.4,-23.38 367.59,-16.48"/>
</g>
<!-- Node6 -->
<g id="node6" class="node">
<title>Node6</title>
<g id="a_node6"><a xlink:title=" ">
<polygon fill="white" stroke="#bfbfbf" points="375,-0.5 375,-19.5 440,-19.5 440,-0.5 375,-0.5"/>
<text text-anchor="middle" x="407.5" y="-7.5" font-family="Helvetica,sans-Serif" font-size="10.00">functional</text>
</a>
</g>
</g>
<!-- Node1&#45;&gt;Node6 -->
<g id="edge5" class="edge">
<title>Node1&#45;&gt;Node6</title>
<path fill="none" stroke="midnightblue" d="M951.04,-62.35C840.65,-57.9 634.57,-46.77 450.25,-20.07"/>
<polygon fill="midnightblue" stroke="midnightblue" points="450.5,-16.57 440.1,-18.58 449.48,-23.5 450.5,-16.57"/>
</g>
<!-- Node7 -->
<g id="node7" class="node">
<title>Node7</title>
<g id="a_node7"><a xlink:title=" ">
<polygon fill="white" stroke="#bfbfbf" points="458,-0.5 458,-19.5 505,-19.5 505,-0.5 458,-0.5"/>
<text text-anchor="middle" x="481.5" y="-7.5" font-family="Helvetica,sans-Serif" font-size="10.00">queue</text>
</a>
</g>
</g>
<!-- Node1&#45;&gt;Node7 -->
<g id="edge6" class="edge">
<title>Node1&#45;&gt;Node7</title>
<path fill="none" stroke="midnightblue" d="M951.24,-62.5C851.54,-58.36 675.07,-47.78 515.2,-19.78"/>
<polygon fill="midnightblue" stroke="midnightblue" points="515.64,-16.31 505.18,-18 514.41,-23.2 515.64,-16.31"/>
</g>
<!-- Node8 -->
<g id="node8" class="node">
<title>Node8</title>
<g id="a_node8"><a xlink:title=" ">
<polygon fill="white" stroke="#bfbfbf" points="523.5,-0.5 523.5,-19.5 571.5,-19.5 571.5,-0.5 523.5,-0.5"/>
<text text-anchor="middle" x="547.5" y="-7.5" font-family="Helvetica,sans-Serif" font-size="10.00">mutex</text>
</a>
</g>
</g>
<!-- Node1&#45;&gt;Node8 -->
<g id="edge7" class="edge">
<title>Node1&#45;&gt;Node8</title>
<path fill="none" stroke="midnightblue" d="M951.49,-61.09C863.39,-55.83 716.62,-44.4 581.65,-19.92"/>
<polygon fill="midnightblue" stroke="midnightblue" points="582.01,-16.42 571.54,-18.05 580.74,-23.31 582.01,-16.42"/>
</g>
<!-- Node9 -->
<g id="node9" class="node">
<title>Node9</title>
<g id="a_node9"><a xlink:title=" ">
<polygon fill="white" stroke="#bfbfbf" points="589.5,-0.5 589.5,-19.5 627.5,-19.5 627.5,-0.5 589.5,-0.5"/>
<text text-anchor="middle" x="608.5" y="-7.5" font-family="Helvetica,sans-Serif" font-size="10.00">map</text>
</a>
</g>
</g>
<!-- Node1&#45;&gt;Node9 -->
<g id="edge8" class="edge">
<title>Node1&#45;&gt;Node9</title>
<path fill="none" stroke="midnightblue" d="M951.26,-60.56C873.44,-55.15 751.34,-43.88 637.57,-19.84"/>
<polygon fill="midnightblue" stroke="midnightblue" points="638.16,-16.38 627.64,-17.7 636.68,-23.23 638.16,-16.38"/>
</g>
<!-- Node10 -->
<g id="node10" class="node">
<title>Node10</title>
<g id="a_node10"><a xlink:title=" ">
<polygon fill="white" stroke="#bfbfbf" points="645.5,-0.5 645.5,-19.5 695.5,-19.5 695.5,-0.5 645.5,-0.5"/>
<text text-anchor="middle" x="670.5" y="-7.5" font-family="Helvetica,sans-Serif" font-size="10.00">chrono</text>
</a>
</g>
</g>
<!-- Node1&#45;&gt;Node10 -->
<g id="edge9" class="edge">
<title>Node1&#45;&gt;Node10</title>
<path fill="none" stroke="midnightblue" d="M951.33,-56.8C887.43,-49.55 795.07,-37.67 705.71,-20.04"/>
<polygon fill="midnightblue" stroke="midnightblue" points="706.16,-16.56 695.67,-18.03 704.79,-23.42 706.16,-16.56"/>
</g>
<!-- Node11 -->
<g id="node11" class="node">
<title>Node11</title>
<g id="a_node11"><a xlink:title=" ">
<polygon fill="white" stroke="#bfbfbf" points="713.5,-0.5 713.5,-19.5 761.5,-19.5 761.5,-0.5 713.5,-0.5"/>
<text text-anchor="middle" x="737.5" y="-7.5" font-family="Helvetica,sans-Serif" font-size="10.00">thread</text>
</a>
</g>
</g>
<!-- Node1&#45;&gt;Node11 -->
<g id="edge10" class="edge">
<title>Node1&#45;&gt;Node11</title>
<path fill="none" stroke="midnightblue" d="M971.85,-56.48C921.22,-48.75 845.95,-36.38 771.59,-20.07"/>
<polygon fill="midnightblue" stroke="midnightblue" points="772.11,-16.6 761.58,-17.85 770.59,-23.44 772.11,-16.6"/>
</g>
<!-- Node12 -->
<g id="node12" class="node">
<title>Node12</title>
<g id="a_node12"><a xlink:title=" ">
<polygon fill="white" stroke="#bfbfbf" points="779.5,-0.5 779.5,-19.5 829.5,-19.5 829.5,-0.5 779.5,-0.5"/>
<text text-anchor="middle" x="804.5" y="-7.5" font-family="Helvetica,sans-Serif" font-size="10.00">atomic</text>
</a>
</g>
</g>
<!-- Node1&#45;&gt;Node12 -->
<g id="edge11" class="edge">
<title>Node1&#45;&gt;Node12</title>
<path fill="none" stroke="midnightblue" d="M992.54,-56.44C955.79,-48.08 898.28,-34.8 839.55,-20.21"/>
<polygon fill="midnightblue" stroke="midnightblue" points="840.28,-16.79 829.73,-17.76 838.59,-23.58 840.28,-16.79"/>
</g>
<!-- Node13 -->
<g id="node13" class="node">
<title>Node13</title>
<g id="a_node13"><a xlink:title=" ">
<polygon fill="white" stroke="#bfbfbf" points="847.5,-0.5 847.5,-19.5 905.5,-19.5 905.5,-0.5 847.5,-0.5"/>
<text text-anchor="middle" x="876.5" y="-7.5" font-family="Helvetica,sans-Serif" font-size="10.00">memory</text>
</a>
</g>
</g>
<!-- Node1&#45;&gt;Node13 -->
<g id="edge12" class="edge">
<title>Node1&#45;&gt;Node13</title>
<path fill="none" stroke="midnightblue" d="M1006.1,-56.44C980.3,-47.4 939.42,-33.06 910.48,-22.92"/>
<polygon fill="midnightblue" stroke="midnightblue" points="911.38,-19.52 900.79,-19.52 909.07,-26.13 911.38,-19.52"/>
</g>
<!-- Node14 -->
<g id="node14" class="node">
<title>Node14</title>
<g id="a_node14"><a xlink:title=" ">
<polygon fill="white" stroke="#bfbfbf" points="923.5,-0.5 923.5,-19.5 987.5,-19.5 987.5,-0.5 923.5,-0.5"/>
<text text-anchor="middle" x="955.5" y="-7.5" font-family="Helvetica,sans-Serif" font-size="10.00">algorithm</text>
</a>
</g>
</g>
<!-- Node1&#45;&gt;Node14 -->
<g id="edge13" class="edge">
<title>Node1&#45;&gt;Node14</title>
<path fill="none" stroke="midnightblue" d="M1018.45,-56.32C1007.04,-48.11 989.67,-35.6 976.07,-25.81"/>
<polygon fill="midnightblue" stroke="midnightblue" points="977.93,-22.84 967.77,-19.83 973.84,-28.52 977.93,-22.84"/>
</g>
<!-- Node15 -->
<g id="node15" class="node">
<title>Node15</title>
<g id="a_node15"><a xlink:title=" ">
<polygon fill="white" stroke="#bfbfbf" points="1005.5,-0.5 1005.5,-19.5 1055.5,-19.5 1055.5,-0.5 1005.5,-0.5"/>
<text text-anchor="middle" x="1030.5" y="-7.5" font-family="Helvetica,sans-Serif" font-size="10.00">cstdint</text>
</a>
</g>
</g>
<!-- Node1&#45;&gt;Node15 -->
<g id="edge14" class="edge">
<title>Node1&#45;&gt;Node15</title>
<path fill="none" stroke="midnightblue" d="M1030.5,-56.08C1030.5,-49.01 1030.5,-38.86 1030.5,-29.99"/>
<polygon fill="midnightblue" stroke="midnightblue" points="1034,-29.75 1030.5,-19.75 1027,-29.75 1034,-29.75"/>
</g>
<!-- Node16 -->
<g id="node16" class="node">
<title>Node16</title>
<g id="a_node16"><a xlink:title=" ">
<polygon fill="white" stroke="#bfbfbf" points="1073.5,-0.5 1073.5,-19.5 1129.5,-19.5 1129.5,-0.5 1073.5,-0.5"/>
<text text-anchor="middle" x="1101.5" y="-7.5" font-family="Helvetica,sans-Serif" font-size="10.00">sstream</text>
</a>
</g>
</g>
<!-- Node1&#45;&gt;Node16 -->
<g id="edge15" class="edge">
<title>Node1&#45;&gt;Node16</title>
<path fill="none" stroke="midnightblue" d="M1041.91,-56.32C1052.61,-48.18 1068.84,-35.84 1081.66,-26.09"/>
<polygon fill="midnightblue" stroke="midnightblue" points="1084.04,-28.67 1089.89,-19.83 1079.81,-23.1 1084.04,-28.67"/>
</g>
<!-- Node17 -->
<g id="node17" class="node">
<title>Node17</title>
<g id="a_node17"><a xlink:title=" ">
<polygon fill="white" stroke="#bfbfbf" points="1147.5,-0.5 1147.5,-19.5 1233.5,-19.5 1233.5,-0.5 1147.5,-0.5"/>
<text text-anchor="middle" x="1190.5" y="-7.5" font-family="Helvetica,sans-Serif" font-size="10.00">shared_mutex</text>
</a>
</g>
</g>
<!-- Node1&#45;&gt;Node17 -->
<g id="edge16" class="edge">
<title>Node1&#45;&gt;Node17</title>
<path fill="none" stroke="midnightblue" d="M1055.85,-56.44C1082.77,-47.36 1125.5,-32.94 1155.59,-22.78"/>
<polygon fill="midnightblue" stroke="midnightblue" points="1156.91,-26.03 1165.27,-19.52 1154.67,-19.4 1156.91,-26.03"/>
</g>
<!-- Node18 -->
<g id="node18" class="node">
<title>Node18</title>
<g id="a_node18"><a xlink:title=" ">
<polygon fill="white" stroke="#bfbfbf" points="1251.5,-0.5 1251.5,-19.5 1297.5,-19.5 1297.5,-0.5 1251.5,-0.5"/>
<text text-anchor="middle" x="1274.5" y="-7.5" font-family="Helvetica,sans-Serif" font-size="10.00">future</text>
</a>
</g>
</g>
<!-- Node1&#45;&gt;Node18 -->
<g id="edge17" class="edge">
<title>Node1&#45;&gt;Node18</title>
<path fill="none" stroke="midnightblue" d="M1074.95,-56.44C1115.88,-48.36 1178.48,-35.51 1241.73,-20.07"/>
<polygon fill="midnightblue" stroke="midnightblue" points="1242.6,-23.46 1251.48,-17.67 1240.93,-16.66 1242.6,-23.46"/>
</g>
<!-- Node19 -->
<g id="node19" class="node">
<title>Node19</title>
<g id="a_node19"><a xlink:title=" ">
<polygon fill="white" stroke="#bfbfbf" points="1316,-0.5 1316,-19.5 1385,-19.5 1385,-0.5 1316,-0.5"/>
<text text-anchor="middle" x="1350.5" y="-7.5" font-family="Helvetica,sans-Serif" font-size="10.00">type_traits</text>
</a>
</g>
</g>
<!-- Node1&#45;&gt;Node19 -->
<g id="edge18" class="edge">
<title>Node1&#45;&gt;Node19</title>
<path fill="none" stroke="midnightblue" d="M1086.91,-56.48C1140.59,-48.22 1223.88,-35.01 1305.94,-20.04"/>
<polygon fill="midnightblue" stroke="midnightblue" points="1306.73,-23.45 1315.94,-18.21 1305.47,-16.57 1306.73,-23.45"/>
</g>
<!-- Node20 -->
<g id="node20" class="node">
<title>Node20</title>
<g id="a_node20"><a xlink:title=" ">
<polygon fill="white" stroke="#bfbfbf" points="1403.5,-0.5 1403.5,-19.5 1459.5,-19.5 1459.5,-0.5 1403.5,-0.5"/>
<text text-anchor="middle" x="1431.5" y="-7.5" font-family="Helvetica,sans-Serif" font-size="10.00">optional</text>
</a>
</g>
</g>
<!-- Node1&#45;&gt;Node20 -->
<g id="edge19" class="edge">
<title>Node1&#45;&gt;Node20</title>
<path fill="none" stroke="midnightblue" d="M1109.72,-57.87C1181.41,-50.81 1290.05,-38.6 1393.32,-20.03"/>
<polygon fill="midnightblue" stroke="midnightblue" points="1394.08,-23.45 1403.29,-18.22 1392.82,-16.57 1394.08,-23.45"/>
</g>
<!-- Node21 -->
<g id="node21" class="node">
<title>Node21</title>
<g id="a_node21"><a xlink:title=" ">
<polygon fill="white" stroke="#bfbfbf" points="1477.5,-0.5 1477.5,-19.5 1521.5,-19.5 1521.5,-0.5 1477.5,-0.5"/>
<text text-anchor="middle" x="1499.5" y="-7.5" font-family="Helvetica,sans-Serif" font-size="10.00">string</text>
</a>
</g>
</g>
<!-- Node1&#45;&gt;Node21 -->
<g id="edge20" class="edge">
<title>Node1&#45;&gt;Node21</title>
<path fill="none" stroke="midnightblue" d="M1109.86,-61.15C1195.85,-56.02 1337.11,-44.75 1467.13,-19.94"/>
<polygon fill="midnightblue" stroke="midnightblue" points="1468.12,-23.32 1477.27,-17.97 1466.78,-16.44 1468.12,-23.32"/>
</g>
<!-- Node22 -->
<g id="node22" class="node">
<title>Node22</title>
<g id="a_node22"><a xlink:title=" ">
<polygon fill="white" stroke="#bfbfbf" points="1539.5,-0.5 1539.5,-19.5 1607.5,-19.5 1607.5,-0.5 1539.5,-0.5"/>
<text text-anchor="middle" x="1573.5" y="-7.5" font-family="Helvetica,sans-Serif" font-size="10.00">filesystem</text>
</a>
</g>
</g>
<!-- Node1&#45;&gt;Node22 -->
<g id="edge21" class="edge">
<title>Node1&#45;&gt;Node22</title>
<path fill="none" stroke="midnightblue" d="M1109.64,-60.73C1206.38,-54.88 1375.21,-42.59 1529.18,-20.03"/>
<polygon fill="midnightblue" stroke="midnightblue" points="1529.92,-23.46 1539.3,-18.53 1528.89,-16.54 1529.92,-23.46"/>
</g>
<!-- Node23 -->
<g id="node23" class="node">
<title>Node23</title>
<g id="a_node23"><a xlink:title=" ">
<polygon fill="white" stroke="#bfbfbf" points="1626,-0.5 1626,-19.5 1677,-19.5 1677,-0.5 1626,-0.5"/>
<text text-anchor="middle" x="1651.5" y="-7.5" font-family="Helvetica,sans-Serif" font-size="10.00">variant</text>
</a>
</g>
</g>
<!-- Node1&#45;&gt;Node23 -->
<g id="edge22" class="edge">
<title>Node1&#45;&gt;Node23</title>
<path fill="none" stroke="midnightblue" d="M1109.7,-63.31C1220.82,-59.96 1429.32,-50.12 1616,-19.76"/>
<polygon fill="midnightblue" stroke="midnightblue" points="1616.7,-23.19 1626,-18.11 1615.56,-16.28 1616.7,-23.19"/>
</g>
<!-- Node24 -->
<g id="node24" class="node">
<title>Node24</title>
<g id="a_node24"><a xlink:title=" ">
<polygon fill="white" stroke="#bfbfbf" points="1695,-0.5 1695,-19.5 1802,-19.5 1802,-0.5 1695,-0.5"/>
<text text-anchor="middle" x="1748.5" y="-7.5" font-family="Helvetica,sans-Serif" font-size="10.00">condition_variable</text>
</a>
</g>
</g>
<!-- Node1&#45;&gt;Node24 -->
<g id="edge23" class="edge">
<title>Node1&#45;&gt;Node24</title>
<path fill="none" stroke="midnightblue" d="M1109.68,-61.51C1231.22,-55.71 1471.26,-42.57 1684.62,-20.13"/>
<polygon fill="midnightblue" stroke="midnightblue" points="1685.19,-23.59 1694.76,-19.05 1684.45,-16.63 1685.19,-23.59"/>
</g>
<!-- Node25 -->
<g id="node25" class="node">
<title>Node25</title>
<g id="a_node25"><a xlink:title=" ">
<polygon fill="white" stroke="#bfbfbf" points="1820,-0.5 1820,-19.5 1867,-19.5 1867,-0.5 1820,-0.5"/>
<text text-anchor="middle" x="1843.5" y="-7.5" font-family="Helvetica,sans-Serif" font-size="10.00">deque</text>
</a>
</g>
</g>
<!-- Node1&#45;&gt;Node25 -->
<g id="edge24" class="edge">
<title>Node1&#45;&gt;Node25</title>
<path fill="none" stroke="midnightblue" d="M1109.59,-62.62C1276.39,-57.25 1660.45,-42.97 1809.94,-19.87"/>
<polygon fill="midnightblue" stroke="midnightblue" points="1810.55,-23.32 1819.86,-18.26 1809.43,-16.41 1810.55,-23.32"/>
</g>
<!-- Node26 -->
<g id="node26" class="node">
<title>Node26</title>
<g id="a_node26"><a xlink:title=" ">
<polygon fill="white" stroke="#bfbfbf" points="1885,-0.5 1885,-19.5 1978,-19.5 1978,-0.5 1885,-0.5"/>
<text text-anchor="middle" x="1931.5" y="-7.5" font-family="Helvetica,sans-Serif" font-size="10.00">unordered_map</text>
</a>
</g>
</g>
<!-- Node1&#45;&gt;Node26 -->
<g id="edge25" class="edge">
<title>Node1&#45;&gt;Node26</title>
<path fill="none" stroke="midnightblue" d="M1109.75,-63.67C1258.05,-60.54 1587.71,-50.6 1874.55,-20.1"/>
<polygon fill="midnightblue" stroke="midnightblue" points="1875.17,-23.56 1884.74,-19.01 1874.42,-16.6 1875.17,-23.56"/>
</g>
<!-- Node27 -->
<g id="node27" class="node">
<title>Node27</title>
<g id="a_node27"><a xlink:title=" ">
<polygon fill="white" stroke="#bfbfbf" points="1996,-0.5 1996,-19.5 2061,-19.5 2061,-0.5 1996,-0.5"/>
<text text-anchor="middle" x="2028.5" y="-7.5" font-family="Helvetica,sans-Serif" font-size="10.00">exception</text>
</a>
</g>
</g>
<!-- Node1&#45;&gt;Node27 -->
<g id="edge26" class="edge">
<title>Node1&#45;&gt;Node27</title>
<path fill="none" stroke="midnightblue" d="M1109.68,-65.79C1272.35,-66.42 1655.93,-62.89 1985.68,-20.02"/>
<polygon fill="midnightblue" stroke="midnightblue" points="1986.46,-23.45 1995.91,-18.67 1985.54,-16.51 1986.46,-23.45"/>
</g>
<!-- Node28 -->
<g id="node28" class="node">
<title>Node28</title>
<g id="a_node28"><a xlink:title=" ">
<polygon fill="white" stroke="#bfbfbf" points="2079.5,-0.5 2079.5,-19.5 2151.5,-19.5 2151.5,-0.5 2079.5,-0.5"/>
<text text-anchor="middle" x="2115.5" y="-7.5" font-family="Helvetica,sans-Serif" font-size="10.00">sys/types.h</text>
</a>
</g>
</g>
<!-- Node1&#45;&gt;Node28 -->
<g id="edge27" class="edge">
<title>Node1&#45;&gt;Node28</title>
<path fill="none" stroke="midnightblue" d="M1109.77,-65.72C1282.53,-66.4 1705.95,-63.17 2069.04,-19.98"/>
<polygon fill="midnightblue" stroke="midnightblue" points="2069.72,-23.42 2079.23,-18.75 2068.88,-16.47 2069.72,-23.42"/>
</g>
</g>
</svg>
