<?xml version="1.0" encoding="UTF-8" standalone="no"?>
<!DOCTYPE svg PUBLIC "-//W3C//DTD SVG 1.1//EN"
 "http://www.w3.org/Graphics/SVG/1.1/DTD/svg11.dtd">
<!-- Generated by graphviz version 2.43.0 (0)
 -->
<!-- Title: RADCLI/headers/RADCLI.h Pages: 1 -->
<svg width="382pt" height="84pt"
 viewBox="0.00 0.00 381.50 84.00" xmlns="http://www.w3.org/2000/svg" xmlns:xlink="http://www.w3.org/1999/xlink">
<g id="graph0" class="graph" transform="scale(1 1) rotate(0) translate(4 80)">
<title>RADCLI/headers/RADCLI.h</title>
<polygon fill="white" stroke="transparent" points="-4,4 -4,-80 377.5,-80 377.5,4 -4,4"/>
<!-- Node1 -->
<g id="node1" class="node">
<title>Node1</title>
<g id="a_node1"><a xlink:title="Command&#45;line parsing and application utility helpers.">
<polygon fill="#bfbfbf" stroke="black" points="146.5,-56.5 146.5,-75.5 289.5,-75.5 289.5,-56.5 146.5,-56.5"/>
<text text-anchor="middle" x="218" y="-63.5" font-family="Helvetica,sans-Serif" font-size="10.00">RADCLI/headers/RADCLI.h</text>
</a>
</g>
</g>
<!-- Node2 -->
<g id="node2" class="node">
<title>Node2</title>
<g id="a_node2"><a xlink:title=" ">
<polygon fill="white" stroke="#bfbfbf" points="0,-0.5 0,-19.5 116,-19.5 116,-0.5 0,-0.5"/>
<text text-anchor="middle" x="58" y="-7.5" font-family="Helvetica,sans-Serif" font-size="10.00">RADCore/RADCore.h</text>
</a>
</g>
</g>
<!-- Node1&#45;&gt;Node2 -->
<g id="edge1" class="edge">
<title>Node1&#45;&gt;Node2</title>
<path fill="none" stroke="midnightblue" d="M192.65,-56.44C165.73,-47.36 123,-32.94 92.91,-22.78"/>
<polygon fill="midnightblue" stroke="midnightblue" points="93.83,-19.4 83.23,-19.52 91.59,-26.03 93.83,-19.4"/>
</g>
<!-- Node3 -->
<g id="node3" class="node">
<title>Node3</title>
<g id="a_node3"><a xlink:title=" ">
<polygon fill="white" stroke="#bfbfbf" points="134,-0.5 134,-19.5 172,-19.5 172,-0.5 134,-0.5"/>
<text text-anchor="middle" x="153" y="-7.5" font-family="Helvetica,sans-Serif" font-size="10.00">map</text>
</a>
</g>
</g>
<!-- Node1&#45;&gt;Node3 -->
<g id="edge2" class="edge">
<title>Node1&#45;&gt;Node3</title>
<path fill="none" stroke="midnightblue" d="M207.56,-56.32C197.85,-48.26 183.18,-36.08 171.5,-26.37"/>
<polygon fill="midnightblue" stroke="midnightblue" points="173.56,-23.53 163.63,-19.83 169.09,-28.92 173.56,-23.53"/>
</g>
<!-- Node4 -->
<g id="node4" class="node">
<title>Node4</title>
<g id="a_node4"><a xlink:title=" ">
<polygon fill="white" stroke="#bfbfbf" points="190,-0.5 190,-19.5 246,-19.5 246,-0.5 190,-0.5"/>
<text text-anchor="middle" x="218" y="-7.5" font-family="Helvetica,sans-Serif" font-size="10.00">optional</text>
</a>
</g>
</g>
<!-- Node1&#45;&gt;Node4 -->
<g id="edge3" class="edge">
<title>Node1&#45;&gt;Node4</title>
<path fill="none" stroke="midnightblue" d="M218,-56.08C218,-49.01 218,-38.86 218,-29.99"/>
<polygon fill="midnightblue" stroke="midnightblue" points="221.5,-29.75 218,-19.75 214.5,-29.75 221.5,-29.75"/>
</g>
<!-- Node5 -->
<g id="node5" class="node">
<title>Node5</title>
<g id="a_node5"><a xlink:title=" ">
<polygon fill="white" stroke="#bfbfbf" points="264,-0.5 264,-19.5 308,-19.5 308,-0.5 264,-0.5"/>
<text text-anchor="middle" x="286" y="-7.5" font-family="Helvetica,sans-Serif" font-size="10.00">string</text>
</a>
</g>
</g>
<!-- Node1&#45;&gt;Node5 -->
<g id="edge4" class="edge">
<title>Node1&#45;&gt;Node5</title>
<path fill="none" stroke="midnightblue" d="M228.93,-56.32C239.17,-48.18 254.72,-35.84 267,-26.09"/>
<polygon fill="midnightblue" stroke="midnightblue" points="269.22,-28.79 274.88,-19.83 264.87,-23.31 269.22,-28.79"/>
</g>
<!-- Node6 -->
<g id="node6" class="node">
<title>Node6</title>
<g id="a_node6"><a xlink:title=" ">
<polygon fill="white" stroke="#bfbfbf" points="326.5,-0.5 326.5,-19.5 373.5,-19.5 373.5,-0.5 326.5,-0.5"/>
<text text-anchor="middle" x="350" y="-7.5" font-family="Helvetica,sans-Serif" font-size="10.00">vector</text>
</a>
</g>
</g>
<!-- Node1&#45;&gt;Node6 -->
<g id="edge5" class="edge">
<title>Node1&#45;&gt;Node6</title>
<path fill="none" stroke="midnightblue" d="M238.92,-56.44C260.74,-47.52 295.15,-33.44 319.89,-23.32"/>
<polygon fill="midnightblue" stroke="midnightblue" points="321.25,-26.54 329.18,-19.52 318.6,-20.06 321.25,-26.54"/>
</g>
</g>
</svg>
