<?xml version="1.0" encoding="UTF-8" standalone="no"?>
<!DOCTYPE svg PUBLIC "-//W3C//DTD SVG 1.1//EN"
 "http://www.w3.org/Graphics/SVG/1.1/DTD/svg11.dtd">
<!-- Generated by graphviz version 2.43.0 (0)
 -->
<!-- Title: RADDataStructures/headers/RADDataStructures.h Pages: 1 -->
<svg width="1410pt" height="95pt"
 viewBox="0.00 0.00 1410.00 95.00" xmlns="http://www.w3.org/2000/svg" xmlns:xlink="http://www.w3.org/1999/xlink">
<g id="graph0" class="graph" transform="scale(1 1) rotate(0) translate(4 91)">
<title>RADDataStructures/headers/RADDataStructures.h</title>
<polygon fill="white" stroke="transparent" points="-4,4 -4,-91 1406,-91 1406,4 -4,4"/>
<!-- Node1 -->
<g id="node1" class="node">
<title>Node1</title>
<g id="a_node1"><a xlink:title="Cache&#45;conscious container primitives for RADLib internals and advanced users.">
<polygon fill="#bfbfbf" stroke="black" points="689.5,-56.5 689.5,-86.5 841.5,-86.5 841.5,-56.5 689.5,-56.5"/>
<text text-anchor="start" x="697.5" y="-74.5" font-family="Helvetica,sans-Serif" font-size="10.00">RADDataStructures/headers</text>
<text text-anchor="middle" x="765.5" y="-63.5" font-family="Helvetica,sans-Serif" font-size="10.00">/RADDataStructures.h</text>
</a>
</g>
</g>
<!-- Node2 -->
<g id="node2" class="node">
<title>Node2</title>
<g id="a_node2"><a xlink:title=" ">
<polygon fill="white" stroke="#bfbfbf" points="0,-0.5 0,-19.5 153,-19.5 153,-0.5 0,-0.5"/>
<text text-anchor="middle" x="76.5" y="-7.5" font-family="Helvetica,sans-Serif" font-size="10.00">RADCore/RADLicenseGate.h</text>
</a>
</g>
</g>
<!-- Node1&#45;&gt;Node2 -->
<g id="edge1" class="edge">
<title>Node1&#45;&gt;Node2</title>
<path fill="none" stroke="midnightblue" d="M689.3,-64.63C576.82,-55.85 359.4,-38.44 163.58,-20.08"/>
<polygon fill="midnightblue" stroke="midnightblue" points="163.67,-16.58 153.39,-19.13 163.01,-23.55 163.67,-16.58"/>
</g>
<!-- Node3 -->
<g id="node3" class="node">
<title>Node3</title>
<g id="a_node3"><a xlink:title=" ">
<polygon fill="white" stroke="#bfbfbf" points="171.5,-0.5 171.5,-19.5 235.5,-19.5 235.5,-0.5 171.5,-0.5"/>
<text text-anchor="middle" x="203.5" y="-7.5" font-family="Helvetica,sans-Serif" font-size="10.00">algorithm</text>
</a>
</g>
</g>
<!-- Node1&#45;&gt;Node3 -->
<g id="edge2" class="edge">
<title>Node1&#45;&gt;Node3</title>
<path fill="none" stroke="midnightblue" d="M689.21,-65.97C589.46,-59.41 409.18,-45.36 245.89,-20.04"/>
<polygon fill="midnightblue" stroke="midnightblue" points="246.08,-16.53 235.66,-18.44 245,-23.45 246.08,-16.53"/>
</g>
<!-- Node4 -->
<g id="node4" class="node">
<title>Node4</title>
<g id="a_node4"><a xlink:title=" ">
<polygon fill="white" stroke="#bfbfbf" points="253.5,-0.5 253.5,-19.5 303.5,-19.5 303.5,-0.5 253.5,-0.5"/>
<text text-anchor="middle" x="278.5" y="-7.5" font-family="Helvetica,sans-Serif" font-size="10.00">atomic</text>
</a>
</g>
</g>
<!-- Node1&#45;&gt;Node4 -->
<g id="edge3" class="edge">
<title>Node1&#45;&gt;Node4</title>
<path fill="none" stroke="midnightblue" d="M689.25,-65.46C600.93,-58.84 450.99,-45.21 313.53,-19.94"/>
<polygon fill="midnightblue" stroke="midnightblue" points="314.13,-16.49 303.66,-18.1 312.85,-23.37 314.13,-16.49"/>
</g>
<!-- Node5 -->
<g id="node5" class="node">
<title>Node5</title>
<g id="a_node5"><a xlink:title=" ">
<polygon fill="white" stroke="#bfbfbf" points="322,-0.5 322,-19.5 375,-19.5 375,-0.5 322,-0.5"/>
<text text-anchor="middle" x="348.5" y="-7.5" font-family="Helvetica,sans-Serif" font-size="10.00">cstddef</text>
</a>
</g>
</g>
<!-- Node1&#45;&gt;Node5 -->
<g id="edge4" class="edge">
<title>Node1&#45;&gt;Node5</title>
<path fill="none" stroke="midnightblue" d="M689.19,-62.96C614.24,-54.96 496.52,-40.85 385.22,-19.93"/>
<polygon fill="midnightblue" stroke="midnightblue" points="385.64,-16.45 375.16,-18.02 384.33,-23.33 385.64,-16.45"/>
</g>
<!-- Node6 -->
<g id="node6" class="node">
<title>Node6</title>
<g id="a_node6"><a xlink:title=" ">
<polygon fill="white" stroke="#bfbfbf" points="393.5,-0.5 393.5,-19.5 443.5,-19.5 443.5,-0.5 393.5,-0.5"/>
<text text-anchor="middle" x="418.5" y="-7.5" font-family="Helvetica,sans-Serif" font-size="10.00">cstdint</text>
</a>
</g>
</g>
<!-- Node1&#45;&gt;Node6 -->
<g id="edge5" class="edge">
<title>Node1&#45;&gt;Node6</title>
<path fill="none" stroke="midnightblue" d="M689.21,-60.34C627.95,-51.69 539.58,-38.1 453.61,-20.07"/>
<polygon fill="midnightblue" stroke="midnightblue" points="454.19,-16.61 443.68,-17.96 452.74,-23.46 454.19,-16.61"/>
</g>
<!-- Node7 -->
<g id="node7" class="node">
<title>Node7</title>
<g id="a_node7"><a xlink:title=" ">
<polygon fill="white" stroke="#bfbfbf" points="462,-0.5 462,-19.5 511,-19.5 511,-0.5 462,-0.5"/>
<text text-anchor="middle" x="486.5" y="-7.5" font-family="Helvetica,sans-Serif" font-size="10.00">cstdlib</text>
</a>
</g>
</g>
<!-- Node1&#45;&gt;Node7 -->
<g id="edge6" class="edge">
<title>Node1&#45;&gt;Node7</title>
<path fill="none" stroke="midnightblue" d="M692.1,-56.48C645.69,-47.35 584.24,-34.8 521.08,-20.04"/>
<polygon fill="midnightblue" stroke="midnightblue" points="521.88,-16.63 511.34,-17.75 520.28,-23.44 521.88,-16.63"/>
</g>
<!-- Node8 -->
<g id="node8" class="node">
<title>Node8</title>
<g id="a_node8"><a xlink:title=" ">
<polygon fill="white" stroke="#bfbfbf" points="529.5,-0.5 529.5,-19.5 579.5,-19.5 579.5,-0.5 529.5,-0.5"/>
<text text-anchor="middle" x="554.5" y="-7.5" font-family="Helvetica,sans-Serif" font-size="10.00">cstring</text>
</a>
</g>
</g>
<!-- Node1&#45;&gt;Node8 -->
<g id="edge7" class="edge">
<title>Node1&#45;&gt;Node8</title>
<path fill="none" stroke="midnightblue" d="M715.76,-56.47C676.84,-45.5 623.71,-30.52 589.25,-20.8"/>
<polygon fill="midnightblue" stroke="midnightblue" points="590.2,-17.43 579.62,-18.08 588.3,-24.17 590.2,-17.43"/>
</g>
<!-- Node9 -->
<g id="node9" class="node">
<title>Node9</title>
<g id="a_node9"><a xlink:title=" ">
<polygon fill="white" stroke="#bfbfbf" points="598,-0.5 598,-19.5 663,-19.5 663,-0.5 598,-0.5"/>
<text text-anchor="middle" x="630.5" y="-7.5" font-family="Helvetica,sans-Serif" font-size="10.00">functional</text>
</a>
</g>
</g>
<!-- Node1&#45;&gt;Node9 -->
<g id="edge8" class="edge">
<title>Node1&#45;&gt;Node9</title>
<path fill="none" stroke="midnightblue" d="M733.51,-56.4C711.06,-46.51 681.29,-33.38 659.52,-23.79"/>
<polygon fill="midnightblue" stroke="midnightblue" points="660.71,-20.49 650.14,-19.66 657.88,-26.89 660.71,-20.49"/>
</g>
<!-- Node10 -->
<g id="node10" class="node">
<title>Node10</title>
<g id="a_node10"><a xlink:title=" ">
<polygon fill="white" stroke="#bfbfbf" points="681,-0.5 681,-19.5 764,-19.5 764,-0.5 681,-0.5"/>
<text text-anchor="middle" x="722.5" y="-7.5" font-family="Helvetica,sans-Serif" font-size="10.00">initializer_list</text>
</a>
</g>
</g>
<!-- Node1&#45;&gt;Node10 -->
<g id="edge9" class="edge">
<title>Node1&#45;&gt;Node10</title>
<path fill="none" stroke="midnightblue" d="M755.31,-56.4C749.13,-47.84 741.2,-36.87 734.68,-27.86"/>
<polygon fill="midnightblue" stroke="midnightblue" points="737.45,-25.71 728.76,-19.66 731.78,-29.81 737.45,-25.71"/>
</g>
<!-- Node11 -->
<g id="node11" class="node">
<title>Node11</title>
<g id="a_node11"><a xlink:title=" ">
<polygon fill="white" stroke="#bfbfbf" points="782,-0.5 782,-19.5 835,-19.5 835,-0.5 782,-0.5"/>
<text text-anchor="middle" x="808.5" y="-7.5" font-family="Helvetica,sans-Serif" font-size="10.00">iterator</text>
</a>
</g>
</g>
<!-- Node1&#45;&gt;Node11 -->
<g id="edge10" class="edge">
<title>Node1&#45;&gt;Node11</title>
<path fill="none" stroke="midnightblue" d="M775.69,-56.4C781.87,-47.84 789.8,-36.87 796.32,-27.86"/>
<polygon fill="midnightblue" stroke="midnightblue" points="799.22,-29.81 802.24,-19.66 793.55,-25.71 799.22,-29.81"/>
</g>
<!-- Node12 -->
<g id="node12" class="node">
<title>Node12</title>
<g id="a_node12"><a xlink:title=" ">
<polygon fill="white" stroke="#bfbfbf" points="853.5,-0.5 853.5,-19.5 897.5,-19.5 897.5,-0.5 853.5,-0.5"/>
<text text-anchor="middle" x="875.5" y="-7.5" font-family="Helvetica,sans-Serif" font-size="10.00">limits</text>
</a>
</g>
</g>
<!-- Node1&#45;&gt;Node12 -->
<g id="edge11" class="edge">
<title>Node1&#45;&gt;Node12</title>
<path fill="none" stroke="midnightblue" d="M791.57,-56.4C809.37,-46.77 832.81,-34.09 850.4,-24.58"/>
<polygon fill="midnightblue" stroke="midnightblue" points="852.36,-27.49 859.49,-19.66 849.03,-21.34 852.36,-27.49"/>
</g>
<!-- Node13 -->
<g id="node13" class="node">
<title>Node13</title>
<g id="a_node13"><a xlink:title=" ">
<polygon fill="white" stroke="#bfbfbf" points="915.5,-0.5 915.5,-19.5 973.5,-19.5 973.5,-0.5 915.5,-0.5"/>
<text text-anchor="middle" x="944.5" y="-7.5" font-family="Helvetica,sans-Serif" font-size="10.00">memory</text>
</a>
</g>
</g>
<!-- Node1&#45;&gt;Node13 -->
<g id="edge12" class="edge">
<title>Node1&#45;&gt;Node13</title>
<path fill="none" stroke="midnightblue" d="M807.92,-56.4C838.72,-46.16 879.91,-32.47 908.98,-22.81"/>
<polygon fill="midnightblue" stroke="midnightblue" points="910.33,-26.05 918.72,-19.57 908.12,-19.4 910.33,-26.05"/>
</g>
<!-- Node14 -->
<g id="node14" class="node">
<title>Node14</title>
<g id="a_node14"><a xlink:title=" ">
<polygon fill="white" stroke="#bfbfbf" points="992,-0.5 992,-19.5 1029,-19.5 1029,-0.5 992,-0.5"/>
<text text-anchor="middle" x="1010.5" y="-7.5" font-family="Helvetica,sans-Serif" font-size="10.00">new</text>
</a>
</g>
</g>
<!-- Node1&#45;&gt;Node14 -->
<g id="edge13" class="edge">
<title>Node1&#45;&gt;Node14</title>
<path fill="none" stroke="midnightblue" d="M832.34,-56.44C873.07,-47.52 926.34,-35.25 982.17,-19.91"/>
<polygon fill="midnightblue" stroke="midnightblue" points="983.19,-23.26 991.89,-17.22 981.32,-16.52 983.19,-23.26"/>
</g>
<!-- Node15 -->
<g id="node15" class="node">
<title>Node15</title>
<g id="a_node15"><a xlink:title=" ">
<polygon fill="white" stroke="#bfbfbf" points="1047.5,-0.5 1047.5,-19.5 1103.5,-19.5 1103.5,-0.5 1047.5,-0.5"/>
<text text-anchor="middle" x="1075.5" y="-7.5" font-family="Helvetica,sans-Serif" font-size="10.00">optional</text>
</a>
</g>
</g>
<!-- Node1&#45;&gt;Node15 -->
<g id="edge14" class="edge">
<title>Node1&#45;&gt;Node15</title>
<path fill="none" stroke="midnightblue" d="M841.63,-57.59C894.05,-48.43 965.51,-35.4 1037.15,-20.2"/>
<polygon fill="midnightblue" stroke="midnightblue" points="1038.21,-23.55 1047.26,-18.04 1036.74,-16.71 1038.21,-23.55"/>
</g>
<!-- Node16 -->
<g id="node16" class="node">
<title>Node16</title>
<g id="a_node16"><a xlink:title=" ">
<polygon fill="white" stroke="#bfbfbf" points="1122,-0.5 1122,-19.5 1187,-19.5 1187,-0.5 1122,-0.5"/>
<text text-anchor="middle" x="1154.5" y="-7.5" font-family="Helvetica,sans-Serif" font-size="10.00">stdexcept</text>
</a>
</g>
</g>
<!-- Node1&#45;&gt;Node16 -->
<g id="edge15" class="edge">
<title>Node1&#45;&gt;Node16</title>
<path fill="none" stroke="midnightblue" d="M841.55,-60.91C909.74,-51.98 1012.73,-37.65 1112.07,-19.97"/>
<polygon fill="midnightblue" stroke="midnightblue" points="1112.76,-23.4 1121.98,-18.19 1111.52,-16.51 1112.76,-23.4"/>
</g>
<!-- Node17 -->
<g id="node17" class="node">
<title>Node17</title>
<g id="a_node17"><a xlink:title=" ">
<polygon fill="white" stroke="#bfbfbf" points="1205,-0.5 1205,-19.5 1274,-19.5 1274,-0.5 1205,-0.5"/>
<text text-anchor="middle" x="1239.5" y="-7.5" font-family="Helvetica,sans-Serif" font-size="10.00">type_traits</text>
</a>
</g>
</g>
<!-- Node1&#45;&gt;Node17 -->
<g id="edge16" class="edge">
<title>Node1&#45;&gt;Node17</title>
<path fill="none" stroke="midnightblue" d="M841.7,-63.66C925.86,-55.63 1065.56,-40.91 1194.74,-20.17"/>
<polygon fill="midnightblue" stroke="midnightblue" points="1195.51,-23.59 1204.82,-18.54 1194.38,-16.68 1195.51,-23.59"/>
</g>
<!-- Node18 -->
<g id="node18" class="node">
<title>Node18</title>
<g id="a_node18"><a xlink:title=" ">
<polygon fill="white" stroke="#bfbfbf" points="1292,-0.5 1292,-19.5 1337,-19.5 1337,-0.5 1292,-0.5"/>
<text text-anchor="middle" x="1314.5" y="-7.5" font-family="Helvetica,sans-Serif" font-size="10.00">utility</text>
</a>
</g>
</g>
<!-- Node1&#45;&gt;Node18 -->
<g id="edge17" class="edge">
<title>Node1&#45;&gt;Node18</title>
<path fill="none" stroke="midnightblue" d="M841.62,-67.5C941.09,-62.59 1120.66,-50.36 1281.83,-20.01"/>
<polygon fill="midnightblue" stroke="midnightblue" points="1282.77,-23.39 1291.93,-18.08 1281.45,-16.52 1282.77,-23.39"/>
</g>
<!-- Node19 -->
<g id="node19" class="node">
<title>Node19</title>
<g id="a_node19"><a xlink:title=" ">
<polygon fill="white" stroke="#bfbfbf" points="1355,-0.5 1355,-19.5 1402,-19.5 1402,-0.5 1355,-0.5"/>
<text text-anchor="middle" x="1378.5" y="-7.5" font-family="Helvetica,sans-Serif" font-size="10.00">vector</text>
</a>
</g>
</g>
<!-- Node1&#45;&gt;Node19 -->
<g id="edge18" class="edge">
<title>Node1&#45;&gt;Node19</title>
<path fill="none" stroke="midnightblue" d="M841.78,-68.42C951.44,-64.42 1159.97,-53.07 1344.94,-19.98"/>
<polygon fill="midnightblue" stroke="midnightblue" points="1345.64,-23.41 1354.85,-18.18 1344.39,-16.53 1345.64,-23.41"/>
</g>
</g>
</svg>
