<?xml version="1.0" encoding="UTF-8" standalone="no"?>
<!DOCTYPE svg PUBLIC "-//W3C//DTD SVG 1.1//EN"
 "http://www.w3.org/Graphics/SVG/1.1/DTD/svg11.dtd">
<!-- Generated by graphviz version 2.43.0 (0)
 -->
<!-- Title: RADNet/headers/RADNet.h Pages: 1 -->
<svg width="452pt" height="84pt"
 viewBox="0.00 0.00 451.50 84.00" xmlns="http://www.w3.org/2000/svg" xmlns:xlink="http://www.w3.org/1999/xlink">
<g id="graph0" class="graph" transform="scale(1 1) rotate(0) translate(4 80)">
<title>RADNet/headers/RADNet.h</title>
<polygon fill="white" stroke="transparent" points="-4,4 -4,-80 447.5,-80 447.5,4 -4,4"/>
<!-- Node1 -->
<g id="node1" class="node">
<title>Node1</title>
<g id="a_node1"><a xlink:title="Event&#45;loop integrated networking: epoll reactor, UDP/TCP sockets, TCP server, and HTTP client.">
<polygon fill="#bfbfbf" stroke="black" points="180.5,-56.5 180.5,-75.5 327.5,-75.5 327.5,-56.5 180.5,-56.5"/>
<text text-anchor="middle" x="254" y="-63.5" font-family="Helvetica,sans-Serif" font-size="10.00">RADNet/headers/RADNet.h</text>
</a>
</g>
</g>
<!-- Node2 -->
<g id="node2" class="node">
<title>Node2</title>
<g id="a_node2"><a xlink:title=" ">
<polygon fill="white" stroke="#bfbfbf" points="0,-0.5 0,-19.5 116,-19.5 116,-0.5 0,-0.5"/>
<text text-anchor="middle" x="58" y="-7.5" font-family="Helvetica,sans-Serif" font-size="10.00">RADCore/RADCore.h</text>
</a>
</g>
</g>
<!-- Node1&#45;&gt;Node2 -->
<g id="edge1" class="edge">
<title>Node1&#45;&gt;Node2</title>
<path fill="none" stroke="midnightblue" d="M222.94,-56.44C189.4,-47.2 135.8,-32.44 98.86,-22.26"/>
<polygon fill="midnightblue" stroke="midnightblue" points="99.48,-18.8 88.91,-19.52 97.62,-25.55 99.48,-18.8"/>
</g>
<!-- Node3 -->
<g id="node3" class="node">
<title>Node3</title>
<g id="a_node3"><a xlink:title=" ">
<polygon fill="white" stroke="#bfbfbf" points="134,-0.5 134,-19.5 184,-19.5 184,-0.5 134,-0.5"/>
<text text-anchor="middle" x="159" y="-7.5" font-family="Helvetica,sans-Serif" font-size="10.00">cstdint</text>
</a>
</g>
</g>
<!-- Node1&#45;&gt;Node3 -->
<g id="edge2" class="edge">
<title>Node1&#45;&gt;Node3</title>
<path fill="none" stroke="midnightblue" d="M238.74,-56.32C223.78,-47.82 200.75,-34.73 183.27,-24.8"/>
<polygon fill="midnightblue" stroke="midnightblue" points="184.65,-21.55 174.23,-19.65 181.19,-27.64 184.65,-21.55"/>
</g>
<!-- Node4 -->
<g id="node4" class="node">
<title>Node4</title>
<g id="a_node4"><a xlink:title=" ">
<polygon fill="white" stroke="#bfbfbf" points="202,-0.5 202,-19.5 240,-19.5 240,-0.5 202,-0.5"/>
<text text-anchor="middle" x="221" y="-7.5" font-family="Helvetica,sans-Serif" font-size="10.00">map</text>
</a>
</g>
</g>
<!-- Node1&#45;&gt;Node4 -->
<g id="edge3" class="edge">
<title>Node1&#45;&gt;Node4</title>
<path fill="none" stroke="midnightblue" d="M248.55,-56.08C243.99,-48.61 237.33,-37.72 231.71,-28.52"/>
<polygon fill="midnightblue" stroke="midnightblue" points="234.55,-26.46 226.35,-19.75 228.58,-30.11 234.55,-26.46"/>
</g>
<!-- Node5 -->
<g id="node5" class="node">
<title>Node5</title>
<g id="a_node5"><a xlink:title=" ">
<polygon fill="white" stroke="#bfbfbf" points="258,-0.5 258,-19.5 316,-19.5 316,-0.5 258,-0.5"/>
<text text-anchor="middle" x="287" y="-7.5" font-family="Helvetica,sans-Serif" font-size="10.00">memory</text>
</a>
</g>
</g>
<!-- Node1&#45;&gt;Node5 -->
<g id="edge4" class="edge">
<title>Node1&#45;&gt;Node5</title>
<path fill="none" stroke="midnightblue" d="M259.45,-56.08C264.01,-48.61 270.67,-37.72 276.29,-28.52"/>
<polygon fill="midnightblue" stroke="midnightblue" points="279.42,-30.11 281.65,-19.75 273.45,-26.46 279.42,-30.11"/>
</g>
<!-- Node6 -->
<g id="node6" class="node">
<title>Node6</title>
<g id="a_node6"><a xlink:title=" ">
<polygon fill="white" stroke="#bfbfbf" points="334,-0.5 334,-19.5 378,-19.5 378,-0.5 334,-0.5"/>
<text text-anchor="middle" x="356" y="-7.5" font-family="Helvetica,sans-Serif" font-size="10.00">string</text>
</a>
</g>
</g>
<!-- Node1&#45;&gt;Node6 -->
<g id="edge5" class="edge">
<title>Node1&#45;&gt;Node6</title>
<path fill="none" stroke="midnightblue" d="M270.39,-56.32C286.67,-47.7 311.87,-34.36 330.72,-24.39"/>
<polygon fill="midnightblue" stroke="midnightblue" points="332.45,-27.43 339.65,-19.65 329.18,-21.24 332.45,-27.43"/>
</g>
<!-- Node7 -->
<g id="node7" class="node">
<title>Node7</title>
<g id="a_node7"><a xlink:title=" ">
<polygon fill="white" stroke="#bfbfbf" points="396.5,-0.5 396.5,-19.5 443.5,-19.5 443.5,-0.5 396.5,-0.5"/>
<text text-anchor="middle" x="420" y="-7.5" font-family="Helvetica,sans-Serif" font-size="10.00">vector</text>
</a>
</g>
</g>
<!-- Node1&#45;&gt;Node7 -->
<g id="edge6" class="edge">
<title>Node1&#45;&gt;Node7</title>
<path fill="none" stroke="midnightblue" d="M280.3,-56.44C309.09,-47.08 355.32,-32.04 386.64,-21.85"/>
<polygon fill="midnightblue" stroke="midnightblue" points="387.81,-25.15 396.24,-18.73 385.65,-18.49 387.81,-25.15"/>
</g>
</g>
</svg>
