<?xml version="1.0" encoding="UTF-8" standalone="no"?>
<!DOCTYPE svg PUBLIC "-//W3C//DTD SVG 1.1//EN"
 "http://www.w3.org/Graphics/SVG/1.1/DTD/svg11.dtd">
<!-- Generated by graphviz version 2.43.0 (0)
 -->
<!-- Title: RADUi/headers/RADSlintPlot.h Pages: 1 -->
<svg width="698pt" height="84pt"
 viewBox="0.00 0.00 697.50 84.00" xmlns="http://www.w3.org/2000/svg" xmlns:xlink="http://www.w3.org/1999/xlink">
<g id="graph0" class="graph" transform="scale(1 1) rotate(0) translate(4 80)">
<title>RADUi/headers/RADSlintPlot.h</title>
<polygon fill="white" stroke="transparent" points="-4,4 -4,-80 693.5,-80 693.5,4 -4,4"/>
<!-- Node1 -->
<g id="node1" class="node">
<title>Node1</title>
<g id="a_node1"><a xlink:title="Slint image conversion helpers for RADUi plot renderers.">
<polygon fill="#bfbfbf" stroke="black" points="334,-56.5 334,-75.5 498,-75.5 498,-56.5 334,-56.5"/>
<text text-anchor="middle" x="416" y="-63.5" font-family="Helvetica,sans-Serif" font-size="10.00">RADUi/headers/RADSlintPlot.h</text>
</a>
</g>
</g>
<!-- Node2 -->
<g id="node2" class="node">
<title>Node2</title>
<g id="a_node2"><a xlink:title=" ">
<polygon fill="white" stroke="#bfbfbf" points="0,-0.5 0,-19.5 100,-19.5 100,-0.5 0,-0.5"/>
<text text-anchor="middle" x="50" y="-7.5" font-family="Helvetica,sans-Serif" font-size="10.00">RADUi/RADPlot.h</text>
</a>
</g>
</g>
<!-- Node1&#45;&gt;Node2 -->
<g id="edge1" class="edge">
<title>Node1&#45;&gt;Node2</title>
<path fill="none" stroke="midnightblue" d="M357.13,-56.48C297.49,-47.82 202.29,-33.93 110.26,-20.18"/>
<polygon fill="midnightblue" stroke="midnightblue" points="110.62,-16.7 100.21,-18.68 109.58,-23.62 110.62,-16.7"/>
</g>
<!-- Node3 -->
<g id="node3" class="node">
<title>Node3</title>
<g id="a_node3"><a xlink:title=" ">
<polygon fill="white" stroke="#bfbfbf" points="118,-0.5 118,-19.5 262,-19.5 262,-0.5 118,-0.5"/>
<text text-anchor="middle" x="190" y="-7.5" font-family="Helvetica,sans-Serif" font-size="10.00">RADUi/RADSlintBackend.h</text>
</a>
</g>
</g>
<!-- Node1&#45;&gt;Node3 -->
<g id="edge2" class="edge">
<title>Node1&#45;&gt;Node3</title>
<path fill="none" stroke="midnightblue" d="M380.19,-56.44C341.01,-47.08 278.12,-32.06 235.48,-21.87"/>
<polygon fill="midnightblue" stroke="midnightblue" points="236.18,-18.44 225.64,-19.52 234.56,-25.24 236.18,-18.44"/>
</g>
<!-- Node4 -->
<g id="node4" class="node">
<title>Node4</title>
<g id="a_node4"><a xlink:title=" ">
<polygon fill="white" stroke="#bfbfbf" points="280.5,-0.5 280.5,-19.5 327.5,-19.5 327.5,-0.5 280.5,-0.5"/>
<text text-anchor="middle" x="304" y="-7.5" font-family="Helvetica,sans-Serif" font-size="10.00">slint.h</text>
</a>
</g>
</g>
<!-- Node1&#45;&gt;Node4 -->
<g id="edge3" class="edge">
<title>Node1&#45;&gt;Node4</title>
<path fill="none" stroke="midnightblue" d="M398.01,-56.32C379.96,-47.62 351.95,-34.12 331.2,-24.11"/>
<polygon fill="midnightblue" stroke="midnightblue" points="332.48,-20.84 321.95,-19.65 329.44,-27.15 332.48,-20.84"/>
</g>
<!-- Node5 -->
<g id="node5" class="node">
<title>Node5</title>
<g id="a_node5"><a xlink:title=" ">
<polygon fill="white" stroke="#bfbfbf" points="346,-0.5 346,-19.5 410,-19.5 410,-0.5 346,-0.5"/>
<text text-anchor="middle" x="378" y="-7.5" font-family="Helvetica,sans-Serif" font-size="10.00">algorithm</text>
</a>
</g>
</g>
<!-- Node1&#45;&gt;Node5 -->
<g id="edge4" class="edge">
<title>Node1&#45;&gt;Node5</title>
<path fill="none" stroke="midnightblue" d="M409.73,-56.08C404.36,-48.46 396.48,-37.26 389.92,-27.94"/>
<polygon fill="midnightblue" stroke="midnightblue" points="392.78,-25.91 384.16,-19.75 387.05,-29.94 392.78,-25.91"/>
</g>
<!-- Node6 -->
<g id="node6" class="node">
<title>Node6</title>
<g id="a_node6"><a xlink:title=" ">
<polygon fill="white" stroke="#bfbfbf" points="428.5,-0.5 428.5,-19.5 481.5,-19.5 481.5,-0.5 428.5,-0.5"/>
<text text-anchor="middle" x="455" y="-7.5" font-family="Helvetica,sans-Serif" font-size="10.00">cstddef</text>
</a>
</g>
</g>
<!-- Node1&#45;&gt;Node6 -->
<g id="edge5" class="edge">
<title>Node1&#45;&gt;Node6</title>
<path fill="none" stroke="midnightblue" d="M422.44,-56.08C427.95,-48.46 436.03,-37.26 442.76,-27.94"/>
<polygon fill="midnightblue" stroke="midnightblue" points="445.66,-29.91 448.68,-19.75 439.99,-25.81 445.66,-29.91"/>
</g>
<!-- Node7 -->
<g id="node7" class="node">
<title>Node7</title>
<g id="a_node7"><a xlink:title=" ">
<polygon fill="white" stroke="#bfbfbf" points="500,-0.5 500,-19.5 550,-19.5 550,-0.5 500,-0.5"/>
<text text-anchor="middle" x="525" y="-7.5" font-family="Helvetica,sans-Serif" font-size="10.00">cstdint</text>
</a>
</g>
</g>
<!-- Node1&#45;&gt;Node7 -->
<g id="edge6" class="edge">
<title>Node1&#45;&gt;Node7</title>
<path fill="none" stroke="midnightblue" d="M433.51,-56.32C451.07,-47.62 478.33,-34.12 498.53,-24.11"/>
<polygon fill="midnightblue" stroke="midnightblue" points="500.12,-27.23 507.53,-19.65 497.02,-20.96 500.12,-27.23"/>
</g>
<!-- Node8 -->
<g id="node8" class="node">
<title>Node8</title>
<g id="a_node8"><a xlink:title=" ">
<polygon fill="white" stroke="#bfbfbf" points="568,-0.5 568,-19.5 626,-19.5 626,-0.5 568,-0.5"/>
<text text-anchor="middle" x="597" y="-7.5" font-family="Helvetica,sans-Serif" font-size="10.00">memory</text>
</a>
</g>
</g>
<!-- Node1&#45;&gt;Node8 -->
<g id="edge7" class="edge">
<title>Node1&#45;&gt;Node8</title>
<path fill="none" stroke="midnightblue" d="M444.68,-56.44C475.53,-47.24 524.73,-32.56 558.83,-22.39"/>
<polygon fill="midnightblue" stroke="midnightblue" points="559.87,-25.73 568.45,-19.52 557.87,-19.02 559.87,-25.73"/>
</g>
<!-- Node9 -->
<g id="node9" class="node">
<title>Node9</title>
<g id="a_node9"><a xlink:title=" ">
<polygon fill="white" stroke="#bfbfbf" points="644.5,-0.5 644.5,-19.5 689.5,-19.5 689.5,-0.5 644.5,-0.5"/>
<text text-anchor="middle" x="667" y="-7.5" font-family="Helvetica,sans-Serif" font-size="10.00">utility</text>
</a>
</g>
</g>
<!-- Node1&#45;&gt;Node9 -->
<g id="edge8" class="edge">
<title>Node1&#45;&gt;Node9</title>
<path fill="none" stroke="midnightblue" d="M462.36,-56.47C504.66,-48.47 569.11,-35.71 634.29,-20.03"/>
<polygon fill="midnightblue" stroke="midnightblue" points="635.44,-23.35 644.33,-17.59 633.78,-16.55 635.44,-23.35"/>
</g>
</g>
</svg>
