<?xml version="1.0" encoding="UTF-8" standalone="no"?>
<!DOCTYPE svg PUBLIC "-//W3C//DTD SVG 1.1//EN"
 "http://www.w3.org/Graphics/SVG/1.1/DTD/svg11.dtd">
<!-- Generated by graphviz version 2.43.0 (0)
 -->
<!-- Title: RADService/headers/RADService.h Pages: 1 -->
<svg width="384pt" height="95pt"
 viewBox="0.00 0.00 383.50 95.00" xmlns="http://www.w3.org/2000/svg" xmlns:xlink="http://www.w3.org/1999/xlink">
<g id="graph0" class="graph" transform="scale(1 1) rotate(0) translate(4 91)">
<title>RADService/headers/RADService.h</title>
<polygon fill="white" stroke="transparent" points="-4,4 -4,-91 379.5,-91 379.5,4 -4,4"/>
<!-- Node1 -->
<g id="node1" class="node">
<title>Node1</title>
<g id="a_node1"><a xlink:title="Daemon helpers, systemd unit generation, watchdog notify, and single&#45;instance locks.">
<polygon fill="#bfbfbf" stroke="black" points="161,-56.5 161,-86.5 277,-86.5 277,-56.5 161,-56.5"/>
<text text-anchor="start" x="169" y="-74.5" font-family="Helvetica,sans-Serif" font-size="10.00">RADService/headers</text>
<text text-anchor="middle" x="219" y="-63.5" font-family="Helvetica,sans-Serif" font-size="10.00">/RADService.h</text>
</a>
</g>
</g>
<!-- Node2 -->
<g id="node2" class="node">
<title>Node2</title>
<g id="a_node2"><a xlink:title=" ">
<polygon fill="white" stroke="#bfbfbf" points="0,-0.5 0,-19.5 116,-19.5 116,-0.5 0,-0.5"/>
<text text-anchor="middle" x="58" y="-7.5" font-family="Helvetica,sans-Serif" font-size="10.00">RADCore/RADCore.h</text>
</a>
</g>
</g>
<!-- Node1&#45;&gt;Node2 -->
<g id="edge1" class="edge">
<title>Node1&#45;&gt;Node2</title>
<path fill="none" stroke="midnightblue" d="M180.85,-56.4C153.47,-46.28 116.96,-32.79 90.87,-23.15"/>
<polygon fill="midnightblue" stroke="midnightblue" points="92.02,-19.84 81.43,-19.66 89.59,-26.41 92.02,-19.84"/>
</g>
<!-- Node3 -->
<g id="node3" class="node">
<title>Node3</title>
<g id="a_node3"><a xlink:title=" ">
<polygon fill="white" stroke="#bfbfbf" points="134,-0.5 134,-19.5 172,-19.5 172,-0.5 134,-0.5"/>
<text text-anchor="middle" x="153" y="-7.5" font-family="Helvetica,sans-Serif" font-size="10.00">map</text>
</a>
</g>
</g>
<!-- Node1&#45;&gt;Node3 -->
<g id="edge2" class="edge">
<title>Node1&#45;&gt;Node3</title>
<path fill="none" stroke="midnightblue" d="M203.36,-56.4C193.37,-47.4 180.42,-35.72 170.15,-26.47"/>
<polygon fill="midnightblue" stroke="midnightblue" points="172.37,-23.75 162.6,-19.66 167.69,-28.95 172.37,-23.75"/>
</g>
<!-- Node4 -->
<g id="node4" class="node">
<title>Node4</title>
<g id="a_node4"><a xlink:title=" ">
<polygon fill="white" stroke="#bfbfbf" points="190,-0.5 190,-19.5 248,-19.5 248,-0.5 190,-0.5"/>
<text text-anchor="middle" x="219" y="-7.5" font-family="Helvetica,sans-Serif" font-size="10.00">memory</text>
</a>
</g>
</g>
<!-- Node1&#45;&gt;Node4 -->
<g id="edge3" class="edge">
<title>Node1&#45;&gt;Node4</title>
<path fill="none" stroke="midnightblue" d="M219,-56.4C219,-48.47 219,-38.46 219,-29.86"/>
<polygon fill="midnightblue" stroke="midnightblue" points="222.5,-29.66 219,-19.66 215.5,-29.66 222.5,-29.66"/>
</g>
<!-- Node5 -->
<g id="node5" class="node">
<title>Node5</title>
<g id="a_node5"><a xlink:title=" ">
<polygon fill="white" stroke="#bfbfbf" points="266,-0.5 266,-19.5 310,-19.5 310,-0.5 266,-0.5"/>
<text text-anchor="middle" x="288" y="-7.5" font-family="Helvetica,sans-Serif" font-size="10.00">string</text>
</a>
</g>
</g>
<!-- Node1&#45;&gt;Node5 -->
<g id="edge4" class="edge">
<title>Node1&#45;&gt;Node5</title>
<path fill="none" stroke="midnightblue" d="M235.35,-56.4C245.9,-47.31 259.6,-35.49 270.38,-26.19"/>
<polygon fill="midnightblue" stroke="midnightblue" points="272.67,-28.84 277.96,-19.66 268.1,-23.54 272.67,-28.84"/>
</g>
<!-- Node6 -->
<g id="node6" class="node">
<title>Node6</title>
<g id="a_node6"><a xlink:title=" ">
<polygon fill="white" stroke="#bfbfbf" points="328.5,-0.5 328.5,-19.5 375.5,-19.5 375.5,-0.5 328.5,-0.5"/>
<text text-anchor="middle" x="352" y="-7.5" font-family="Helvetica,sans-Serif" font-size="10.00">vector</text>
</a>
</g>
</g>
<!-- Node1&#45;&gt;Node6 -->
<g id="edge5" class="edge">
<title>Node1&#45;&gt;Node6</title>
<path fill="none" stroke="midnightblue" d="M250.52,-56.4C272.64,-46.51 301.97,-33.38 323.41,-23.79"/>
<polygon fill="midnightblue" stroke="midnightblue" points="324.95,-26.94 332.65,-19.66 322.09,-20.55 324.95,-26.94"/>
</g>
</g>
</svg>
