<?xml version="1.0" encoding="UTF-8" standalone="no"?>
<!DOCTYPE svg PUBLIC "-//W3C//DTD SVG 1.1//EN"
 "http://www.w3.org/Graphics/SVG/1.1/DTD/svg11.dtd">
<!-- Generated by graphviz version 2.43.0 (0)
 -->
<!-- Title: RADSettings/headers/RADSettings.h Pages: 1 -->
<svg width="242pt" height="95pt"
 viewBox="0.00 0.00 242.00 95.00" xmlns="http://www.w3.org/2000/svg" xmlns:xlink="http://www.w3.org/1999/xlink">
<g id="graph0" class="graph" transform="scale(1 1) rotate(0) translate(4 91)">
<title>RADSettings/headers/RADSettings.h</title>
<polygon fill="white" stroke="transparent" points="-4,4 -4,-91 238,-91 238,4 -4,4"/>
<!-- Node1 -->
<g id="node1" class="node">
<title>Node1</title>
<g id="a_node1"><a xlink:title="JSON and INI backed application settings.">
<polygon fill="#bfbfbf" stroke="black" points="93.5,-56.5 93.5,-86.5 212.5,-86.5 212.5,-56.5 93.5,-56.5"/>
<text text-anchor="start" x="101.5" y="-74.5" font-family="Helvetica,sans-Serif" font-size="10.00">RADSettings/headers</text>
<text text-anchor="middle" x="153" y="-63.5" font-family="Helvetica,sans-Serif" font-size="10.00">/RADSettings.h</text>
</a>
</g>
</g>
<!-- Node2 -->
<g id="node2" class="node">
<title>Node2</title>
<g id="a_node2"><a xlink:title=" ">
<polygon fill="white" stroke="#bfbfbf" points="0,-0.5 0,-19.5 116,-19.5 116,-0.5 0,-0.5"/>
<text text-anchor="middle" x="58" y="-7.5" font-family="Helvetica,sans-Serif" font-size="10.00">RADCore/RADCore.h</text>
</a>
</g>
</g>
<!-- Node1&#45;&gt;Node2 -->
<g id="edge1" class="edge">
<title>Node1&#45;&gt;Node2</title>
<path fill="none" stroke="midnightblue" d="M130.49,-56.4C115.4,-46.95 95.61,-34.56 80.53,-25.11"/>
<polygon fill="midnightblue" stroke="midnightblue" points="82.16,-22 71.82,-19.66 78.44,-27.93 82.16,-22"/>
</g>
<!-- Node3 -->
<g id="node3" class="node">
<title>Node3</title>
<g id="a_node3"><a xlink:title=" ">
<polygon fill="white" stroke="#bfbfbf" points="134,-0.5 134,-19.5 172,-19.5 172,-0.5 134,-0.5"/>
<text text-anchor="middle" x="153" y="-7.5" font-family="Helvetica,sans-Serif" font-size="10.00">map</text>
</a>
</g>
</g>
<!-- Node1&#45;&gt;Node3 -->
<g id="edge2" class="edge">
<title>Node1&#45;&gt;Node3</title>
<path fill="none" stroke="midnightblue" d="M153,-56.4C153,-48.47 153,-38.46 153,-29.86"/>
<polygon fill="midnightblue" stroke="midnightblue" points="156.5,-29.66 153,-19.66 149.5,-29.66 156.5,-29.66"/>
</g>
<!-- Node4 -->
<g id="node4" class="node">
<title>Node4</title>
<g id="a_node4"><a xlink:title=" ">
<polygon fill="white" stroke="#bfbfbf" points="190,-0.5 190,-19.5 234,-19.5 234,-0.5 190,-0.5"/>
<text text-anchor="middle" x="212" y="-7.5" font-family="Helvetica,sans-Serif" font-size="10.00">string</text>
</a>
</g>
</g>
<!-- Node1&#45;&gt;Node4 -->
<g id="edge3" class="edge">
<title>Node1&#45;&gt;Node4</title>
<path fill="none" stroke="midnightblue" d="M166.98,-56.4C175.73,-47.58 187.03,-36.18 196.12,-27.02"/>
<polygon fill="midnightblue" stroke="midnightblue" points="198.86,-29.22 203.41,-19.66 193.89,-24.29 198.86,-29.22"/>
</g>
</g>
</svg>
