<?xml version="1.0" encoding="UTF-8" standalone="no"?>
<!DOCTYPE svg PUBLIC "-//W3C//DTD SVG 1.1//EN"
 "http://www.w3.org/Graphics/SVG/1.1/DTD/svg11.dtd">
<!-- Generated by graphviz version 2.43.0 (0)
 -->
<!-- Title: RADSerial/headers/RADSerial.h Pages: 1 -->
<svg width="396pt" height="84pt"
 viewBox="0.00 0.00 395.50 84.00" xmlns="http://www.w3.org/2000/svg" xmlns:xlink="http://www.w3.org/1999/xlink">
<g id="graph0" class="graph" transform="scale(1 1) rotate(0) translate(4 80)">
<title>RADSerial/headers/RADSerial.h</title>
<polygon fill="white" stroke="transparent" points="-4,4 -4,-80 391.5,-80 391.5,4 -4,4"/>
<!-- Node1 -->
<g id="node1" class="node">
<title>Node1</title>
<g id="a_node1"><a xlink:title="Event&#45;loop integrated Linux serial port support.">
<polygon fill="#bfbfbf" stroke="black" points="147,-56.5 147,-75.5 315,-75.5 315,-56.5 147,-56.5"/>
<text text-anchor="middle" x="231" y="-63.5" font-family="Helvetica,sans-Serif" font-size="10.00">RADSerial/headers/RADSerial.h</text>
</a>
</g>
</g>
<!-- Node2 -->
<g id="node2" class="node">
<title>Node2</title>
<g id="a_node2"><a xlink:title=" ">
<polygon fill="white" stroke="#bfbfbf" points="0,-0.5 0,-19.5 116,-19.5 116,-0.5 0,-0.5"/>
<text text-anchor="middle" x="58" y="-7.5" font-family="Helvetica,sans-Serif" font-size="10.00">RADCore/RADCore.h</text>
</a>
</g>
</g>
<!-- Node1&#45;&gt;Node2 -->
<g id="edge1" class="edge">
<title>Node1&#45;&gt;Node2</title>
<path fill="none" stroke="midnightblue" d="M203.59,-56.44C174.23,-47.28 127.48,-32.69 94.9,-22.52"/>
<polygon fill="midnightblue" stroke="midnightblue" points="95.87,-19.16 85.28,-19.52 93.79,-25.84 95.87,-19.16"/>
</g>
<!-- Node3 -->
<g id="node3" class="node">
<title>Node3</title>
<g id="a_node3"><a xlink:title=" ">
<polygon fill="white" stroke="#bfbfbf" points="134,-0.5 134,-19.5 184,-19.5 184,-0.5 134,-0.5"/>
<text text-anchor="middle" x="159" y="-7.5" font-family="Helvetica,sans-Serif" font-size="10.00">cstdint</text>
</a>
</g>
</g>
<!-- Node1&#45;&gt;Node3 -->
<g id="edge2" class="edge">
<title>Node1&#45;&gt;Node3</title>
<path fill="none" stroke="midnightblue" d="M219.43,-56.32C208.58,-48.18 192.12,-35.84 179.12,-26.09"/>
<polygon fill="midnightblue" stroke="midnightblue" points="180.88,-23.03 170.78,-19.83 176.68,-28.63 180.88,-23.03"/>
</g>
<!-- Node4 -->
<g id="node4" class="node">
<title>Node4</title>
<g id="a_node4"><a xlink:title=" ">
<polygon fill="white" stroke="#bfbfbf" points="202,-0.5 202,-19.5 260,-19.5 260,-0.5 202,-0.5"/>
<text text-anchor="middle" x="231" y="-7.5" font-family="Helvetica,sans-Serif" font-size="10.00">memory</text>
</a>
</g>
</g>
<!-- Node1&#45;&gt;Node4 -->
<g id="edge3" class="edge">
<title>Node1&#45;&gt;Node4</title>
<path fill="none" stroke="midnightblue" d="M231,-56.08C231,-49.01 231,-38.86 231,-29.99"/>
<polygon fill="midnightblue" stroke="midnightblue" points="234.5,-29.75 231,-19.75 227.5,-29.75 234.5,-29.75"/>
</g>
<!-- Node5 -->
<g id="node5" class="node">
<title>Node5</title>
<g id="a_node5"><a xlink:title=" ">
<polygon fill="white" stroke="#bfbfbf" points="278,-0.5 278,-19.5 322,-19.5 322,-0.5 278,-0.5"/>
<text text-anchor="middle" x="300" y="-7.5" font-family="Helvetica,sans-Serif" font-size="10.00">string</text>
</a>
</g>
</g>
<!-- Node1&#45;&gt;Node5 -->
<g id="edge4" class="edge">
<title>Node1&#45;&gt;Node5</title>
<path fill="none" stroke="midnightblue" d="M242.09,-56.32C252.49,-48.18 268.26,-35.84 280.72,-26.09"/>
<polygon fill="midnightblue" stroke="midnightblue" points="282.99,-28.75 288.71,-19.83 278.68,-23.24 282.99,-28.75"/>
</g>
<!-- Node6 -->
<g id="node6" class="node">
<title>Node6</title>
<g id="a_node6"><a xlink:title=" ">
<polygon fill="white" stroke="#bfbfbf" points="340.5,-0.5 340.5,-19.5 387.5,-19.5 387.5,-0.5 340.5,-0.5"/>
<text text-anchor="middle" x="364" y="-7.5" font-family="Helvetica,sans-Serif" font-size="10.00">vector</text>
</a>
</g>
</g>
<!-- Node1&#45;&gt;Node6 -->
<g id="edge5" class="edge">
<title>Node1&#45;&gt;Node6</title>
<path fill="none" stroke="midnightblue" d="M252.07,-56.44C274.06,-47.52 308.73,-33.44 333.66,-23.32"/>
<polygon fill="midnightblue" stroke="midnightblue" points="335.08,-26.52 343.02,-19.52 332.44,-20.04 335.08,-26.52"/>
</g>
</g>
</svg>
