<?xml version="1.0" encoding="UTF-8" standalone="no"?>
<!DOCTYPE svg PUBLIC "-//W3C//DTD SVG 1.1//EN"
 "http://www.w3.org/Graphics/SVG/1.1/DTD/svg11.dtd">
<!-- Generated by graphviz version 2.43.0 (0)
 -->
<!-- Title: RADUi/headers/RADUi.h Pages: 1 -->
<svg width="832pt" height="84pt"
 viewBox="0.00 0.00 831.50 84.00" xmlns="http://www.w3.org/2000/svg" xmlns:xlink="http://www.w3.org/1999/xlink">
<g id="graph0" class="graph" transform="scale(1 1) rotate(0) translate(4 80)">
<title>RADUi/headers/RADUi.h</title>
<polygon fill="white" stroke="transparent" points="-4,4 -4,-80 827.5,-80 827.5,4 -4,4"/>
<!-- Node1 -->
<g id="node1" class="node">
<title>Node1</title>
<g id="a_node1"><a xlink:title="Backend&#45;neutral UI dispatch, frame scheduling, and RADCore&#45;to&#45;UI binding helpers.">
<polygon fill="#bfbfbf" stroke="black" points="405,-56.5 405,-75.5 539,-75.5 539,-56.5 405,-56.5"/>
<text text-anchor="middle" x="472" y="-63.5" font-family="Helvetica,sans-Serif" font-size="10.00">RADUi/headers/RADUi.h</text>
</a>
</g>
</g>
<!-- Node2 -->
<g id="node2" class="node">
<title>Node2</title>
<g id="a_node2"><a xlink:title=" ">
<polygon fill="white" stroke="#bfbfbf" points="0,-0.5 0,-19.5 116,-19.5 116,-0.5 0,-0.5"/>
<text text-anchor="middle" x="58" y="-7.5" font-family="Helvetica,sans-Serif" font-size="10.00">RADCore/RADCore.h</text>
</a>
</g>
</g>
<!-- Node1&#45;&gt;Node2 -->
<g id="edge1" class="edge">
<title>Node1&#45;&gt;Node2</title>
<path fill="none" stroke="midnightblue" d="M405.47,-56.46C337.79,-47.76 229.59,-33.79 126.1,-20.14"/>
<polygon fill="midnightblue" stroke="midnightblue" points="126.47,-16.66 116.1,-18.82 125.56,-23.6 126.47,-16.66"/>
</g>
<!-- Node3 -->
<g id="node3" class="node">
<title>Node3</title>
<g id="a_node3"><a xlink:title=" ">
<polygon fill="white" stroke="#bfbfbf" points="134,-0.5 134,-19.5 184,-19.5 184,-0.5 134,-0.5"/>
<text text-anchor="middle" x="159" y="-7.5" font-family="Helvetica,sans-Serif" font-size="10.00">chrono</text>
</a>
</g>
</g>
<!-- Node1&#45;&gt;Node3 -->
<g id="edge2" class="edge">
<title>Node1&#45;&gt;Node3</title>
<path fill="none" stroke="midnightblue" d="M407.67,-56.47C353.24,-48.83 272.98,-36.58 194.27,-20.1"/>
<polygon fill="midnightblue" stroke="midnightblue" points="194.69,-16.61 184.18,-17.96 193.24,-23.46 194.69,-16.61"/>
</g>
<!-- Node4 -->
<g id="node4" class="node">
<title>Node4</title>
<g id="a_node4"><a xlink:title=" ">
<polygon fill="white" stroke="#bfbfbf" points="202,-0.5 202,-19.5 270,-19.5 270,-0.5 202,-0.5"/>
<text text-anchor="middle" x="236" y="-7.5" font-family="Helvetica,sans-Serif" font-size="10.00">filesystem</text>
</a>
</g>
</g>
<!-- Node1&#45;&gt;Node4 -->
<g id="edge3" class="edge">
<title>Node1&#45;&gt;Node4</title>
<path fill="none" stroke="midnightblue" d="M434.61,-56.44C392.64,-46.84 324.63,-31.28 280.11,-21.09"/>
<polygon fill="midnightblue" stroke="midnightblue" points="280.68,-17.63 270.15,-18.82 279.12,-24.46 280.68,-17.63"/>
</g>
<!-- Node5 -->
<g id="node5" class="node">
<title>Node5</title>
<g id="a_node5"><a xlink:title=" ">
<polygon fill="white" stroke="#bfbfbf" points="288.5,-0.5 288.5,-19.5 353.5,-19.5 353.5,-0.5 288.5,-0.5"/>
<text text-anchor="middle" x="321" y="-7.5" font-family="Helvetica,sans-Serif" font-size="10.00">functional</text>
</a>
</g>
</g>
<!-- Node1&#45;&gt;Node5 -->
<g id="edge4" class="edge">
<title>Node1&#45;&gt;Node5</title>
<path fill="none" stroke="midnightblue" d="M448.07,-56.44C422.78,-47.4 382.7,-33.06 354.32,-22.92"/>
<polygon fill="midnightblue" stroke="midnightblue" points="355.41,-19.59 344.81,-19.52 353.05,-26.18 355.41,-19.59"/>
</g>
<!-- Node6 -->
<g id="node6" class="node">
<title>Node6</title>
<g id="a_node6"><a xlink:title=" ">
<polygon fill="white" stroke="#bfbfbf" points="372,-0.5 372,-19.5 430,-19.5 430,-0.5 372,-0.5"/>
<text text-anchor="middle" x="401" y="-7.5" font-family="Helvetica,sans-Serif" font-size="10.00">memory</text>
</a>
</g>
</g>
<!-- Node1&#45;&gt;Node6 -->
<g id="edge5" class="edge">
<title>Node1&#45;&gt;Node6</title>
<path fill="none" stroke="midnightblue" d="M460.59,-56.32C449.89,-48.18 433.66,-35.84 420.84,-26.09"/>
<polygon fill="midnightblue" stroke="midnightblue" points="422.69,-23.1 412.61,-19.83 418.46,-28.67 422.69,-23.1"/>
</g>
<!-- Node7 -->
<g id="node7" class="node">
<title>Node7</title>
<g id="a_node7"><a xlink:title=" ">
<polygon fill="white" stroke="#bfbfbf" points="448,-0.5 448,-19.5 496,-19.5 496,-0.5 448,-0.5"/>
<text text-anchor="middle" x="472" y="-7.5" font-family="Helvetica,sans-Serif" font-size="10.00">mutex</text>
</a>
</g>
</g>
<!-- Node1&#45;&gt;Node7 -->
<g id="edge6" class="edge">
<title>Node1&#45;&gt;Node7</title>
<path fill="none" stroke="midnightblue" d="M472,-56.08C472,-49.01 472,-38.86 472,-29.99"/>
<polygon fill="midnightblue" stroke="midnightblue" points="475.5,-29.75 472,-19.75 468.5,-29.75 475.5,-29.75"/>
</g>
<!-- Node8 -->
<g id="node8" class="node">
<title>Node8</title>
<g id="a_node8"><a xlink:title=" ">
<polygon fill="white" stroke="#bfbfbf" points="514,-0.5 514,-19.5 546,-19.5 546,-0.5 514,-0.5"/>
<text text-anchor="middle" x="530" y="-7.5" font-family="Helvetica,sans-Serif" font-size="10.00">set</text>
</a>
</g>
</g>
<!-- Node1&#45;&gt;Node8 -->
<g id="edge7" class="edge">
<title>Node1&#45;&gt;Node8</title>
<path fill="none" stroke="midnightblue" d="M481.32,-56.32C489.89,-48.34 502.81,-36.31 513.19,-26.65"/>
<polygon fill="midnightblue" stroke="midnightblue" points="515.58,-29.21 520.51,-19.83 510.81,-24.09 515.58,-29.21"/>
</g>
<!-- Node9 -->
<g id="node9" class="node">
<title>Node9</title>
<g id="a_node9"><a xlink:title=" ">
<polygon fill="white" stroke="#bfbfbf" points="564.5,-0.5 564.5,-19.5 629.5,-19.5 629.5,-0.5 564.5,-0.5"/>
<text text-anchor="middle" x="597" y="-7.5" font-family="Helvetica,sans-Serif" font-size="10.00">stdexcept</text>
</a>
</g>
</g>
<!-- Node1&#45;&gt;Node9 -->
<g id="edge8" class="edge">
<title>Node1&#45;&gt;Node9</title>
<path fill="none" stroke="midnightblue" d="M491.81,-56.44C512.29,-47.6 544.48,-33.69 567.86,-23.59"/>
<polygon fill="midnightblue" stroke="midnightblue" points="569.49,-26.7 577.29,-19.52 566.72,-20.27 569.49,-26.7"/>
</g>
<!-- Node10 -->
<g id="node10" class="node">
<title>Node10</title>
<g id="a_node10"><a xlink:title=" ">
<polygon fill="white" stroke="#bfbfbf" points="648,-0.5 648,-19.5 692,-19.5 692,-0.5 648,-0.5"/>
<text text-anchor="middle" x="670" y="-7.5" font-family="Helvetica,sans-Serif" font-size="10.00">string</text>
</a>
</g>
</g>
<!-- Node1&#45;&gt;Node10 -->
<g id="edge9" class="edge">
<title>Node1&#45;&gt;Node10</title>
<path fill="none" stroke="midnightblue" d="M504.38,-56.47C536.09,-48.08 586.01,-34.75 638.23,-20.18"/>
<polygon fill="midnightblue" stroke="midnightblue" points="639.31,-23.51 648,-17.44 637.43,-16.77 639.31,-23.51"/>
</g>
<!-- Node11 -->
<g id="node11" class="node">
<title>Node11</title>
<g id="a_node11"><a xlink:title=" ">
<polygon fill="white" stroke="#bfbfbf" points="710,-0.5 710,-19.5 758,-19.5 758,-0.5 710,-0.5"/>
<text text-anchor="middle" x="734" y="-7.5" font-family="Helvetica,sans-Serif" font-size="10.00">thread</text>
</a>
</g>
</g>
<!-- Node1&#45;&gt;Node11 -->
<g id="edge10" class="edge">
<title>Node1&#45;&gt;Node11</title>
<path fill="none" stroke="midnightblue" d="M520.91,-56.45C565.25,-48.45 632.58,-35.73 699.96,-20.11"/>
<polygon fill="midnightblue" stroke="midnightblue" points="700.96,-23.47 709.9,-17.79 699.37,-16.66 700.96,-23.47"/>
</g>
<!-- Node12 -->
<g id="node12" class="node">
<title>Node12</title>
<g id="a_node12"><a xlink:title=" ">
<polygon fill="white" stroke="#bfbfbf" points="776.5,-0.5 776.5,-19.5 823.5,-19.5 823.5,-0.5 776.5,-0.5"/>
<text text-anchor="middle" x="800" y="-7.5" font-family="Helvetica,sans-Serif" font-size="10.00">vector</text>
</a>
</g>
</g>
<!-- Node1&#45;&gt;Node12 -->
<g id="edge11" class="edge">
<title>Node1&#45;&gt;Node12</title>
<path fill="none" stroke="midnightblue" d="M539.18,-56.99C596.94,-49.59 682.63,-37.4 766.35,-19.92"/>
<polygon fill="midnightblue" stroke="midnightblue" points="767.23,-23.31 776.29,-17.82 765.78,-16.46 767.23,-23.31"/>
</g>
</g>
</svg>
