<?xml version="1.0" encoding="UTF-8" standalone="no"?>
<!DOCTYPE svg PUBLIC "-//W3C//DTD SVG 1.1//EN"
 "http://www.w3.org/Graphics/SVG/1.1/DTD/svg11.dtd">
<!-- Generated by graphviz version 2.43.0 (0)
 -->
<!-- Title: RADUi::TerminalLine Pages: 1 -->
<svg width="130pt" height="106pt"
 viewBox="0.00 0.00 130.00 106.00" xmlns="http://www.w3.org/2000/svg" xmlns:xlink="http://www.w3.org/1999/xlink">
<g id="graph0" class="graph" transform="scale(1 1) rotate(0) translate(4 102)">
<title>RADUi::TerminalLine</title>
<polygon fill="white" stroke="transparent" points="-4,4 -4,-102 126,-102 126,4 -4,4"/>
<!-- Node1 -->
<g id="node1" class="node">
<title>Node1</title>
<g id="a_node1"><a xlink:title="One logical terminal line with text and colors.">
<polygon fill="#bfbfbf" stroke="black" points="3,-0.5 3,-19.5 119,-19.5 119,-0.5 3,-0.5"/>
<text text-anchor="middle" x="61" y="-7.5" font-family="Helvetica,sans-Serif" font-size="10.00">RADUi::TerminalLine</text>
</a>
</g>
</g>
<!-- Node2 -->
<g id="node2" class="node">
<title>Node2</title>
<g id="a_node2"><a xlink:href="structRADUi_1_1TerminalColor.html" target="_top" xlink:title="RGB terminal color used for a rendered line.">
<polygon fill="white" stroke="black" points="0,-78.5 0,-97.5 122,-97.5 122,-78.5 0,-78.5"/>
<text text-anchor="middle" x="61" y="-85.5" font-family="Helvetica,sans-Serif" font-size="10.00">RADUi::TerminalColor</text>
</a>
</g>
</g>
<!-- Node2&#45;&gt;Node1 -->
<g id="edge1" class="edge">
<title>Node2&#45;&gt;Node1</title>
<path fill="none" stroke="#9a32cd" stroke-dasharray="5,2" d="M61,-68.22C61,-52.7 61,-31.36 61,-19.62"/>
<polygon fill="#9a32cd" stroke="#9a32cd" points="57.5,-68.28 61,-78.28 64.5,-68.28 57.5,-68.28"/>
<text text-anchor="middle" x="91.5" y="-52" font-family="Helvetica,sans-Serif" font-size="10.00"> background</text>
<text text-anchor="middle" x="91.5" y="-41" font-family="Helvetica,sans-Serif" font-size="10.00">foreground</text>
</g>
</g>
</svg>
