<?xml version="1.0" encoding="UTF-8" standalone="no"?>
<!DOCTYPE svg PUBLIC "-//W3C//DTD SVG 1.1//EN"
 "http://www.w3.org/Graphics/SVG/1.1/DTD/svg11.dtd">
<!-- Generated by graphviz version 2.43.0 (0)
 -->
<!-- Title: RADWeb::RADWebBrowserWindow Pages: 1 -->
<svg width="528pt" height="382pt"
 viewBox="0.00 0.00 528.00 381.50" xmlns="http://www.w3.org/2000/svg" xmlns:xlink="http://www.w3.org/1999/xlink">
<g id="graph0" class="graph" transform="scale(1 1) rotate(0) translate(4 377.5)">
<title>RADWeb::RADWebBrowserWindow</title>
<polygon fill="white" stroke="transparent" points="-4,4 -4,-377.5 524,-377.5 524,4 -4,4"/>
<!-- Node1 -->
<g id="node1" class="node">
<title>Node1</title>
<g id="a_node1"><a xlink:title="WebKitGTK&#45;backed browser window with tabs, history, downloads, and settings.">
<polygon fill="#bfbfbf" stroke="black" points="335,-207 335,-226 520,-226 520,-207 335,-207"/>
<text text-anchor="middle" x="427.5" y="-214" font-family="Helvetica,sans-Serif" font-size="10.00">RADWeb::RADWebBrowserWindow</text>
</a>
</g>
</g>
<!-- Node2 -->
<g id="node2" class="node">
<title>Node2</title>
<g id="a_node2"><a xlink:href="classRADCore_1_1RADObject.html" target="_top" xlink:title="Base class for event receivers, senders, and thread&#45;affinity aware objects.">
<polygon fill="white" stroke="black" points="37,-354 37,-373 156,-373 156,-354 37,-354"/>
<text text-anchor="middle" x="96.5" y="-361" font-family="Helvetica,sans-Serif" font-size="10.00">RADCore::RADObject</text>
</a>
</g>
</g>
<!-- Node2&#45;&gt;Node1 -->
<g id="edge1" class="edge">
<title>Node2&#45;&gt;Node1</title>
<path fill="none" stroke="midnightblue" d="M166.24,-368.81C211.45,-369.39 270.61,-364.41 317,-340.5 369.33,-313.53 408.07,-250.24 421.43,-226.09"/>
<polygon fill="midnightblue" stroke="midnightblue" points="166.31,-365.31 156.24,-368.59 166.16,-372.31 166.31,-365.31"/>
</g>
<!-- Node3 -->
<g id="node3" class="node">
<title>Node3</title>
<g id="a_node3"><a xlink:href="classRADCore_1_1Event.html" target="_top" xlink:title=" ">
<polygon fill="white" stroke="black" points="33.5,-302.5 33.5,-332.5 159.5,-332.5 159.5,-302.5 33.5,-302.5"/>
<text text-anchor="start" x="41.5" y="-320.5" font-family="Helvetica,sans-Serif" font-size="10.00">RADCore::Event&lt; void</text>
<text text-anchor="middle" x="96.5" y="-309.5" font-family="Helvetica,sans-Serif" font-size="10.00">(int) &gt;</text>
</a>
</g>
</g>
<!-- Node3&#45;&gt;Node1 -->
<g id="edge2" class="edge">
<title>Node3&#45;&gt;Node1</title>
<path fill="none" stroke="#9a32cd" stroke-dasharray="5,2" d="M169.46,-310.94C213.1,-305.45 269.36,-295.65 317,-278.5 354,-265.18 393.1,-239.94 413.06,-226.13"/>
<polygon fill="#9a32cd" stroke="#9a32cd" points="169.01,-307.47 159.5,-312.15 169.85,-314.42 169.01,-307.47"/>
<text text-anchor="middle" x="264" y="-328.5" font-family="Helvetica,sans-Serif" font-size="10.00"> activeTabChanged</text>
<text text-anchor="middle" x="264" y="-317.5" font-family="Helvetica,sans-Serif" font-size="10.00">tabAdded</text>
<text text-anchor="middle" x="264" y="-306.5" font-family="Helvetica,sans-Serif" font-size="10.00">tabClosed</text>
</g>
<!-- Node4 -->
<g id="node4" class="node">
<title>Node4</title>
<g id="a_node4"><a xlink:href="classRADCore_1_1Event.html" target="_top" xlink:title=" ">
<polygon fill="white" stroke="black" points="33.5,-253.5 33.5,-283.5 159.5,-283.5 159.5,-253.5 33.5,-253.5"/>
<text text-anchor="start" x="41.5" y="-271.5" font-family="Helvetica,sans-Serif" font-size="10.00">RADCore::Event&lt; void</text>
<text text-anchor="middle" x="96.5" y="-260.5" font-family="Helvetica,sans-Serif" font-size="10.00">(int, std::string) &gt;</text>
</a>
</g>
</g>
<!-- Node4&#45;&gt;Node1 -->
<g id="edge3" class="edge">
<title>Node4&#45;&gt;Node1</title>
<path fill="none" stroke="#9a32cd" stroke-dasharray="5,2" d="M170.07,-266.54C213.09,-264.39 268.52,-259.9 317,-250.5 346.51,-244.78 379.3,-233.98 401.24,-226.08"/>
<polygon fill="#9a32cd" stroke="#9a32cd" points="169.79,-263.05 159.97,-267.02 170.12,-270.04 169.79,-263.05"/>
<text text-anchor="middle" x="264" y="-266.5" font-family="Helvetica,sans-Serif" font-size="10.00"> downloadFailed</text>
</g>
<!-- Node5 -->
<g id="node5" class="node">
<title>Node5</title>
<g id="a_node5"><a xlink:href="classRADCore_1_1Event.html" target="_top" xlink:title=" ">
<polygon fill="white" stroke="black" points="0,-201.5 0,-231.5 193,-231.5 193,-201.5 0,-201.5"/>
<text text-anchor="start" x="8" y="-219.5" font-family="Helvetica,sans-Serif" font-size="10.00">RADCore::Event&lt; void</text>
<text text-anchor="middle" x="96.5" y="-208.5" font-family="Helvetica,sans-Serif" font-size="10.00">(RADWeb::RADWebDownloadInfo) &gt;</text>
</a>
</g>
</g>
<!-- Node5&#45;&gt;Node1 -->
<g id="edge4" class="edge">
<title>Node5&#45;&gt;Node1</title>
<path fill="none" stroke="#9a32cd" stroke-dasharray="5,2" d="M203.18,-216.5C245.59,-216.5 294.02,-216.5 334.91,-216.5"/>
<polygon fill="#9a32cd" stroke="#9a32cd" points="203.1,-213 193.1,-216.5 203.1,-220 203.1,-213"/>
<text text-anchor="middle" x="264" y="-241.5" font-family="Helvetica,sans-Serif" font-size="10.00"> downloadFinished</text>
<text text-anchor="middle" x="264" y="-230.5" font-family="Helvetica,sans-Serif" font-size="10.00">downloadStarted</text>
<text text-anchor="middle" x="264" y="-219.5" font-family="Helvetica,sans-Serif" font-size="10.00">downloadUpdated</text>
</g>
<!-- Node6 -->
<g id="node6" class="node">
<title>Node6</title>
<g id="a_node6"><a xlink:href="classRADCore_1_1Event.html" target="_top" xlink:title=" ">
<polygon fill="white" stroke="black" points="24,-151 24,-170 169,-170 169,-151 24,-151"/>
<text text-anchor="middle" x="96.5" y="-158" font-family="Helvetica,sans-Serif" font-size="10.00">RADCore::Event&lt; void() &gt;</text>
</a>
</g>
</g>
<!-- Node6&#45;&gt;Node1 -->
<g id="edge5" class="edge">
<title>Node6&#45;&gt;Node1</title>
<path fill="none" stroke="#9a32cd" stroke-dasharray="5,2" d="M179.38,-162.93C220.95,-165.34 272.03,-170.1 317,-179.5 347.64,-185.91 381.6,-198.24 403.45,-206.91"/>
<polygon fill="#9a32cd" stroke="#9a32cd" points="179.48,-159.43 169.31,-162.38 179.1,-166.42 179.48,-159.43"/>
<text text-anchor="middle" x="264" y="-204.5" font-family="Helvetica,sans-Serif" font-size="10.00"> bookmarksChanged</text>
<text text-anchor="middle" x="264" y="-193.5" font-family="Helvetica,sans-Serif" font-size="10.00">closed</text>
<text text-anchor="middle" x="264" y="-182.5" font-family="Helvetica,sans-Serif" font-size="10.00">historyChanged</text>
</g>
<!-- Node7 -->
<g id="node7" class="node">
<title>Node7</title>
<g id="a_node7"><a xlink:href="classRADCore_1_1Event.html" target="_top" xlink:title=" ">
<polygon fill="white" stroke="black" points="27,-100.5 27,-130.5 166,-130.5 166,-100.5 27,-100.5"/>
<text text-anchor="start" x="35" y="-118.5" font-family="Helvetica,sans-Serif" font-size="10.00">RADCore::Event&lt; void</text>
<text text-anchor="middle" x="96.5" y="-107.5" font-family="Helvetica,sans-Serif" font-size="10.00">(std::string, std::string) &gt;</text>
</a>
</g>
</g>
<!-- Node7&#45;&gt;Node1 -->
<g id="edge6" class="edge">
<title>Node7&#45;&gt;Node1</title>
<path fill="none" stroke="#9a32cd" stroke-dasharray="5,2" d="M176.39,-114.65C219.2,-116.51 272.34,-122.65 317,-139.5 358.31,-155.09 398.62,-189.95 416.66,-206.89"/>
<polygon fill="#9a32cd" stroke="#9a32cd" points="176.42,-111.15 166.3,-114.28 176.17,-118.15 176.42,-111.15"/>
<text text-anchor="middle" x="264" y="-153.5" font-family="Helvetica,sans-Serif" font-size="10.00"> loadFailed</text>
<text text-anchor="middle" x="264" y="-142.5" font-family="Helvetica,sans-Serif" font-size="10.00">permissionRequested</text>
</g>
<!-- Node8 -->
<g id="node8" class="node">
<title>Node8</title>
<g id="a_node8"><a xlink:href="classRADCore_1_1Event.html" target="_top" xlink:title=" ">
<polygon fill="white" stroke="black" points="33.5,-0.5 33.5,-30.5 159.5,-30.5 159.5,-0.5 33.5,-0.5"/>
<text text-anchor="start" x="41.5" y="-18.5" font-family="Helvetica,sans-Serif" font-size="10.00">RADCore::Event&lt; void</text>
<text text-anchor="middle" x="96.5" y="-7.5" font-family="Helvetica,sans-Serif" font-size="10.00">(std::string) &gt;</text>
</a>
</g>
</g>
<!-- Node8&#45;&gt;Node1 -->
<g id="edge7" class="edge">
<title>Node8&#45;&gt;Node1</title>
<path fill="none" stroke="#9a32cd" stroke-dasharray="5,2" d="M170.04,-6.27C215.53,-4.12 273.56,-8.34 317,-35.5 383.64,-77.17 415.38,-175.65 424.01,-206.85"/>
<polygon fill="#9a32cd" stroke="#9a32cd" points="169.73,-2.78 159.95,-6.86 170.14,-9.77 169.73,-2.78"/>
<text text-anchor="middle" x="264" y="-104.5" font-family="Helvetica,sans-Serif" font-size="10.00"> errorOccurred</text>
<text text-anchor="middle" x="264" y="-93.5" font-family="Helvetica,sans-Serif" font-size="10.00">javaScriptFailed</text>
<text text-anchor="middle" x="264" y="-82.5" font-family="Helvetica,sans-Serif" font-size="10.00">javaScriptFinished</text>
<text text-anchor="middle" x="264" y="-71.5" font-family="Helvetica,sans-Serif" font-size="10.00">loadFinished</text>
<text text-anchor="middle" x="264" y="-60.5" font-family="Helvetica,sans-Serif" font-size="10.00">loadStarted</text>
<text text-anchor="middle" x="264" y="-49.5" font-family="Helvetica,sans-Serif" font-size="10.00">titleChanged</text>
<text text-anchor="middle" x="264" y="-38.5" font-family="Helvetica,sans-Serif" font-size="10.00">uriChanged</text>
</g>
</g>
</svg>
