<?xml version="1.0" encoding="UTF-8" standalone="no"?>
<!DOCTYPE svg PUBLIC "-//W3C//DTD SVG 1.1//EN"
 "http://www.w3.org/Graphics/SVG/1.1/DTD/svg11.dtd">
<!-- Generated by graphviz version 2.43.0 (0)
 -->
<!-- Title: RADCore::RADStringListModel Pages: 1 -->
<svg width="435pt" height="196pt"
 viewBox="0.00 0.00 435.00 196.00" xmlns="http://www.w3.org/2000/svg" xmlns:xlink="http://www.w3.org/1999/xlink">
<g id="graph0" class="graph" transform="scale(1 1) rotate(0) translate(4 192)">
<title>RADCore::RADStringListModel</title>
<polygon fill="white" stroke="transparent" points="-4,4 -4,-192 431,-192 431,4 -4,4"/>
<!-- Node1 -->
<g id="node1" class="node">
<title>Node1</title>
<g id="a_node1"><a xlink:title="One&#45;column string list implementation of RADAbstractItemModel.">
<polygon fill="#bfbfbf" stroke="black" points="119,-0.5 119,-19.5 282,-19.5 282,-0.5 119,-0.5"/>
<text text-anchor="middle" x="200.5" y="-7.5" font-family="Helvetica,sans-Serif" font-size="10.00">RADCore::RADStringListModel</text>
</a>
</g>
</g>
<!-- Node2 -->
<g id="node2" class="node">
<title>Node2</title>
<g id="a_node2"><a xlink:href="classRADCore_1_1RADAbstractItemModel.html" target="_top" xlink:title="Minimal abstract item model for UI/model integrations.">
<polygon fill="white" stroke="black" points="125.5,-57.5 125.5,-87.5 275.5,-87.5 275.5,-57.5 125.5,-57.5"/>
<text text-anchor="start" x="133.5" y="-75.5" font-family="Helvetica,sans-Serif" font-size="10.00">RADCore::RADAbstractItem</text>
<text text-anchor="middle" x="200.5" y="-64.5" font-family="Helvetica,sans-Serif" font-size="10.00">Model</text>
</a>
</g>
</g>
<!-- Node2&#45;&gt;Node1 -->
<g id="edge1" class="edge">
<title>Node2&#45;&gt;Node1</title>
<path fill="none" stroke="midnightblue" d="M200.5,-47.35C200.5,-37.51 200.5,-26.78 200.5,-19.54"/>
<polygon fill="midnightblue" stroke="midnightblue" points="197,-47.47 200.5,-57.47 204,-47.47 197,-47.47"/>
</g>
<!-- Node3 -->
<g id="node3" class="node">
<title>Node3</title>
<g id="a_node3"><a xlink:href="classRADCore_1_1RADObject.html" target="_top" xlink:title="Base class for event receivers, senders, and thread&#45;affinity aware objects.">
<polygon fill="white" stroke="black" points="0,-163 0,-182 119,-182 119,-163 0,-163"/>
<text text-anchor="middle" x="59.5" y="-170" font-family="Helvetica,sans-Serif" font-size="10.00">RADCore::RADObject</text>
</a>
</g>
</g>
<!-- Node3&#45;&gt;Node2 -->
<g id="edge2" class="edge">
<title>Node3&#45;&gt;Node2</title>
<path fill="none" stroke="midnightblue" d="M80.31,-157.04C107.15,-138.38 153.55,-106.13 180.16,-87.64"/>
<polygon fill="midnightblue" stroke="midnightblue" points="78.23,-154.22 72.01,-162.8 82.22,-159.97 78.23,-154.22"/>
</g>
<!-- Node4 -->
<g id="node4" class="node">
<title>Node4</title>
<g id="a_node4"><a xlink:href="classRADCore_1_1Event.html" target="_top" xlink:title=" ">
<polygon fill="white" stroke="black" points="137.5,-157.5 137.5,-187.5 263.5,-187.5 263.5,-157.5 137.5,-157.5"/>
<text text-anchor="start" x="145.5" y="-175.5" font-family="Helvetica,sans-Serif" font-size="10.00">RADCore::Event&lt; void</text>
<text text-anchor="middle" x="200.5" y="-164.5" font-family="Helvetica,sans-Serif" font-size="10.00">(size_t, size_t) &gt;</text>
</a>
</g>
</g>
<!-- Node4&#45;&gt;Node2 -->
<g id="edge3" class="edge">
<title>Node4&#45;&gt;Node2</title>
<path fill="none" stroke="#9a32cd" stroke-dasharray="5,2" d="M200.5,-147.28C200.5,-128.48 200.5,-103.08 200.5,-87.51"/>
<polygon fill="#9a32cd" stroke="#9a32cd" points="197,-147.46 200.5,-157.46 204,-147.46 197,-147.46"/>
<text text-anchor="middle" x="235.5" y="-131" font-family="Helvetica,sans-Serif" font-size="10.00"> dataChanged</text>
<text text-anchor="middle" x="235.5" y="-120" font-family="Helvetica,sans-Serif" font-size="10.00">rowsInserted</text>
<text text-anchor="middle" x="235.5" y="-109" font-family="Helvetica,sans-Serif" font-size="10.00">rowsRemoved</text>
</g>
<!-- Node5 -->
<g id="node5" class="node">
<title>Node5</title>
<g id="a_node5"><a xlink:href="classRADCore_1_1Event.html" target="_top" xlink:title=" ">
<polygon fill="white" stroke="black" points="282,-163 282,-182 427,-182 427,-163 282,-163"/>
<text text-anchor="middle" x="354.5" y="-170" font-family="Helvetica,sans-Serif" font-size="10.00">RADCore::Event&lt; void() &gt;</text>
</a>
</g>
</g>
<!-- Node5&#45;&gt;Node2 -->
<g id="edge4" class="edge">
<title>Node5&#45;&gt;Node2</title>
<path fill="none" stroke="#9a32cd" stroke-dasharray="5,2" d="M338.12,-155.82C322.62,-141.55 298.26,-120.56 274.5,-106 263.14,-99.03 250.01,-92.76 238.01,-87.63"/>
<polygon fill="#9a32cd" stroke="#9a32cd" points="336.07,-158.69 345.76,-162.97 340.85,-153.58 336.07,-158.69"/>
<text text-anchor="middle" x="348.5" y="-120" font-family="Helvetica,sans-Serif" font-size="10.00"> modelReset</text>
</g>
</g>
</svg>
