<?xml version="1.0" encoding="UTF-8" standalone="no"?>
<!DOCTYPE svg PUBLIC "-//W3C//DTD SVG 1.1//EN"
 "http://www.w3.org/Graphics/SVG/1.1/DTD/svg11.dtd">
<!-- Generated by graphviz version 2.43.0 (0)
 -->
<!-- Title: RADMedia::AudioPlayer Pages: 1 -->
<svg width="435pt" height="128pt"
 viewBox="0.00 0.00 434.50 128.00" xmlns="http://www.w3.org/2000/svg" xmlns:xlink="http://www.w3.org/1999/xlink">
<g id="graph0" class="graph" transform="scale(1 1) rotate(0) translate(4 124)">
<title>RADMedia::AudioPlayer</title>
<polygon fill="white" stroke="transparent" points="-4,4 -4,-124 430.5,-124 430.5,4 -4,4"/>
<!-- Node1 -->
<g id="node1" class="node">
<title>Node1</title>
<g id="a_node1"><a xlink:title="Convenience WAV/audio playback object with sync and async APIs.">
<polygon fill="#bfbfbf" stroke="black" points="143.5,-0.5 143.5,-19.5 275.5,-19.5 275.5,-0.5 143.5,-0.5"/>
<text text-anchor="middle" x="209.5" y="-7.5" font-family="Helvetica,sans-Serif" font-size="10.00">RADMedia::AudioPlayer</text>
</a>
</g>
</g>
<!-- Node2 -->
<g id="node2" class="node">
<title>Node2</title>
<g id="a_node2"><a xlink:href="classRADCore_1_1RADObject.html" target="_top" xlink:title="Base class for event receivers, senders, and thread&#45;affinity aware objects.">
<polygon fill="white" stroke="black" points="0,-95 0,-114 119,-114 119,-95 0,-95"/>
<text text-anchor="middle" x="59.5" y="-102" font-family="Helvetica,sans-Serif" font-size="10.00">RADCore::RADObject</text>
</a>
</g>
</g>
<!-- Node2&#45;&gt;Node1 -->
<g id="edge1" class="edge">
<title>Node2&#45;&gt;Node1</title>
<path fill="none" stroke="midnightblue" d="M81.88,-89.7C113.34,-70.3 169.71,-35.54 195.69,-19.52"/>
<polygon fill="midnightblue" stroke="midnightblue" points="80.02,-86.74 73.34,-94.96 83.69,-92.69 80.02,-86.74"/>
</g>
<!-- Node3 -->
<g id="node3" class="node">
<title>Node3</title>
<g id="a_node3"><a xlink:href="classRADCore_1_1Event.html" target="_top" xlink:title=" ">
<polygon fill="white" stroke="black" points="137,-95 137,-114 282,-114 282,-95 137,-95"/>
<text text-anchor="middle" x="209.5" y="-102" font-family="Helvetica,sans-Serif" font-size="10.00">RADCore::Event&lt; void() &gt;</text>
</a>
</g>
</g>
<!-- Node3&#45;&gt;Node1 -->
<g id="edge2" class="edge">
<title>Node3&#45;&gt;Node1</title>
<path fill="none" stroke="#9a32cd" stroke-dasharray="5,2" d="M209.5,-84.94C209.5,-65.04 209.5,-34.3 209.5,-19.52"/>
<polygon fill="#9a32cd" stroke="#9a32cd" points="206,-84.96 209.5,-94.96 213,-84.96 206,-84.96"/>
<text text-anchor="middle" x="230.5" y="-63" font-family="Helvetica,sans-Serif" font-size="10.00"> finished</text>
<text text-anchor="middle" x="230.5" y="-52" font-family="Helvetica,sans-Serif" font-size="10.00">started</text>
<text text-anchor="middle" x="230.5" y="-41" font-family="Helvetica,sans-Serif" font-size="10.00">stopped</text>
</g>
<!-- Node4 -->
<g id="node4" class="node">
<title>Node4</title>
<g id="a_node4"><a xlink:href="classRADCore_1_1Event.html" target="_top" xlink:title=" ">
<polygon fill="white" stroke="black" points="300.5,-89.5 300.5,-119.5 426.5,-119.5 426.5,-89.5 300.5,-89.5"/>
<text text-anchor="start" x="308.5" y="-107.5" font-family="Helvetica,sans-Serif" font-size="10.00">RADCore::Event&lt; void</text>
<text text-anchor="middle" x="363.5" y="-96.5" font-family="Helvetica,sans-Serif" font-size="10.00">(std::string) &gt;</text>
</a>
</g>
</g>
<!-- Node4&#45;&gt;Node1 -->
<g id="edge3" class="edge">
<title>Node4&#45;&gt;Node1</title>
<path fill="none" stroke="#9a32cd" stroke-dasharray="5,2" d="M331.67,-84.03C310.2,-70.94 281.2,-53.34 255.5,-38 245.16,-31.83 233.46,-24.97 224.45,-19.7"/>
<polygon fill="#9a32cd" stroke="#9a32cd" points="330.02,-87.13 340.38,-89.35 333.67,-81.15 330.02,-87.13"/>
<text text-anchor="middle" x="343.5" y="-52" font-family="Helvetica,sans-Serif" font-size="10.00"> errorOccurred</text>
</g>
</g>
</svg>
