<?xml version="1.0" encoding="UTF-8" standalone="no"?>
<!DOCTYPE svg PUBLIC "-//W3C//DTD SVG 1.1//EN"
 "http://www.w3.org/Graphics/SVG/1.1/DTD/svg11.dtd">
<!-- Generated by graphviz version 2.43.0 (0)
 -->
<!-- Title: RADUi::MessageBoxModel Pages: 1 -->
<svg width="380pt" height="116pt"
 viewBox="0.00 0.00 380.00 116.00" xmlns="http://www.w3.org/2000/svg" xmlns:xlink="http://www.w3.org/1999/xlink">
<g id="graph0" class="graph" transform="scale(1 1) rotate(0) translate(4 112)">
<title>RADUi::MessageBoxModel</title>
<polygon fill="white" stroke="transparent" points="-4,4 -4,-112 376,-112 376,4 -4,4"/>
<!-- Node1 -->
<g id="node1" class="node">
<title>Node1</title>
<g id="a_node1"><a xlink:title="Message box state model.">
<polygon fill="#bfbfbf" stroke="black" points="226,-44.5 226,-63.5 372,-63.5 372,-44.5 226,-44.5"/>
<text text-anchor="middle" x="299" y="-51.5" font-family="Helvetica,sans-Serif" font-size="10.00">RADUi::MessageBoxModel</text>
</a>
</g>
</g>
<!-- Node2 -->
<g id="node2" class="node">
<title>Node2</title>
<g id="a_node2"><a xlink:href="classRADCore_1_1RADObject.html" target="_top" xlink:title="Base class for event receivers, senders, and thread&#45;affinity aware objects.">
<polygon fill="white" stroke="black" points="13,-88.5 13,-107.5 132,-107.5 132,-88.5 13,-88.5"/>
<text text-anchor="middle" x="72.5" y="-95.5" font-family="Helvetica,sans-Serif" font-size="10.00">RADCore::RADObject</text>
</a>
</g>
</g>
<!-- Node2&#45;&gt;Node1 -->
<g id="edge1" class="edge">
<title>Node2&#45;&gt;Node1</title>
<path fill="none" stroke="midnightblue" d="M132.22,-86.49C168.68,-79.35 214.98,-70.27 249.38,-63.53"/>
<polygon fill="midnightblue" stroke="midnightblue" points="131.35,-83.09 122.21,-88.45 132.7,-89.96 131.35,-83.09"/>
</g>
<!-- Node3 -->
<g id="node3" class="node">
<title>Node3</title>
<g id="a_node3"><a xlink:href="classRADCore_1_1Event.html" target="_top" xlink:title=" ">
<polygon fill="white" stroke="black" points="5,-39 5,-69 140,-69 140,-39 5,-39"/>
<text text-anchor="start" x="13" y="-57" font-family="Helvetica,sans-Serif" font-size="10.00">RADCore::Event&lt; void</text>
<text text-anchor="middle" x="72.5" y="-46" font-family="Helvetica,sans-Serif" font-size="10.00">(RADUi::DialogResult) &gt;</text>
</a>
</g>
</g>
<!-- Node3&#45;&gt;Node1 -->
<g id="edge2" class="edge">
<title>Node3&#45;&gt;Node1</title>
<path fill="none" stroke="#9a32cd" stroke-dasharray="5,2" d="M150.51,-54C174.85,-54 201.64,-54 225.63,-54"/>
<polygon fill="#9a32cd" stroke="#9a32cd" points="150.25,-50.5 140.25,-54 150.25,-57.5 150.25,-50.5"/>
<text text-anchor="middle" x="185.5" y="-57" font-family="Helvetica,sans-Serif" font-size="10.00"> finished</text>
</g>
<!-- Node4 -->
<g id="node4" class="node">
<title>Node4</title>
<g id="a_node4"><a xlink:href="classRADCore_1_1Event.html" target="_top" xlink:title=" ">
<polygon fill="white" stroke="black" points="0,-0.5 0,-19.5 145,-19.5 145,-0.5 0,-0.5"/>
<text text-anchor="middle" x="72.5" y="-7.5" font-family="Helvetica,sans-Serif" font-size="10.00">RADCore::Event&lt; void() &gt;</text>
</a>
</g>
</g>
<!-- Node4&#45;&gt;Node1 -->
<g id="edge3" class="edge">
<title>Node4&#45;&gt;Node1</title>
<path fill="none" stroke="#9a32cd" stroke-dasharray="5,2" d="M132.22,-21.51C168.68,-28.65 214.98,-37.73 249.38,-44.47"/>
<polygon fill="#9a32cd" stroke="#9a32cd" points="132.7,-18.04 122.21,-19.55 131.35,-24.91 132.7,-18.04"/>
<text text-anchor="middle" x="185.5" y="-39" font-family="Helvetica,sans-Serif" font-size="10.00"> changed</text>
</g>
</g>
</svg>
