<?xml version="1.0" encoding="UTF-8" standalone="no"?>
<!DOCTYPE svg PUBLIC "-//W3C//DTD SVG 1.1//EN"
 "http://www.w3.org/Graphics/SVG/1.1/DTD/svg11.dtd">
<!-- Generated by graphviz version 2.43.0 (0)
 -->
<!-- Title: RADUi::FilePickerModel Pages: 1 -->
<svg width="435pt" height="117pt"
 viewBox="0.00 0.00 434.50 117.00" xmlns="http://www.w3.org/2000/svg" xmlns:xlink="http://www.w3.org/1999/xlink">
<g id="graph0" class="graph" transform="scale(1 1) rotate(0) translate(4 113)">
<title>RADUi::FilePickerModel</title>
<polygon fill="white" stroke="transparent" points="-4,4 -4,-113 430.5,-113 430.5,4 -4,4"/>
<!-- Node1 -->
<g id="node1" class="node">
<title>Node1</title>
<g id="a_node1"><a xlink:title="File picker state model with accept/reject events.">
<polygon fill="#bfbfbf" stroke="black" points="144,-0.5 144,-19.5 275,-19.5 275,-0.5 144,-0.5"/>
<text text-anchor="middle" x="209.5" y="-7.5" font-family="Helvetica,sans-Serif" font-size="10.00">RADUi::FilePickerModel</text>
</a>
</g>
</g>
<!-- Node2 -->
<g id="node2" class="node">
<title>Node2</title>
<g id="a_node2"><a xlink:href="classRADCore_1_1RADObject.html" target="_top" xlink:title="Base class for event receivers, senders, and thread&#45;affinity aware objects.">
<polygon fill="white" stroke="black" points="0,-84 0,-103 119,-103 119,-84 0,-84"/>
<text text-anchor="middle" x="59.5" y="-91" font-family="Helvetica,sans-Serif" font-size="10.00">RADCore::RADObject</text>
</a>
</g>
</g>
<!-- Node2&#45;&gt;Node1 -->
<g id="edge1" class="edge">
<title>Node2&#45;&gt;Node1</title>
<path fill="none" stroke="midnightblue" d="M84.14,-79.11C115.08,-62.3 167.29,-33.93 193.49,-19.7"/>
<polygon fill="midnightblue" stroke="midnightblue" points="82.38,-76.08 75.27,-83.93 85.73,-82.23 82.38,-76.08"/>
</g>
<!-- Node3 -->
<g id="node3" class="node">
<title>Node3</title>
<g id="a_node3"><a xlink:href="classRADCore_1_1Event.html" target="_top" xlink:title=" ">
<polygon fill="white" stroke="black" points="137,-84 137,-103 282,-103 282,-84 137,-84"/>
<text text-anchor="middle" x="209.5" y="-91" font-family="Helvetica,sans-Serif" font-size="10.00">RADCore::Event&lt; void() &gt;</text>
</a>
</g>
</g>
<!-- Node3&#45;&gt;Node1 -->
<g id="edge2" class="edge">
<title>Node3&#45;&gt;Node1</title>
<path fill="none" stroke="#9a32cd" stroke-dasharray="5,2" d="M209.5,-73.38C209.5,-56.4 209.5,-32.37 209.5,-19.66"/>
<polygon fill="#9a32cd" stroke="#9a32cd" points="206,-73.78 209.5,-83.78 213,-73.78 206,-73.78"/>
<text text-anchor="middle" x="232" y="-52" font-family="Helvetica,sans-Serif" font-size="10.00"> changed</text>
<text text-anchor="middle" x="232" y="-41" font-family="Helvetica,sans-Serif" font-size="10.00">rejected</text>
</g>
<!-- Node4 -->
<g id="node4" class="node">
<title>Node4</title>
<g id="a_node4"><a xlink:href="classRADCore_1_1Event.html" target="_top" xlink:title=" ">
<polygon fill="white" stroke="black" points="300.5,-78.5 300.5,-108.5 426.5,-108.5 426.5,-78.5 300.5,-78.5"/>
<text text-anchor="start" x="308.5" y="-96.5" font-family="Helvetica,sans-Serif" font-size="10.00">RADCore::Event&lt; void</text>
<text text-anchor="middle" x="363.5" y="-85.5" font-family="Helvetica,sans-Serif" font-size="10.00">(std::string) &gt;</text>
</a>
</g>
</g>
<!-- Node4&#45;&gt;Node1 -->
<g id="edge3" class="edge">
<title>Node4&#45;&gt;Node1</title>
<path fill="none" stroke="#9a32cd" stroke-dasharray="5,2" d="M327.93,-73.68C295.76,-56.65 249.83,-32.34 225.71,-19.58"/>
<polygon fill="#9a32cd" stroke="#9a32cd" points="326.55,-76.91 337.03,-78.49 329.83,-70.72 326.55,-76.91"/>
<text text-anchor="middle" x="323.5" y="-46.5" font-family="Helvetica,sans-Serif" font-size="10.00"> accepted</text>
</g>
</g>
</svg>
