<?xml version="1.0" encoding="UTF-8" standalone="no"?>
<!DOCTYPE svg PUBLIC "-//W3C//DTD SVG 1.1//EN"
 "http://www.w3.org/Graphics/SVG/1.1/DTD/svg11.dtd">
<!-- Generated by graphviz version 2.43.0 (0)
 -->
<!-- Title: RADCore::RADPtyProcess Pages: 1 -->
<svg width="399pt" height="166pt"
 viewBox="0.00 0.00 399.00 165.50" xmlns="http://www.w3.org/2000/svg" xmlns:xlink="http://www.w3.org/1999/xlink">
<g id="graph0" class="graph" transform="scale(1 1) rotate(0) translate(4 161.5)">
<title>RADCore::RADPtyProcess</title>
<polygon fill="white" stroke="transparent" points="-4,4 -4,-161.5 395,-161.5 395,4 -4,4"/>
<!-- Node1 -->
<g id="node1" class="node">
<title>Node1</title>
<g id="a_node1"><a xlink:title="PTY&#45;backed process helper for terminal applications.">
<polygon fill="#bfbfbf" stroke="black" points="251,-72 251,-91 391,-91 391,-72 251,-72"/>
<text text-anchor="middle" x="321" y="-79" font-family="Helvetica,sans-Serif" font-size="10.00">RADCore::RADPtyProcess</text>
</a>
</g>
</g>
<!-- Node2 -->
<g id="node2" class="node">
<title>Node2</title>
<g id="a_node2"><a xlink:href="classRADCore_1_1RADObject.html" target="_top" xlink:title="Base class for event receivers, senders, and thread&#45;affinity aware objects.">
<polygon fill="white" stroke="black" points="13,-138 13,-157 132,-157 132,-138 13,-138"/>
<text text-anchor="middle" x="72.5" y="-145" font-family="Helvetica,sans-Serif" font-size="10.00">RADCore::RADObject</text>
</a>
</g>
</g>
<!-- Node2&#45;&gt;Node1 -->
<g id="edge1" class="edge">
<title>Node2&#45;&gt;Node1</title>
<path fill="none" stroke="midnightblue" d="M127.9,-135.64C158.86,-128.61 198.27,-119.21 233,-109.5 253.02,-103.9 275.33,-96.7 292.35,-91"/>
<polygon fill="midnightblue" stroke="midnightblue" points="126.73,-132.32 117.74,-137.93 128.27,-139.14 126.73,-132.32"/>
</g>
<!-- Node3 -->
<g id="node3" class="node">
<title>Node3</title>
<g id="a_node3"><a xlink:href="classRADCore_1_1Event.html" target="_top" xlink:title=" ">
<polygon fill="white" stroke="black" points="9.5,-88.5 9.5,-118.5 135.5,-118.5 135.5,-88.5 9.5,-88.5"/>
<text text-anchor="start" x="17.5" y="-106.5" font-family="Helvetica,sans-Serif" font-size="10.00">RADCore::Event&lt; void</text>
<text text-anchor="middle" x="72.5" y="-95.5" font-family="Helvetica,sans-Serif" font-size="10.00">(int) &gt;</text>
</a>
</g>
</g>
<!-- Node3&#45;&gt;Node1 -->
<g id="edge2" class="edge">
<title>Node3&#45;&gt;Node1</title>
<path fill="none" stroke="#9a32cd" stroke-dasharray="5,2" d="M145.79,-97.05C178.95,-94.09 218.09,-90.6 250.86,-87.67"/>
<polygon fill="#9a32cd" stroke="#9a32cd" points="145.35,-93.57 135.7,-97.95 145.97,-100.55 145.35,-93.57"/>
<text text-anchor="middle" x="198" y="-97.5" font-family="Helvetica,sans-Serif" font-size="10.00"> finished</text>
</g>
<!-- Node4 -->
<g id="node4" class="node">
<title>Node4</title>
<g id="a_node4"><a xlink:href="classRADCore_1_1Event.html" target="_top" xlink:title=" ">
<polygon fill="white" stroke="black" points="0,-50 0,-69 145,-69 145,-50 0,-50"/>
<text text-anchor="middle" x="72.5" y="-57" font-family="Helvetica,sans-Serif" font-size="10.00">RADCore::Event&lt; void() &gt;</text>
</a>
</g>
</g>
<!-- Node4&#45;&gt;Node1 -->
<g id="edge3" class="edge">
<title>Node4&#45;&gt;Node1</title>
<path fill="none" stroke="#9a32cd" stroke-dasharray="5,2" d="M155.44,-66.81C186.33,-69.57 221.12,-72.68 250.74,-75.32"/>
<polygon fill="#9a32cd" stroke="#9a32cd" points="155.4,-63.3 145.13,-65.89 154.78,-70.27 155.4,-63.3"/>
<text text-anchor="middle" x="198" y="-75.5" font-family="Helvetica,sans-Serif" font-size="10.00"> started</text>
</g>
<!-- Node5 -->
<g id="node5" class="node">
<title>Node5</title>
<g id="a_node5"><a xlink:href="classRADCore_1_1Event.html" target="_top" xlink:title=" ">
<polygon fill="white" stroke="black" points="9.5,-0.5 9.5,-30.5 135.5,-30.5 135.5,-0.5 9.5,-0.5"/>
<text text-anchor="start" x="17.5" y="-18.5" font-family="Helvetica,sans-Serif" font-size="10.00">RADCore::Event&lt; void</text>
<text text-anchor="middle" x="72.5" y="-7.5" font-family="Helvetica,sans-Serif" font-size="10.00">(std::string) &gt;</text>
</a>
</g>
</g>
<!-- Node5&#45;&gt;Node1 -->
<g id="edge4" class="edge">
<title>Node5&#45;&gt;Node1</title>
<path fill="none" stroke="#9a32cd" stroke-dasharray="5,2" d="M145.52,-30.7C173.03,-36.9 204.61,-44.5 233,-52.5 253.53,-58.29 276.41,-65.96 293.55,-71.96"/>
<polygon fill="#9a32cd" stroke="#9a32cd" points="146.1,-27.24 135.57,-28.48 144.57,-34.08 146.1,-27.24"/>
<text text-anchor="middle" x="198" y="-55.5" font-family="Helvetica,sans-Serif" font-size="10.00"> errorOccurred</text>
</g>
</g>
</svg>
