<?xml version="1.0" encoding="UTF-8" standalone="no"?>
<!DOCTYPE svg PUBLIC "-//W3C//DTD SVG 1.1//EN"
 "http://www.w3.org/Graphics/SVG/1.1/DTD/svg11.dtd">
<!-- Generated by graphviz version 2.43.0 (0)
 -->
<!-- Title: RADInput::InputManager Pages: 1 -->
<svg width="443pt" height="138pt"
 viewBox="0.00 0.00 443.00 138.00" xmlns="http://www.w3.org/2000/svg" xmlns:xlink="http://www.w3.org/1999/xlink">
<g id="graph0" class="graph" transform="scale(1 1) rotate(0) translate(4 134)">
<title>RADInput::InputManager</title>
<polygon fill="white" stroke="transparent" points="-4,4 -4,-134 439,-134 439,4 -4,4"/>
<!-- Node1 -->
<g id="node1" class="node">
<title>Node1</title>
<g id="a_node1"><a xlink:title="Input manager that reads evdev events and emits RADCore events.">
<polygon fill="#bfbfbf" stroke="black" points="299,-66.5 299,-85.5 435,-85.5 435,-66.5 299,-66.5"/>
<text text-anchor="middle" x="367" y="-73.5" font-family="Helvetica,sans-Serif" font-size="10.00">RADInput::InputManager</text>
</a>
</g>
</g>
<!-- Node2 -->
<g id="node2" class="node">
<title>Node2</title>
<g id="a_node2"><a xlink:href="classRADCore_1_1RADObject.html" target="_top" xlink:title="Base class for event receivers, senders, and thread&#45;affinity aware objects.">
<polygon fill="white" stroke="black" points="30,-110.5 30,-129.5 149,-129.5 149,-110.5 30,-110.5"/>
<text text-anchor="middle" x="89.5" y="-117.5" font-family="Helvetica,sans-Serif" font-size="10.00">RADCore::RADObject</text>
</a>
</g>
</g>
<!-- Node2&#45;&gt;Node1 -->
<g id="edge1" class="edge">
<title>Node2&#45;&gt;Node1</title>
<path fill="none" stroke="midnightblue" d="M159.31,-109.92C195.55,-104.52 240.72,-97.62 281,-91 291.35,-89.3 302.4,-87.41 312.98,-85.56"/>
<polygon fill="midnightblue" stroke="midnightblue" points="158.72,-106.47 149.34,-111.41 159.75,-113.4 158.72,-106.47"/>
</g>
<!-- Node3 -->
<g id="node3" class="node">
<title>Node3</title>
<g id="a_node3"><a xlink:href="classRADCore_1_1Event.html" target="_top" xlink:title=" ">
<polygon fill="white" stroke="black" points="0,-61 0,-91 179,-91 179,-61 0,-61"/>
<text text-anchor="start" x="8" y="-79" font-family="Helvetica,sans-Serif" font-size="10.00">RADCore::Event&lt; void</text>
<text text-anchor="middle" x="89.5" y="-68" font-family="Helvetica,sans-Serif" font-size="10.00">(const RADInput::InputEvent &amp;) &gt;</text>
</a>
</g>
</g>
<!-- Node3&#45;&gt;Node1 -->
<g id="edge2" class="edge">
<title>Node3&#45;&gt;Node1</title>
<path fill="none" stroke="#9a32cd" stroke-dasharray="5,2" d="M189.33,-76C225.68,-76 265.98,-76 298.89,-76"/>
<polygon fill="#9a32cd" stroke="#9a32cd" points="189.19,-72.5 179.19,-76 189.19,-79.5 189.19,-72.5"/>
<text text-anchor="middle" x="239" y="-79" font-family="Helvetica,sans-Serif" font-size="10.00"> eventReceived</text>
</g>
<!-- Node4 -->
<g id="node4" class="node">
<title>Node4</title>
<g id="a_node4"><a xlink:href="classRADCore_1_1Event.html" target="_top" xlink:title=" ">
<polygon fill="white" stroke="black" points="10.5,-0.5 10.5,-41.5 168.5,-41.5 168.5,-0.5 10.5,-0.5"/>
<text text-anchor="start" x="18.5" y="-29.5" font-family="Helvetica,sans-Serif" font-size="10.00">RADCore::Event&lt; void</text>
<text text-anchor="start" x="18.5" y="-18.5" font-family="Helvetica,sans-Serif" font-size="10.00">(const std::vector&lt; RADInput</text>
<text text-anchor="middle" x="89.5" y="-7.5" font-family="Helvetica,sans-Serif" font-size="10.00">::InputDeviceInfo &gt; &amp;) &gt;</text>
</a>
</g>
</g>
<!-- Node4&#45;&gt;Node1 -->
<g id="edge3" class="edge">
<title>Node4&#45;&gt;Node1</title>
<path fill="none" stroke="#9a32cd" stroke-dasharray="5,2" d="M178.75,-38.62C225.06,-47.86 279.97,-58.83 318.31,-66.48"/>
<polygon fill="#9a32cd" stroke="#9a32cd" points="179.2,-35.14 168.71,-36.61 177.83,-42 179.2,-35.14"/>
<text text-anchor="middle" x="239" y="-61" font-family="Helvetica,sans-Serif" font-size="10.00"> devicesChanged</text>
</g>
</g>
</svg>
