<?xml version="1.0" encoding="UTF-8" standalone="no"?>
<!DOCTYPE svg PUBLIC "-//W3C//DTD SVG 1.1//EN"
 "http://www.w3.org/Graphics/SVG/1.1/DTD/svg11.dtd">
<!-- Generated by graphviz version 2.43.0 (0)
 -->
<!-- Title: RADNet::RADProtocolClient Pages: 1 -->
<svg width="610pt" height="167pt"
 viewBox="0.00 0.00 610.00 166.50" xmlns="http://www.w3.org/2000/svg" xmlns:xlink="http://www.w3.org/1999/xlink">
<g id="graph0" class="graph" transform="scale(1 1) rotate(0) translate(4 162.5)">
<title>RADNet::RADProtocolClient</title>
<polygon fill="white" stroke="transparent" points="-4,4 -4,-162.5 606,-162.5 606,4 -4,4"/>
<!-- Node1 -->
<g id="node1" class="node">
<title>Node1</title>
<g id="a_node1"><a xlink:title="Framed protocol TCP client.">
<polygon fill="#bfbfbf" stroke="black" points="452,-72 452,-91 602,-91 602,-72 452,-72"/>
<text text-anchor="middle" x="527" y="-79" font-family="Helvetica,sans-Serif" font-size="10.00">RADNet::RADProtocolClient</text>
</a>
</g>
</g>
<!-- Node2 -->
<g id="node2" class="node">
<title>Node2</title>
<g id="a_node2"><a xlink:href="classRADNet_1_1RADProtocolSocket.html" target="_top" xlink:title="Protocol socket wrapper that frames RADTcpSocket byte streams.">
<polygon fill="white" stroke="black" points="261,-72 261,-91 415,-91 415,-72 261,-72"/>
<text text-anchor="middle" x="338" y="-79" font-family="Helvetica,sans-Serif" font-size="10.00">RADNet::RADProtocolSocket</text>
</a>
</g>
</g>
<!-- Node2&#45;&gt;Node1 -->
<g id="edge1" class="edge">
<title>Node2&#45;&gt;Node1</title>
<path fill="none" stroke="midnightblue" d="M425.09,-81.5C434.02,-81.5 443.04,-81.5 451.82,-81.5"/>
<polygon fill="midnightblue" stroke="midnightblue" points="425.06,-78 415.06,-81.5 425.06,-85 425.06,-78"/>
</g>
<!-- Node3 -->
<g id="node3" class="node">
<title>Node3</title>
<g id="a_node3"><a xlink:href="classRADCore_1_1RADObject.html" target="_top" xlink:title="Base class for event receivers, senders, and thread&#45;affinity aware objects.">
<polygon fill="white" stroke="black" points="14,-139 14,-158 133,-158 133,-139 14,-139"/>
<text text-anchor="middle" x="73.5" y="-146" font-family="Helvetica,sans-Serif" font-size="10.00">RADCore::RADObject</text>
</a>
</g>
</g>
<!-- Node3&#45;&gt;Node2 -->
<g id="edge2" class="edge">
<title>Node3&#45;&gt;Node2</title>
<path fill="none" stroke="midnightblue" d="M131.1,-136.88C163.93,-129.86 205.97,-120.37 243,-110.5 264.95,-104.65 289.46,-97.05 307.95,-91.1"/>
<polygon fill="midnightblue" stroke="midnightblue" points="130.28,-133.48 121.23,-138.98 131.73,-140.32 130.28,-133.48"/>
</g>
<!-- Node4 -->
<g id="node4" class="node">
<title>Node4</title>
<g id="a_node4"><a xlink:href="classRADCore_1_1Event.html" target="_top" xlink:title=" ">
<polygon fill="white" stroke="black" points="0,-89.5 0,-119.5 147,-119.5 147,-89.5 0,-89.5"/>
<text text-anchor="start" x="8" y="-107.5" font-family="Helvetica,sans-Serif" font-size="10.00">RADCore::Event&lt; void</text>
<text text-anchor="middle" x="73.5" y="-96.5" font-family="Helvetica,sans-Serif" font-size="10.00">(RADNet::RADTcpFrame) &gt;</text>
</a>
</g>
</g>
<!-- Node4&#45;&gt;Node2 -->
<g id="edge3" class="edge">
<title>Node4&#45;&gt;Node2</title>
<path fill="none" stroke="#9a32cd" stroke-dasharray="5,2" d="M157.39,-97.24C190.53,-94.33 228.45,-91.01 260.88,-88.17"/>
<polygon fill="#9a32cd" stroke="#9a32cd" points="156.93,-93.76 147.27,-98.12 157.54,-100.74 156.93,-93.76"/>
<text text-anchor="middle" x="204" y="-98.5" font-family="Helvetica,sans-Serif" font-size="10.00"> frameReceived</text>
</g>
<!-- Node5 -->
<g id="node5" class="node">
<title>Node5</title>
<g id="a_node5"><a xlink:href="classRADCore_1_1Event.html" target="_top" xlink:title=" ">
<polygon fill="white" stroke="black" points="1,-50 1,-69 146,-69 146,-50 1,-50"/>
<text text-anchor="middle" x="73.5" y="-57" font-family="Helvetica,sans-Serif" font-size="10.00">RADCore::Event&lt; void() &gt;</text>
</a>
</g>
</g>
<!-- Node5&#45;&gt;Node2 -->
<g id="edge4" class="edge">
<title>Node5&#45;&gt;Node2</title>
<path fill="none" stroke="#9a32cd" stroke-dasharray="5,2" d="M156.06,-56.48C183.73,-56.39 214.78,-57.3 243,-60.5 262.94,-62.76 284.84,-67.52 302.48,-71.93"/>
<polygon fill="#9a32cd" stroke="#9a32cd" points="156,-52.98 146.03,-56.56 156.06,-59.98 156,-52.98"/>
<text text-anchor="middle" x="204" y="-74.5" font-family="Helvetica,sans-Serif" font-size="10.00"> connected</text>
<text text-anchor="middle" x="204" y="-63.5" font-family="Helvetica,sans-Serif" font-size="10.00">disconnected</text>
</g>
<!-- Node6 -->
<g id="node6" class="node">
<title>Node6</title>
<g id="a_node6"><a xlink:href="classRADCore_1_1Event.html" target="_top" xlink:title=" ">
<polygon fill="white" stroke="black" points="10.5,-0.5 10.5,-30.5 136.5,-30.5 136.5,-0.5 10.5,-0.5"/>
<text text-anchor="start" x="18.5" y="-18.5" font-family="Helvetica,sans-Serif" font-size="10.00">RADCore::Event&lt; void</text>
<text text-anchor="middle" x="73.5" y="-7.5" font-family="Helvetica,sans-Serif" font-size="10.00">(std::string) &gt;</text>
</a>
</g>
</g>
<!-- Node6&#45;&gt;Node2 -->
<g id="edge5" class="edge">
<title>Node6&#45;&gt;Node2</title>
<path fill="none" stroke="#9a32cd" stroke-dasharray="5,2" d="M146.55,-22.61C176.72,-26.61 211.93,-32.64 243,-41.5 270.12,-49.23 299.81,-62.79 318.42,-71.95"/>
<polygon fill="#9a32cd" stroke="#9a32cd" points="146.88,-19.12 136.52,-21.32 146,-26.06 146.88,-19.12"/>
<text text-anchor="middle" x="204" y="-44.5" font-family="Helvetica,sans-Serif" font-size="10.00"> errorOccurred</text>
</g>
</g>
</svg>
