<?xml version="1.0" encoding="UTF-8" standalone="no"?>
<!DOCTYPE svg PUBLIC "-//W3C//DTD SVG 1.1//EN"
 "http://www.w3.org/Graphics/SVG/1.1/DTD/svg11.dtd">
<!-- Generated by graphviz version 2.43.0 (0)
 -->
<!-- Title: RADUi::Action Pages: 1 -->
<svg width="290pt" height="106pt"
 viewBox="0.00 0.00 290.00 106.00" xmlns="http://www.w3.org/2000/svg" xmlns:xlink="http://www.w3.org/1999/xlink">
<g id="graph0" class="graph" transform="scale(1 1) rotate(0) translate(4 102)">
<title>RADUi::Action</title>
<polygon fill="white" stroke="transparent" points="-4,4 -4,-102 286,-102 286,4 -4,4"/>
<!-- Node1 -->
<g id="node1" class="node">
<title>Node1</title>
<g id="a_node1"><a xlink:title="Backend&#45;neutral command/action model for buttons, menus, and toolbars.">
<polygon fill="#bfbfbf" stroke="black" points="92,-0.5 92,-19.5 177,-19.5 177,-0.5 92,-0.5"/>
<text text-anchor="middle" x="134.5" y="-7.5" font-family="Helvetica,sans-Serif" font-size="10.00">RADUi::Action</text>
</a>
</g>
</g>
<!-- Node2 -->
<g id="node2" class="node">
<title>Node2</title>
<g id="a_node2"><a xlink:href="classRADCore_1_1RADObject.html" target="_top" xlink:title="Base class for event receivers, senders, and thread&#45;affinity aware objects.">
<polygon fill="white" stroke="black" points="0,-78.5 0,-97.5 119,-97.5 119,-78.5 0,-78.5"/>
<text text-anchor="middle" x="59.5" y="-85.5" font-family="Helvetica,sans-Serif" font-size="10.00">RADCore::RADObject</text>
</a>
</g>
</g>
<!-- Node2&#45;&gt;Node1 -->
<g id="edge1" class="edge">
<title>Node2&#45;&gt;Node1</title>
<path fill="none" stroke="midnightblue" d="M75.41,-70.88C90.87,-55.22 113.73,-32.04 126,-19.62"/>
<polygon fill="midnightblue" stroke="midnightblue" points="72.64,-68.71 68.1,-78.28 77.62,-73.62 72.64,-68.71"/>
</g>
<!-- Node3 -->
<g id="node3" class="node">
<title>Node3</title>
<g id="a_node3"><a xlink:href="classRADCore_1_1Event.html" target="_top" xlink:title=" ">
<polygon fill="white" stroke="black" points="137,-78.5 137,-97.5 282,-97.5 282,-78.5 137,-78.5"/>
<text text-anchor="middle" x="209.5" y="-85.5" font-family="Helvetica,sans-Serif" font-size="10.00">RADCore::Event&lt; void() &gt;</text>
</a>
</g>
</g>
<!-- Node3&#45;&gt;Node1 -->
<g id="edge2" class="edge">
<title>Node3&#45;&gt;Node1</title>
<path fill="none" stroke="#9a32cd" stroke-dasharray="5,2" d="M193.59,-70.88C178.13,-55.22 155.27,-32.04 143,-19.62"/>
<polygon fill="#9a32cd" stroke="#9a32cd" points="191.38,-73.62 200.9,-78.28 196.36,-68.71 191.38,-73.62"/>
<text text-anchor="middle" x="203" y="-52" font-family="Helvetica,sans-Serif" font-size="10.00"> changed</text>
<text text-anchor="middle" x="203" y="-41" font-family="Helvetica,sans-Serif" font-size="10.00">triggered</text>
</g>
</g>
</svg>
