<?xml version="1.0" encoding="UTF-8" standalone="no"?>
<!DOCTYPE svg PUBLIC "-//W3C//DTD SVG 1.1//EN"
 "http://www.w3.org/Graphics/SVG/1.1/DTD/svg11.dtd">
<!-- Generated by graphviz version 2.43.0 (0)
 -->
<!-- Title: Graphical Class Hierarchy Pages: 1 -->
<svg width="321pt" height="66pt"
 viewBox="0.00 0.00 321.00 66.00" xmlns="http://www.w3.org/2000/svg" xmlns:xlink="http://www.w3.org/1999/xlink">
<g id="graph0" class="graph" transform="scale(1 1) rotate(0) translate(4 62)">
<title>Graphical Class Hierarchy</title>
<polygon fill="white" stroke="transparent" points="-4,4 -4,-62 317,-62 317,4 -4,4"/>
<!-- Node0 -->
<g id="node1" class="node">
<title>Node0</title>
<g id="a_node1"><a xlink:href="classRADUi_1_1PlotRenderer.html" target="_top" xlink:title="Abstract renderer that converts plot snapshots into images.">
<polygon fill="white" stroke="black" points="0,-19.5 0,-38.5 117,-38.5 117,-19.5 0,-19.5"/>
<text text-anchor="middle" x="58.5" y="-26.5" font-family="Helvetica,sans-Serif" font-size="10.00">RADUi::PlotRenderer</text>
</a>
</g>
</g>
<!-- Node1 -->
<g id="node2" class="node">
<title>Node1</title>
<g id="a_node2"><a xlink:href="classRADUi_1_1OpenGLPlotRenderer.html" target="_top" xlink:title="OpenGL renderer facade with software fallback.">
<polygon fill="white" stroke="black" points="155.5,-38.5 155.5,-57.5 310.5,-57.5 310.5,-38.5 155.5,-38.5"/>
<text text-anchor="middle" x="233" y="-45.5" font-family="Helvetica,sans-Serif" font-size="10.00">RADUi::OpenGLPlotRenderer</text>
</a>
</g>
</g>
<!-- Node0&#45;&gt;Node1 -->
<g id="edge1" class="edge">
<title>Node0&#45;&gt;Node1</title>
<path fill="none" stroke="midnightblue" d="M127.54,-36.49C136.63,-37.5 146.01,-38.53 155.24,-39.54"/>
<polygon fill="midnightblue" stroke="midnightblue" points="127.74,-33 117.42,-35.38 126.98,-39.95 127.74,-33"/>
</g>
<!-- Node2 -->
<g id="node3" class="node">
<title>Node2</title>
<g id="a_node3"><a xlink:href="classRADUi_1_1SoftwarePlotRenderer.html" target="_top" xlink:title="CPU renderer used by examples and as the OpenGL fallback.">
<polygon fill="white" stroke="black" points="153,-0.5 153,-19.5 313,-19.5 313,-0.5 153,-0.5"/>
<text text-anchor="middle" x="233" y="-7.5" font-family="Helvetica,sans-Serif" font-size="10.00">RADUi::SoftwarePlotRenderer</text>
</a>
</g>
</g>
<!-- Node0&#45;&gt;Node2 -->
<g id="edge2" class="edge">
<title>Node0&#45;&gt;Node2</title>
<path fill="none" stroke="midnightblue" d="M127.43,-21.52C135.75,-20.6 144.31,-19.66 152.77,-18.73"/>
<polygon fill="midnightblue" stroke="midnightblue" points="126.98,-18.05 117.42,-22.62 127.74,-25 126.98,-18.05"/>
</g>
</g>
</svg>
