<?xml version="1.0" encoding="UTF-8" standalone="no"?>
<!DOCTYPE svg PUBLIC "-//W3C//DTD SVG 1.1//EN"
 "http://www.w3.org/Graphics/SVG/1.1/DTD/svg11.dtd">
<!-- Generated by graphviz version 2.43.0 (0)
 -->
<!-- Title: /media/jvincent/Kingspec512/repos/RADLib/RADEmbeddedKernel/headers/radekernel/rad_cpp.h Pages: 1 -->
<svg width="230pt" height="162pt"
 viewBox="0.00 0.00 229.50 162.00" xmlns="http://www.w3.org/2000/svg" xmlns:xlink="http://www.w3.org/1999/xlink">
<g id="graph0" class="graph" transform="scale(1 1) rotate(0) translate(4 158)">
<title>/media/jvincent/Kingspec512/repos/RADLib/RADEmbeddedKernel/headers/radekernel/rad_cpp.h</title>
<polygon fill="white" stroke="transparent" points="-4,4 -4,-158 225.5,-158 225.5,4 -4,4"/>
<!-- Node1 -->
<g id="node1" class="node">
<title>Node1</title>
<g id="a_node1"><a xlink:title=" ">
<polygon fill="#bfbfbf" stroke="black" points="16.5,-112.5 16.5,-153.5 207.5,-153.5 207.5,-112.5 16.5,-112.5"/>
<text text-anchor="start" x="24.5" y="-141.5" font-family="Helvetica,sans-Serif" font-size="10.00">/media/jvincent/Kingspec512</text>
<text text-anchor="start" x="24.5" y="-130.5" font-family="Helvetica,sans-Serif" font-size="10.00">/repos/RADLib/RADEmbeddedKernel</text>
<text text-anchor="middle" x="112" y="-119.5" font-family="Helvetica,sans-Serif" font-size="10.00">/headers/radekernel/rad_cpp.h</text>
</a>
</g>
</g>
<!-- Node2 -->
<g id="node2" class="node">
<title>Node2</title>
<g id="a_node2"><a xlink:href="radekernel_8h.html" target="_top" xlink:title="Portable embedded kernel service ABI for RADLib.">
<polygon fill="white" stroke="black" points="46,-56.5 46,-75.5 178,-75.5 178,-56.5 46,-56.5"/>
<text text-anchor="middle" x="112" y="-63.5" font-family="Helvetica,sans-Serif" font-size="10.00">radekernel/radekernel.h</text>
</a>
</g>
</g>
<!-- Node1&#45;&gt;Node2 -->
<g id="edge1" class="edge">
<title>Node1&#45;&gt;Node2</title>
<path fill="none" stroke="midnightblue" d="M112,-112.5C112,-104.07 112,-94.24 112,-85.87"/>
<polygon fill="midnightblue" stroke="midnightblue" points="115.5,-85.65 112,-75.65 108.5,-85.65 115.5,-85.65"/>
</g>
<!-- Node3 -->
<g id="node3" class="node">
<title>Node3</title>
<g id="a_node3"><a xlink:title=" ">
<polygon fill="white" stroke="#bfbfbf" points="0,-0.5 0,-19.5 56,-19.5 56,-0.5 0,-0.5"/>
<text text-anchor="middle" x="28" y="-7.5" font-family="Helvetica,sans-Serif" font-size="10.00">stddef.h</text>
</a>
</g>
</g>
<!-- Node1&#45;&gt;Node3 -->
<g id="edge5" class="edge">
<title>Node1&#45;&gt;Node3</title>
<path fill="none" stroke="midnightblue" d="M74.34,-112.39C60.4,-103.21 45.84,-90.97 37,-76 28.76,-62.05 26.9,-43.55 26.87,-29.85"/>
<polygon fill="midnightblue" stroke="midnightblue" points="30.37,-29.78 27.18,-19.68 23.38,-29.57 30.37,-29.78"/>
</g>
<!-- Node4 -->
<g id="node4" class="node">
<title>Node4</title>
<g id="a_node4"><a xlink:title=" ">
<polygon fill="white" stroke="#bfbfbf" points="168.5,-0.5 168.5,-19.5 221.5,-19.5 221.5,-0.5 168.5,-0.5"/>
<text text-anchor="middle" x="195" y="-7.5" font-family="Helvetica,sans-Serif" font-size="10.00">stdint.h</text>
</a>
</g>
</g>
<!-- Node1&#45;&gt;Node4 -->
<g id="edge6" class="edge">
<title>Node1&#45;&gt;Node4</title>
<path fill="none" stroke="midnightblue" d="M149.77,-112.45C163.74,-103.29 178.27,-91.04 187,-76 195.12,-62.02 196.68,-43.52 196.47,-29.83"/>
<polygon fill="midnightblue" stroke="midnightblue" points="199.96,-29.49 195.99,-19.67 192.97,-29.82 199.96,-29.49"/>
</g>
<!-- Node2&#45;&gt;Node3 -->
<g id="edge2" class="edge">
<title>Node2&#45;&gt;Node3</title>
<path fill="none" stroke="midnightblue" d="M98.5,-56.32C85.4,-47.9 65.29,-34.97 49.89,-25.07"/>
<polygon fill="midnightblue" stroke="midnightblue" points="51.77,-22.12 41.46,-19.65 47.98,-28.01 51.77,-22.12"/>
</g>
<!-- Node2&#45;&gt;Node4 -->
<g id="edge3" class="edge">
<title>Node2&#45;&gt;Node4</title>
<path fill="none" stroke="midnightblue" d="M125.34,-56.32C138.16,-47.98 157.78,-35.21 172.94,-25.35"/>
<polygon fill="midnightblue" stroke="midnightblue" points="175.22,-28.04 181.7,-19.65 171.41,-22.17 175.22,-28.04"/>
</g>
<!-- Node5 -->
<g id="node5" class="node">
<title>Node5</title>
<g id="a_node5"><a xlink:title=" ">
<polygon fill="white" stroke="#bfbfbf" points="84,-0.5 84,-19.5 140,-19.5 140,-0.5 84,-0.5"/>
<text text-anchor="middle" x="112" y="-7.5" font-family="Helvetica,sans-Serif" font-size="10.00">stdarg.h</text>
</a>
</g>
</g>
<!-- Node2&#45;&gt;Node5 -->
<g id="edge4" class="edge">
<title>Node2&#45;&gt;Node5</title>
<path fill="none" stroke="midnightblue" d="M112,-56.08C112,-49.01 112,-38.86 112,-29.99"/>
<polygon fill="midnightblue" stroke="midnightblue" points="115.5,-29.75 112,-19.75 108.5,-29.75 115.5,-29.75"/>
</g>
</g>
</svg>
