<?xml version="1.0" encoding="UTF-8" standalone="no"?>
<!DOCTYPE svg PUBLIC "-//W3C//DTD SVG 1.1//EN"
 "http://www.w3.org/Graphics/SVG/1.1/DTD/svg11.dtd">
<!-- Generated by graphviz version 2.43.0 (0)
 -->
<!-- Title: /media/jvincent/Kingspec512/repos/RADLib/RADUi/headers/RADAppKit.h Pages: 1 -->
<svg width="590pt" height="106pt"
 viewBox="0.00 0.00 589.50 106.00" xmlns="http://www.w3.org/2000/svg" xmlns:xlink="http://www.w3.org/1999/xlink">
<g id="graph0" class="graph" transform="scale(1 1) rotate(0) translate(4 102)">
<title>/media/jvincent/Kingspec512/repos/RADLib/RADUi/headers/RADAppKit.h</title>
<polygon fill="white" stroke="transparent" points="-4,4 -4,-102 585.5,-102 585.5,4 -4,4"/>
<!-- Node1 -->
<g id="node1" class="node">
<title>Node1</title>
<g id="a_node1"><a xlink:title="Application&#45;shell, dock, workspace, command, notification, file, log, and virtual data models.">
<polygon fill="#bfbfbf" stroke="black" points="280.5,-56.5 280.5,-97.5 441.5,-97.5 441.5,-56.5 280.5,-56.5"/>
<text text-anchor="start" x="288.5" y="-85.5" font-family="Helvetica,sans-Serif" font-size="10.00">/media/jvincent/Kingspec512</text>
<text text-anchor="start" x="288.5" y="-74.5" font-family="Helvetica,sans-Serif" font-size="10.00">/repos/RADLib/RADUi/headers</text>
<text text-anchor="middle" x="361" y="-63.5" font-family="Helvetica,sans-Serif" font-size="10.00">/RADAppKit.h</text>
</a>
</g>
</g>
<!-- Node2 -->
<g id="node2" class="node">
<title>Node2</title>
<g id="a_node2"><a xlink:title=" ">
<polygon fill="white" stroke="#bfbfbf" points="0,-0.5 0,-19.5 116,-19.5 116,-0.5 0,-0.5"/>
<text text-anchor="middle" x="58" y="-7.5" font-family="Helvetica,sans-Serif" font-size="10.00">RADCore/RADCore.h</text>
</a>
</g>
</g>
<!-- Node1&#45;&gt;Node2 -->
<g id="edge1" class="edge">
<title>Node1&#45;&gt;Node2</title>
<path fill="none" stroke="midnightblue" d="M280.2,-58.67C225.32,-46.89 154.49,-31.7 107.73,-21.67"/>
<polygon fill="midnightblue" stroke="midnightblue" points="108.35,-18.22 97.84,-19.55 106.88,-25.07 108.35,-18.22"/>
</g>
<!-- Node3 -->
<g id="node3" class="node">
<title>Node3</title>
<g id="a_node3"><a xlink:title=" ">
<polygon fill="white" stroke="#bfbfbf" points="134.5,-0.5 134.5,-19.5 255.5,-19.5 255.5,-0.5 134.5,-0.5"/>
<text text-anchor="middle" x="195" y="-7.5" font-family="Helvetica,sans-Serif" font-size="10.00">RADUi/RADWidgets.h</text>
</a>
</g>
</g>
<!-- Node1&#45;&gt;Node3 -->
<g id="edge2" class="edge">
<title>Node1&#45;&gt;Node3</title>
<path fill="none" stroke="midnightblue" d="M311.19,-56.5C283.79,-45.77 250.6,-32.77 226.72,-23.42"/>
<polygon fill="midnightblue" stroke="midnightblue" points="227.68,-20.04 217.1,-19.65 225.13,-26.56 227.68,-20.04"/>
</g>
<!-- Node4 -->
<g id="node4" class="node">
<title>Node4</title>
<g id="a_node4"><a xlink:title=" ">
<polygon fill="white" stroke="#bfbfbf" points="274,-0.5 274,-19.5 324,-19.5 324,-0.5 274,-0.5"/>
<text text-anchor="middle" x="299" y="-7.5" font-family="Helvetica,sans-Serif" font-size="10.00">cstdint</text>
</a>
</g>
</g>
<!-- Node1&#45;&gt;Node4 -->
<g id="edge3" class="edge">
<title>Node1&#45;&gt;Node4</title>
<path fill="none" stroke="midnightblue" d="M342.4,-56.5C333.44,-47.11 322.83,-35.98 314.34,-27.08"/>
<polygon fill="midnightblue" stroke="midnightblue" points="316.69,-24.47 307.25,-19.65 311.62,-29.3 316.69,-24.47"/>
</g>
<!-- Node5 -->
<g id="node5" class="node">
<title>Node5</title>
<g id="a_node5"><a xlink:title=" ">
<polygon fill="white" stroke="#bfbfbf" points="342,-0.5 342,-19.5 380,-19.5 380,-0.5 342,-0.5"/>
<text text-anchor="middle" x="361" y="-7.5" font-family="Helvetica,sans-Serif" font-size="10.00">map</text>
</a>
</g>
</g>
<!-- Node1&#45;&gt;Node5 -->
<g id="edge4" class="edge">
<title>Node1&#45;&gt;Node5</title>
<path fill="none" stroke="midnightblue" d="M361,-56.5C361,-48.07 361,-38.24 361,-29.87"/>
<polygon fill="midnightblue" stroke="midnightblue" points="364.5,-29.65 361,-19.65 357.5,-29.65 364.5,-29.65"/>
</g>
<!-- Node6 -->
<g id="node6" class="node">
<title>Node6</title>
<g id="a_node6"><a xlink:title=" ">
<polygon fill="white" stroke="#bfbfbf" points="398,-0.5 398,-19.5 454,-19.5 454,-0.5 398,-0.5"/>
<text text-anchor="middle" x="426" y="-7.5" font-family="Helvetica,sans-Serif" font-size="10.00">optional</text>
</a>
</g>
</g>
<!-- Node1&#45;&gt;Node6 -->
<g id="edge5" class="edge">
<title>Node1&#45;&gt;Node6</title>
<path fill="none" stroke="midnightblue" d="M380.5,-56.5C389.99,-47.01 401.24,-35.76 410.19,-26.81"/>
<polygon fill="midnightblue" stroke="midnightblue" points="412.75,-29.2 417.35,-19.65 407.8,-24.25 412.75,-29.2"/>
</g>
<!-- Node7 -->
<g id="node7" class="node">
<title>Node7</title>
<g id="a_node7"><a xlink:title=" ">
<polygon fill="white" stroke="#bfbfbf" points="472,-0.5 472,-19.5 516,-19.5 516,-0.5 472,-0.5"/>
<text text-anchor="middle" x="494" y="-7.5" font-family="Helvetica,sans-Serif" font-size="10.00">string</text>
</a>
</g>
</g>
<!-- Node1&#45;&gt;Node7 -->
<g id="edge6" class="edge">
<title>Node1&#45;&gt;Node7</title>
<path fill="none" stroke="midnightblue" d="M400.9,-56.5C422.37,-46.01 448.27,-33.35 467.3,-24.05"/>
<polygon fill="midnightblue" stroke="midnightblue" points="468.85,-27.19 476.3,-19.65 465.77,-20.9 468.85,-27.19"/>
</g>
<!-- Node8 -->
<g id="node8" class="node">
<title>Node8</title>
<g id="a_node8"><a xlink:title=" ">
<polygon fill="white" stroke="#bfbfbf" points="534.5,-0.5 534.5,-19.5 581.5,-19.5 581.5,-0.5 534.5,-0.5"/>
<text text-anchor="middle" x="558" y="-7.5" font-family="Helvetica,sans-Serif" font-size="10.00">vector</text>
</a>
</g>
</g>
<!-- Node1&#45;&gt;Node8 -->
<g id="edge7" class="edge">
<title>Node1&#45;&gt;Node8</title>
<path fill="none" stroke="midnightblue" d="M420.11,-56.5C454.37,-45.19 496.26,-31.37 524.81,-21.95"/>
<polygon fill="midnightblue" stroke="midnightblue" points="525.92,-25.27 534.32,-18.81 523.73,-18.62 525.92,-25.27"/>
</g>
</g>
</svg>
