<?xml version="1.0" encoding="UTF-8" standalone="no"?>
<!DOCTYPE svg PUBLIC "-//W3C//DTD SVG 1.1//EN"
 "http://www.w3.org/Graphics/SVG/1.1/DTD/svg11.dtd">
<!-- Generated by graphviz version 2.43.0 (0)
 -->
<!-- Title: /media/jvincent/Kingspec512/repos/RADLib/RADCore/headers/RADCore.h Pages: 1 -->
<svg width="2160pt" height="106pt"
 viewBox="0.00 0.00 2159.50 106.00" xmlns="http://www.w3.org/2000/svg" xmlns:xlink="http://www.w3.org/1999/xlink">
<g id="graph0" class="graph" transform="scale(1 1) rotate(0) translate(4 102)">
<title>/media/jvincent/Kingspec512/repos/RADLib/RADCore/headers/RADCore.h</title>
<polygon fill="white" stroke="transparent" points="-4,4 -4,-102 2155.5,-102 2155.5,4 -4,4"/>
<!-- Node1 -->
<g id="node1" class="node">
<title>Node1</title>
<g id="a_node1"><a xlink:title="Core RADLib primitives: events, event loops, timers, IO, JSON, settings, filesystem helpers,...">
<polygon fill="#bfbfbf" stroke="black" points="944,-56.5 944,-97.5 1117,-97.5 1117,-56.5 944,-56.5"/>
<text text-anchor="start" x="952" y="-85.5" font-family="Helvetica,sans-Serif" font-size="10.00">/media/jvincent/Kingspec512</text>
<text text-anchor="start" x="952" y="-74.5" font-family="Helvetica,sans-Serif" font-size="10.00">/repos/RADLib/RADCore/headers</text>
<text text-anchor="middle" x="1030.5" y="-63.5" font-family="Helvetica,sans-Serif" font-size="10.00">/RADCore.h</text>
</a>
</g>
</g>
<!-- Node2 -->
<g id="node2" class="node">
<title>Node2</title>
<g id="a_node2"><a xlink:title=" ">
<polygon fill="white" stroke="#bfbfbf" points="0,-0.5 0,-19.5 153,-19.5 153,-0.5 0,-0.5"/>
<text text-anchor="middle" x="76.5" y="-7.5" font-family="Helvetica,sans-Serif" font-size="10.00">RADCore/RADLicenseGate.h</text>
</a>
</g>
</g>
<!-- Node1&#45;&gt;Node2 -->
<g id="edge1" class="edge">
<title>Node1&#45;&gt;Node2</title>
<path fill="none" stroke="midnightblue" d="M943.87,-71.56C789.43,-63.38 456.14,-44.6 163.76,-20.07"/>
<polygon fill="midnightblue" stroke="midnightblue" points="163.64,-16.55 153.38,-19.2 163.05,-23.53 163.64,-16.55"/>
</g>
<!-- Node3 -->
<g id="node3" class="node">
<title>Node3</title>
<g id="a_node3"><a xlink:title=" ">
<polygon fill="white" stroke="#bfbfbf" points="171.5,-0.5 171.5,-19.5 231.5,-19.5 231.5,-0.5 171.5,-0.5"/>
<text text-anchor="middle" x="201.5" y="-7.5" font-family="Helvetica,sans-Serif" font-size="10.00">iostream</text>
</a>
</g>
</g>
<!-- Node1&#45;&gt;Node3 -->
<g id="edge2" class="edge">
<title>Node1&#45;&gt;Node3</title>
<path fill="none" stroke="midnightblue" d="M943.8,-74.27C799.74,-70.43 501.95,-58.35 241.67,-19.94"/>
<polygon fill="midnightblue" stroke="midnightblue" points="242.05,-16.46 231.64,-18.45 241.02,-23.38 242.05,-16.46"/>
</g>
<!-- Node4 -->
<g id="node4" class="node">
<title>Node4</title>
<g id="a_node4"><a xlink:title=" ">
<polygon fill="white" stroke="#bfbfbf" points="249.5,-0.5 249.5,-19.5 291.5,-19.5 291.5,-0.5 249.5,-0.5"/>
<text text-anchor="middle" x="270.5" y="-7.5" font-family="Helvetica,sans-Serif" font-size="10.00">array</text>
</a>
</g>
</g>
<!-- Node1&#45;&gt;Node4 -->
<g id="edge3" class="edge">
<title>Node1&#45;&gt;Node4</title>
<path fill="none" stroke="midnightblue" d="M943.75,-75.35C808.15,-73.01 537.91,-63.02 301.82,-19.85"/>
<polygon fill="midnightblue" stroke="midnightblue" points="302.14,-16.34 291.67,-17.96 300.86,-23.23 302.14,-16.34"/>
</g>
<!-- Node5 -->
<g id="node5" class="node">
<title>Node5</title>
<g id="a_node5"><a xlink:title=" ">
<polygon fill="white" stroke="#bfbfbf" points="310,-0.5 310,-19.5 357,-19.5 357,-0.5 310,-0.5"/>
<text text-anchor="middle" x="333.5" y="-7.5" font-family="Helvetica,sans-Serif" font-size="10.00">vector</text>
</a>
</g>
</g>
<!-- Node1&#45;&gt;Node5 -->
<g id="edge4" class="edge">
<title>Node1&#45;&gt;Node5</title>
<path fill="none" stroke="midnightblue" d="M944,-73.96C818.44,-69.83 578.5,-57.57 367.19,-20"/>
<polygon fill="midnightblue" stroke="midnightblue" points="367.61,-16.52 357.15,-18.19 366.37,-23.41 367.61,-16.52"/>
</g>
<!-- Node6 -->
<g id="node6" class="node">
<title>Node6</title>
<g id="a_node6"><a xlink:title=" ">
<polygon fill="white" stroke="#bfbfbf" points="375,-0.5 375,-19.5 440,-19.5 440,-0.5 375,-0.5"/>
<text text-anchor="middle" x="407.5" y="-7.5" font-family="Helvetica,sans-Serif" font-size="10.00">functional</text>
</a>
</g>
</g>
<!-- Node1&#45;&gt;Node6 -->
<g id="edge5" class="edge">
<title>Node1&#45;&gt;Node6</title>
<path fill="none" stroke="midnightblue" d="M943.81,-70.92C831.8,-63.63 630.66,-48.06 450.05,-20.08"/>
<polygon fill="midnightblue" stroke="midnightblue" points="450.53,-16.62 440.11,-18.53 449.45,-23.53 450.53,-16.62"/>
</g>
<!-- Node7 -->
<g id="node7" class="node">
<title>Node7</title>
<g id="a_node7"><a xlink:title=" ">
<polygon fill="white" stroke="#bfbfbf" points="458,-0.5 458,-19.5 505,-19.5 505,-0.5 458,-0.5"/>
<text text-anchor="middle" x="481.5" y="-7.5" font-family="Helvetica,sans-Serif" font-size="10.00">queue</text>
</a>
</g>
</g>
<!-- Node1&#45;&gt;Node7 -->
<g id="edge6" class="edge">
<title>Node1&#45;&gt;Node7</title>
<path fill="none" stroke="midnightblue" d="M943.61,-70.78C842.76,-63.77 671.46,-48.95 515.44,-19.88"/>
<polygon fill="midnightblue" stroke="midnightblue" points="515.66,-16.36 505.19,-17.94 514.37,-23.24 515.66,-16.36"/>
</g>
<!-- Node8 -->
<g id="node8" class="node">
<title>Node8</title>
<g id="a_node8"><a xlink:title=" ">
<polygon fill="white" stroke="#bfbfbf" points="523.5,-0.5 523.5,-19.5 571.5,-19.5 571.5,-0.5 523.5,-0.5"/>
<text text-anchor="middle" x="547.5" y="-7.5" font-family="Helvetica,sans-Serif" font-size="10.00">mutex</text>
</a>
</g>
</g>
<!-- Node1&#45;&gt;Node8 -->
<g id="edge7" class="edge">
<title>Node1&#45;&gt;Node8</title>
<path fill="none" stroke="midnightblue" d="M943.65,-68.89C854.81,-60.78 712.76,-45.49 581.4,-19.92"/>
<polygon fill="midnightblue" stroke="midnightblue" points="582.04,-16.48 571.56,-17.99 580.69,-23.35 582.04,-16.48"/>
</g>
<!-- Node9 -->
<g id="node9" class="node">
<title>Node9</title>
<g id="a_node9"><a xlink:title=" ">
<polygon fill="white" stroke="#bfbfbf" points="589.5,-0.5 589.5,-19.5 627.5,-19.5 627.5,-0.5 589.5,-0.5"/>
<text text-anchor="middle" x="608.5" y="-7.5" font-family="Helvetica,sans-Serif" font-size="10.00">map</text>
</a>
</g>
</g>
<!-- Node1&#45;&gt;Node9 -->
<g id="edge8" class="edge">
<title>Node1&#45;&gt;Node9</title>
<path fill="none" stroke="midnightblue" d="M943.64,-67.94C865.64,-59.72 748,-44.91 637.63,-19.92"/>
<polygon fill="midnightblue" stroke="midnightblue" points="638.19,-16.46 627.66,-17.63 636.62,-23.28 638.19,-16.46"/>
</g>
<!-- Node10 -->
<g id="node10" class="node">
<title>Node10</title>
<g id="a_node10"><a xlink:title=" ">
<polygon fill="white" stroke="#bfbfbf" points="645.5,-0.5 645.5,-19.5 695.5,-19.5 695.5,-0.5 645.5,-0.5"/>
<text text-anchor="middle" x="670.5" y="-7.5" font-family="Helvetica,sans-Serif" font-size="10.00">chrono</text>
</a>
</g>
</g>
<!-- Node1&#45;&gt;Node10 -->
<g id="edge9" class="edge">
<title>Node1&#45;&gt;Node10</title>
<path fill="none" stroke="midnightblue" d="M943.96,-63.27C880.47,-53.44 792.01,-38.71 705.66,-20.1"/>
<polygon fill="midnightblue" stroke="midnightblue" points="706.21,-16.64 695.69,-17.93 704.72,-23.48 706.21,-16.64"/>
</g>
<!-- Node11 -->
<g id="node11" class="node">
<title>Node11</title>
<g id="a_node11"><a xlink:title=" ">
<polygon fill="white" stroke="#bfbfbf" points="713.5,-0.5 713.5,-19.5 761.5,-19.5 761.5,-0.5 713.5,-0.5"/>
<text text-anchor="middle" x="737.5" y="-7.5" font-family="Helvetica,sans-Serif" font-size="10.00">thread</text>
</a>
</g>
</g>
<!-- Node1&#45;&gt;Node11 -->
<g id="edge10" class="edge">
<title>Node1&#45;&gt;Node11</title>
<path fill="none" stroke="midnightblue" d="M943.86,-58.56C895.65,-48.57 834.36,-35.39 771.33,-20.11"/>
<polygon fill="midnightblue" stroke="midnightblue" points="772.16,-16.71 761.61,-17.74 770.5,-23.51 772.16,-16.71"/>
</g>
<!-- Node12 -->
<g id="node12" class="node">
<title>Node12</title>
<g id="a_node12"><a xlink:title=" ">
<polygon fill="white" stroke="#bfbfbf" points="779.5,-0.5 779.5,-19.5 829.5,-19.5 829.5,-0.5 779.5,-0.5"/>
<text text-anchor="middle" x="804.5" y="-7.5" font-family="Helvetica,sans-Serif" font-size="10.00">atomic</text>
</a>
</g>
</g>
<!-- Node1&#45;&gt;Node12 -->
<g id="edge11" class="edge">
<title>Node1&#45;&gt;Node12</title>
<path fill="none" stroke="midnightblue" d="M962.69,-56.5C922.22,-44.86 872.48,-30.55 839.71,-21.13"/>
<polygon fill="midnightblue" stroke="midnightblue" points="840.27,-17.65 829.69,-18.25 838.34,-24.37 840.27,-17.65"/>
</g>
<!-- Node13 -->
<g id="node13" class="node">
<title>Node13</title>
<g id="a_node13"><a xlink:title=" ">
<polygon fill="white" stroke="#bfbfbf" points="847.5,-0.5 847.5,-19.5 905.5,-19.5 905.5,-0.5 847.5,-0.5"/>
<text text-anchor="middle" x="876.5" y="-7.5" font-family="Helvetica,sans-Serif" font-size="10.00">memory</text>
</a>
</g>
</g>
<!-- Node1&#45;&gt;Node13 -->
<g id="edge12" class="edge">
<title>Node1&#45;&gt;Node13</title>
<path fill="none" stroke="midnightblue" d="M984.29,-56.5C958.98,-45.81 928.35,-32.89 906.22,-23.54"/>
<polygon fill="midnightblue" stroke="midnightblue" points="907.57,-20.32 897,-19.65 904.85,-26.77 907.57,-20.32"/>
</g>
<!-- Node14 -->
<g id="node14" class="node">
<title>Node14</title>
<g id="a_node14"><a xlink:title=" ">
<polygon fill="white" stroke="#bfbfbf" points="923.5,-0.5 923.5,-19.5 987.5,-19.5 987.5,-0.5 923.5,-0.5"/>
<text text-anchor="middle" x="955.5" y="-7.5" font-family="Helvetica,sans-Serif" font-size="10.00">algorithm</text>
</a>
</g>
</g>
<!-- Node1&#45;&gt;Node14 -->
<g id="edge13" class="edge">
<title>Node1&#45;&gt;Node14</title>
<path fill="none" stroke="midnightblue" d="M1008,-56.5C996.83,-46.82 983.54,-35.3 973.12,-26.27"/>
<polygon fill="midnightblue" stroke="midnightblue" points="975.33,-23.56 965.48,-19.65 970.75,-28.85 975.33,-23.56"/>
</g>
<!-- Node15 -->
<g id="node15" class="node">
<title>Node15</title>
<g id="a_node15"><a xlink:title=" ">
<polygon fill="white" stroke="#bfbfbf" points="1005.5,-0.5 1005.5,-19.5 1055.5,-19.5 1055.5,-0.5 1005.5,-0.5"/>
<text text-anchor="middle" x="1030.5" y="-7.5" font-family="Helvetica,sans-Serif" font-size="10.00">cstdint</text>
</a>
</g>
</g>
<!-- Node1&#45;&gt;Node15 -->
<g id="edge14" class="edge">
<title>Node1&#45;&gt;Node15</title>
<path fill="none" stroke="midnightblue" d="M1030.5,-56.5C1030.5,-48.07 1030.5,-38.24 1030.5,-29.87"/>
<polygon fill="midnightblue" stroke="midnightblue" points="1034,-29.65 1030.5,-19.65 1027,-29.65 1034,-29.65"/>
</g>
<!-- Node16 -->
<g id="node16" class="node">
<title>Node16</title>
<g id="a_node16"><a xlink:title=" ">
<polygon fill="white" stroke="#bfbfbf" points="1073.5,-0.5 1073.5,-19.5 1129.5,-19.5 1129.5,-0.5 1073.5,-0.5"/>
<text text-anchor="middle" x="1101.5" y="-7.5" font-family="Helvetica,sans-Serif" font-size="10.00">sstream</text>
</a>
</g>
</g>
<!-- Node1&#45;&gt;Node16 -->
<g id="edge15" class="edge">
<title>Node1&#45;&gt;Node16</title>
<path fill="none" stroke="midnightblue" d="M1051.8,-56.5C1062.27,-46.92 1074.71,-35.53 1084.52,-26.54"/>
<polygon fill="midnightblue" stroke="midnightblue" points="1087.04,-28.99 1092.05,-19.65 1082.31,-23.82 1087.04,-28.99"/>
</g>
<!-- Node17 -->
<g id="node17" class="node">
<title>Node17</title>
<g id="a_node17"><a xlink:title=" ">
<polygon fill="white" stroke="#bfbfbf" points="1147.5,-0.5 1147.5,-19.5 1233.5,-19.5 1233.5,-0.5 1147.5,-0.5"/>
<text text-anchor="middle" x="1190.5" y="-7.5" font-family="Helvetica,sans-Serif" font-size="10.00">shared_mutex</text>
</a>
</g>
</g>
<!-- Node1&#45;&gt;Node17 -->
<g id="edge16" class="edge">
<title>Node1&#45;&gt;Node17</title>
<path fill="none" stroke="midnightblue" d="M1078.51,-56.5C1104.92,-45.77 1136.91,-32.77 1159.93,-23.42"/>
<polygon fill="midnightblue" stroke="midnightblue" points="1161.25,-26.66 1169.2,-19.65 1158.62,-20.17 1161.25,-26.66"/>
</g>
<!-- Node18 -->
<g id="node18" class="node">
<title>Node18</title>
<g id="a_node18"><a xlink:title=" ">
<polygon fill="white" stroke="#bfbfbf" points="1251.5,-0.5 1251.5,-19.5 1297.5,-19.5 1297.5,-0.5 1251.5,-0.5"/>
<text text-anchor="middle" x="1274.5" y="-7.5" font-family="Helvetica,sans-Serif" font-size="10.00">future</text>
</a>
</g>
</g>
<!-- Node1&#45;&gt;Node18 -->
<g id="edge17" class="edge">
<title>Node1&#45;&gt;Node18</title>
<path fill="none" stroke="midnightblue" d="M1105.64,-56.46C1143.75,-46.48 1191.01,-33.99 1241.62,-20.21"/>
<polygon fill="midnightblue" stroke="midnightblue" points="1242.71,-23.54 1251.44,-17.53 1240.87,-16.79 1242.71,-23.54"/>
</g>
<!-- Node19 -->
<g id="node19" class="node">
<title>Node19</title>
<g id="a_node19"><a xlink:title=" ">
<polygon fill="white" stroke="#bfbfbf" points="1316,-0.5 1316,-19.5 1385,-19.5 1385,-0.5 1316,-0.5"/>
<text text-anchor="middle" x="1350.5" y="-7.5" font-family="Helvetica,sans-Serif" font-size="10.00">type_traits</text>
</a>
</g>
</g>
<!-- Node1&#45;&gt;Node19 -->
<g id="edge18" class="edge">
<title>Node1&#45;&gt;Node19</title>
<path fill="none" stroke="midnightblue" d="M1117.21,-58.44C1169.04,-47.94 1236.47,-34.26 1305.69,-20.16"/>
<polygon fill="midnightblue" stroke="midnightblue" points="1306.81,-23.51 1315.91,-18.08 1305.42,-16.65 1306.81,-23.51"/>
</g>
<!-- Node20 -->
<g id="node20" class="node">
<title>Node20</title>
<g id="a_node20"><a xlink:title=" ">
<polygon fill="white" stroke="#bfbfbf" points="1403.5,-0.5 1403.5,-19.5 1459.5,-19.5 1459.5,-0.5 1403.5,-0.5"/>
<text text-anchor="middle" x="1431.5" y="-7.5" font-family="Helvetica,sans-Serif" font-size="10.00">optional</text>
</a>
</g>
</g>
<!-- Node1&#45;&gt;Node20 -->
<g id="edge19" class="edge">
<title>Node1&#45;&gt;Node20</title>
<path fill="none" stroke="midnightblue" d="M1117.28,-64.79C1188.88,-55.04 1293.28,-39.7 1393.3,-20.1"/>
<polygon fill="midnightblue" stroke="midnightblue" points="1394.14,-23.5 1403.27,-18.13 1392.78,-16.64 1394.14,-23.5"/>
</g>
<!-- Node21 -->
<g id="node21" class="node">
<title>Node21</title>
<g id="a_node21"><a xlink:title=" ">
<polygon fill="white" stroke="#bfbfbf" points="1477.5,-0.5 1477.5,-19.5 1521.5,-19.5 1521.5,-0.5 1477.5,-0.5"/>
<text text-anchor="middle" x="1499.5" y="-7.5" font-family="Helvetica,sans-Serif" font-size="10.00">string</text>
</a>
</g>
</g>
<!-- Node1&#45;&gt;Node21 -->
<g id="edge20" class="edge">
<title>Node1&#45;&gt;Node21</title>
<path fill="none" stroke="midnightblue" d="M1117.18,-68.92C1203.76,-60.94 1340.68,-45.86 1467.37,-19.95"/>
<polygon fill="midnightblue" stroke="midnightblue" points="1468.17,-23.36 1477.25,-17.91 1466.75,-16.51 1468.17,-23.36"/>
</g>
<!-- Node22 -->
<g id="node22" class="node">
<title>Node22</title>
<g id="a_node22"><a xlink:title=" ">
<polygon fill="white" stroke="#bfbfbf" points="1539.5,-0.5 1539.5,-19.5 1607.5,-19.5 1607.5,-0.5 1539.5,-0.5"/>
<text text-anchor="middle" x="1573.5" y="-7.5" font-family="Helvetica,sans-Serif" font-size="10.00">filesystem</text>
</a>
</g>
</g>
<!-- Node1&#45;&gt;Node22 -->
<g id="edge21" class="edge">
<title>Node1&#45;&gt;Node22</title>
<path fill="none" stroke="midnightblue" d="M1117.1,-68.81C1214.92,-60.12 1379.01,-43.84 1529.4,-20.04"/>
<polygon fill="midnightblue" stroke="midnightblue" points="1529.96,-23.5 1539.29,-18.47 1528.86,-16.59 1529.96,-23.5"/>
</g>
<!-- Node23 -->
<g id="node23" class="node">
<title>Node23</title>
<g id="a_node23"><a xlink:title=" ">
<polygon fill="white" stroke="#bfbfbf" points="1626,-0.5 1626,-19.5 1677,-19.5 1677,-0.5 1626,-0.5"/>
<text text-anchor="middle" x="1651.5" y="-7.5" font-family="Helvetica,sans-Serif" font-size="10.00">variant</text>
</a>
</g>
</g>
<!-- Node1&#45;&gt;Node23 -->
<g id="edge22" class="edge">
<title>Node1&#45;&gt;Node23</title>
<path fill="none" stroke="midnightblue" d="M1117.45,-71.95C1230.3,-65.73 1433.34,-51.32 1615.93,-19.81"/>
<polygon fill="midnightblue" stroke="midnightblue" points="1616.74,-23.22 1625.99,-18.05 1615.53,-16.33 1616.74,-23.22"/>
</g>
<!-- Node24 -->
<g id="node24" class="node">
<title>Node24</title>
<g id="a_node24"><a xlink:title=" ">
<polygon fill="white" stroke="#bfbfbf" points="1695,-0.5 1695,-19.5 1802,-19.5 1802,-0.5 1695,-0.5"/>
<text text-anchor="middle" x="1748.5" y="-7.5" font-family="Helvetica,sans-Serif" font-size="10.00">condition_variable</text>
</a>
</g>
</g>
<!-- Node1&#45;&gt;Node24 -->
<g id="edge23" class="edge">
<title>Node1&#45;&gt;Node24</title>
<path fill="none" stroke="midnightblue" d="M1117.15,-70.24C1240.87,-61.65 1475.48,-44 1684.81,-20.14"/>
<polygon fill="midnightblue" stroke="midnightblue" points="1685.22,-23.62 1694.76,-19 1684.42,-16.66 1685.22,-23.62"/>
</g>
<!-- Node25 -->
<g id="node25" class="node">
<title>Node25</title>
<g id="a_node25"><a xlink:title=" ">
<polygon fill="white" stroke="#bfbfbf" points="1820,-0.5 1820,-19.5 1867,-19.5 1867,-0.5 1820,-0.5"/>
<text text-anchor="middle" x="1843.5" y="-7.5" font-family="Helvetica,sans-Serif" font-size="10.00">deque</text>
</a>
</g>
</g>
<!-- Node1&#45;&gt;Node25 -->
<g id="edge24" class="edge">
<title>Node1&#45;&gt;Node25</title>
<path fill="none" stroke="midnightblue" d="M1117,-75.5C1259.89,-73.41 1554.03,-63.84 1809.63,-20"/>
<polygon fill="midnightblue" stroke="midnightblue" points="1810.6,-23.39 1819.86,-18.23 1809.41,-16.49 1810.6,-23.39"/>
</g>
<!-- Node26 -->
<g id="node26" class="node">
<title>Node26</title>
<g id="a_node26"><a xlink:title=" ">
<polygon fill="white" stroke="#bfbfbf" points="1885,-0.5 1885,-19.5 1978,-19.5 1978,-0.5 1885,-0.5"/>
<text text-anchor="middle" x="1931.5" y="-7.5" font-family="Helvetica,sans-Serif" font-size="10.00">unordered_map</text>
</a>
</g>
</g>
<!-- Node1&#45;&gt;Node26 -->
<g id="edge25" class="edge">
<title>Node1&#45;&gt;Node26</title>
<path fill="none" stroke="midnightblue" d="M1117.22,-73.01C1268.91,-67.18 1592.41,-52.05 1874.71,-20.11"/>
<polygon fill="midnightblue" stroke="midnightblue" points="1875.2,-23.58 1884.73,-18.97 1874.4,-16.62 1875.2,-23.58"/>
</g>
<!-- Node27 -->
<g id="node27" class="node">
<title>Node27</title>
<g id="a_node27"><a xlink:title=" ">
<polygon fill="white" stroke="#bfbfbf" points="1996,-0.5 1996,-19.5 2061,-19.5 2061,-0.5 1996,-0.5"/>
<text text-anchor="middle" x="2028.5" y="-7.5" font-family="Helvetica,sans-Serif" font-size="10.00">exception</text>
</a>
</g>
</g>
<!-- Node1&#45;&gt;Node27 -->
<g id="edge26" class="edge">
<title>Node1&#45;&gt;Node27</title>
<path fill="none" stroke="midnightblue" d="M1117.05,-75.49C1283.74,-73.52 1660.86,-64.23 1985.83,-20.02"/>
<polygon fill="midnightblue" stroke="midnightblue" points="1986.48,-23.47 1995.91,-18.64 1985.53,-16.53 1986.48,-23.47"/>
</g>
<!-- Node28 -->
<g id="node28" class="node">
<title>Node28</title>
<g id="a_node28"><a xlink:title=" ">
<polygon fill="white" stroke="#bfbfbf" points="2079.5,-0.5 2079.5,-19.5 2151.5,-19.5 2151.5,-0.5 2079.5,-0.5"/>
<text text-anchor="middle" x="2115.5" y="-7.5" font-family="Helvetica,sans-Serif" font-size="10.00">sys/types.h</text>
</a>
</g>
</g>
<!-- Node1&#45;&gt;Node28 -->
<g id="edge27" class="edge">
<title>Node1&#45;&gt;Node28</title>
<path fill="none" stroke="midnightblue" d="M1117.16,-75.53C1294.39,-73.65 1711.07,-64.56 2069.18,-19.98"/>
<polygon fill="midnightblue" stroke="midnightblue" points="2069.74,-23.44 2079.22,-18.72 2068.87,-16.49 2069.74,-23.44"/>
</g>
</g>
</svg>
