<?xml version="1.0" encoding="UTF-8" standalone="no"?>
<!DOCTYPE svg PUBLIC "-//W3C//DTD SVG 1.1//EN"
 "http://www.w3.org/Graphics/SVG/1.1/DTD/svg11.dtd">
<!-- Generated by graphviz version 2.43.0 (0)
 -->
<!-- Title: /media/jvincent/Kingspec512/repos/RADLib/RADCLI/headers/RADCLI.h Pages: 1 -->
<svg width="382pt" height="106pt"
 viewBox="0.00 0.00 381.50 106.00" xmlns="http://www.w3.org/2000/svg" xmlns:xlink="http://www.w3.org/1999/xlink">
<g id="graph0" class="graph" transform="scale(1 1) rotate(0) translate(4 102)">
<title>/media/jvincent/Kingspec512/repos/RADLib/RADCLI/headers/RADCLI.h</title>
<polygon fill="white" stroke="transparent" points="-4,4 -4,-102 377.5,-102 377.5,4 -4,4"/>
<!-- Node1 -->
<g id="node1" class="node">
<title>Node1</title>
<g id="a_node1"><a xlink:title="Command&#45;line parsing and application utility helpers.">
<polygon fill="#bfbfbf" stroke="black" points="135,-56.5 135,-97.5 301,-97.5 301,-56.5 135,-56.5"/>
<text text-anchor="start" x="143" y="-85.5" font-family="Helvetica,sans-Serif" font-size="10.00">/media/jvincent/Kingspec512</text>
<text text-anchor="start" x="143" y="-74.5" font-family="Helvetica,sans-Serif" font-size="10.00">/repos/RADLib/RADCLI/headers</text>
<text text-anchor="middle" x="218" y="-63.5" font-family="Helvetica,sans-Serif" font-size="10.00">/RADCLI.h</text>
</a>
</g>
</g>
<!-- Node2 -->
<g id="node2" class="node">
<title>Node2</title>
<g id="a_node2"><a xlink:title=" ">
<polygon fill="white" stroke="#bfbfbf" points="0,-0.5 0,-19.5 116,-19.5 116,-0.5 0,-0.5"/>
<text text-anchor="middle" x="58" y="-7.5" font-family="Helvetica,sans-Serif" font-size="10.00">RADCore/RADCore.h</text>
</a>
</g>
</g>
<!-- Node1&#45;&gt;Node2 -->
<g id="edge1" class="edge">
<title>Node1&#45;&gt;Node2</title>
<path fill="none" stroke="midnightblue" d="M169.99,-56.5C143.58,-45.77 111.59,-32.77 88.57,-23.42"/>
<polygon fill="midnightblue" stroke="midnightblue" points="89.88,-20.17 79.3,-19.65 87.25,-26.66 89.88,-20.17"/>
</g>
<!-- Node3 -->
<g id="node3" class="node">
<title>Node3</title>
<g id="a_node3"><a xlink:title=" ">
<polygon fill="white" stroke="#bfbfbf" points="134,-0.5 134,-19.5 172,-19.5 172,-0.5 134,-0.5"/>
<text text-anchor="middle" x="153" y="-7.5" font-family="Helvetica,sans-Serif" font-size="10.00">map</text>
</a>
</g>
</g>
<!-- Node1&#45;&gt;Node3 -->
<g id="edge2" class="edge">
<title>Node1&#45;&gt;Node3</title>
<path fill="none" stroke="midnightblue" d="M198.5,-56.5C189.01,-47.01 177.76,-35.76 168.81,-26.81"/>
<polygon fill="midnightblue" stroke="midnightblue" points="171.2,-24.25 161.65,-19.65 166.25,-29.2 171.2,-24.25"/>
</g>
<!-- Node4 -->
<g id="node4" class="node">
<title>Node4</title>
<g id="a_node4"><a xlink:title=" ">
<polygon fill="white" stroke="#bfbfbf" points="190,-0.5 190,-19.5 246,-19.5 246,-0.5 190,-0.5"/>
<text text-anchor="middle" x="218" y="-7.5" font-family="Helvetica,sans-Serif" font-size="10.00">optional</text>
</a>
</g>
</g>
<!-- Node1&#45;&gt;Node4 -->
<g id="edge3" class="edge">
<title>Node1&#45;&gt;Node4</title>
<path fill="none" stroke="midnightblue" d="M218,-56.5C218,-48.07 218,-38.24 218,-29.87"/>
<polygon fill="midnightblue" stroke="midnightblue" points="221.5,-29.65 218,-19.65 214.5,-29.65 221.5,-29.65"/>
</g>
<!-- Node5 -->
<g id="node5" class="node">
<title>Node5</title>
<g id="a_node5"><a xlink:title=" ">
<polygon fill="white" stroke="#bfbfbf" points="264,-0.5 264,-19.5 308,-19.5 308,-0.5 264,-0.5"/>
<text text-anchor="middle" x="286" y="-7.5" font-family="Helvetica,sans-Serif" font-size="10.00">string</text>
</a>
</g>
</g>
<!-- Node1&#45;&gt;Node5 -->
<g id="edge4" class="edge">
<title>Node1&#45;&gt;Node5</title>
<path fill="none" stroke="midnightblue" d="M238.4,-56.5C248.33,-47.01 260.1,-35.76 269.46,-26.81"/>
<polygon fill="midnightblue" stroke="midnightblue" points="272.14,-29.09 276.95,-19.65 267.3,-24.03 272.14,-29.09"/>
</g>
<!-- Node6 -->
<g id="node6" class="node">
<title>Node6</title>
<g id="a_node6"><a xlink:title=" ">
<polygon fill="white" stroke="#bfbfbf" points="326.5,-0.5 326.5,-19.5 373.5,-19.5 373.5,-0.5 326.5,-0.5"/>
<text text-anchor="middle" x="350" y="-7.5" font-family="Helvetica,sans-Serif" font-size="10.00">vector</text>
</a>
</g>
</g>
<!-- Node1&#45;&gt;Node6 -->
<g id="edge5" class="edge">
<title>Node1&#45;&gt;Node6</title>
<path fill="none" stroke="midnightblue" d="M257.6,-56.5C278.82,-46.05 304.38,-33.46 323.24,-24.18"/>
<polygon fill="midnightblue" stroke="midnightblue" points="325,-27.21 332.43,-19.65 321.91,-20.93 325,-27.21"/>
</g>
</g>
</svg>
