<?xml version="1.0" encoding="UTF-8" standalone="no"?>
<!DOCTYPE svg PUBLIC "-//W3C//DTD SVG 1.1//EN"
 "http://www.w3.org/Graphics/SVG/1.1/DTD/svg11.dtd">
<!-- Generated by graphviz version 2.43.0 (0)
 -->
<!-- Title: /media/jvincent/Kingspec512/repos/RADLib/RADDevice/headers/RADDevice.h Pages: 1 -->
<svg width="320pt" height="106pt"
 viewBox="0.00 0.00 319.50 106.00" xmlns="http://www.w3.org/2000/svg" xmlns:xlink="http://www.w3.org/1999/xlink">
<g id="graph0" class="graph" transform="scale(1 1) rotate(0) translate(4 102)">
<title>/media/jvincent/Kingspec512/repos/RADLib/RADDevice/headers/RADDevice.h</title>
<polygon fill="white" stroke="transparent" points="-4,4 -4,-102 315.5,-102 315.5,4 -4,4"/>
<!-- Node1 -->
<g id="node1" class="node">
<title>Node1</title>
<g id="a_node1"><a xlink:title="Embedded Linux GPIO, I2C, SPI, PWM, ADC, watchdog, LED, and ioctl&#45;ready helpers.">
<polygon fill="#bfbfbf" stroke="black" points="112,-56.5 112,-97.5 270,-97.5 270,-56.5 112,-56.5"/>
<text text-anchor="start" x="120" y="-85.5" font-family="Helvetica,sans-Serif" font-size="10.00">/media/jvincent/Kingspec512</text>
<text text-anchor="start" x="120" y="-74.5" font-family="Helvetica,sans-Serif" font-size="10.00">/repos/RADLib/RADDevice</text>
<text text-anchor="middle" x="191" y="-63.5" font-family="Helvetica,sans-Serif" font-size="10.00">/headers/RADDevice.h</text>
</a>
</g>
</g>
<!-- Node2 -->
<g id="node2" class="node">
<title>Node2</title>
<g id="a_node2"><a xlink:title=" ">
<polygon fill="white" stroke="#bfbfbf" points="0,-0.5 0,-19.5 116,-19.5 116,-0.5 0,-0.5"/>
<text text-anchor="middle" x="58" y="-7.5" font-family="Helvetica,sans-Serif" font-size="10.00">RADCore/RADCore.h</text>
</a>
</g>
</g>
<!-- Node1&#45;&gt;Node2 -->
<g id="edge1" class="edge">
<title>Node1&#45;&gt;Node2</title>
<path fill="none" stroke="midnightblue" d="M151.1,-56.5C129.63,-46.01 103.73,-33.35 84.7,-24.05"/>
<polygon fill="midnightblue" stroke="midnightblue" points="86.23,-20.9 75.7,-19.65 83.15,-27.19 86.23,-20.9"/>
</g>
<!-- Node3 -->
<g id="node3" class="node">
<title>Node3</title>
<g id="a_node3"><a xlink:title=" ">
<polygon fill="white" stroke="#bfbfbf" points="134,-0.5 134,-19.5 184,-19.5 184,-0.5 134,-0.5"/>
<text text-anchor="middle" x="159" y="-7.5" font-family="Helvetica,sans-Serif" font-size="10.00">cstdint</text>
</a>
</g>
</g>
<!-- Node1&#45;&gt;Node3 -->
<g id="edge2" class="edge">
<title>Node1&#45;&gt;Node3</title>
<path fill="none" stroke="midnightblue" d="M181.4,-56.5C177.06,-47.68 171.97,-37.34 167.74,-28.74"/>
<polygon fill="midnightblue" stroke="midnightblue" points="170.82,-27.08 163.26,-19.65 164.54,-30.17 170.82,-27.08"/>
</g>
<!-- Node4 -->
<g id="node4" class="node">
<title>Node4</title>
<g id="a_node4"><a xlink:title=" ">
<polygon fill="white" stroke="#bfbfbf" points="202,-0.5 202,-19.5 246,-19.5 246,-0.5 202,-0.5"/>
<text text-anchor="middle" x="224" y="-7.5" font-family="Helvetica,sans-Serif" font-size="10.00">string</text>
</a>
</g>
</g>
<!-- Node1&#45;&gt;Node4 -->
<g id="edge3" class="edge">
<title>Node1&#45;&gt;Node4</title>
<path fill="none" stroke="midnightblue" d="M200.9,-56.5C205.38,-47.68 210.63,-37.34 214.99,-28.74"/>
<polygon fill="midnightblue" stroke="midnightblue" points="218.2,-30.15 219.61,-19.65 211.96,-26.98 218.2,-30.15"/>
</g>
<!-- Node5 -->
<g id="node5" class="node">
<title>Node5</title>
<g id="a_node5"><a xlink:title=" ">
<polygon fill="white" stroke="#bfbfbf" points="264.5,-0.5 264.5,-19.5 311.5,-19.5 311.5,-0.5 264.5,-0.5"/>
<text text-anchor="middle" x="288" y="-7.5" font-family="Helvetica,sans-Serif" font-size="10.00">vector</text>
</a>
</g>
</g>
<!-- Node1&#45;&gt;Node5 -->
<g id="edge4" class="edge">
<title>Node1&#45;&gt;Node5</title>
<path fill="none" stroke="midnightblue" d="M220.1,-56.5C234.98,-46.53 252.76,-34.61 266.4,-25.48"/>
<polygon fill="midnightblue" stroke="midnightblue" points="268.73,-28.13 275.09,-19.65 264.83,-22.31 268.73,-28.13"/>
</g>
</g>
</svg>
