<?xml version="1.0" encoding="UTF-8" standalone="no"?>
<!DOCTYPE svg PUBLIC "-//W3C//DTD SVG 1.1//EN"
 "http://www.w3.org/Graphics/SVG/1.1/DTD/svg11.dtd">
<!-- Generated by graphviz version 2.43.0 (0)
 -->
<!-- Title: /media/jvincent/Kingspec512/repos/RADLib/RADDataStructures/headers/RADDataStructures.h Pages: 1 -->
<svg width="1410pt" height="106pt"
 viewBox="0.00 0.00 1410.00 106.00" xmlns="http://www.w3.org/2000/svg" xmlns:xlink="http://www.w3.org/1999/xlink">
<g id="graph0" class="graph" transform="scale(1 1) rotate(0) translate(4 102)">
<title>/media/jvincent/Kingspec512/repos/RADLib/RADDataStructures/headers/RADDataStructures.h</title>
<polygon fill="white" stroke="transparent" points="-4,4 -4,-102 1406,-102 1406,4 -4,4"/>
<!-- Node1 -->
<g id="node1" class="node">
<title>Node1</title>
<g id="a_node1"><a xlink:title="Cache&#45;conscious container primitives for RADLib internals and advanced users.">
<polygon fill="#bfbfbf" stroke="black" points="674.5,-56.5 674.5,-97.5 856.5,-97.5 856.5,-56.5 674.5,-56.5"/>
<text text-anchor="start" x="682.5" y="-85.5" font-family="Helvetica,sans-Serif" font-size="10.00">/media/jvincent/Kingspec512</text>
<text text-anchor="start" x="682.5" y="-74.5" font-family="Helvetica,sans-Serif" font-size="10.00">/repos/RADLib/RADDataStructures</text>
<text text-anchor="middle" x="765.5" y="-63.5" font-family="Helvetica,sans-Serif" font-size="10.00">/headers/RADDataStructures.h</text>
</a>
</g>
</g>
<!-- Node2 -->
<g id="node2" class="node">
<title>Node2</title>
<g id="a_node2"><a xlink:title=" ">
<polygon fill="white" stroke="#bfbfbf" points="0,-0.5 0,-19.5 153,-19.5 153,-0.5 0,-0.5"/>
<text text-anchor="middle" x="76.5" y="-7.5" font-family="Helvetica,sans-Serif" font-size="10.00">RADCore/RADLicenseGate.h</text>
</a>
</g>
</g>
<!-- Node1&#45;&gt;Node2 -->
<g id="edge1" class="edge">
<title>Node1&#45;&gt;Node2</title>
<path fill="none" stroke="midnightblue" d="M674.29,-67.86C558.25,-57.44 351.33,-38.59 163.46,-20.08"/>
<polygon fill="midnightblue" stroke="midnightblue" points="163.68,-16.59 153.39,-19.09 163,-23.56 163.68,-16.59"/>
</g>
<!-- Node3 -->
<g id="node3" class="node">
<title>Node3</title>
<g id="a_node3"><a xlink:title=" ">
<polygon fill="white" stroke="#bfbfbf" points="171.5,-0.5 171.5,-19.5 235.5,-19.5 235.5,-0.5 171.5,-0.5"/>
<text text-anchor="middle" x="203.5" y="-7.5" font-family="Helvetica,sans-Serif" font-size="10.00">algorithm</text>
</a>
</g>
</g>
<!-- Node1&#45;&gt;Node3 -->
<g id="edge2" class="edge">
<title>Node1&#45;&gt;Node3</title>
<path fill="none" stroke="midnightblue" d="M674.27,-69.23C572.19,-60.96 401.74,-45.1 245.91,-20.07"/>
<polygon fill="midnightblue" stroke="midnightblue" points="246.1,-16.56 235.67,-18.41 244.98,-23.46 246.1,-16.56"/>
</g>
<!-- Node4 -->
<g id="node4" class="node">
<title>Node4</title>
<g id="a_node4"><a xlink:title=" ">
<polygon fill="white" stroke="#bfbfbf" points="253.5,-0.5 253.5,-19.5 303.5,-19.5 303.5,-0.5 253.5,-0.5"/>
<text text-anchor="middle" x="278.5" y="-7.5" font-family="Helvetica,sans-Serif" font-size="10.00">atomic</text>
</a>
</g>
</g>
<!-- Node1&#45;&gt;Node4 -->
<g id="edge3" class="edge">
<title>Node1&#45;&gt;Node4</title>
<path fill="none" stroke="midnightblue" d="M674.26,-68.39C584.7,-60.08 444.15,-44.82 313.83,-20.03"/>
<polygon fill="midnightblue" stroke="midnightblue" points="314.14,-16.52 303.66,-18.07 312.82,-23.4 314.14,-16.52"/>
</g>
<!-- Node5 -->
<g id="node5" class="node">
<title>Node5</title>
<g id="a_node5"><a xlink:title=" ">
<polygon fill="white" stroke="#bfbfbf" points="322,-0.5 322,-19.5 375,-19.5 375,-0.5 322,-0.5"/>
<text text-anchor="middle" x="348.5" y="-7.5" font-family="Helvetica,sans-Serif" font-size="10.00">cstddef</text>
</a>
</g>
</g>
<!-- Node1&#45;&gt;Node5 -->
<g id="edge4" class="edge">
<title>Node1&#45;&gt;Node5</title>
<path fill="none" stroke="midnightblue" d="M674.23,-65.17C599.19,-55.66 489.96,-40.46 385.28,-19.98"/>
<polygon fill="midnightblue" stroke="midnightblue" points="385.66,-16.49 375.17,-17.98 384.3,-23.35 385.66,-16.49"/>
</g>
<!-- Node6 -->
<g id="node6" class="node">
<title>Node6</title>
<g id="a_node6"><a xlink:title=" ">
<polygon fill="white" stroke="#bfbfbf" points="393.5,-0.5 393.5,-19.5 443.5,-19.5 443.5,-0.5 393.5,-0.5"/>
<text text-anchor="middle" x="418.5" y="-7.5" font-family="Helvetica,sans-Serif" font-size="10.00">cstdint</text>
</a>
</g>
</g>
<!-- Node1&#45;&gt;Node6 -->
<g id="edge5" class="edge">
<title>Node1&#45;&gt;Node6</title>
<path fill="none" stroke="midnightblue" d="M674.37,-61.72C614.28,-51.82 533.68,-37.66 453.92,-20.18"/>
<polygon fill="midnightblue" stroke="midnightblue" points="454.21,-16.66 443.69,-17.91 452.7,-23.49 454.21,-16.66"/>
</g>
<!-- Node7 -->
<g id="node7" class="node">
<title>Node7</title>
<g id="a_node7"><a xlink:title=" ">
<polygon fill="white" stroke="#bfbfbf" points="462,-0.5 462,-19.5 511,-19.5 511,-0.5 462,-0.5"/>
<text text-anchor="middle" x="486.5" y="-7.5" font-family="Helvetica,sans-Serif" font-size="10.00">cstdlib</text>
</a>
</g>
</g>
<!-- Node1&#45;&gt;Node7 -->
<g id="edge6" class="edge">
<title>Node1&#45;&gt;Node7</title>
<path fill="none" stroke="midnightblue" d="M676.59,-56.44C632.56,-46.57 578.38,-34.16 521.29,-20.13"/>
<polygon fill="midnightblue" stroke="midnightblue" points="521.9,-16.68 511.36,-17.68 520.23,-23.48 521.9,-16.68"/>
</g>
<!-- Node8 -->
<g id="node8" class="node">
<title>Node8</title>
<g id="a_node8"><a xlink:title=" ">
<polygon fill="white" stroke="#bfbfbf" points="529.5,-0.5 529.5,-19.5 579.5,-19.5 579.5,-0.5 529.5,-0.5"/>
<text text-anchor="middle" x="554.5" y="-7.5" font-family="Helvetica,sans-Serif" font-size="10.00">cstring</text>
</a>
</g>
</g>
<!-- Node1&#45;&gt;Node8 -->
<g id="edge7" class="edge">
<title>Node1&#45;&gt;Node8</title>
<path fill="none" stroke="midnightblue" d="M702.19,-56.5C665.22,-45.11 619.97,-31.17 589.38,-21.74"/>
<polygon fill="midnightblue" stroke="midnightblue" points="590.18,-18.33 579.6,-18.73 588.12,-25.02 590.18,-18.33"/>
</g>
<!-- Node9 -->
<g id="node9" class="node">
<title>Node9</title>
<g id="a_node9"><a xlink:title=" ">
<polygon fill="white" stroke="#bfbfbf" points="598,-0.5 598,-19.5 663,-19.5 663,-0.5 598,-0.5"/>
<text text-anchor="middle" x="630.5" y="-7.5" font-family="Helvetica,sans-Serif" font-size="10.00">functional</text>
</a>
</g>
</g>
<!-- Node1&#45;&gt;Node9 -->
<g id="edge8" class="edge">
<title>Node1&#45;&gt;Node9</title>
<path fill="none" stroke="midnightblue" d="M725,-56.5C703.2,-46.01 676.92,-33.35 657.61,-24.05"/>
<polygon fill="midnightblue" stroke="midnightblue" points="659,-20.84 648.47,-19.65 655.96,-27.14 659,-20.84"/>
</g>
<!-- Node10 -->
<g id="node10" class="node">
<title>Node10</title>
<g id="a_node10"><a xlink:title=" ">
<polygon fill="white" stroke="#bfbfbf" points="681,-0.5 681,-19.5 764,-19.5 764,-0.5 681,-0.5"/>
<text text-anchor="middle" x="722.5" y="-7.5" font-family="Helvetica,sans-Serif" font-size="10.00">initializer_list</text>
</a>
</g>
</g>
<!-- Node1&#45;&gt;Node10 -->
<g id="edge9" class="edge">
<title>Node1&#45;&gt;Node10</title>
<path fill="none" stroke="midnightblue" d="M752.6,-56.5C746.64,-47.49 739.63,-36.89 733.87,-28.19"/>
<polygon fill="midnightblue" stroke="midnightblue" points="736.66,-26.06 728.22,-19.65 730.82,-29.92 736.66,-26.06"/>
</g>
<!-- Node11 -->
<g id="node11" class="node">
<title>Node11</title>
<g id="a_node11"><a xlink:title=" ">
<polygon fill="white" stroke="#bfbfbf" points="782,-0.5 782,-19.5 835,-19.5 835,-0.5 782,-0.5"/>
<text text-anchor="middle" x="808.5" y="-7.5" font-family="Helvetica,sans-Serif" font-size="10.00">iterator</text>
</a>
</g>
</g>
<!-- Node1&#45;&gt;Node11 -->
<g id="edge10" class="edge">
<title>Node1&#45;&gt;Node11</title>
<path fill="none" stroke="midnightblue" d="M778.4,-56.5C784.36,-47.49 791.37,-36.89 797.13,-28.19"/>
<polygon fill="midnightblue" stroke="midnightblue" points="800.18,-29.92 802.78,-19.65 794.34,-26.06 800.18,-29.92"/>
</g>
<!-- Node12 -->
<g id="node12" class="node">
<title>Node12</title>
<g id="a_node12"><a xlink:title=" ">
<polygon fill="white" stroke="#bfbfbf" points="853.5,-0.5 853.5,-19.5 897.5,-19.5 897.5,-0.5 853.5,-0.5"/>
<text text-anchor="middle" x="875.5" y="-7.5" font-family="Helvetica,sans-Serif" font-size="10.00">limits</text>
</a>
</g>
</g>
<!-- Node1&#45;&gt;Node12 -->
<g id="edge11" class="edge">
<title>Node1&#45;&gt;Node12</title>
<path fill="none" stroke="midnightblue" d="M798.5,-56.5C815.69,-46.34 836.31,-34.16 851.89,-24.95"/>
<polygon fill="midnightblue" stroke="midnightblue" points="854.03,-27.75 860.86,-19.65 850.47,-21.73 854.03,-27.75"/>
</g>
<!-- Node13 -->
<g id="node13" class="node">
<title>Node13</title>
<g id="a_node13"><a xlink:title=" ">
<polygon fill="white" stroke="#bfbfbf" points="915.5,-0.5 915.5,-19.5 973.5,-19.5 973.5,-0.5 915.5,-0.5"/>
<text text-anchor="middle" x="944.5" y="-7.5" font-family="Helvetica,sans-Serif" font-size="10.00">memory</text>
</a>
</g>
</g>
<!-- Node1&#45;&gt;Node13 -->
<g id="edge12" class="edge">
<title>Node1&#45;&gt;Node13</title>
<path fill="none" stroke="midnightblue" d="M819.21,-56.5C849.02,-45.67 885.19,-32.54 910.99,-23.17"/>
<polygon fill="midnightblue" stroke="midnightblue" points="912.47,-26.36 920.67,-19.65 910.08,-19.78 912.47,-26.36"/>
</g>
<!-- Node14 -->
<g id="node14" class="node">
<title>Node14</title>
<g id="a_node14"><a xlink:title=" ">
<polygon fill="white" stroke="#bfbfbf" points="992,-0.5 992,-19.5 1029,-19.5 1029,-0.5 992,-0.5"/>
<text text-anchor="middle" x="1010.5" y="-7.5" font-family="Helvetica,sans-Serif" font-size="10.00">new</text>
</a>
</g>
</g>
<!-- Node1&#45;&gt;Node14 -->
<g id="edge13" class="edge">
<title>Node1&#45;&gt;Node14</title>
<path fill="none" stroke="midnightblue" d="M845.67,-56.5C884.26,-46.83 931.36,-34.62 982.03,-20.01"/>
<polygon fill="midnightblue" stroke="midnightblue" points="983.24,-23.3 991.87,-17.16 981.29,-16.58 983.24,-23.3"/>
</g>
<!-- Node15 -->
<g id="node15" class="node">
<title>Node15</title>
<g id="a_node15"><a xlink:title=" ">
<polygon fill="white" stroke="#bfbfbf" points="1047.5,-0.5 1047.5,-19.5 1103.5,-19.5 1103.5,-0.5 1047.5,-0.5"/>
<text text-anchor="middle" x="1075.5" y="-7.5" font-family="Helvetica,sans-Serif" font-size="10.00">optional</text>
</a>
</g>
</g>
<!-- Node1&#45;&gt;Node15 -->
<g id="edge14" class="edge">
<title>Node1&#45;&gt;Node15</title>
<path fill="none" stroke="midnightblue" d="M856.68,-58.16C907.22,-48.06 971.44,-34.9 1037.12,-20.25"/>
<polygon fill="midnightblue" stroke="midnightblue" points="1038.25,-23.59 1047.24,-17.99 1036.72,-16.76 1038.25,-23.59"/>
</g>
<!-- Node16 -->
<g id="node16" class="node">
<title>Node16</title>
<g id="a_node16"><a xlink:title=" ">
<polygon fill="white" stroke="#bfbfbf" points="1122,-0.5 1122,-19.5 1187,-19.5 1187,-0.5 1122,-0.5"/>
<text text-anchor="middle" x="1154.5" y="-7.5" font-family="Helvetica,sans-Serif" font-size="10.00">stdexcept</text>
</a>
</g>
</g>
<!-- Node1&#45;&gt;Node16 -->
<g id="edge15" class="edge">
<title>Node1&#45;&gt;Node16</title>
<path fill="none" stroke="midnightblue" d="M856.68,-62.59C924.4,-52.32 1019.24,-37.31 1112.12,-19.99"/>
<polygon fill="midnightblue" stroke="midnightblue" points="1112.79,-23.42 1121.97,-18.14 1111.5,-16.54 1112.79,-23.42"/>
</g>
<!-- Node17 -->
<g id="node17" class="node">
<title>Node17</title>
<g id="a_node17"><a xlink:title=" ">
<polygon fill="white" stroke="#bfbfbf" points="1205,-0.5 1205,-19.5 1274,-19.5 1274,-0.5 1205,-0.5"/>
<text text-anchor="middle" x="1239.5" y="-7.5" font-family="Helvetica,sans-Serif" font-size="10.00">type_traits</text>
</a>
</g>
</g>
<!-- Node1&#45;&gt;Node17 -->
<g id="edge16" class="edge">
<title>Node1&#45;&gt;Node17</title>
<path fill="none" stroke="midnightblue" d="M856.61,-66.23C941.75,-56.62 1072.58,-40.65 1194.89,-20.17"/>
<polygon fill="midnightblue" stroke="midnightblue" points="1195.53,-23.62 1204.81,-18.5 1194.37,-16.71 1195.53,-23.62"/>
</g>
<!-- Node18 -->
<g id="node18" class="node">
<title>Node18</title>
<g id="a_node18"><a xlink:title=" ">
<polygon fill="white" stroke="#bfbfbf" points="1292,-0.5 1292,-19.5 1337,-19.5 1337,-0.5 1292,-0.5"/>
<text text-anchor="middle" x="1314.5" y="-7.5" font-family="Helvetica,sans-Serif" font-size="10.00">utility</text>
</a>
</g>
</g>
<!-- Node1&#45;&gt;Node18 -->
<g id="edge17" class="edge">
<title>Node1&#45;&gt;Node18</title>
<path fill="none" stroke="midnightblue" d="M856.53,-70.99C958.31,-64.3 1128.04,-49.88 1281.82,-20.04"/>
<polygon fill="midnightblue" stroke="midnightblue" points="1282.79,-23.41 1291.93,-18.05 1281.44,-16.55 1282.79,-23.41"/>
</g>
<!-- Node19 -->
<g id="node19" class="node">
<title>Node19</title>
<g id="a_node19"><a xlink:title=" ">
<polygon fill="white" stroke="#bfbfbf" points="1355,-0.5 1355,-19.5 1402,-19.5 1402,-0.5 1355,-0.5"/>
<text text-anchor="middle" x="1378.5" y="-7.5" font-family="Helvetica,sans-Serif" font-size="10.00">vector</text>
</a>
</g>
</g>
<!-- Node1&#45;&gt;Node19 -->
<g id="edge18" class="edge">
<title>Node1&#45;&gt;Node19</title>
<path fill="none" stroke="midnightblue" d="M856.78,-72.23C969.67,-66.44 1167.66,-52.61 1344.82,-20.03"/>
<polygon fill="midnightblue" stroke="midnightblue" points="1345.66,-23.43 1354.85,-18.16 1344.37,-16.55 1345.66,-23.43"/>
</g>
</g>
</svg>
