<?xml version="1.0" encoding="UTF-8" standalone="no"?>
<!DOCTYPE svg PUBLIC "-//W3C//DTD SVG 1.1//EN"
 "http://www.w3.org/Graphics/SVG/1.1/DTD/svg11.dtd">
<!-- Generated by graphviz version 2.43.0 (0)
 -->
<!-- Title: /media/jvincent/Kingspec512/repos/RADLib/RADEmbeddedKernel/headers/radekernel/radekernel.h Pages: 1 -->
<svg width="5215pt" height="128pt"
 viewBox="0.00 0.00 5215.00 128.00" xmlns="http://www.w3.org/2000/svg" xmlns:xlink="http://www.w3.org/1999/xlink">
<g id="graph0" class="graph" transform="scale(1 1) rotate(0) translate(4 124)">
<title>/media/jvincent/Kingspec512/repos/RADLib/RADEmbeddedKernel/headers/radekernel/radekernel.h</title>
<polygon fill="white" stroke="transparent" points="-4,4 -4,-124 5211,-124 5211,4 -4,4"/>
<!-- Node1 -->
<g id="node1" class="node">
<title>Node1</title>
<g id="a_node1"><a xlink:title="Portable embedded kernel service ABI for RADLib.">
<polygon fill="#bfbfbf" stroke="black" points="2508,-78.5 2508,-119.5 2699,-119.5 2699,-78.5 2508,-78.5"/>
<text text-anchor="start" x="2516" y="-107.5" font-family="Helvetica,sans-Serif" font-size="10.00">/media/jvincent/Kingspec512</text>
<text text-anchor="start" x="2516" y="-96.5" font-family="Helvetica,sans-Serif" font-size="10.00">/repos/RADLib/RADEmbeddedKernel</text>
<text text-anchor="middle" x="2603.5" y="-85.5" font-family="Helvetica,sans-Serif" font-size="10.00">/headers/radekernel/radekernel.h</text>
</a>
</g>
</g>
<!-- Node2 -->
<g id="node2" class="node">
<title>Node2</title>
<g id="a_node2"><a xlink:href="rad__audio_8h.html" target="_top" xlink:title=" ">
<polygon fill="white" stroke="black" points="0,-0.5 0,-41.5 191,-41.5 191,-0.5 0,-0.5"/>
<text text-anchor="start" x="8" y="-29.5" font-family="Helvetica,sans-Serif" font-size="10.00">/media/jvincent/Kingspec512</text>
<text text-anchor="start" x="8" y="-18.5" font-family="Helvetica,sans-Serif" font-size="10.00">/repos/RADLib/RADEmbeddedKernel</text>
<text text-anchor="middle" x="95.5" y="-7.5" font-family="Helvetica,sans-Serif" font-size="10.00">/headers/radekernel/rad_audio.h</text>
</a>
</g>
</g>
<!-- Node1&#45;&gt;Node2 -->
<g id="edge1" class="edge">
<title>Node1&#45;&gt;Node2</title>
<path fill="none" stroke="midnightblue" d="M2497.49,-97.88C2094.1,-97.06 654.66,-90.72 199.5,-42 196.76,-41.71 193.98,-41.38 191.18,-41.02"/>
<polygon fill="midnightblue" stroke="midnightblue" points="2497.69,-101.38 2507.69,-97.9 2497.7,-94.38 2497.69,-101.38"/>
</g>
<!-- Node3 -->
<g id="node3" class="node">
<title>Node3</title>
<g id="a_node3"><a xlink:href="rad__block_8h.html" target="_top" xlink:title=" ">
<polygon fill="white" stroke="black" points="209,-0.5 209,-41.5 400,-41.5 400,-0.5 209,-0.5"/>
<text text-anchor="start" x="217" y="-29.5" font-family="Helvetica,sans-Serif" font-size="10.00">/media/jvincent/Kingspec512</text>
<text text-anchor="start" x="217" y="-18.5" font-family="Helvetica,sans-Serif" font-size="10.00">/repos/RADLib/RADEmbeddedKernel</text>
<text text-anchor="middle" x="304.5" y="-7.5" font-family="Helvetica,sans-Serif" font-size="10.00">/headers/radekernel/rad_block.h</text>
</a>
</g>
</g>
<!-- Node1&#45;&gt;Node3 -->
<g id="edge2" class="edge">
<title>Node1&#45;&gt;Node3</title>
<path fill="none" stroke="midnightblue" d="M2497.55,-97.61C2117.1,-95.83 820.68,-86.58 408.5,-42 405.76,-41.7 402.98,-41.37 400.18,-41.01"/>
<polygon fill="midnightblue" stroke="midnightblue" points="2497.71,-101.11 2507.73,-97.65 2497.74,-94.11 2497.71,-101.11"/>
</g>
<!-- Node4 -->
<g id="node4" class="node">
<title>Node4</title>
<g id="a_node4"><a xlink:href="rad__cpp_8h.html" target="_top" xlink:title=" ">
<polygon fill="white" stroke="black" points="418,-0.5 418,-41.5 609,-41.5 609,-0.5 418,-0.5"/>
<text text-anchor="start" x="426" y="-29.5" font-family="Helvetica,sans-Serif" font-size="10.00">/media/jvincent/Kingspec512</text>
<text text-anchor="start" x="426" y="-18.5" font-family="Helvetica,sans-Serif" font-size="10.00">/repos/RADLib/RADEmbeddedKernel</text>
<text text-anchor="middle" x="513.5" y="-7.5" font-family="Helvetica,sans-Serif" font-size="10.00">/headers/radekernel/rad_cpp.h</text>
</a>
</g>
</g>
<!-- Node1&#45;&gt;Node4 -->
<g id="edge3" class="edge">
<title>Node1&#45;&gt;Node4</title>
<path fill="none" stroke="midnightblue" d="M2497.8,-97.28C2141.62,-94.48 986.94,-82.46 617.5,-42 614.76,-41.7 611.98,-41.37 609.18,-41"/>
<polygon fill="midnightblue" stroke="midnightblue" points="2497.83,-100.78 2507.85,-97.35 2497.88,-93.78 2497.83,-100.78"/>
</g>
<!-- Node5 -->
<g id="node5" class="node">
<title>Node5</title>
<g id="a_node5"><a xlink:href="rad__device_8h.html" target="_top" xlink:title=" ">
<polygon fill="white" stroke="black" points="627,-0.5 627,-41.5 818,-41.5 818,-0.5 627,-0.5"/>
<text text-anchor="start" x="635" y="-29.5" font-family="Helvetica,sans-Serif" font-size="10.00">/media/jvincent/Kingspec512</text>
<text text-anchor="start" x="635" y="-18.5" font-family="Helvetica,sans-Serif" font-size="10.00">/repos/RADLib/RADEmbeddedKernel</text>
<text text-anchor="middle" x="722.5" y="-7.5" font-family="Helvetica,sans-Serif" font-size="10.00">/headers/radekernel/rad_device.h</text>
</a>
</g>
</g>
<!-- Node1&#45;&gt;Node5 -->
<g id="edge4" class="edge">
<title>Node1&#45;&gt;Node5</title>
<path fill="none" stroke="midnightblue" d="M2497.79,-96.87C2166.84,-92.98 1153.27,-78.34 826.5,-42 823.76,-41.7 820.98,-41.36 818.18,-40.99"/>
<polygon fill="midnightblue" stroke="midnightblue" points="2497.81,-100.37 2507.85,-96.99 2497.9,-93.37 2497.81,-100.37"/>
</g>
<!-- Node6 -->
<g id="node6" class="node">
<title>Node6</title>
<g id="a_node6"><a xlink:href="rad__display_8h.html" target="_top" xlink:title=" ">
<polygon fill="white" stroke="black" points="836,-0.5 836,-41.5 1027,-41.5 1027,-0.5 836,-0.5"/>
<text text-anchor="start" x="844" y="-29.5" font-family="Helvetica,sans-Serif" font-size="10.00">/media/jvincent/Kingspec512</text>
<text text-anchor="start" x="844" y="-18.5" font-family="Helvetica,sans-Serif" font-size="10.00">/repos/RADLib/RADEmbeddedKernel</text>
<text text-anchor="middle" x="931.5" y="-7.5" font-family="Helvetica,sans-Serif" font-size="10.00">/headers/radekernel/rad_display.h</text>
</a>
</g>
</g>
<!-- Node1&#45;&gt;Node6 -->
<g id="edge5" class="edge">
<title>Node1&#45;&gt;Node6</title>
<path fill="none" stroke="midnightblue" d="M2497.83,-96.35C2193.7,-91.28 1319.85,-74.22 1035.5,-42 1032.76,-41.69 1029.98,-41.35 1027.18,-40.98"/>
<polygon fill="midnightblue" stroke="midnightblue" points="2497.92,-99.86 2507.98,-96.52 2498.04,-92.86 2497.92,-99.86"/>
</g>
<!-- Node7 -->
<g id="node7" class="node">
<title>Node7</title>
<g id="a_node7"><a xlink:href="rad__dma_8h.html" target="_top" xlink:title=" ">
<polygon fill="white" stroke="black" points="1045,-0.5 1045,-41.5 1236,-41.5 1236,-0.5 1045,-0.5"/>
<text text-anchor="start" x="1053" y="-29.5" font-family="Helvetica,sans-Serif" font-size="10.00">/media/jvincent/Kingspec512</text>
<text text-anchor="start" x="1053" y="-18.5" font-family="Helvetica,sans-Serif" font-size="10.00">/repos/RADLib/RADEmbeddedKernel</text>
<text text-anchor="middle" x="1140.5" y="-7.5" font-family="Helvetica,sans-Serif" font-size="10.00">/headers/radekernel/rad_dma.h</text>
</a>
</g>
</g>
<!-- Node1&#45;&gt;Node7 -->
<g id="edge6" class="edge">
<title>Node1&#45;&gt;Node7</title>
<path fill="none" stroke="midnightblue" d="M2497.68,-95.68C2222.05,-89.3 1486.63,-70.11 1244.5,-42 1241.76,-41.68 1238.98,-41.33 1236.19,-40.96"/>
<polygon fill="midnightblue" stroke="midnightblue" points="2497.61,-99.18 2507.68,-95.91 2497.77,-92.18 2497.61,-99.18"/>
</g>
<!-- Node8 -->
<g id="node8" class="node">
<title>Node8</title>
<g id="a_node8"><a xlink:href="rad__event_8h.html" target="_top" xlink:title=" ">
<polygon fill="white" stroke="black" points="1254,-0.5 1254,-41.5 1445,-41.5 1445,-0.5 1254,-0.5"/>
<text text-anchor="start" x="1262" y="-29.5" font-family="Helvetica,sans-Serif" font-size="10.00">/media/jvincent/Kingspec512</text>
<text text-anchor="start" x="1262" y="-18.5" font-family="Helvetica,sans-Serif" font-size="10.00">/repos/RADLib/RADEmbeddedKernel</text>
<text text-anchor="middle" x="1349.5" y="-7.5" font-family="Helvetica,sans-Serif" font-size="10.00">/headers/radekernel/rad_event.h</text>
</a>
</g>
</g>
<!-- Node1&#45;&gt;Node8 -->
<g id="edge7" class="edge">
<title>Node1&#45;&gt;Node8</title>
<path fill="none" stroke="midnightblue" d="M2497.63,-97.83C2294.45,-96.41 1836.04,-87.86 1453.5,-42 1450.76,-41.67 1447.99,-41.31 1445.19,-40.93"/>
<polygon fill="midnightblue" stroke="midnightblue" points="2497.68,-101.33 2507.7,-97.9 2497.73,-94.33 2497.68,-101.33"/>
</g>
<!-- Node9 -->
<g id="node9" class="node">
<title>Node9</title>
<g id="a_node9"><a xlink:href="rad__i2c_8h.html" target="_top" xlink:title=" ">
<polygon fill="white" stroke="black" points="1463,-0.5 1463,-41.5 1654,-41.5 1654,-0.5 1463,-0.5"/>
<text text-anchor="start" x="1471" y="-29.5" font-family="Helvetica,sans-Serif" font-size="10.00">/media/jvincent/Kingspec512</text>
<text text-anchor="start" x="1471" y="-18.5" font-family="Helvetica,sans-Serif" font-size="10.00">/repos/RADLib/RADEmbeddedKernel</text>
<text text-anchor="middle" x="1558.5" y="-7.5" font-family="Helvetica,sans-Serif" font-size="10.00">/headers/radekernel/rad_i2c.h</text>
</a>
</g>
</g>
<!-- Node1&#45;&gt;Node9 -->
<g id="edge8" class="edge">
<title>Node1&#45;&gt;Node9</title>
<path fill="none" stroke="midnightblue" d="M2497.74,-96.2C2323.17,-92.23 1964.01,-79.8 1662.5,-42 1659.76,-41.66 1656.99,-41.29 1654.19,-40.89"/>
<polygon fill="midnightblue" stroke="midnightblue" points="2497.88,-99.71 2507.95,-96.43 2498.03,-92.71 2497.88,-99.71"/>
</g>
<!-- Node10 -->
<g id="node10" class="node">
<title>Node10</title>
<g id="a_node10"><a xlink:href="rad__input_8h.html" target="_top" xlink:title=" ">
<polygon fill="white" stroke="black" points="1672,-0.5 1672,-41.5 1863,-41.5 1863,-0.5 1672,-0.5"/>
<text text-anchor="start" x="1680" y="-29.5" font-family="Helvetica,sans-Serif" font-size="10.00">/media/jvincent/Kingspec512</text>
<text text-anchor="start" x="1680" y="-18.5" font-family="Helvetica,sans-Serif" font-size="10.00">/repos/RADLib/RADEmbeddedKernel</text>
<text text-anchor="middle" x="1767.5" y="-7.5" font-family="Helvetica,sans-Serif" font-size="10.00">/headers/radekernel/rad_input.h</text>
</a>
</g>
</g>
<!-- Node1&#45;&gt;Node10 -->
<g id="edge9" class="edge">
<title>Node1&#45;&gt;Node10</title>
<path fill="none" stroke="midnightblue" d="M2497.74,-93.69C2355.06,-87 2093.25,-71.71 1871.5,-42 1868.77,-41.63 1866,-41.24 1863.2,-40.83"/>
<polygon fill="midnightblue" stroke="midnightblue" points="2497.65,-97.18 2507.8,-94.15 2497.97,-90.19 2497.65,-97.18"/>
</g>
<!-- Node11 -->
<g id="node11" class="node">
<title>Node11</title>
<g id="a_node11"><a xlink:href="rad__ioctl_8h.html" target="_top" xlink:title=" ">
<polygon fill="white" stroke="black" points="1881,-0.5 1881,-41.5 2072,-41.5 2072,-0.5 1881,-0.5"/>
<text text-anchor="start" x="1889" y="-29.5" font-family="Helvetica,sans-Serif" font-size="10.00">/media/jvincent/Kingspec512</text>
<text text-anchor="start" x="1889" y="-18.5" font-family="Helvetica,sans-Serif" font-size="10.00">/repos/RADLib/RADEmbeddedKernel</text>
<text text-anchor="middle" x="1976.5" y="-7.5" font-family="Helvetica,sans-Serif" font-size="10.00">/headers/radekernel/rad_ioctl.h</text>
</a>
</g>
</g>
<!-- Node1&#45;&gt;Node11 -->
<g id="edge10" class="edge">
<title>Node1&#45;&gt;Node11</title>
<path fill="none" stroke="midnightblue" d="M2497.71,-89.28C2391.83,-79.94 2224.43,-63.51 2080.5,-42 2077.77,-41.59 2075.01,-41.16 2072.22,-40.72"/>
<polygon fill="midnightblue" stroke="midnightblue" points="2497.49,-92.77 2507.76,-90.16 2498.1,-85.8 2497.49,-92.77"/>
</g>
<!-- Node12 -->
<g id="node12" class="node">
<title>Node12</title>
<g id="a_node12"><a xlink:href="rad__irq_8h.html" target="_top" xlink:title=" ">
<polygon fill="white" stroke="black" points="2090,-0.5 2090,-41.5 2281,-41.5 2281,-0.5 2090,-0.5"/>
<text text-anchor="start" x="2098" y="-29.5" font-family="Helvetica,sans-Serif" font-size="10.00">/media/jvincent/Kingspec512</text>
<text text-anchor="start" x="2098" y="-18.5" font-family="Helvetica,sans-Serif" font-size="10.00">/repos/RADLib/RADEmbeddedKernel</text>
<text text-anchor="middle" x="2185.5" y="-7.5" font-family="Helvetica,sans-Serif" font-size="10.00">/headers/radekernel/rad_irq.h</text>
</a>
</g>
</g>
<!-- Node1&#45;&gt;Node12 -->
<g id="edge11" class="edge">
<title>Node1&#45;&gt;Node12</title>
<path fill="none" stroke="midnightblue" d="M2497.92,-79.54C2436.97,-68.79 2358.87,-54.86 2289.5,-42 2286.79,-41.5 2284.04,-40.99 2281.26,-40.47"/>
<polygon fill="midnightblue" stroke="midnightblue" points="2497.48,-83.01 2507.94,-81.3 2498.69,-76.12 2497.48,-83.01"/>
</g>
<!-- Node13 -->
<g id="node13" class="node">
<title>Node13</title>
<g id="a_node13"><a xlink:href="rad__memory_8h.html" target="_top" xlink:title=" ">
<polygon fill="white" stroke="black" points="2299,-0.5 2299,-41.5 2490,-41.5 2490,-0.5 2299,-0.5"/>
<text text-anchor="start" x="2307" y="-29.5" font-family="Helvetica,sans-Serif" font-size="10.00">/media/jvincent/Kingspec512</text>
<text text-anchor="start" x="2307" y="-18.5" font-family="Helvetica,sans-Serif" font-size="10.00">/repos/RADLib/RADEmbeddedKernel</text>
<text text-anchor="middle" x="2394.5" y="-7.5" font-family="Helvetica,sans-Serif" font-size="10.00">/headers/radekernel/rad_memory.h</text>
</a>
</g>
</g>
<!-- Node1&#45;&gt;Node13 -->
<g id="edge12" class="edge">
<title>Node1&#45;&gt;Node13</title>
<path fill="none" stroke="midnightblue" d="M2539.94,-74.89C2510.6,-64.22 2476.15,-51.69 2448.14,-41.51"/>
<polygon fill="midnightblue" stroke="midnightblue" points="2539.08,-78.3 2549.68,-78.43 2541.48,-71.72 2539.08,-78.3"/>
</g>
<!-- Node14 -->
<g id="node14" class="node">
<title>Node14</title>
<g id="a_node14"><a xlink:href="rad__module_8h.html" target="_top" xlink:title=" ">
<polygon fill="white" stroke="black" points="2508,-0.5 2508,-41.5 2699,-41.5 2699,-0.5 2508,-0.5"/>
<text text-anchor="start" x="2516" y="-29.5" font-family="Helvetica,sans-Serif" font-size="10.00">/media/jvincent/Kingspec512</text>
<text text-anchor="start" x="2516" y="-18.5" font-family="Helvetica,sans-Serif" font-size="10.00">/repos/RADLib/RADEmbeddedKernel</text>
<text text-anchor="middle" x="2603.5" y="-7.5" font-family="Helvetica,sans-Serif" font-size="10.00">/headers/radekernel/rad_module.h</text>
</a>
</g>
</g>
<!-- Node1&#45;&gt;Node14 -->
<g id="edge13" class="edge">
<title>Node1&#45;&gt;Node14</title>
<path fill="none" stroke="midnightblue" d="M2603.5,-68.3C2603.5,-59.3 2603.5,-49.65 2603.5,-41.51"/>
<polygon fill="midnightblue" stroke="midnightblue" points="2600,-68.43 2603.5,-78.43 2607,-68.43 2600,-68.43"/>
</g>
<!-- Node15 -->
<g id="node15" class="node">
<title>Node15</title>
<g id="a_node15"><a xlink:href="rad__mutex_8h.html" target="_top" xlink:title=" ">
<polygon fill="white" stroke="black" points="2717,-0.5 2717,-41.5 2908,-41.5 2908,-0.5 2717,-0.5"/>
<text text-anchor="start" x="2725" y="-29.5" font-family="Helvetica,sans-Serif" font-size="10.00">/media/jvincent/Kingspec512</text>
<text text-anchor="start" x="2725" y="-18.5" font-family="Helvetica,sans-Serif" font-size="10.00">/repos/RADLib/RADEmbeddedKernel</text>
<text text-anchor="middle" x="2812.5" y="-7.5" font-family="Helvetica,sans-Serif" font-size="10.00">/headers/radekernel/rad_mutex.h</text>
</a>
</g>
</g>
<!-- Node1&#45;&gt;Node15 -->
<g id="edge14" class="edge">
<title>Node1&#45;&gt;Node15</title>
<path fill="none" stroke="midnightblue" d="M2667.06,-74.89C2696.4,-64.22 2730.85,-51.69 2758.86,-41.51"/>
<polygon fill="midnightblue" stroke="midnightblue" points="2665.52,-71.72 2657.32,-78.43 2667.92,-78.3 2665.52,-71.72"/>
</g>
<!-- Node16 -->
<g id="node16" class="node">
<title>Node16</title>
<g id="a_node16"><a xlink:href="rad__net_8h.html" target="_top" xlink:title=" ">
<polygon fill="white" stroke="black" points="2926,-0.5 2926,-41.5 3117,-41.5 3117,-0.5 2926,-0.5"/>
<text text-anchor="start" x="2934" y="-29.5" font-family="Helvetica,sans-Serif" font-size="10.00">/media/jvincent/Kingspec512</text>
<text text-anchor="start" x="2934" y="-18.5" font-family="Helvetica,sans-Serif" font-size="10.00">/repos/RADLib/RADEmbeddedKernel</text>
<text text-anchor="middle" x="3021.5" y="-7.5" font-family="Helvetica,sans-Serif" font-size="10.00">/headers/radekernel/rad_net.h</text>
</a>
</g>
</g>
<!-- Node1&#45;&gt;Node16 -->
<g id="edge15" class="edge">
<title>Node1&#45;&gt;Node16</title>
<path fill="none" stroke="midnightblue" d="M2709.08,-79.54C2770.03,-68.79 2848.13,-54.86 2917.5,-42 2920.21,-41.5 2922.96,-40.99 2925.74,-40.47"/>
<polygon fill="midnightblue" stroke="midnightblue" points="2708.31,-76.12 2699.06,-81.3 2709.52,-83.01 2708.31,-76.12"/>
</g>
<!-- Node17 -->
<g id="node17" class="node">
<title>Node17</title>
<g id="a_node17"><a xlink:href="rad__overlay_8h.html" target="_top" xlink:title=" ">
<polygon fill="white" stroke="black" points="3135,-0.5 3135,-41.5 3326,-41.5 3326,-0.5 3135,-0.5"/>
<text text-anchor="start" x="3143" y="-29.5" font-family="Helvetica,sans-Serif" font-size="10.00">/media/jvincent/Kingspec512</text>
<text text-anchor="start" x="3143" y="-18.5" font-family="Helvetica,sans-Serif" font-size="10.00">/repos/RADLib/RADEmbeddedKernel</text>
<text text-anchor="middle" x="3230.5" y="-7.5" font-family="Helvetica,sans-Serif" font-size="10.00">/headers/radekernel/rad_overlay.h</text>
</a>
</g>
</g>
<!-- Node1&#45;&gt;Node17 -->
<g id="edge16" class="edge">
<title>Node1&#45;&gt;Node17</title>
<path fill="none" stroke="midnightblue" d="M2709.29,-89.28C2815.17,-79.94 2982.57,-63.51 3126.5,-42 3129.23,-41.59 3131.99,-41.16 3134.78,-40.72"/>
<polygon fill="midnightblue" stroke="midnightblue" points="2708.9,-85.8 2699.24,-90.16 2709.51,-92.77 2708.9,-85.8"/>
</g>
<!-- Node18 -->
<g id="node18" class="node">
<title>Node18</title>
<g id="a_node18"><a xlink:href="rad__posix_8h.html" target="_top" xlink:title=" ">
<polygon fill="white" stroke="black" points="3344,-0.5 3344,-41.5 3535,-41.5 3535,-0.5 3344,-0.5"/>
<text text-anchor="start" x="3352" y="-29.5" font-family="Helvetica,sans-Serif" font-size="10.00">/media/jvincent/Kingspec512</text>
<text text-anchor="start" x="3352" y="-18.5" font-family="Helvetica,sans-Serif" font-size="10.00">/repos/RADLib/RADEmbeddedKernel</text>
<text text-anchor="middle" x="3439.5" y="-7.5" font-family="Helvetica,sans-Serif" font-size="10.00">/headers/radekernel/rad_posix.h</text>
</a>
</g>
</g>
<!-- Node1&#45;&gt;Node18 -->
<g id="edge17" class="edge">
<title>Node1&#45;&gt;Node18</title>
<path fill="none" stroke="midnightblue" d="M2709.26,-93.69C2851.94,-87 3113.75,-71.71 3335.5,-42 3338.23,-41.63 3341,-41.24 3343.8,-40.83"/>
<polygon fill="midnightblue" stroke="midnightblue" points="2709.03,-90.19 2699.2,-94.15 2709.35,-97.18 2709.03,-90.19"/>
</g>
<!-- Node19 -->
<g id="node19" class="node">
<title>Node19</title>
<g id="a_node19"><a xlink:href="rad__pty_8h.html" target="_top" xlink:title=" ">
<polygon fill="white" stroke="black" points="3553,-0.5 3553,-41.5 3744,-41.5 3744,-0.5 3553,-0.5"/>
<text text-anchor="start" x="3561" y="-29.5" font-family="Helvetica,sans-Serif" font-size="10.00">/media/jvincent/Kingspec512</text>
<text text-anchor="start" x="3561" y="-18.5" font-family="Helvetica,sans-Serif" font-size="10.00">/repos/RADLib/RADEmbeddedKernel</text>
<text text-anchor="middle" x="3648.5" y="-7.5" font-family="Helvetica,sans-Serif" font-size="10.00">/headers/radekernel/rad_pty.h</text>
</a>
</g>
</g>
<!-- Node1&#45;&gt;Node19 -->
<g id="edge18" class="edge">
<title>Node1&#45;&gt;Node19</title>
<path fill="none" stroke="midnightblue" d="M2709.26,-96.2C2883.83,-92.23 3242.99,-79.8 3544.5,-42 3547.24,-41.66 3550.01,-41.29 3552.81,-40.89"/>
<polygon fill="midnightblue" stroke="midnightblue" points="2708.97,-92.71 2699.05,-96.43 2709.12,-99.71 2708.97,-92.71"/>
</g>
<!-- Node20 -->
<g id="node20" class="node">
<title>Node20</title>
<g id="a_node20"><a xlink:href="rad__spi_8h.html" target="_top" xlink:title=" ">
<polygon fill="white" stroke="black" points="3762,-0.5 3762,-41.5 3953,-41.5 3953,-0.5 3762,-0.5"/>
<text text-anchor="start" x="3770" y="-29.5" font-family="Helvetica,sans-Serif" font-size="10.00">/media/jvincent/Kingspec512</text>
<text text-anchor="start" x="3770" y="-18.5" font-family="Helvetica,sans-Serif" font-size="10.00">/repos/RADLib/RADEmbeddedKernel</text>
<text text-anchor="middle" x="3857.5" y="-7.5" font-family="Helvetica,sans-Serif" font-size="10.00">/headers/radekernel/rad_spi.h</text>
</a>
</g>
</g>
<!-- Node1&#45;&gt;Node20 -->
<g id="edge19" class="edge">
<title>Node1&#45;&gt;Node20</title>
<path fill="none" stroke="midnightblue" d="M2709.37,-97.83C2912.55,-96.41 3370.96,-87.86 3753.5,-42 3756.24,-41.67 3759.01,-41.31 3761.81,-40.93"/>
<polygon fill="midnightblue" stroke="midnightblue" points="2709.27,-94.33 2699.3,-97.9 2709.32,-101.33 2709.27,-94.33"/>
</g>
<!-- Node21 -->
<g id="node21" class="node">
<title>Node21</title>
<g id="a_node21"><a xlink:href="rad__task_8h.html" target="_top" xlink:title=" ">
<polygon fill="white" stroke="black" points="3971,-0.5 3971,-41.5 4162,-41.5 4162,-0.5 3971,-0.5"/>
<text text-anchor="start" x="3979" y="-29.5" font-family="Helvetica,sans-Serif" font-size="10.00">/media/jvincent/Kingspec512</text>
<text text-anchor="start" x="3979" y="-18.5" font-family="Helvetica,sans-Serif" font-size="10.00">/repos/RADLib/RADEmbeddedKernel</text>
<text text-anchor="middle" x="4066.5" y="-7.5" font-family="Helvetica,sans-Serif" font-size="10.00">/headers/radekernel/rad_task.h</text>
</a>
</g>
</g>
<!-- Node1&#45;&gt;Node21 -->
<g id="edge20" class="edge">
<title>Node1&#45;&gt;Node21</title>
<path fill="none" stroke="midnightblue" d="M2709.32,-95.68C2984.95,-89.3 3720.37,-70.11 3962.5,-42 3965.24,-41.68 3968.02,-41.33 3970.81,-40.96"/>
<polygon fill="midnightblue" stroke="midnightblue" points="2709.23,-92.18 2699.32,-95.91 2709.39,-99.18 2709.23,-92.18"/>
</g>
<!-- Node22 -->
<g id="node22" class="node">
<title>Node22</title>
<g id="a_node22"><a xlink:href="rad__terminal_8h.html" target="_top" xlink:title=" ">
<polygon fill="white" stroke="black" points="4180,-0.5 4180,-41.5 4371,-41.5 4371,-0.5 4180,-0.5"/>
<text text-anchor="start" x="4188" y="-29.5" font-family="Helvetica,sans-Serif" font-size="10.00">/media/jvincent/Kingspec512</text>
<text text-anchor="start" x="4188" y="-18.5" font-family="Helvetica,sans-Serif" font-size="10.00">/repos/RADLib/RADEmbeddedKernel</text>
<text text-anchor="middle" x="4275.5" y="-7.5" font-family="Helvetica,sans-Serif" font-size="10.00">/headers/radekernel/rad_terminal.h</text>
</a>
</g>
</g>
<!-- Node1&#45;&gt;Node22 -->
<g id="edge21" class="edge">
<title>Node1&#45;&gt;Node22</title>
<path fill="none" stroke="midnightblue" d="M2709.17,-96.35C3013.3,-91.28 3887.15,-74.22 4171.5,-42 4174.24,-41.69 4177.02,-41.35 4179.82,-40.98"/>
<polygon fill="midnightblue" stroke="midnightblue" points="2708.96,-92.86 2699.02,-96.52 2709.08,-99.86 2708.96,-92.86"/>
</g>
<!-- Node23 -->
<g id="node23" class="node">
<title>Node23</title>
<g id="a_node23"><a xlink:href="rad__time_8h.html" target="_top" xlink:title=" ">
<polygon fill="white" stroke="black" points="4389,-0.5 4389,-41.5 4580,-41.5 4580,-0.5 4389,-0.5"/>
<text text-anchor="start" x="4397" y="-29.5" font-family="Helvetica,sans-Serif" font-size="10.00">/media/jvincent/Kingspec512</text>
<text text-anchor="start" x="4397" y="-18.5" font-family="Helvetica,sans-Serif" font-size="10.00">/repos/RADLib/RADEmbeddedKernel</text>
<text text-anchor="middle" x="4484.5" y="-7.5" font-family="Helvetica,sans-Serif" font-size="10.00">/headers/radekernel/rad_time.h</text>
</a>
</g>
</g>
<!-- Node1&#45;&gt;Node23 -->
<g id="edge22" class="edge">
<title>Node1&#45;&gt;Node23</title>
<path fill="none" stroke="midnightblue" d="M2709.21,-96.87C3040.16,-92.98 4053.73,-78.34 4380.5,-42 4383.24,-41.7 4386.02,-41.36 4388.82,-40.99"/>
<polygon fill="midnightblue" stroke="midnightblue" points="2709.1,-93.37 2699.15,-96.99 2709.19,-100.37 2709.1,-93.37"/>
</g>
<!-- Node24 -->
<g id="node24" class="node">
<title>Node24</title>
<g id="a_node24"><a xlink:href="rad__tree_8h.html" target="_top" xlink:title=" ">
<polygon fill="white" stroke="black" points="4598,-0.5 4598,-41.5 4789,-41.5 4789,-0.5 4598,-0.5"/>
<text text-anchor="start" x="4606" y="-29.5" font-family="Helvetica,sans-Serif" font-size="10.00">/media/jvincent/Kingspec512</text>
<text text-anchor="start" x="4606" y="-18.5" font-family="Helvetica,sans-Serif" font-size="10.00">/repos/RADLib/RADEmbeddedKernel</text>
<text text-anchor="middle" x="4693.5" y="-7.5" font-family="Helvetica,sans-Serif" font-size="10.00">/headers/radekernel/rad_tree.h</text>
</a>
</g>
</g>
<!-- Node1&#45;&gt;Node24 -->
<g id="edge23" class="edge">
<title>Node1&#45;&gt;Node24</title>
<path fill="none" stroke="midnightblue" d="M2709.2,-97.28C3065.38,-94.48 4220.06,-82.46 4589.5,-42 4592.24,-41.7 4595.02,-41.37 4597.82,-41"/>
<polygon fill="midnightblue" stroke="midnightblue" points="2709.12,-93.78 2699.15,-97.35 2709.17,-100.78 2709.12,-93.78"/>
</g>
<!-- Node25 -->
<g id="node25" class="node">
<title>Node25</title>
<g id="a_node25"><a xlink:href="rad__tty_8h.html" target="_top" xlink:title=" ">
<polygon fill="white" stroke="black" points="4807,-0.5 4807,-41.5 4998,-41.5 4998,-0.5 4807,-0.5"/>
<text text-anchor="start" x="4815" y="-29.5" font-family="Helvetica,sans-Serif" font-size="10.00">/media/jvincent/Kingspec512</text>
<text text-anchor="start" x="4815" y="-18.5" font-family="Helvetica,sans-Serif" font-size="10.00">/repos/RADLib/RADEmbeddedKernel</text>
<text text-anchor="middle" x="4902.5" y="-7.5" font-family="Helvetica,sans-Serif" font-size="10.00">/headers/radekernel/rad_tty.h</text>
</a>
</g>
</g>
<!-- Node1&#45;&gt;Node25 -->
<g id="edge24" class="edge">
<title>Node1&#45;&gt;Node25</title>
<path fill="none" stroke="midnightblue" d="M2709.45,-97.61C3089.9,-95.83 4386.32,-86.58 4798.5,-42 4801.24,-41.7 4804.02,-41.37 4806.82,-41.01"/>
<polygon fill="midnightblue" stroke="midnightblue" points="2709.26,-94.11 2699.27,-97.65 2709.29,-101.11 2709.26,-94.11"/>
</g>
<!-- Node26 -->
<g id="node26" class="node">
<title>Node26</title>
<g id="a_node26"><a xlink:href="rad__vfs_8h.html" target="_top" xlink:title=" ">
<polygon fill="white" stroke="black" points="5016,-0.5 5016,-41.5 5207,-41.5 5207,-0.5 5016,-0.5"/>
<text text-anchor="start" x="5024" y="-29.5" font-family="Helvetica,sans-Serif" font-size="10.00">/media/jvincent/Kingspec512</text>
<text text-anchor="start" x="5024" y="-18.5" font-family="Helvetica,sans-Serif" font-size="10.00">/repos/RADLib/RADEmbeddedKernel</text>
<text text-anchor="middle" x="5111.5" y="-7.5" font-family="Helvetica,sans-Serif" font-size="10.00">/headers/radekernel/rad_vfs.h</text>
</a>
</g>
</g>
<!-- Node1&#45;&gt;Node26 -->
<g id="edge25" class="edge">
<title>Node1&#45;&gt;Node26</title>
<path fill="none" stroke="midnightblue" d="M2709.51,-97.88C3112.9,-97.06 4552.34,-90.72 5007.5,-42 5010.24,-41.71 5013.02,-41.38 5015.82,-41.02"/>
<polygon fill="midnightblue" stroke="midnightblue" points="2709.3,-94.38 2699.31,-97.9 2709.31,-101.38 2709.3,-94.38"/>
</g>
</g>
</svg>
