<?xml version="1.0" encoding="UTF-8" standalone="no"?>
<!DOCTYPE svg PUBLIC "-//W3C//DTD SVG 1.1//EN"
 "http://www.w3.org/Graphics/SVG/1.1/DTD/svg11.dtd">
<!-- Generated by graphviz version 2.43.0 (0)
 -->
<!-- Title: /media/jvincent/Kingspec512/repos/RADLib/RADInstaller/headers/RADInstaller.h Pages: 1 -->
<svg width="336pt" height="106pt"
 viewBox="0.00 0.00 335.50 106.00" xmlns="http://www.w3.org/2000/svg" xmlns:xlink="http://www.w3.org/1999/xlink">
<g id="graph0" class="graph" transform="scale(1 1) rotate(0) translate(4 102)">
<title>/media/jvincent/Kingspec512/repos/RADLib/RADInstaller/headers/RADInstaller.h</title>
<polygon fill="white" stroke="transparent" points="-4,4 -4,-102 331.5,-102 331.5,4 -4,4"/>
<!-- Node1 -->
<g id="node1" class="node">
<title>Node1</title>
<g id="a_node1"><a xlink:title="Manifest&#45;driven installer engine for RADLib SDKs and RADLib&#45;built applications.">
<polygon fill="#bfbfbf" stroke="black" points="124,-56.5 124,-97.5 282,-97.5 282,-56.5 124,-56.5"/>
<text text-anchor="start" x="132" y="-85.5" font-family="Helvetica,sans-Serif" font-size="10.00">/media/jvincent/Kingspec512</text>
<text text-anchor="start" x="132" y="-74.5" font-family="Helvetica,sans-Serif" font-size="10.00">/repos/RADLib/RADInstaller</text>
<text text-anchor="middle" x="203" y="-63.5" font-family="Helvetica,sans-Serif" font-size="10.00">/headers/RADInstaller.h</text>
</a>
</g>
</g>
<!-- Node2 -->
<g id="node2" class="node">
<title>Node2</title>
<g id="a_node2"><a xlink:title=" ">
<polygon fill="white" stroke="#bfbfbf" points="0,-0.5 0,-19.5 116,-19.5 116,-0.5 0,-0.5"/>
<text text-anchor="middle" x="58" y="-7.5" font-family="Helvetica,sans-Serif" font-size="10.00">RADCore/RADCore.h</text>
</a>
</g>
</g>
<!-- Node1&#45;&gt;Node2 -->
<g id="edge1" class="edge">
<title>Node1&#45;&gt;Node2</title>
<path fill="none" stroke="midnightblue" d="M159.5,-56.5C135.87,-45.91 107.34,-33.12 86.55,-23.8"/>
<polygon fill="midnightblue" stroke="midnightblue" points="87.86,-20.55 77.3,-19.65 85,-26.94 87.86,-20.55"/>
</g>
<!-- Node3 -->
<g id="node3" class="node">
<title>Node3</title>
<g id="a_node3"><a xlink:title=" ">
<polygon fill="white" stroke="#bfbfbf" points="134.5,-0.5 134.5,-19.5 199.5,-19.5 199.5,-0.5 134.5,-0.5"/>
<text text-anchor="middle" x="167" y="-7.5" font-family="Helvetica,sans-Serif" font-size="10.00">functional</text>
</a>
</g>
</g>
<!-- Node1&#45;&gt;Node3 -->
<g id="edge2" class="edge">
<title>Node1&#45;&gt;Node3</title>
<path fill="none" stroke="midnightblue" d="M192.2,-56.5C187.26,-47.59 181.46,-37.11 176.67,-28.46"/>
<polygon fill="midnightblue" stroke="midnightblue" points="179.7,-26.7 171.79,-19.65 173.58,-30.1 179.7,-26.7"/>
</g>
<!-- Node4 -->
<g id="node4" class="node">
<title>Node4</title>
<g id="a_node4"><a xlink:title=" ">
<polygon fill="white" stroke="#bfbfbf" points="218,-0.5 218,-19.5 262,-19.5 262,-0.5 218,-0.5"/>
<text text-anchor="middle" x="240" y="-7.5" font-family="Helvetica,sans-Serif" font-size="10.00">string</text>
</a>
</g>
</g>
<!-- Node1&#45;&gt;Node4 -->
<g id="edge3" class="edge">
<title>Node1&#45;&gt;Node4</title>
<path fill="none" stroke="midnightblue" d="M214.1,-56.5C219.17,-47.59 225.14,-37.11 230.06,-28.46"/>
<polygon fill="midnightblue" stroke="midnightblue" points="233.17,-30.07 235.07,-19.65 227.09,-26.61 233.17,-30.07"/>
</g>
<!-- Node5 -->
<g id="node5" class="node">
<title>Node5</title>
<g id="a_node5"><a xlink:title=" ">
<polygon fill="white" stroke="#bfbfbf" points="280.5,-0.5 280.5,-19.5 327.5,-19.5 327.5,-0.5 280.5,-0.5"/>
<text text-anchor="middle" x="304" y="-7.5" font-family="Helvetica,sans-Serif" font-size="10.00">vector</text>
</a>
</g>
</g>
<!-- Node1&#45;&gt;Node5 -->
<g id="edge4" class="edge">
<title>Node1&#45;&gt;Node5</title>
<path fill="none" stroke="midnightblue" d="M233.3,-56.5C248.94,-46.44 267.66,-34.38 281.91,-25.21"/>
<polygon fill="midnightblue" stroke="midnightblue" points="284.04,-28.01 290.56,-19.65 280.25,-22.12 284.04,-28.01"/>
</g>
</g>
</svg>
