<?xml version="1.0" encoding="UTF-8" standalone="no"?>
<!DOCTYPE svg PUBLIC "-//W3C//DTD SVG 1.1//EN"
 "http://www.w3.org/Graphics/SVG/1.1/DTD/svg11.dtd">
<!-- Generated by graphviz version 2.43.0 (0)
 -->
<!-- Title: /media/jvincent/Kingspec512/repos/RADLib/RADPower/headers/RADPower.h Pages: 1 -->
<svg width="255pt" height="106pt"
 viewBox="0.00 0.00 254.50 106.00" xmlns="http://www.w3.org/2000/svg" xmlns:xlink="http://www.w3.org/1999/xlink">
<g id="graph0" class="graph" transform="scale(1 1) rotate(0) translate(4 102)">
<title>/media/jvincent/Kingspec512/repos/RADLib/RADPower/headers/RADPower.h</title>
<polygon fill="white" stroke="transparent" points="-4,4 -4,-102 250.5,-102 250.5,4 -4,4"/>
<!-- Node1 -->
<g id="node1" class="node">
<title>Node1</title>
<g id="a_node1"><a xlink:title="Power supply, thermal, CPU governor, and guarded power&#45;action helpers.">
<polygon fill="#bfbfbf" stroke="black" points="65.5,-56.5 65.5,-97.5 246.5,-97.5 246.5,-56.5 65.5,-56.5"/>
<text text-anchor="start" x="73.5" y="-85.5" font-family="Helvetica,sans-Serif" font-size="10.00">/media/jvincent/Kingspec512</text>
<text text-anchor="start" x="73.5" y="-74.5" font-family="Helvetica,sans-Serif" font-size="10.00">/repos/RADLib/RADPower/headers</text>
<text text-anchor="middle" x="156" y="-63.5" font-family="Helvetica,sans-Serif" font-size="10.00">/RADPower.h</text>
</a>
</g>
</g>
<!-- Node2 -->
<g id="node2" class="node">
<title>Node2</title>
<g id="a_node2"><a xlink:title=" ">
<polygon fill="white" stroke="#bfbfbf" points="0,-0.5 0,-19.5 116,-19.5 116,-0.5 0,-0.5"/>
<text text-anchor="middle" x="58" y="-7.5" font-family="Helvetica,sans-Serif" font-size="10.00">RADCore/RADCore.h</text>
</a>
</g>
</g>
<!-- Node1&#45;&gt;Node2 -->
<g id="edge1" class="edge">
<title>Node1&#45;&gt;Node2</title>
<path fill="none" stroke="midnightblue" d="M126.6,-56.5C111.43,-46.44 93.26,-34.38 79.43,-25.21"/>
<polygon fill="midnightblue" stroke="midnightblue" points="81.31,-22.26 71.05,-19.65 77.44,-28.1 81.31,-22.26"/>
</g>
<!-- Node3 -->
<g id="node3" class="node">
<title>Node3</title>
<g id="a_node3"><a xlink:title=" ">
<polygon fill="white" stroke="#bfbfbf" points="134,-0.5 134,-19.5 178,-19.5 178,-0.5 134,-0.5"/>
<text text-anchor="middle" x="156" y="-7.5" font-family="Helvetica,sans-Serif" font-size="10.00">string</text>
</a>
</g>
</g>
<!-- Node1&#45;&gt;Node3 -->
<g id="edge2" class="edge">
<title>Node1&#45;&gt;Node3</title>
<path fill="none" stroke="midnightblue" d="M156,-56.5C156,-48.07 156,-38.24 156,-29.87"/>
<polygon fill="midnightblue" stroke="midnightblue" points="159.5,-29.65 156,-19.65 152.5,-29.65 159.5,-29.65"/>
</g>
<!-- Node4 -->
<g id="node4" class="node">
<title>Node4</title>
<g id="a_node4"><a xlink:title=" ">
<polygon fill="white" stroke="#bfbfbf" points="196.5,-0.5 196.5,-19.5 243.5,-19.5 243.5,-0.5 196.5,-0.5"/>
<text text-anchor="middle" x="220" y="-7.5" font-family="Helvetica,sans-Serif" font-size="10.00">vector</text>
</a>
</g>
</g>
<!-- Node1&#45;&gt;Node4 -->
<g id="edge3" class="edge">
<title>Node1&#45;&gt;Node4</title>
<path fill="none" stroke="midnightblue" d="M175.2,-56.5C184.54,-47.01 195.63,-35.76 204.43,-26.81"/>
<polygon fill="midnightblue" stroke="midnightblue" points="206.96,-29.23 211.48,-19.65 201.97,-24.32 206.96,-29.23"/>
</g>
</g>
</svg>
