<?xml version="1.0" encoding="UTF-8" standalone="no"?>
<!DOCTYPE svg PUBLIC "-//W3C//DTD SVG 1.1//EN"
 "http://www.w3.org/Graphics/SVG/1.1/DTD/svg11.dtd">
<!-- Generated by graphviz version 2.43.0 (0)
 -->
<!-- Title: /media/jvincent/Kingspec512/repos/RADLib/RADUi/headers/RADSlintBackend.h Pages: 1 -->
<svg width="508pt" height="106pt"
 viewBox="0.00 0.00 507.50 106.00" xmlns="http://www.w3.org/2000/svg" xmlns:xlink="http://www.w3.org/1999/xlink">
<g id="graph0" class="graph" transform="scale(1 1) rotate(0) translate(4 102)">
<title>/media/jvincent/Kingspec512/repos/RADLib/RADUi/headers/RADSlintBackend.h</title>
<polygon fill="white" stroke="transparent" points="-4,4 -4,-102 503.5,-102 503.5,4 -4,4"/>
<!-- Node1 -->
<g id="node1" class="node">
<title>Node1</title>
<g id="a_node1"><a xlink:title="Slint backend integration and generated&#45;component binding helpers.">
<polygon fill="#bfbfbf" stroke="black" points="217.5,-56.5 217.5,-97.5 378.5,-97.5 378.5,-56.5 217.5,-56.5"/>
<text text-anchor="start" x="225.5" y="-85.5" font-family="Helvetica,sans-Serif" font-size="10.00">/media/jvincent/Kingspec512</text>
<text text-anchor="start" x="225.5" y="-74.5" font-family="Helvetica,sans-Serif" font-size="10.00">/repos/RADLib/RADUi/headers</text>
<text text-anchor="middle" x="298" y="-63.5" font-family="Helvetica,sans-Serif" font-size="10.00">/RADSlintBackend.h</text>
</a>
</g>
</g>
<!-- Node2 -->
<g id="node2" class="node">
<title>Node2</title>
<g id="a_node2"><a xlink:title=" ">
<polygon fill="white" stroke="#bfbfbf" points="0,-0.5 0,-19.5 92,-19.5 92,-0.5 0,-0.5"/>
<text text-anchor="middle" x="46" y="-7.5" font-family="Helvetica,sans-Serif" font-size="10.00">RADUi/RADUi.h</text>
</a>
</g>
</g>
<!-- Node1&#45;&gt;Node2 -->
<g id="edge1" class="edge">
<title>Node1&#45;&gt;Node2</title>
<path fill="none" stroke="midnightblue" d="M222.39,-56.5C178.79,-45.25 125.56,-31.52 89.05,-22.1"/>
<polygon fill="midnightblue" stroke="midnightblue" points="89.77,-18.68 79.21,-19.57 88.02,-25.45 89.77,-18.68"/>
</g>
<!-- Node3 -->
<g id="node3" class="node">
<title>Node3</title>
<g id="a_node3"><a xlink:title=" ">
<polygon fill="white" stroke="#bfbfbf" points="110.5,-0.5 110.5,-19.5 225.5,-19.5 225.5,-0.5 110.5,-0.5"/>
<text text-anchor="middle" x="168" y="-7.5" font-family="Helvetica,sans-Serif" font-size="10.00">RADUi/RADTheme.h</text>
</a>
</g>
</g>
<!-- Node1&#45;&gt;Node3 -->
<g id="edge2" class="edge">
<title>Node1&#45;&gt;Node3</title>
<path fill="none" stroke="midnightblue" d="M259,-56.5C238.11,-46.05 212.93,-33.46 194.36,-24.18"/>
<polygon fill="midnightblue" stroke="midnightblue" points="195.81,-20.99 185.3,-19.65 192.68,-27.26 195.81,-20.99"/>
</g>
<!-- Node4 -->
<g id="node4" class="node">
<title>Node4</title>
<g id="a_node4"><a xlink:title=" ">
<polygon fill="white" stroke="#bfbfbf" points="243.5,-0.5 243.5,-19.5 290.5,-19.5 290.5,-0.5 243.5,-0.5"/>
<text text-anchor="middle" x="267" y="-7.5" font-family="Helvetica,sans-Serif" font-size="10.00">slint.h</text>
</a>
</g>
</g>
<!-- Node1&#45;&gt;Node4 -->
<g id="edge3" class="edge">
<title>Node1&#45;&gt;Node4</title>
<path fill="none" stroke="midnightblue" d="M288.7,-56.5C284.49,-47.68 279.56,-37.34 275.46,-28.74"/>
<polygon fill="midnightblue" stroke="midnightblue" points="278.59,-27.17 271.13,-19.65 272.27,-30.19 278.59,-27.17"/>
</g>
<!-- Node5 -->
<g id="node5" class="node">
<title>Node5</title>
<g id="a_node5"><a xlink:title=" ">
<polygon fill="white" stroke="#bfbfbf" points="308.5,-0.5 308.5,-19.5 349.5,-19.5 349.5,-0.5 308.5,-0.5"/>
<text text-anchor="middle" x="329" y="-7.5" font-family="Helvetica,sans-Serif" font-size="10.00">tuple</text>
</a>
</g>
</g>
<!-- Node1&#45;&gt;Node5 -->
<g id="edge4" class="edge">
<title>Node1&#45;&gt;Node5</title>
<path fill="none" stroke="midnightblue" d="M307.3,-56.5C311.51,-47.68 316.44,-37.34 320.54,-28.74"/>
<polygon fill="midnightblue" stroke="midnightblue" points="323.73,-30.19 324.87,-19.65 317.41,-27.17 323.73,-30.19"/>
</g>
<!-- Node6 -->
<g id="node6" class="node">
<title>Node6</title>
<g id="a_node6"><a xlink:title=" ">
<polygon fill="white" stroke="#bfbfbf" points="367.5,-0.5 367.5,-19.5 436.5,-19.5 436.5,-0.5 367.5,-0.5"/>
<text text-anchor="middle" x="402" y="-7.5" font-family="Helvetica,sans-Serif" font-size="10.00">type_traits</text>
</a>
</g>
</g>
<!-- Node1&#45;&gt;Node6 -->
<g id="edge5" class="edge">
<title>Node1&#45;&gt;Node6</title>
<path fill="none" stroke="midnightblue" d="M329.2,-56.5C345.3,-46.44 364.58,-34.38 379.26,-25.21"/>
<polygon fill="midnightblue" stroke="midnightblue" points="381.53,-27.92 388.16,-19.65 377.82,-21.98 381.53,-27.92"/>
</g>
<!-- Node7 -->
<g id="node7" class="node">
<title>Node7</title>
<g id="a_node7"><a xlink:title=" ">
<polygon fill="white" stroke="#bfbfbf" points="454.5,-0.5 454.5,-19.5 499.5,-19.5 499.5,-0.5 454.5,-0.5"/>
<text text-anchor="middle" x="477" y="-7.5" font-family="Helvetica,sans-Serif" font-size="10.00">utility</text>
</a>
</g>
</g>
<!-- Node1&#45;&gt;Node7 -->
<g id="edge6" class="edge">
<title>Node1&#45;&gt;Node7</title>
<path fill="none" stroke="midnightblue" d="M351.71,-56.5C381.89,-45.54 418.57,-32.22 444.43,-22.83"/>
<polygon fill="midnightblue" stroke="midnightblue" points="445.9,-26.02 454.11,-19.31 443.51,-19.44 445.9,-26.02"/>
</g>
</g>
</svg>
