<?xml version="1.0" encoding="UTF-8" standalone="no"?>
<!DOCTYPE svg PUBLIC "-//W3C//DTD SVG 1.1//EN"
 "http://www.w3.org/Graphics/SVG/1.1/DTD/svg11.dtd">
<!-- Generated by graphviz version 2.43.0 (0)
 -->
<!-- Title: /media/jvincent/Kingspec512/repos/RADLib/RADUi/headers/RADSlintFramebufferBackend.h Pages: 1 -->
<svg width="452pt" height="106pt"
 viewBox="0.00 0.00 452.00 106.00" xmlns="http://www.w3.org/2000/svg" xmlns:xlink="http://www.w3.org/1999/xlink">
<g id="graph0" class="graph" transform="scale(1 1) rotate(0) translate(4 102)">
<title>/media/jvincent/Kingspec512/repos/RADLib/RADUi/headers/RADSlintFramebufferBackend.h</title>
<polygon fill="white" stroke="transparent" points="-4,4 -4,-102 448,-102 448,4 -4,4"/>
<!-- Node1 -->
<g id="node1" class="node">
<title>Node1</title>
<g id="a_node1"><a xlink:title="Slint platform bridge for RADixKernel framebuffers.">
<polygon fill="#bfbfbf" stroke="black" points="201,-56.5 201,-97.5 373,-97.5 373,-56.5 201,-56.5"/>
<text text-anchor="start" x="209" y="-85.5" font-family="Helvetica,sans-Serif" font-size="10.00">/media/jvincent/Kingspec512</text>
<text text-anchor="start" x="209" y="-74.5" font-family="Helvetica,sans-Serif" font-size="10.00">/repos/RADLib/RADUi/headers</text>
<text text-anchor="middle" x="287" y="-63.5" font-family="Helvetica,sans-Serif" font-size="10.00">/RADSlintFramebufferBackend.h</text>
</a>
</g>
</g>
<!-- Node2 -->
<g id="node2" class="node">
<title>Node2</title>
<g id="a_node2"><a xlink:title=" ">
<polygon fill="white" stroke="#bfbfbf" points="0,-0.5 0,-19.5 144,-19.5 144,-0.5 0,-0.5"/>
<text text-anchor="middle" x="72" y="-7.5" font-family="Helvetica,sans-Serif" font-size="10.00">RADUi/RADSlintBackend.h</text>
</a>
</g>
</g>
<!-- Node1&#45;&gt;Node2 -->
<g id="edge1" class="edge">
<title>Node1&#45;&gt;Node2</title>
<path fill="none" stroke="midnightblue" d="M222.49,-56.5C185.77,-45.4 141.04,-31.87 109.93,-22.47"/>
<polygon fill="midnightblue" stroke="midnightblue" points="110.92,-19.11 100.34,-19.57 108.9,-25.81 110.92,-19.11"/>
</g>
<!-- Node3 -->
<g id="node3" class="node">
<title>Node3</title>
<g id="a_node3"><a xlink:title=" ">
<polygon fill="white" stroke="#bfbfbf" points="162,-0.5 162,-19.5 300,-19.5 300,-0.5 162,-0.5"/>
<text text-anchor="middle" x="231" y="-7.5" font-family="Helvetica,sans-Serif" font-size="10.00">radixkernel/rad_display.h</text>
</a>
</g>
</g>
<!-- Node1&#45;&gt;Node3 -->
<g id="edge2" class="edge">
<title>Node1&#45;&gt;Node3</title>
<path fill="none" stroke="midnightblue" d="M270.2,-56.5C262.19,-47.2 252.72,-36.21 245.09,-27.36"/>
<polygon fill="midnightblue" stroke="midnightblue" points="247.63,-24.94 238.45,-19.65 242.33,-29.51 247.63,-24.94"/>
</g>
<!-- Node4 -->
<g id="node4" class="node">
<title>Node4</title>
<g id="a_node4"><a xlink:title=" ">
<polygon fill="white" stroke="#bfbfbf" points="318,-0.5 318,-19.5 368,-19.5 368,-0.5 318,-0.5"/>
<text text-anchor="middle" x="343" y="-7.5" font-family="Helvetica,sans-Serif" font-size="10.00">cstdint</text>
</a>
</g>
</g>
<!-- Node1&#45;&gt;Node4 -->
<g id="edge3" class="edge">
<title>Node1&#45;&gt;Node4</title>
<path fill="none" stroke="midnightblue" d="M303.8,-56.5C311.81,-47.2 321.28,-36.21 328.91,-27.36"/>
<polygon fill="midnightblue" stroke="midnightblue" points="331.67,-29.51 335.55,-19.65 326.37,-24.94 331.67,-29.51"/>
</g>
<!-- Node5 -->
<g id="node5" class="node">
<title>Node5</title>
<g id="a_node5"><a xlink:title=" ">
<polygon fill="white" stroke="#bfbfbf" points="386,-0.5 386,-19.5 444,-19.5 444,-0.5 386,-0.5"/>
<text text-anchor="middle" x="415" y="-7.5" font-family="Helvetica,sans-Serif" font-size="10.00">memory</text>
</a>
</g>
</g>
<!-- Node1&#45;&gt;Node5 -->
<g id="edge4" class="edge">
<title>Node1&#45;&gt;Node5</title>
<path fill="none" stroke="midnightblue" d="M325.4,-56.5C345.88,-46.1 370.54,-33.58 388.8,-24.31"/>
<polygon fill="midnightblue" stroke="midnightblue" points="390.63,-27.3 397.96,-19.65 387.46,-21.06 390.63,-27.3"/>
</g>
</g>
</svg>
