<?xml version="1.0" encoding="UTF-8" standalone="no"?>
<!DOCTYPE svg PUBLIC "-//W3C//DTD SVG 1.1//EN"
 "http://www.w3.org/Graphics/SVG/1.1/DTD/svg11.dtd">
<!-- Generated by graphviz version 2.43.0 (0)
 -->
<!-- Title: /media/jvincent/Kingspec512/repos/RADLib/RADUi/headers/RADTheme.h Pages: 1 -->
<svg width="242pt" height="106pt"
 viewBox="0.00 0.00 242.00 106.00" xmlns="http://www.w3.org/2000/svg" xmlns:xlink="http://www.w3.org/1999/xlink">
<g id="graph0" class="graph" transform="scale(1 1) rotate(0) translate(4 102)">
<title>/media/jvincent/Kingspec512/repos/RADLib/RADUi/headers/RADTheme.h</title>
<polygon fill="white" stroke="transparent" points="-4,4 -4,-102 238,-102 238,4 -4,4"/>
<!-- Node1 -->
<g id="node1" class="node">
<title>Node1</title>
<g id="a_node1"><a xlink:title="RADUi theme tokens, runtime theme manager, and JSON persistence.">
<polygon fill="#bfbfbf" stroke="black" points="72.5,-56.5 72.5,-97.5 233.5,-97.5 233.5,-56.5 72.5,-56.5"/>
<text text-anchor="start" x="80.5" y="-85.5" font-family="Helvetica,sans-Serif" font-size="10.00">/media/jvincent/Kingspec512</text>
<text text-anchor="start" x="80.5" y="-74.5" font-family="Helvetica,sans-Serif" font-size="10.00">/repos/RADLib/RADUi/headers</text>
<text text-anchor="middle" x="153" y="-63.5" font-family="Helvetica,sans-Serif" font-size="10.00">/RADTheme.h</text>
</a>
</g>
</g>
<!-- Node2 -->
<g id="node2" class="node">
<title>Node2</title>
<g id="a_node2"><a xlink:title=" ">
<polygon fill="white" stroke="#bfbfbf" points="0,-0.5 0,-19.5 116,-19.5 116,-0.5 0,-0.5"/>
<text text-anchor="middle" x="58" y="-7.5" font-family="Helvetica,sans-Serif" font-size="10.00">RADCore/RADCore.h</text>
</a>
</g>
</g>
<!-- Node1&#45;&gt;Node2 -->
<g id="edge1" class="edge">
<title>Node1&#45;&gt;Node2</title>
<path fill="none" stroke="midnightblue" d="M124.5,-56.5C109.93,-46.53 92.51,-34.61 79.16,-25.48"/>
<polygon fill="midnightblue" stroke="midnightblue" points="80.88,-22.41 70.65,-19.65 76.92,-28.19 80.88,-22.41"/>
</g>
<!-- Node3 -->
<g id="node3" class="node">
<title>Node3</title>
<g id="a_node3"><a xlink:title=" ">
<polygon fill="white" stroke="#bfbfbf" points="134,-0.5 134,-19.5 172,-19.5 172,-0.5 134,-0.5"/>
<text text-anchor="middle" x="153" y="-7.5" font-family="Helvetica,sans-Serif" font-size="10.00">map</text>
</a>
</g>
</g>
<!-- Node1&#45;&gt;Node3 -->
<g id="edge2" class="edge">
<title>Node1&#45;&gt;Node3</title>
<path fill="none" stroke="midnightblue" d="M153,-56.5C153,-48.07 153,-38.24 153,-29.87"/>
<polygon fill="midnightblue" stroke="midnightblue" points="156.5,-29.65 153,-19.65 149.5,-29.65 156.5,-29.65"/>
</g>
<!-- Node4 -->
<g id="node4" class="node">
<title>Node4</title>
<g id="a_node4"><a xlink:title=" ">
<polygon fill="white" stroke="#bfbfbf" points="190,-0.5 190,-19.5 234,-19.5 234,-0.5 190,-0.5"/>
<text text-anchor="middle" x="212" y="-7.5" font-family="Helvetica,sans-Serif" font-size="10.00">string</text>
</a>
</g>
</g>
<!-- Node1&#45;&gt;Node4 -->
<g id="edge3" class="edge">
<title>Node1&#45;&gt;Node4</title>
<path fill="none" stroke="midnightblue" d="M170.7,-56.5C179.23,-47.11 189.32,-35.98 197.4,-27.08"/>
<polygon fill="midnightblue" stroke="midnightblue" points="200.02,-29.41 204.15,-19.65 194.83,-24.7 200.02,-29.41"/>
</g>
</g>
</svg>
