<?xml version="1.0" encoding="UTF-8" standalone="no"?>
<!DOCTYPE svg PUBLIC "-//W3C//DTD SVG 1.1//EN"
 "http://www.w3.org/Graphics/SVG/1.1/DTD/svg11.dtd">
<!-- Generated by graphviz version 2.43.0 (0)
 -->
<!-- Title: /media/jvincent/Kingspec512/repos/RADLib/RADUi/headers/RADUi.h Pages: 1 -->
<svg width="996pt" height="106pt"
 viewBox="0.00 0.00 996.00 106.00" xmlns="http://www.w3.org/2000/svg" xmlns:xlink="http://www.w3.org/1999/xlink">
<g id="graph0" class="graph" transform="scale(1 1) rotate(0) translate(4 102)">
<title>/media/jvincent/Kingspec512/repos/RADLib/RADUi/headers/RADUi.h</title>
<polygon fill="white" stroke="transparent" points="-4,4 -4,-102 992,-102 992,4 -4,4"/>
<!-- Node1 -->
<g id="node1" class="node">
<title>Node1</title>
<g id="a_node1"><a xlink:title="Backend&#45;neutral UI dispatch, frame scheduling, and RADCore&#45;to&#45;UI binding helpers.">
<polygon fill="#bfbfbf" stroke="black" points="420.5,-56.5 420.5,-97.5 581.5,-97.5 581.5,-56.5 420.5,-56.5"/>
<text text-anchor="start" x="428.5" y="-85.5" font-family="Helvetica,sans-Serif" font-size="10.00">/media/jvincent/Kingspec512</text>
<text text-anchor="start" x="428.5" y="-74.5" font-family="Helvetica,sans-Serif" font-size="10.00">/repos/RADLib/RADUi/headers</text>
<text text-anchor="middle" x="501" y="-63.5" font-family="Helvetica,sans-Serif" font-size="10.00">/RADUi.h</text>
</a>
</g>
</g>
<!-- Node2 -->
<g id="node2" class="node">
<title>Node2</title>
<g id="a_node2"><a xlink:title=" ">
<polygon fill="white" stroke="#bfbfbf" points="0,-0.5 0,-19.5 116,-19.5 116,-0.5 0,-0.5"/>
<text text-anchor="middle" x="58" y="-7.5" font-family="Helvetica,sans-Serif" font-size="10.00">RADCore/RADCore.h</text>
</a>
</g>
</g>
<!-- Node1&#45;&gt;Node2 -->
<g id="edge1" class="edge">
<title>Node1&#45;&gt;Node2</title>
<path fill="none" stroke="midnightblue" d="M420.26,-64.15C336.07,-51.8 205.55,-32.65 126.31,-21.02"/>
<polygon fill="midnightblue" stroke="midnightblue" points="126.36,-17.49 115.95,-19.5 125.34,-24.42 126.36,-17.49"/>
</g>
<!-- Node3 -->
<g id="node3" class="node">
<title>Node3</title>
<g id="a_node3"><a xlink:title=" ">
<polygon fill="white" stroke="#bfbfbf" points="134,-0.5 134,-19.5 184,-19.5 184,-0.5 134,-0.5"/>
<text text-anchor="middle" x="159" y="-7.5" font-family="Helvetica,sans-Serif" font-size="10.00">chrono</text>
</a>
</g>
</g>
<!-- Node1&#45;&gt;Node3 -->
<g id="edge2" class="edge">
<title>Node1&#45;&gt;Node3</title>
<path fill="none" stroke="midnightblue" d="M420.24,-63.11C360.28,-53.12 276.34,-38.27 193.97,-20.08"/>
<polygon fill="midnightblue" stroke="midnightblue" points="194.72,-16.66 184.2,-17.91 193.2,-23.5 194.72,-16.66"/>
</g>
<!-- Node4 -->
<g id="node4" class="node">
<title>Node4</title>
<g id="a_node4"><a xlink:title=" ">
<polygon fill="white" stroke="#bfbfbf" points="202,-0.5 202,-19.5 270,-19.5 270,-0.5 202,-0.5"/>
<text text-anchor="middle" x="236" y="-7.5" font-family="Helvetica,sans-Serif" font-size="10.00">filesystem</text>
</a>
</g>
</g>
<!-- Node1&#45;&gt;Node4 -->
<g id="edge3" class="edge">
<title>Node1&#45;&gt;Node4</title>
<path fill="none" stroke="midnightblue" d="M421.49,-56.5C375.17,-45.14 318.5,-31.24 280.08,-21.81"/>
<polygon fill="midnightblue" stroke="midnightblue" points="280.78,-18.38 270.23,-19.4 279.11,-25.18 280.78,-18.38"/>
</g>
<!-- Node5 -->
<g id="node5" class="node">
<title>Node5</title>
<g id="a_node5"><a xlink:title=" ">
<polygon fill="white" stroke="#bfbfbf" points="288.5,-0.5 288.5,-19.5 353.5,-19.5 353.5,-0.5 288.5,-0.5"/>
<text text-anchor="middle" x="321" y="-7.5" font-family="Helvetica,sans-Serif" font-size="10.00">functional</text>
</a>
</g>
</g>
<!-- Node1&#45;&gt;Node5 -->
<g id="edge4" class="edge">
<title>Node1&#45;&gt;Node5</title>
<path fill="none" stroke="midnightblue" d="M446.99,-56.5C417.01,-45.67 380.64,-32.54 354.7,-23.17"/>
<polygon fill="midnightblue" stroke="midnightblue" points="355.56,-19.76 344.96,-19.65 353.18,-26.34 355.56,-19.76"/>
</g>
<!-- Node6 -->
<g id="node6" class="node">
<title>Node6</title>
<g id="a_node6"><a xlink:title=" ">
<polygon fill="white" stroke="#bfbfbf" points="372,-0.5 372,-19.5 430,-19.5 430,-0.5 372,-0.5"/>
<text text-anchor="middle" x="401" y="-7.5" font-family="Helvetica,sans-Serif" font-size="10.00">memory</text>
</a>
</g>
</g>
<!-- Node1&#45;&gt;Node6 -->
<g id="edge5" class="edge">
<title>Node1&#45;&gt;Node6</title>
<path fill="none" stroke="midnightblue" d="M471,-56.5C455.52,-46.44 436.98,-34.38 422.87,-25.21"/>
<polygon fill="midnightblue" stroke="midnightblue" points="424.6,-22.17 414.31,-19.65 420.79,-28.04 424.6,-22.17"/>
</g>
<!-- Node7 -->
<g id="node7" class="node">
<title>Node7</title>
<g id="a_node7"><a xlink:title=" ">
<polygon fill="white" stroke="#bfbfbf" points="448,-0.5 448,-19.5 496,-19.5 496,-0.5 448,-0.5"/>
<text text-anchor="middle" x="472" y="-7.5" font-family="Helvetica,sans-Serif" font-size="10.00">mutex</text>
</a>
</g>
</g>
<!-- Node1&#45;&gt;Node7 -->
<g id="edge6" class="edge">
<title>Node1&#45;&gt;Node7</title>
<path fill="none" stroke="midnightblue" d="M492.3,-56.5C488.41,-47.78 483.85,-37.56 480.04,-29.02"/>
<polygon fill="midnightblue" stroke="midnightblue" points="483.13,-27.36 475.86,-19.65 476.74,-30.21 483.13,-27.36"/>
</g>
<!-- Node8 -->
<g id="node8" class="node">
<title>Node8</title>
<g id="a_node8"><a xlink:title=" ">
<polygon fill="white" stroke="#bfbfbf" points="514,-0.5 514,-19.5 546,-19.5 546,-0.5 514,-0.5"/>
<text text-anchor="middle" x="530" y="-7.5" font-family="Helvetica,sans-Serif" font-size="10.00">set</text>
</a>
</g>
</g>
<!-- Node1&#45;&gt;Node8 -->
<g id="edge7" class="edge">
<title>Node1&#45;&gt;Node8</title>
<path fill="none" stroke="midnightblue" d="M509.7,-56.5C513.59,-47.78 518.15,-37.56 521.96,-29.02"/>
<polygon fill="midnightblue" stroke="midnightblue" points="525.26,-30.21 526.14,-19.65 518.87,-27.36 525.26,-30.21"/>
</g>
<!-- Node9 -->
<g id="node9" class="node">
<title>Node9</title>
<g id="a_node9"><a xlink:title=" ">
<polygon fill="white" stroke="#bfbfbf" points="564.5,-0.5 564.5,-19.5 629.5,-19.5 629.5,-0.5 564.5,-0.5"/>
<text text-anchor="middle" x="597" y="-7.5" font-family="Helvetica,sans-Serif" font-size="10.00">stdexcept</text>
</a>
</g>
</g>
<!-- Node1&#45;&gt;Node9 -->
<g id="edge8" class="edge">
<title>Node1&#45;&gt;Node9</title>
<path fill="none" stroke="midnightblue" d="M529.8,-56.5C544.52,-46.53 562.12,-34.61 575.62,-25.48"/>
<polygon fill="midnightblue" stroke="midnightblue" points="577.9,-28.16 584.22,-19.65 573.98,-22.36 577.9,-28.16"/>
</g>
<!-- Node10 -->
<g id="node10" class="node">
<title>Node10</title>
<g id="a_node10"><a xlink:title=" ">
<polygon fill="white" stroke="#bfbfbf" points="648,-0.5 648,-19.5 692,-19.5 692,-0.5 648,-0.5"/>
<text text-anchor="middle" x="670" y="-7.5" font-family="Helvetica,sans-Serif" font-size="10.00">string</text>
</a>
</g>
</g>
<!-- Node1&#45;&gt;Node10 -->
<g id="edge9" class="edge">
<title>Node1&#45;&gt;Node10</title>
<path fill="none" stroke="midnightblue" d="M551.71,-56.5C579.91,-45.65 614.12,-32.49 638.48,-23.12"/>
<polygon fill="midnightblue" stroke="midnightblue" points="639.87,-26.34 647.95,-19.48 637.36,-19.81 639.87,-26.34"/>
</g>
<!-- Node11 -->
<g id="node11" class="node">
<title>Node11</title>
<g id="a_node11"><a xlink:title=" ">
<polygon fill="white" stroke="#bfbfbf" points="710,-0.5 710,-19.5 758,-19.5 758,-0.5 710,-0.5"/>
<text text-anchor="middle" x="734" y="-7.5" font-family="Helvetica,sans-Serif" font-size="10.00">thread</text>
</a>
</g>
</g>
<!-- Node1&#45;&gt;Node11 -->
<g id="edge10" class="edge">
<title>Node1&#45;&gt;Node11</title>
<path fill="none" stroke="midnightblue" d="M570.91,-56.5C613.67,-44.57 666.46,-29.84 700.18,-20.44"/>
<polygon fill="midnightblue" stroke="midnightblue" points="701.31,-23.75 710,-17.7 699.42,-17.01 701.31,-23.75"/>
</g>
<!-- Node12 -->
<g id="node12" class="node">
<title>Node12</title>
<g id="a_node12"><a xlink:title=" ">
<polygon fill="white" stroke="#bfbfbf" points="776.5,-0.5 776.5,-19.5 823.5,-19.5 823.5,-0.5 776.5,-0.5"/>
<text text-anchor="middle" x="800" y="-7.5" font-family="Helvetica,sans-Serif" font-size="10.00">vector</text>
</a>
</g>
</g>
<!-- Node1&#45;&gt;Node12 -->
<g id="edge11" class="edge">
<title>Node1&#45;&gt;Node12</title>
<path fill="none" stroke="midnightblue" d="M581.59,-60.31C632,-50.2 698.49,-36.32 766.25,-20.07"/>
<polygon fill="midnightblue" stroke="midnightblue" points="767.35,-23.41 776.25,-17.66 765.71,-16.6 767.35,-23.41"/>
</g>
<!-- Node13 -->
<g id="node13" class="node">
<title>Node13</title>
<g id="a_node13"><a xlink:title=" ">
<polygon fill="white" stroke="#bfbfbf" points="842,-0.5 842,-19.5 988,-19.5 988,-0.5 842,-0.5"/>
<text text-anchor="middle" x="915" y="-7.5" font-family="Helvetica,sans-Serif" font-size="10.00">RADUi/RADDesktopShell.h</text>
</a>
</g>
</g>
<!-- Node1&#45;&gt;Node13 -->
<g id="edge12" class="edge">
<title>Node1&#45;&gt;Node13</title>
<path fill="none" stroke="midnightblue" d="M581.81,-63.31C660.47,-50.96 778.44,-32.44 850.87,-21.07"/>
<polygon fill="midnightblue" stroke="midnightblue" points="851.44,-24.52 860.77,-19.51 850.35,-17.61 851.44,-24.52"/>
</g>
</g>
</svg>
