<?xml version="1.0" encoding="UTF-8" standalone="no"?>
<!DOCTYPE svg PUBLIC "-//W3C//DTD SVG 1.1//EN"
 "http://www.w3.org/Graphics/SVG/1.1/DTD/svg11.dtd">
<!-- Generated by graphviz version 2.43.0 (0)
 -->
<!-- Title: RADUi::PlotSeriesSnapshot Pages: 1 -->
<svg width="156pt" height="162pt"
 viewBox="0.00 0.00 156.00 162.00" xmlns="http://www.w3.org/2000/svg" xmlns:xlink="http://www.w3.org/1999/xlink">
<g id="graph0" class="graph" transform="scale(1 1) rotate(0) translate(4 158)">
<title>RADUi::PlotSeriesSnapshot</title>
<polygon fill="white" stroke="transparent" points="-4,4 -4,-158 152,-158 152,4 -4,4"/>
<!-- Node1 -->
<g id="node1" class="node">
<title>Node1</title>
<g id="a_node1"><a xlink:title="Immutable copy of one series for renderer consumption.">
<polygon fill="#bfbfbf" stroke="black" points="0,-0.5 0,-19.5 148,-19.5 148,-0.5 0,-0.5"/>
<text text-anchor="middle" x="74" y="-7.5" font-family="Helvetica,sans-Serif" font-size="10.00">RADUi::PlotSeriesSnapshot</text>
</a>
</g>
</g>
<!-- Node2 -->
<g id="node2" class="node">
<title>Node2</title>
<g id="a_node2"><a xlink:href="structRADUi_1_1PlotSeriesStyle.html" target="_top" xlink:title="Rendering style for one plot series.">
<polygon fill="white" stroke="black" points="10,-67.5 10,-86.5 138,-86.5 138,-67.5 10,-67.5"/>
<text text-anchor="middle" x="74" y="-74.5" font-family="Helvetica,sans-Serif" font-size="10.00">RADUi::PlotSeriesStyle</text>
</a>
</g>
</g>
<!-- Node2&#45;&gt;Node1 -->
<g id="edge1" class="edge">
<title>Node2&#45;&gt;Node1</title>
<path fill="none" stroke="#9a32cd" stroke-dasharray="5,2" d="M74,-57.04C74,-44.67 74,-29.12 74,-19.63"/>
<polygon fill="#9a32cd" stroke="#9a32cd" points="70.5,-57.23 74,-67.23 77.5,-57.23 70.5,-57.23"/>
<text text-anchor="middle" x="88" y="-41" font-family="Helvetica,sans-Serif" font-size="10.00"> style</text>
</g>
<!-- Node3 -->
<g id="node3" class="node">
<title>Node3</title>
<g id="a_node3"><a xlink:href="structRADUi_1_1PlotColor.html" target="_top" xlink:title="RGBA color used by plot renderers.">
<polygon fill="white" stroke="black" points="25,-134.5 25,-153.5 123,-153.5 123,-134.5 25,-134.5"/>
<text text-anchor="middle" x="74" y="-141.5" font-family="Helvetica,sans-Serif" font-size="10.00">RADUi::PlotColor</text>
</a>
</g>
</g>
<!-- Node3&#45;&gt;Node2 -->
<g id="edge2" class="edge">
<title>Node3&#45;&gt;Node2</title>
<path fill="none" stroke="#9a32cd" stroke-dasharray="5,2" d="M74,-124.04C74,-111.67 74,-96.12 74,-86.63"/>
<polygon fill="#9a32cd" stroke="#9a32cd" points="70.5,-124.23 74,-134.23 77.5,-124.23 70.5,-124.23"/>
<text text-anchor="middle" x="88" y="-108" font-family="Helvetica,sans-Serif" font-size="10.00"> color</text>
</g>
</g>
</svg>
