<?xml version="1.0" encoding="UTF-8" standalone="no"?>
<!DOCTYPE svg PUBLIC "-//W3C//DTD SVG 1.1//EN"
 "http://www.w3.org/Graphics/SVG/1.1/DTD/svg11.dtd">
<!-- Generated by graphviz version 2.43.0 (0)
 -->
<!-- Title: /media/jvincent/Kingspec512/repos/RADPx&#45;OS/RADKernel/boot Pages: 1 -->
<svg width="96pt" height="167pt"
 viewBox="0.00 0.00 96.00 167.00" xmlns="http://www.w3.org/2000/svg" xmlns:xlink="http://www.w3.org/1999/xlink">
<g id="graph0" class="graph" transform="scale(1 1) rotate(0) translate(4 163)">
<title>/media/jvincent/Kingspec512/repos/RADPx&#45;OS/RADKernel/boot</title>
<polygon fill="white" stroke="transparent" points="-4,4 -4,-163 92,-163 92,4 -4,4"/>
<g id="clust1" class="cluster">
<title>clusterdir_b3b35291b85533d56e75a50667d5c187</title>
<g id="a_clust1"><a xlink:href="dir_b3b35291b85533d56e75a50667d5c187.html" target="_top" xlink:title="RADKernel">
<polygon fill="#ddddee" stroke="black" points="8,-8 8,-151 80,-151 80,-8 8,-8"/>
<text text-anchor="middle" x="44" y="-139" font-family="Helvetica,sans-Serif" font-size="10.00">RADKernel</text>
</a>
</g>
</g>
<!-- dir_09b68b68c2e3a0f2aba432a0e38d72da -->
<g id="node1" class="node">
<title>dir_09b68b68c2e3a0f2aba432a0e38d72da</title>
<g id="a_node1"><a xlink:href="dir_09b68b68c2e3a0f2aba432a0e38d72da.html" target="_top" xlink:title="headers">
<polygon fill="white" stroke="red" points="72,-52 16,-52 16,-16 72,-16 72,-52"/>
<text text-anchor="middle" x="44" y="-31.5" font-family="Helvetica,sans-Serif" font-size="10.00">headers</text>
</a>
</g>
</g>
<!-- dir_04e308941703540543f12822c5e3d2d8 -->
<g id="node2" class="node">
<title>dir_04e308941703540543f12822c5e3d2d8</title>
<g id="a_node2"><a xlink:href="dir_04e308941703540543f12822c5e3d2d8.html" target="_top" xlink:title="boot">
<polygon fill="#eeeeff" stroke="black" points="71,-124 17,-124 17,-88 71,-88 71,-124"/>
<text text-anchor="middle" x="44" y="-103.5" font-family="Helvetica,sans-Serif" font-size="10.00">boot</text>
</a>
</g>
</g>
<!-- dir_04e308941703540543f12822c5e3d2d8&#45;&gt;dir_09b68b68c2e3a0f2aba432a0e38d72da -->
<g id="edge1" class="edge">
<title>dir_04e308941703540543f12822c5e3d2d8&#45;&gt;dir_09b68b68c2e3a0f2aba432a0e38d72da</title>
<path fill="none" stroke="black" d="M44,-87.7C44,-79.98 44,-70.71 44,-62.11"/>
<polygon fill="black" stroke="black" points="47.5,-62.1 44,-52.1 40.5,-62.1 47.5,-62.1"/>
<g id="a_edge1&#45;headlabel"><a xlink:href="dir_000004_000005.html" target="_top" xlink:title="1">
<text text-anchor="middle" x="50.34" y="-63.2" font-family="Helvetica,sans-Serif" font-size="10.00">1</text>
</a>
</g>
</g>
</g>
</svg>
