<?xml version="1.0" encoding="UTF-8" standalone="no"?>
<!DOCTYPE svg PUBLIC "-//W3C//DTD SVG 1.1//EN"
 "http://www.w3.org/Graphics/SVG/1.1/DTD/svg11.dtd">
<!-- Generated by graphviz version 2.43.0 (0)
 -->
<!-- Title: /media/jvincent/Kingspec512/repos/RADPx&#45;OS/RADKernel/platforms Pages: 1 -->
<svg width="264pt" height="175pt"
 viewBox="0.00 0.00 264.00 175.00" xmlns="http://www.w3.org/2000/svg" xmlns:xlink="http://www.w3.org/1999/xlink">
<g id="graph0" class="graph" transform="scale(1 1) rotate(0) translate(4 171)">
<title>/media/jvincent/Kingspec512/repos/RADPx&#45;OS/RADKernel/platforms</title>
<polygon fill="white" stroke="transparent" points="-4,4 -4,-171 260,-171 260,4 -4,4"/>
<g id="clust1" class="cluster">
<title>clusterdir_b3b35291b85533d56e75a50667d5c187</title>
<g id="a_clust1"><a xlink:href="dir_b3b35291b85533d56e75a50667d5c187.html" target="_top" xlink:title="RADKernel">
<polygon fill="#ddddee" stroke="black" points="8,-8 8,-159 248,-159 248,-8 8,-8"/>
<text text-anchor="middle" x="128" y="-147" font-family="Helvetica,sans-Serif" font-size="10.00">RADKernel</text>
</a>
</g>
</g>
<g id="clust2" class="cluster">
<title>clusterdir_ab0c2900414dde3d2af3d7f79ea1acf9</title>
<g id="a_clust2"><a xlink:href="dir_ab0c2900414dde3d2af3d7f79ea1acf9.html" target="_top">
<polygon fill="#eeeeff" stroke="black" points="16,-80 16,-132 240,-132 240,-80 16,-80"/>
</a>
</g>
</g>
<!-- dir_09b68b68c2e3a0f2aba432a0e38d72da -->
<g id="node1" class="node">
<title>dir_09b68b68c2e3a0f2aba432a0e38d72da</title>
<g id="a_node1"><a xlink:href="dir_09b68b68c2e3a0f2aba432a0e38d72da.html" target="_top" xlink:title="headers">
<polygon fill="white" stroke="red" points="115,-52 59,-52 59,-16 115,-16 115,-52"/>
<text text-anchor="middle" x="87" y="-31.5" font-family="Helvetica,sans-Serif" font-size="10.00">headers</text>
</a>
</g>
</g>
<!-- dir_ab0c2900414dde3d2af3d7f79ea1acf9 -->
<g id="node2" class="node">
<title>dir_ab0c2900414dde3d2af3d7f79ea1acf9</title>
<text text-anchor="middle" x="200" y="-103.5" font-family="Helvetica,sans-Serif" font-size="10.00">platforms</text>
</g>
<!-- dir_ee0d4095011aa0278c514e72d99d3f64 -->
<g id="node3" class="node">
<title>dir_ee0d4095011aa0278c514e72d99d3f64</title>
<g id="a_node3"><a xlink:href="dir_ee0d4095011aa0278c514e72d99d3f64.html" target="_top" xlink:title="a53">
<polygon fill="white" stroke="black" points="150,-124 96,-124 96,-88 150,-88 150,-124"/>
<text text-anchor="middle" x="123" y="-103.5" font-family="Helvetica,sans-Serif" font-size="10.00">a53</text>
</a>
</g>
</g>
<!-- dir_ee0d4095011aa0278c514e72d99d3f64&#45;&gt;dir_09b68b68c2e3a0f2aba432a0e38d72da -->
<g id="edge2" class="edge">
<title>dir_ee0d4095011aa0278c514e72d99d3f64&#45;&gt;dir_09b68b68c2e3a0f2aba432a0e38d72da</title>
<path fill="none" stroke="black" d="M114.1,-87.7C110,-79.73 105.05,-70.1 100.51,-61.26"/>
<polygon fill="black" stroke="black" points="103.48,-59.4 95.8,-52.1 97.26,-62.6 103.48,-59.4"/>
<g id="a_edge2&#45;headlabel"><a xlink:href="dir_000008_000005.html" target="_top" xlink:title="1">
<text text-anchor="middle" x="107.65" y="-58.79" font-family="Helvetica,sans-Serif" font-size="10.00">1</text>
</a>
</g>
</g>
<!-- dir_0e6e5191e5dfdc6f49d858ac10643ab9 -->
<g id="node4" class="node">
<title>dir_0e6e5191e5dfdc6f49d858ac10643ab9</title>
<g id="a_node4"><a xlink:href="dir_0e6e5191e5dfdc6f49d858ac10643ab9.html" target="_top" xlink:title="x86_64">
<polygon fill="white" stroke="black" points="78,-124 24,-124 24,-88 78,-88 78,-124"/>
<text text-anchor="middle" x="51" y="-103.5" font-family="Helvetica,sans-Serif" font-size="10.00">x86_64</text>
</a>
</g>
</g>
<!-- dir_0e6e5191e5dfdc6f49d858ac10643ab9&#45;&gt;dir_09b68b68c2e3a0f2aba432a0e38d72da -->
<g id="edge1" class="edge">
<title>dir_0e6e5191e5dfdc6f49d858ac10643ab9&#45;&gt;dir_09b68b68c2e3a0f2aba432a0e38d72da</title>
<path fill="none" stroke="black" d="M59.9,-87.7C64,-79.73 68.95,-70.1 73.49,-61.26"/>
<polygon fill="black" stroke="black" points="76.74,-62.6 78.2,-52.1 70.52,-59.4 76.74,-62.6"/>
<g id="a_edge1&#45;headlabel"><a xlink:href="dir_000009_000005.html" target="_top" xlink:title="3">
<text text-anchor="middle" x="77.62" y="-64.59" font-family="Helvetica,sans-Serif" font-size="10.00">3</text>
</a>
</g>
</g>
</g>
</svg>
