<?xml version="1.0" encoding="UTF-8" standalone="no"?>
<!DOCTYPE svg PUBLIC "-//W3C//DTD SVG 1.1//EN"
 "http://www.w3.org/Graphics/SVG/1.1/DTD/svg11.dtd">
<!-- Generated by graphviz version 2.43.0 (0)
 -->
<!-- Title: RADKernel Pages: 1 -->
<svg width="262pt" height="148pt"
 viewBox="0.00 0.00 262.00 148.00" xmlns="http://www.w3.org/2000/svg" xmlns:xlink="http://www.w3.org/1999/xlink">
<g id="graph0" class="graph" transform="scale(1 1) rotate(0) translate(4 144)">
<title>RADKernel</title>
<polygon fill="white" stroke="transparent" points="-4,4 -4,-144 258,-144 258,4 -4,4"/>
<g id="clust1" class="cluster">
<title>clusterdir_fb680ad99fc5347a832ac668648b6544</title>
<g id="a_clust1"><a xlink:href="dir_fb680ad99fc5347a832ac668648b6544.html" target="_top">
<polygon fill="#eeeeff" stroke="black" points="8,-8 8,-132 246,-132 246,-8 8,-8"/>
</a>
</g>
</g>
<!-- dir_fb680ad99fc5347a832ac668648b6544 -->
<g id="node1" class="node">
<title>dir_fb680ad99fc5347a832ac668648b6544</title>
<text text-anchor="middle" x="204" y="-103.5" font-family="Helvetica,sans-Serif" font-size="10.00">RADKernel</text>
</g>
<!-- dir_71ed8d755f0fbc14dfe93d31b2167b9e -->
<g id="node2" class="node">
<title>dir_71ed8d755f0fbc14dfe93d31b2167b9e</title>
<g id="a_node2"><a xlink:href="dir_71ed8d755f0fbc14dfe93d31b2167b9e.html" target="_top" xlink:title="boot">
<polygon fill="white" stroke="black" points="152,-124 98,-124 98,-88 152,-88 152,-124"/>
<text text-anchor="middle" x="125" y="-103.5" font-family="Helvetica,sans-Serif" font-size="10.00">boot</text>
</a>
</g>
</g>
<!-- dir_6293e64e6168a3586b5409e9d3f86a3a -->
<g id="node3" class="node">
<title>dir_6293e64e6168a3586b5409e9d3f86a3a</title>
<g id="a_node3"><a xlink:href="dir_6293e64e6168a3586b5409e9d3f86a3a.html" target="_top" xlink:title="headers">
<polygon fill="white" stroke="red" points="114,-52 58,-52 58,-16 114,-16 114,-52"/>
<text text-anchor="middle" x="86" y="-31.5" font-family="Helvetica,sans-Serif" font-size="10.00">headers</text>
</a>
</g>
</g>
<!-- dir_71ed8d755f0fbc14dfe93d31b2167b9e&#45;&gt;dir_6293e64e6168a3586b5409e9d3f86a3a -->
<g id="edge2" class="edge">
<title>dir_71ed8d755f0fbc14dfe93d31b2167b9e&#45;&gt;dir_6293e64e6168a3586b5409e9d3f86a3a</title>
<path fill="none" stroke="black" d="M115.36,-87.7C110.87,-79.64 105.44,-69.89 100.48,-60.98"/>
<polygon fill="black" stroke="black" points="103.45,-59.14 95.53,-52.1 97.34,-62.54 103.45,-59.14"/>
<g id="a_edge2&#45;headlabel"><a xlink:href="dir_000003_000004.html" target="_top" xlink:title="1">
<text text-anchor="middle" x="107.68" y="-58.39" font-family="Helvetica,sans-Serif" font-size="10.00">1</text>
</a>
</g>
</g>
<!-- dir_5d65875888bbf770dcab7e38bbef56eb -->
<g id="node4" class="node">
<title>dir_5d65875888bbf770dcab7e38bbef56eb</title>
<g id="a_node4"><a xlink:href="dir_5d65875888bbf770dcab7e38bbef56eb.html" target="_top" xlink:title="platforms">
<polygon fill="white" stroke="red" points="80,-124 16,-124 16,-88 80,-88 80,-124"/>
<text text-anchor="middle" x="48" y="-103.5" font-family="Helvetica,sans-Serif" font-size="10.00">platforms</text>
</a>
</g>
</g>
<!-- dir_5d65875888bbf770dcab7e38bbef56eb&#45;&gt;dir_6293e64e6168a3586b5409e9d3f86a3a -->
<g id="edge1" class="edge">
<title>dir_5d65875888bbf770dcab7e38bbef56eb&#45;&gt;dir_6293e64e6168a3586b5409e9d3f86a3a</title>
<path fill="none" stroke="black" d="M57.39,-87.7C61.76,-79.64 67.06,-69.89 71.9,-60.98"/>
<polygon fill="black" stroke="black" points="75.02,-62.56 76.71,-52.1 68.87,-59.22 75.02,-62.56"/>
<g id="a_edge1&#45;headlabel"><a xlink:href="dir_000006_000004.html" target="_top" xlink:title="4">
<text text-anchor="middle" x="75.8" y="-64.58" font-family="Helvetica,sans-Serif" font-size="10.00">4</text>
</a>
</g>
</g>
</g>
</svg>
