<?xml version="1.0" encoding="UTF-8" standalone="no"?>
<!DOCTYPE svg PUBLIC "-//W3C//DTD SVG 1.1//EN"
 "http://www.w3.org/Graphics/SVG/1.1/DTD/svg11.dtd">
<!-- Generated by graphviz version 2.43.0 (0)
 -->
<!-- Title: /media/jvincent/Kingspec512/repos/RADPx&#45;OS/RADKernel/platforms/a53 Pages: 1 -->
<svg width="94pt" height="151pt"
 viewBox="0.00 0.00 94.00 151.00" xmlns="http://www.w3.org/2000/svg" xmlns:xlink="http://www.w3.org/1999/xlink">
<g id="graph0" class="graph" transform="scale(1 1) rotate(0) translate(4 147)">
<title>/media/jvincent/Kingspec512/repos/RADPx&#45;OS/RADKernel/platforms/a53</title>
<polygon fill="white" stroke="transparent" points="-4,4 -4,-147 90,-147 90,4 -4,4"/>
<g id="clust1" class="cluster">
<title>clusterdir_ab0c2900414dde3d2af3d7f79ea1acf9</title>
<g id="a_clust1"><a xlink:href="dir_ab0c2900414dde3d2af3d7f79ea1acf9.html" target="_top" xlink:title="platforms">
<polygon fill="#ddddee" stroke="black" points="8,-64 8,-135 78,-135 78,-64 8,-64"/>
<text text-anchor="middle" x="43" y="-123" font-family="Helvetica,sans-Serif" font-size="10.00">platforms</text>
</a>
</g>
</g>
<!-- dir_ee0d4095011aa0278c514e72d99d3f64 -->
<g id="node1" class="node">
<title>dir_ee0d4095011aa0278c514e72d99d3f64</title>
<g id="a_node1"><a xlink:href="dir_ee0d4095011aa0278c514e72d99d3f64.html" target="_top" xlink:title="a53">
<polygon fill="#eeeeff" stroke="black" points="70,-108 16,-108 16,-72 70,-72 70,-108"/>
<text text-anchor="middle" x="43" y="-87.5" font-family="Helvetica,sans-Serif" font-size="10.00">a53</text>
</a>
</g>
</g>
<!-- dir_09b68b68c2e3a0f2aba432a0e38d72da -->
<g id="node2" class="node">
<title>dir_09b68b68c2e3a0f2aba432a0e38d72da</title>
<g id="a_node2"><a xlink:href="dir_09b68b68c2e3a0f2aba432a0e38d72da.html" target="_top" xlink:title="headers">
<polygon fill="white" stroke="red" points="71,-36 15,-36 15,0 71,0 71,-36"/>
<text text-anchor="middle" x="43" y="-15.5" font-family="Helvetica,sans-Serif" font-size="10.00">headers</text>
</a>
</g>
</g>
<!-- dir_ee0d4095011aa0278c514e72d99d3f64&#45;&gt;dir_09b68b68c2e3a0f2aba432a0e38d72da -->
<g id="edge1" class="edge">
<title>dir_ee0d4095011aa0278c514e72d99d3f64&#45;&gt;dir_09b68b68c2e3a0f2aba432a0e38d72da</title>
<path fill="none" stroke="black" d="M43,-71.7C43,-63.98 43,-54.71 43,-46.11"/>
<polygon fill="black" stroke="black" points="46.5,-46.1 43,-36.1 39.5,-46.1 46.5,-46.1"/>
<g id="a_edge1&#45;headlabel"><a xlink:href="dir_000008_000005.html" target="_top" xlink:title="1">
<text text-anchor="middle" x="49.34" y="-47.2" font-family="Helvetica,sans-Serif" font-size="10.00">1</text>
</a>
</g>
</g>
</g>
</svg>
