<?xml version="1.0" encoding="UTF-8" standalone="no"?>
<!DOCTYPE svg PUBLIC "-//W3C//DTD SVG 1.1//EN"
 "http://www.w3.org/Graphics/SVG/1.1/DTD/svg11.dtd">
<!-- Generated by graphviz version 2.43.0 (0)
 -->
<!-- Title: RADKernel/boot Pages: 1 -->
<svg width="96pt" height="167pt"
 viewBox="0.00 0.00 96.00 167.00" xmlns="http://www.w3.org/2000/svg" xmlns:xlink="http://www.w3.org/1999/xlink">
<g id="graph0" class="graph" transform="scale(1 1) rotate(0) translate(4 163)">
<title>RADKernel/boot</title>
<polygon fill="white" stroke="transparent" points="-4,4 -4,-163 92,-163 92,4 -4,4"/>
<g id="clust1" class="cluster">
<title>clusterdir_fb680ad99fc5347a832ac668648b6544</title>
<g id="a_clust1"><a xlink:href="dir_fb680ad99fc5347a832ac668648b6544.html" target="_top" xlink:title="RADKernel">
<polygon fill="#ddddee" stroke="black" points="8,-8 8,-151 80,-151 80,-8 8,-8"/>
<text text-anchor="middle" x="44" y="-139" font-family="Helvetica,sans-Serif" font-size="10.00">RADKernel</text>
</a>
</g>
</g>
<!-- dir_6293e64e6168a3586b5409e9d3f86a3a -->
<g id="node1" class="node">
<title>dir_6293e64e6168a3586b5409e9d3f86a3a</title>
<g id="a_node1"><a xlink:href="dir_6293e64e6168a3586b5409e9d3f86a3a.html" target="_top" xlink:title="headers">
<polygon fill="white" stroke="red" points="72,-52 16,-52 16,-16 72,-16 72,-52"/>
<text text-anchor="middle" x="44" y="-31.5" font-family="Helvetica,sans-Serif" font-size="10.00">headers</text>
</a>
</g>
</g>
<!-- dir_71ed8d755f0fbc14dfe93d31b2167b9e -->
<g id="node2" class="node">
<title>dir_71ed8d755f0fbc14dfe93d31b2167b9e</title>
<g id="a_node2"><a xlink:href="dir_71ed8d755f0fbc14dfe93d31b2167b9e.html" target="_top" xlink:title="boot">
<polygon fill="#eeeeff" stroke="black" points="71,-124 17,-124 17,-88 71,-88 71,-124"/>
<text text-anchor="middle" x="44" y="-103.5" font-family="Helvetica,sans-Serif" font-size="10.00">boot</text>
</a>
</g>
</g>
<!-- dir_71ed8d755f0fbc14dfe93d31b2167b9e&#45;&gt;dir_6293e64e6168a3586b5409e9d3f86a3a -->
<g id="edge1" class="edge">
<title>dir_71ed8d755f0fbc14dfe93d31b2167b9e&#45;&gt;dir_6293e64e6168a3586b5409e9d3f86a3a</title>
<path fill="none" stroke="black" d="M44,-87.7C44,-79.98 44,-70.71 44,-62.11"/>
<polygon fill="black" stroke="black" points="47.5,-62.1 44,-52.1 40.5,-62.1 47.5,-62.1"/>
<g id="a_edge1&#45;headlabel"><a xlink:href="dir_000003_000004.html" target="_top" xlink:title="1">
<text text-anchor="middle" x="50.34" y="-63.2" font-family="Helvetica,sans-Serif" font-size="10.00">1</text>
</a>
</g>
</g>
</g>
</svg>
