<?xml version="1.0" encoding="UTF-8" standalone="no"?>
<!DOCTYPE svg PUBLIC "-//W3C//DTD SVG 1.1//EN"
 "http://www.w3.org/Graphics/SVG/1.1/DTD/svg11.dtd">
<!-- Generated by graphviz version 2.43.0 (0)
 -->
<!-- Title: /media/jvincent/Kingspec512/repos/RADPx&#45;OS/RADKernel Pages: 1 -->
<svg width="278pt" height="183pt"
 viewBox="0.00 0.00 278.00 183.00" xmlns="http://www.w3.org/2000/svg" xmlns:xlink="http://www.w3.org/1999/xlink">
<g id="graph0" class="graph" transform="scale(1 1) rotate(0) translate(4 179)">
<title>/media/jvincent/Kingspec512/repos/RADPx&#45;OS/RADKernel</title>
<polygon fill="white" stroke="transparent" points="-4,4 -4,-179 274,-179 274,4 -4,4"/>
<g id="clust1" class="cluster">
<title>clusterdir_0e58dfbf8cff7573854cd467b1dd7960</title>
<g id="a_clust1"><a xlink:href="dir_0e58dfbf8cff7573854cd467b1dd7960.html" target="_top" xlink:title="RADPx&#45;OS">
<polygon fill="#ddddee" stroke="black" points="8,-8 8,-167 262,-167 262,-8 8,-8"/>
<text text-anchor="middle" x="135" y="-155" font-family="Helvetica,sans-Serif" font-size="10.00">RADPx&#45;OS</text>
</a>
</g>
</g>
<g id="clust2" class="cluster">
<title>clusterdir_b3b35291b85533d56e75a50667d5c187</title>
<g id="a_clust2"><a xlink:href="dir_b3b35291b85533d56e75a50667d5c187.html" target="_top">
<polygon fill="#eeeeff" stroke="black" points="16,-16 16,-140 254,-140 254,-16 16,-16"/>
</a>
</g>
</g>
<!-- dir_b3b35291b85533d56e75a50667d5c187 -->
<g id="node1" class="node">
<title>dir_b3b35291b85533d56e75a50667d5c187</title>
<text text-anchor="middle" x="212" y="-111.5" font-family="Helvetica,sans-Serif" font-size="10.00">RADKernel</text>
</g>
<!-- dir_04e308941703540543f12822c5e3d2d8 -->
<g id="node2" class="node">
<title>dir_04e308941703540543f12822c5e3d2d8</title>
<g id="a_node2"><a xlink:href="dir_04e308941703540543f12822c5e3d2d8.html" target="_top" xlink:title="boot">
<polygon fill="white" stroke="black" points="160,-132 106,-132 106,-96 160,-96 160,-132"/>
<text text-anchor="middle" x="133" y="-111.5" font-family="Helvetica,sans-Serif" font-size="10.00">boot</text>
</a>
</g>
</g>
<!-- dir_09b68b68c2e3a0f2aba432a0e38d72da -->
<g id="node3" class="node">
<title>dir_09b68b68c2e3a0f2aba432a0e38d72da</title>
<g id="a_node3"><a xlink:href="dir_09b68b68c2e3a0f2aba432a0e38d72da.html" target="_top" xlink:title="headers">
<polygon fill="white" stroke="red" points="122,-60 66,-60 66,-24 122,-24 122,-60"/>
<text text-anchor="middle" x="94" y="-39.5" font-family="Helvetica,sans-Serif" font-size="10.00">headers</text>
</a>
</g>
</g>
<!-- dir_04e308941703540543f12822c5e3d2d8&#45;&gt;dir_09b68b68c2e3a0f2aba432a0e38d72da -->
<g id="edge2" class="edge">
<title>dir_04e308941703540543f12822c5e3d2d8&#45;&gt;dir_09b68b68c2e3a0f2aba432a0e38d72da</title>
<path fill="none" stroke="black" d="M123.36,-95.7C118.87,-87.64 113.44,-77.89 108.48,-68.98"/>
<polygon fill="black" stroke="black" points="111.45,-67.14 103.53,-60.1 105.34,-70.54 111.45,-67.14"/>
<g id="a_edge2&#45;headlabel"><a xlink:href="dir_000004_000005.html" target="_top" xlink:title="1">
<text text-anchor="middle" x="115.68" y="-66.39" font-family="Helvetica,sans-Serif" font-size="10.00">1</text>
</a>
</g>
</g>
<!-- dir_ab0c2900414dde3d2af3d7f79ea1acf9 -->
<g id="node4" class="node">
<title>dir_ab0c2900414dde3d2af3d7f79ea1acf9</title>
<g id="a_node4"><a xlink:href="dir_ab0c2900414dde3d2af3d7f79ea1acf9.html" target="_top" xlink:title="platforms">
<polygon fill="white" stroke="red" points="88,-132 24,-132 24,-96 88,-96 88,-132"/>
<text text-anchor="middle" x="56" y="-111.5" font-family="Helvetica,sans-Serif" font-size="10.00">platforms</text>
</a>
</g>
</g>
<!-- dir_ab0c2900414dde3d2af3d7f79ea1acf9&#45;&gt;dir_09b68b68c2e3a0f2aba432a0e38d72da -->
<g id="edge1" class="edge">
<title>dir_ab0c2900414dde3d2af3d7f79ea1acf9&#45;&gt;dir_09b68b68c2e3a0f2aba432a0e38d72da</title>
<path fill="none" stroke="black" d="M65.39,-95.7C69.76,-87.64 75.06,-77.89 79.9,-68.98"/>
<polygon fill="black" stroke="black" points="83.02,-70.56 84.71,-60.1 76.87,-67.22 83.02,-70.56"/>
<g id="a_edge1&#45;headlabel"><a xlink:href="dir_000007_000005.html" target="_top" xlink:title="4">
<text text-anchor="middle" x="83.8" y="-72.58" font-family="Helvetica,sans-Serif" font-size="10.00">4</text>
</a>
</g>
</g>
</g>
</svg>
