<?xml version="1.0" encoding="UTF-8" standalone="no"?>
<!DOCTYPE svg PUBLIC "-//W3C//DTD SVG 1.1//EN"
 "http://www.w3.org/Graphics/SVG/1.1/DTD/svg11.dtd">
<!-- Generated by graphviz version 2.43.0 (0)
 -->
<!-- Title: /media/jvincent/Kingspec512/repos/RADPx&#45;OS/RADKernel/headers/radkernel/rad_cpp.h Pages: 1 -->
<svg width="224pt" height="162pt"
 viewBox="0.00 0.00 223.50 162.00" xmlns="http://www.w3.org/2000/svg" xmlns:xlink="http://www.w3.org/1999/xlink">
<g id="graph0" class="graph" transform="scale(1 1) rotate(0) translate(4 158)">
<title>/media/jvincent/Kingspec512/repos/RADPx&#45;OS/RADKernel/headers/radkernel/rad_cpp.h</title>
<polygon fill="white" stroke="transparent" points="-4,4 -4,-158 219.5,-158 219.5,4 -4,4"/>
<!-- Node1 -->
<g id="node1" class="node">
<title>Node1</title>
<g id="a_node1"><a xlink:title="Small C++ convenience wrappers over the RADPx&#45;OS C kernel ABI.">
<polygon fill="#bfbfbf" stroke="black" points="30,-112.5 30,-153.5 188,-153.5 188,-112.5 30,-112.5"/>
<text text-anchor="start" x="38" y="-141.5" font-family="Helvetica,sans-Serif" font-size="10.00">/media/jvincent/Kingspec512</text>
<text text-anchor="start" x="38" y="-130.5" font-family="Helvetica,sans-Serif" font-size="10.00">/repos/RADPx&#45;OS/RADKernel</text>
<text text-anchor="middle" x="109" y="-119.5" font-family="Helvetica,sans-Serif" font-size="10.00">/headers/radkernel/rad_cpp.h</text>
</a>
</g>
</g>
<!-- Node2 -->
<g id="node2" class="node">
<title>Node2</title>
<g id="a_node2"><a xlink:href="radkernel_8h.html" target="_top" xlink:title="Portable RADPx&#45;OS kernel service ABI for RADLib and RADPx&#45;OS targets.">
<polygon fill="white" stroke="black" points="49,-56.5 49,-75.5 169,-75.5 169,-56.5 49,-56.5"/>
<text text-anchor="middle" x="109" y="-63.5" font-family="Helvetica,sans-Serif" font-size="10.00">radkernel/radkernel.h</text>
</a>
</g>
</g>
<!-- Node1&#45;&gt;Node2 -->
<g id="edge1" class="edge">
<title>Node1&#45;&gt;Node2</title>
<path fill="none" stroke="midnightblue" d="M109,-112.5C109,-104.07 109,-94.24 109,-85.87"/>
<polygon fill="midnightblue" stroke="midnightblue" points="112.5,-85.65 109,-75.65 105.5,-85.65 112.5,-85.65"/>
</g>
<!-- Node3 -->
<g id="node3" class="node">
<title>Node3</title>
<g id="a_node3"><a xlink:title=" ">
<polygon fill="white" stroke="#bfbfbf" points="0,-0.5 0,-19.5 56,-19.5 56,-0.5 0,-0.5"/>
<text text-anchor="middle" x="28" y="-7.5" font-family="Helvetica,sans-Serif" font-size="10.00">stddef.h</text>
</a>
</g>
</g>
<!-- Node1&#45;&gt;Node3 -->
<g id="edge5" class="edge">
<title>Node1&#45;&gt;Node3</title>
<path fill="none" stroke="midnightblue" d="M75.72,-112.37C62.62,-102.98 48.66,-90.59 40,-76 31.67,-61.97 28.89,-43.47 28.07,-29.8"/>
<polygon fill="midnightblue" stroke="midnightblue" points="31.56,-29.54 27.76,-19.65 24.56,-29.75 31.56,-29.54"/>
</g>
<!-- Node4 -->
<g id="node4" class="node">
<title>Node4</title>
<g id="a_node4"><a xlink:title=" ">
<polygon fill="white" stroke="#bfbfbf" points="162.5,-0.5 162.5,-19.5 215.5,-19.5 215.5,-0.5 162.5,-0.5"/>
<text text-anchor="middle" x="189" y="-7.5" font-family="Helvetica,sans-Serif" font-size="10.00">stdint.h</text>
</a>
</g>
</g>
<!-- Node1&#45;&gt;Node4 -->
<g id="edge6" class="edge">
<title>Node1&#45;&gt;Node4</title>
<path fill="none" stroke="midnightblue" d="M142.38,-112.43C155.5,-103.06 169.45,-90.66 178,-76 186.2,-61.95 188.69,-43.45 189.27,-29.78"/>
<polygon fill="midnightblue" stroke="midnightblue" points="192.78,-29.69 189.41,-19.64 185.78,-29.6 192.78,-29.69"/>
</g>
<!-- Node2&#45;&gt;Node3 -->
<g id="edge2" class="edge">
<title>Node2&#45;&gt;Node3</title>
<path fill="none" stroke="midnightblue" d="M95.99,-56.32C83.47,-47.98 64.32,-35.21 49.53,-25.35"/>
<polygon fill="midnightblue" stroke="midnightblue" points="51.24,-22.29 40.98,-19.65 47.36,-28.11 51.24,-22.29"/>
</g>
<!-- Node2&#45;&gt;Node4 -->
<g id="edge3" class="edge">
<title>Node2&#45;&gt;Node4</title>
<path fill="none" stroke="midnightblue" d="M121.85,-56.32C134.22,-47.98 153.13,-35.21 167.74,-25.35"/>
<polygon fill="midnightblue" stroke="midnightblue" points="169.85,-28.15 176.18,-19.65 165.93,-22.35 169.85,-28.15"/>
</g>
<!-- Node5 -->
<g id="node5" class="node">
<title>Node5</title>
<g id="a_node5"><a xlink:title=" ">
<polygon fill="white" stroke="#bfbfbf" points="81,-0.5 81,-19.5 137,-19.5 137,-0.5 81,-0.5"/>
<text text-anchor="middle" x="109" y="-7.5" font-family="Helvetica,sans-Serif" font-size="10.00">stdarg.h</text>
</a>
</g>
</g>
<!-- Node2&#45;&gt;Node5 -->
<g id="edge4" class="edge">
<title>Node2&#45;&gt;Node5</title>
<path fill="none" stroke="midnightblue" d="M109,-56.08C109,-49.01 109,-38.86 109,-29.99"/>
<polygon fill="midnightblue" stroke="midnightblue" points="112.5,-29.75 109,-19.75 105.5,-29.75 112.5,-29.75"/>
</g>
</g>
</svg>
