<?xml version="1.0" encoding="UTF-8" standalone="no"?>
<!DOCTYPE svg PUBLIC "-//W3C//DTD SVG 1.1//EN"
 "http://www.w3.org/Graphics/SVG/1.1/DTD/svg11.dtd">
<!-- Generated by graphviz version 2.43.0 (0)
 -->
<!-- Title: RADKernel/headers/radkernel/rad_cpp.h Pages: 1 -->
<svg width="224pt" height="151pt"
 viewBox="0.00 0.00 223.50 151.00" xmlns="http://www.w3.org/2000/svg" xmlns:xlink="http://www.w3.org/1999/xlink">
<g id="graph0" class="graph" transform="scale(1 1) rotate(0) translate(4 147)">
<title>RADKernel/headers/radkernel/rad_cpp.h</title>
<polygon fill="white" stroke="transparent" points="-4,4 -4,-147 219.5,-147 219.5,4 -4,4"/>
<!-- Node1 -->
<g id="node1" class="node">
<title>Node1</title>
<g id="a_node1"><a xlink:title="Small C++ convenience wrappers over the RADPx&#45;OS C kernel ABI.">
<polygon fill="#bfbfbf" stroke="black" points="29.5,-112.5 29.5,-142.5 188.5,-142.5 188.5,-112.5 29.5,-112.5"/>
<text text-anchor="start" x="37.5" y="-130.5" font-family="Helvetica,sans-Serif" font-size="10.00">RADKernel/headers/radkernel</text>
<text text-anchor="middle" x="109" y="-119.5" font-family="Helvetica,sans-Serif" font-size="10.00">/rad_cpp.h</text>
</a>
</g>
</g>
<!-- Node2 -->
<g id="node2" class="node">
<title>Node2</title>
<g id="a_node2"><a xlink:href="radkernel_8h.html" target="_top" xlink:title="Portable RADPx&#45;OS kernel service ABI for RADLib and RADPx&#45;OS targets.">
<polygon fill="white" stroke="black" points="49,-56.5 49,-75.5 169,-75.5 169,-56.5 49,-56.5"/>
<text text-anchor="middle" x="109" y="-63.5" font-family="Helvetica,sans-Serif" font-size="10.00">radkernel/radkernel.h</text>
</a>
</g>
</g>
<!-- Node1&#45;&gt;Node2 -->
<g id="edge1" class="edge">
<title>Node1&#45;&gt;Node2</title>
<path fill="none" stroke="midnightblue" d="M109,-112.4C109,-104.47 109,-94.46 109,-85.86"/>
<polygon fill="midnightblue" stroke="midnightblue" points="112.5,-85.66 109,-75.66 105.5,-85.66 112.5,-85.66"/>
</g>
<!-- Node3 -->
<g id="node3" class="node">
<title>Node3</title>
<g id="a_node3"><a xlink:title=" ">
<polygon fill="white" stroke="#bfbfbf" points="0,-0.5 0,-19.5 56,-19.5 56,-0.5 0,-0.5"/>
<text text-anchor="middle" x="28" y="-7.5" font-family="Helvetica,sans-Serif" font-size="10.00">stddef.h</text>
</a>
</g>
</g>
<!-- Node1&#45;&gt;Node3 -->
<g id="edge5" class="edge">
<title>Node1&#45;&gt;Node3</title>
<path fill="none" stroke="midnightblue" d="M80.34,-112.29C66.02,-103.72 49.71,-91.46 40,-76 31.32,-62.18 28.58,-43.66 27.86,-29.93"/>
<polygon fill="midnightblue" stroke="midnightblue" points="31.36,-29.64 27.64,-19.72 24.36,-29.79 31.36,-29.64"/>
</g>
<!-- Node4 -->
<g id="node4" class="node">
<title>Node4</title>
<g id="a_node4"><a xlink:title=" ">
<polygon fill="white" stroke="#bfbfbf" points="162.5,-0.5 162.5,-19.5 215.5,-19.5 215.5,-0.5 162.5,-0.5"/>
<text text-anchor="middle" x="189" y="-7.5" font-family="Helvetica,sans-Serif" font-size="10.00">stdint.h</text>
</a>
</g>
</g>
<!-- Node1&#45;&gt;Node4 -->
<g id="edge6" class="edge">
<title>Node1&#45;&gt;Node4</title>
<path fill="none" stroke="midnightblue" d="M137.75,-112.35C152.1,-103.8 168.4,-91.53 178,-76 186.55,-62.15 189,-43.64 189.48,-29.91"/>
<polygon fill="midnightblue" stroke="midnightblue" points="192.98,-29.72 189.52,-19.71 185.98,-29.7 192.98,-29.72"/>
</g>
<!-- Node2&#45;&gt;Node3 -->
<g id="edge2" class="edge">
<title>Node2&#45;&gt;Node3</title>
<path fill="none" stroke="midnightblue" d="M95.99,-56.32C83.47,-47.98 64.32,-35.21 49.53,-25.35"/>
<polygon fill="midnightblue" stroke="midnightblue" points="51.24,-22.29 40.98,-19.65 47.36,-28.11 51.24,-22.29"/>
</g>
<!-- Node2&#45;&gt;Node4 -->
<g id="edge3" class="edge">
<title>Node2&#45;&gt;Node4</title>
<path fill="none" stroke="midnightblue" d="M121.85,-56.32C134.22,-47.98 153.13,-35.21 167.74,-25.35"/>
<polygon fill="midnightblue" stroke="midnightblue" points="169.85,-28.15 176.18,-19.65 165.93,-22.35 169.85,-28.15"/>
</g>
<!-- Node5 -->
<g id="node5" class="node">
<title>Node5</title>
<g id="a_node5"><a xlink:title=" ">
<polygon fill="white" stroke="#bfbfbf" points="81,-0.5 81,-19.5 137,-19.5 137,-0.5 81,-0.5"/>
<text text-anchor="middle" x="109" y="-7.5" font-family="Helvetica,sans-Serif" font-size="10.00">stdarg.h</text>
</a>
</g>
</g>
<!-- Node2&#45;&gt;Node5 -->
<g id="edge4" class="edge">
<title>Node2&#45;&gt;Node5</title>
<path fill="none" stroke="midnightblue" d="M109,-56.08C109,-49.01 109,-38.86 109,-29.99"/>
<polygon fill="midnightblue" stroke="midnightblue" points="112.5,-29.75 109,-19.75 105.5,-29.75 112.5,-29.75"/>
</g>
</g>
</svg>
