<?xml version="1.0" encoding="UTF-8" standalone="no"?>
<!DOCTYPE svg PUBLIC "-//W3C//DTD SVG 1.1//EN"
 "http://www.w3.org/Graphics/SVG/1.1/DTD/svg11.dtd">
<!-- Generated by graphviz version 2.43.0 (0)
 -->
<!-- Title: /media/jvincent/Kingspec512/repos/RADPx&#45;OS/RADKernel/headers/radkernel/radkernel.h Pages: 1 -->
<svg width="5847pt" height="128pt"
 viewBox="0.00 0.00 5846.50 128.00" xmlns="http://www.w3.org/2000/svg" xmlns:xlink="http://www.w3.org/1999/xlink">
<g id="graph0" class="graph" transform="scale(1 1) rotate(0) translate(4 124)">
<title>/media/jvincent/Kingspec512/repos/RADPx&#45;OS/RADKernel/headers/radkernel/radkernel.h</title>
<polygon fill="white" stroke="transparent" points="-4,4 -4,-124 5842.5,-124 5842.5,4 -4,4"/>
<!-- Node1 -->
<g id="node1" class="node">
<title>Node1</title>
<g id="a_node1"><a xlink:title="Portable RADPx&#45;OS kernel service ABI for RADLib and RADPx&#45;OS targets.">
<polygon fill="#bfbfbf" stroke="black" points="2870,-78.5 2870,-119.5 3035,-119.5 3035,-78.5 2870,-78.5"/>
<text text-anchor="start" x="2878" y="-107.5" font-family="Helvetica,sans-Serif" font-size="10.00">/media/jvincent/Kingspec512</text>
<text text-anchor="start" x="2878" y="-96.5" font-family="Helvetica,sans-Serif" font-size="10.00">/repos/RADPx&#45;OS/RADKernel</text>
<text text-anchor="middle" x="2952.5" y="-85.5" font-family="Helvetica,sans-Serif" font-size="10.00">/headers/radkernel/radkernel.h</text>
</a>
</g>
</g>
<!-- Node2 -->
<g id="node2" class="node">
<title>Node2</title>
<g id="a_node2"><a xlink:href="rad__audio_8h_source.html" target="_top" xlink:title=" ">
<polygon fill="white" stroke="black" points="0,-0.5 0,-41.5 167,-41.5 167,-0.5 0,-0.5"/>
<text text-anchor="start" x="8" y="-29.5" font-family="Helvetica,sans-Serif" font-size="10.00">/media/jvincent/Kingspec512</text>
<text text-anchor="start" x="8" y="-18.5" font-family="Helvetica,sans-Serif" font-size="10.00">/repos/RADPx&#45;OS/RADKernel</text>
<text text-anchor="middle" x="83.5" y="-7.5" font-family="Helvetica,sans-Serif" font-size="10.00">/headers/radkernel/rad_audio.h</text>
</a>
</g>
</g>
<!-- Node1&#45;&gt;Node2 -->
<g id="edge1" class="edge">
<title>Node1&#45;&gt;Node2</title>
<path fill="none" stroke="midnightblue" d="M2859.83,-97.2C2407.95,-93.15 446.41,-73.87 175.5,-42 172.74,-41.68 169.94,-41.31 167.12,-40.9"/>
<polygon fill="midnightblue" stroke="midnightblue" points="2859.87,-100.7 2869.9,-97.29 2859.93,-93.7 2859.87,-100.7"/>
</g>
<!-- Node3 -->
<g id="node3" class="node">
<title>Node3</title>
<g id="a_node3"><a xlink:href="rad__block_8h_source.html" target="_top" xlink:title=" ">
<polygon fill="white" stroke="black" points="185,-0.5 185,-41.5 352,-41.5 352,-0.5 185,-0.5"/>
<text text-anchor="start" x="193" y="-29.5" font-family="Helvetica,sans-Serif" font-size="10.00">/media/jvincent/Kingspec512</text>
<text text-anchor="start" x="193" y="-18.5" font-family="Helvetica,sans-Serif" font-size="10.00">/repos/RADPx&#45;OS/RADKernel</text>
<text text-anchor="middle" x="268.5" y="-7.5" font-family="Helvetica,sans-Serif" font-size="10.00">/headers/radkernel/rad_block.h</text>
</a>
</g>
</g>
<!-- Node1&#45;&gt;Node3 -->
<g id="edge2" class="edge">
<title>Node1&#45;&gt;Node3</title>
<path fill="none" stroke="midnightblue" d="M2859.66,-98.39C2456.92,-99.7 859.06,-101.02 360.5,-42 357.74,-41.67 354.94,-41.3 352.12,-40.89"/>
<polygon fill="midnightblue" stroke="midnightblue" points="2859.81,-101.89 2869.8,-98.35 2859.79,-94.89 2859.81,-101.89"/>
</g>
<!-- Node4 -->
<g id="node4" class="node">
<title>Node4</title>
<g id="a_node4"><a xlink:href="rad__cpp_8h.html" target="_top" xlink:title="Small C++ convenience wrappers over the RADPx&#45;OS C kernel ABI.">
<polygon fill="white" stroke="black" points="369.5,-0.5 369.5,-41.5 527.5,-41.5 527.5,-0.5 369.5,-0.5"/>
<text text-anchor="start" x="377.5" y="-29.5" font-family="Helvetica,sans-Serif" font-size="10.00">/media/jvincent/Kingspec512</text>
<text text-anchor="start" x="377.5" y="-18.5" font-family="Helvetica,sans-Serif" font-size="10.00">/repos/RADPx&#45;OS/RADKernel</text>
<text text-anchor="middle" x="448.5" y="-7.5" font-family="Helvetica,sans-Serif" font-size="10.00">/headers/radkernel/rad_cpp.h</text>
</a>
</g>
</g>
<!-- Node1&#45;&gt;Node4 -->
<g id="edge3" class="edge">
<title>Node1&#45;&gt;Node4</title>
<path fill="none" stroke="midnightblue" d="M2859.66,-98.33C2474.17,-99.33 998.36,-99.25 536.5,-42 533.55,-41.63 530.55,-41.21 527.52,-40.74"/>
<polygon fill="midnightblue" stroke="midnightblue" points="2859.94,-101.83 2869.93,-98.31 2859.92,-94.83 2859.94,-101.83"/>
</g>
<!-- Node5 -->
<g id="node5" class="node">
<title>Node5</title>
<g id="a_node5"><a xlink:href="rad__device_8h_source.html" target="_top" xlink:title=" ">
<polygon fill="white" stroke="black" points="546,-0.5 546,-41.5 719,-41.5 719,-0.5 546,-0.5"/>
<text text-anchor="start" x="554" y="-29.5" font-family="Helvetica,sans-Serif" font-size="10.00">/media/jvincent/Kingspec512</text>
<text text-anchor="start" x="554" y="-18.5" font-family="Helvetica,sans-Serif" font-size="10.00">/repos/RADPx&#45;OS/RADKernel</text>
<text text-anchor="middle" x="632.5" y="-7.5" font-family="Helvetica,sans-Serif" font-size="10.00">/headers/radkernel/rad_device.h</text>
</a>
</g>
</g>
<!-- Node1&#45;&gt;Node5 -->
<g id="edge4" class="edge">
<title>Node1&#45;&gt;Node5</title>
<path fill="none" stroke="midnightblue" d="M2859.84,-97.89C2494.23,-97.12 1151.25,-90.95 728.5,-42 725.46,-41.65 722.37,-41.25 719.25,-40.8"/>
<polygon fill="midnightblue" stroke="midnightblue" points="2859.84,-101.39 2869.85,-97.91 2859.85,-94.39 2859.84,-101.39"/>
</g>
<!-- Node6 -->
<g id="node6" class="node">
<title>Node6</title>
<g id="a_node6"><a xlink:href="rad__display_8h_source.html" target="_top" xlink:title=" ">
<polygon fill="white" stroke="black" points="737.5,-0.5 737.5,-41.5 911.5,-41.5 911.5,-0.5 737.5,-0.5"/>
<text text-anchor="start" x="745.5" y="-29.5" font-family="Helvetica,sans-Serif" font-size="10.00">/media/jvincent/Kingspec512</text>
<text text-anchor="start" x="745.5" y="-18.5" font-family="Helvetica,sans-Serif" font-size="10.00">/repos/RADPx&#45;OS/RADKernel</text>
<text text-anchor="middle" x="824.5" y="-7.5" font-family="Helvetica,sans-Serif" font-size="10.00">/headers/radkernel/rad_display.h</text>
</a>
</g>
</g>
<!-- Node1&#45;&gt;Node6 -->
<g id="edge5" class="edge">
<title>Node1&#45;&gt;Node6</title>
<path fill="none" stroke="midnightblue" d="M2859.6,-97.63C2514.11,-95.93 1303.62,-86.83 920.5,-42 917.54,-41.65 914.54,-41.26 911.51,-40.83"/>
<polygon fill="midnightblue" stroke="midnightblue" points="2859.8,-101.13 2869.82,-97.68 2859.83,-94.13 2859.8,-101.13"/>
</g>
<!-- Node7 -->
<g id="node7" class="node">
<title>Node7</title>
<g id="a_node7"><a xlink:href="rad__dma_8h_source.html" target="_top" xlink:title=" ">
<polygon fill="white" stroke="black" points="929.5,-0.5 929.5,-41.5 1091.5,-41.5 1091.5,-0.5 929.5,-0.5"/>
<text text-anchor="start" x="937.5" y="-29.5" font-family="Helvetica,sans-Serif" font-size="10.00">/media/jvincent/Kingspec512</text>
<text text-anchor="start" x="937.5" y="-18.5" font-family="Helvetica,sans-Serif" font-size="10.00">/repos/RADPx&#45;OS/RADKernel</text>
<text text-anchor="middle" x="1010.5" y="-7.5" font-family="Helvetica,sans-Serif" font-size="10.00">/headers/radkernel/rad_dma.h</text>
</a>
</g>
</g>
<!-- Node1&#45;&gt;Node7 -->
<g id="edge6" class="edge">
<title>Node1&#45;&gt;Node7</title>
<path fill="none" stroke="midnightblue" d="M2859.46,-97.5C2533.8,-95.41 1446.35,-85.26 1100.5,-42 1097.64,-41.64 1094.74,-41.24 1091.81,-40.79"/>
<polygon fill="midnightblue" stroke="midnightblue" points="2859.77,-101.01 2869.79,-97.57 2859.81,-94.01 2859.77,-101.01"/>
</g>
<!-- Node8 -->
<g id="node8" class="node">
<title>Node8</title>
<g id="a_node8"><a xlink:href="rad__event_8h_source.html" target="_top" xlink:title=" ">
<polygon fill="white" stroke="black" points="1109.5,-0.5 1109.5,-41.5 1277.5,-41.5 1277.5,-0.5 1109.5,-0.5"/>
<text text-anchor="start" x="1117.5" y="-29.5" font-family="Helvetica,sans-Serif" font-size="10.00">/media/jvincent/Kingspec512</text>
<text text-anchor="start" x="1117.5" y="-18.5" font-family="Helvetica,sans-Serif" font-size="10.00">/repos/RADPx&#45;OS/RADKernel</text>
<text text-anchor="middle" x="1193.5" y="-7.5" font-family="Helvetica,sans-Serif" font-size="10.00">/headers/radkernel/rad_event.h</text>
</a>
</g>
</g>
<!-- Node1&#45;&gt;Node8 -->
<g id="edge7" class="edge">
<title>Node1&#45;&gt;Node8</title>
<path fill="none" stroke="midnightblue" d="M2859.9,-97.06C2556.57,-93.64 1594.64,-80 1286.5,-42 1283.55,-41.64 1280.55,-41.22 1277.54,-40.77"/>
<polygon fill="midnightblue" stroke="midnightblue" points="2859.94,-100.56 2869.98,-97.17 2860.02,-93.56 2859.94,-100.56"/>
</g>
<!-- Node9 -->
<g id="node9" class="node">
<title>Node9</title>
<g id="a_node9"><a xlink:href="rad__i2c_8h_source.html" target="_top" xlink:title=" ">
<polygon fill="white" stroke="black" points="1295.5,-0.5 1295.5,-41.5 1453.5,-41.5 1453.5,-0.5 1295.5,-0.5"/>
<text text-anchor="start" x="1303.5" y="-29.5" font-family="Helvetica,sans-Serif" font-size="10.00">/media/jvincent/Kingspec512</text>
<text text-anchor="start" x="1303.5" y="-18.5" font-family="Helvetica,sans-Serif" font-size="10.00">/repos/RADPx&#45;OS/RADKernel</text>
<text text-anchor="middle" x="1374.5" y="-7.5" font-family="Helvetica,sans-Serif" font-size="10.00">/headers/radkernel/rad_i2c.h</text>
</a>
</g>
</g>
<!-- Node1&#45;&gt;Node9 -->
<g id="edge8" class="edge">
<title>Node1&#45;&gt;Node9</title>
<path fill="none" stroke="midnightblue" d="M2859.71,-96.77C2577.89,-92.68 1734.57,-77.71 1462.5,-42 1459.55,-41.61 1456.55,-41.17 1453.53,-40.69"/>
<polygon fill="midnightblue" stroke="midnightblue" points="2859.85,-100.27 2869.9,-96.92 2859.95,-93.27 2859.85,-100.27"/>
</g>
<!-- Node10 -->
<g id="node10" class="node">
<title>Node10</title>
<g id="a_node10"><a xlink:href="rad__input_8h_source.html" target="_top" xlink:title=" ">
<polygon fill="white" stroke="black" points="1472,-0.5 1472,-41.5 1637,-41.5 1637,-0.5 1472,-0.5"/>
<text text-anchor="start" x="1480" y="-29.5" font-family="Helvetica,sans-Serif" font-size="10.00">/media/jvincent/Kingspec512</text>
<text text-anchor="start" x="1480" y="-18.5" font-family="Helvetica,sans-Serif" font-size="10.00">/repos/RADPx&#45;OS/RADKernel</text>
<text text-anchor="middle" x="1554.5" y="-7.5" font-family="Helvetica,sans-Serif" font-size="10.00">/headers/radkernel/rad_input.h</text>
</a>
</g>
</g>
<!-- Node1&#45;&gt;Node10 -->
<g id="edge9" class="edge">
<title>Node1&#45;&gt;Node10</title>
<path fill="none" stroke="midnightblue" d="M2859.7,-96.12C2601.92,-90.56 1880.66,-72.64 1645.5,-42 1642.77,-41.64 1640.01,-41.25 1637.22,-40.82"/>
<polygon fill="midnightblue" stroke="midnightblue" points="2859.71,-99.62 2869.78,-96.33 2859.86,-92.62 2859.71,-99.62"/>
</g>
<!-- Node11 -->
<g id="node11" class="node">
<title>Node11</title>
<g id="a_node11"><a xlink:href="rad__ioctl_8h_source.html" target="_top" xlink:title=" ">
<polygon fill="white" stroke="black" points="1655,-0.5 1655,-41.5 1816,-41.5 1816,-0.5 1655,-0.5"/>
<text text-anchor="start" x="1663" y="-29.5" font-family="Helvetica,sans-Serif" font-size="10.00">/media/jvincent/Kingspec512</text>
<text text-anchor="start" x="1663" y="-18.5" font-family="Helvetica,sans-Serif" font-size="10.00">/repos/RADPx&#45;OS/RADKernel</text>
<text text-anchor="middle" x="1735.5" y="-7.5" font-family="Helvetica,sans-Serif" font-size="10.00">/headers/radkernel/rad_ioctl.h</text>
</a>
</g>
</g>
<!-- Node1&#45;&gt;Node11 -->
<g id="edge10" class="edge">
<title>Node1&#45;&gt;Node11</title>
<path fill="none" stroke="midnightblue" d="M2859.57,-98.68C2666.19,-98.92 2206.72,-93.45 1825.5,-42 1822.49,-41.59 1819.42,-41.14 1816.34,-40.64"/>
<polygon fill="midnightblue" stroke="midnightblue" points="2859.7,-102.18 2869.7,-98.66 2859.69,-95.18 2859.7,-102.18"/>
</g>
<!-- Node12 -->
<g id="node12" class="node">
<title>Node12</title>
<g id="a_node12"><a xlink:href="rad__irq_8h_source.html" target="_top" xlink:title=" ">
<polygon fill="white" stroke="black" points="1834.5,-0.5 1834.5,-41.5 1992.5,-41.5 1992.5,-0.5 1834.5,-0.5"/>
<text text-anchor="start" x="1842.5" y="-29.5" font-family="Helvetica,sans-Serif" font-size="10.00">/media/jvincent/Kingspec512</text>
<text text-anchor="start" x="1842.5" y="-18.5" font-family="Helvetica,sans-Serif" font-size="10.00">/repos/RADPx&#45;OS/RADKernel</text>
<text text-anchor="middle" x="1913.5" y="-7.5" font-family="Helvetica,sans-Serif" font-size="10.00">/headers/radkernel/rad_irq.h</text>
</a>
</g>
</g>
<!-- Node1&#45;&gt;Node12 -->
<g id="edge11" class="edge">
<title>Node1&#45;&gt;Node12</title>
<path fill="none" stroke="midnightblue" d="M2859.79,-97.59C2689.12,-95.73 2314.01,-86.41 2001.5,-42 1998.55,-41.58 1995.56,-41.11 1992.54,-40.61"/>
<polygon fill="midnightblue" stroke="midnightblue" points="2859.96,-101.09 2870,-97.7 2860.03,-94.1 2859.96,-101.09"/>
</g>
<!-- Node13 -->
<g id="node13" class="node">
<title>Node13</title>
<g id="a_node13"><a xlink:href="rad__memory_8h_source.html" target="_top" xlink:title=" ">
<polygon fill="white" stroke="black" points="2010.5,-0.5 2010.5,-41.5 2190.5,-41.5 2190.5,-0.5 2010.5,-0.5"/>
<text text-anchor="start" x="2018.5" y="-29.5" font-family="Helvetica,sans-Serif" font-size="10.00">/media/jvincent/Kingspec512</text>
<text text-anchor="start" x="2018.5" y="-18.5" font-family="Helvetica,sans-Serif" font-size="10.00">/repos/RADPx&#45;OS/RADKernel</text>
<text text-anchor="middle" x="2100.5" y="-7.5" font-family="Helvetica,sans-Serif" font-size="10.00">/headers/radkernel/rad_memory.h</text>
</a>
</g>
</g>
<!-- Node1&#45;&gt;Node13 -->
<g id="edge12" class="edge">
<title>Node1&#45;&gt;Node13</title>
<path fill="none" stroke="midnightblue" d="M2859.96,-94.85C2717.51,-89.15 2436.18,-74.58 2199.5,-42 2196.55,-41.59 2193.55,-41.15 2190.53,-40.68"/>
<polygon fill="midnightblue" stroke="midnightblue" points="2859.84,-98.34 2869.97,-95.24 2860.12,-91.35 2859.84,-98.34"/>
</g>
<!-- Node14 -->
<g id="node14" class="node">
<title>Node14</title>
<g id="a_node14"><a xlink:href="rad__module_8h_source.html" target="_top" xlink:title=" ">
<polygon fill="white" stroke="black" points="2209,-0.5 2209,-41.5 2386,-41.5 2386,-0.5 2209,-0.5"/>
<text text-anchor="start" x="2217" y="-29.5" font-family="Helvetica,sans-Serif" font-size="10.00">/media/jvincent/Kingspec512</text>
<text text-anchor="start" x="2217" y="-18.5" font-family="Helvetica,sans-Serif" font-size="10.00">/repos/RADPx&#45;OS/RADKernel</text>
<text text-anchor="middle" x="2297.5" y="-7.5" font-family="Helvetica,sans-Serif" font-size="10.00">/headers/radkernel/rad_module.h</text>
</a>
</g>
</g>
<!-- Node1&#45;&gt;Node14 -->
<g id="edge13" class="edge">
<title>Node1&#45;&gt;Node14</title>
<path fill="none" stroke="midnightblue" d="M2859.45,-91.54C2748.56,-83.17 2557.86,-66.66 2395.5,-42 2392.41,-41.53 2389.27,-41.03 2386.1,-40.5"/>
<polygon fill="midnightblue" stroke="midnightblue" points="2859.36,-95.04 2869.6,-92.3 2859.89,-88.06 2859.36,-95.04"/>
</g>
<!-- Node15 -->
<g id="node15" class="node">
<title>Node15</title>
<g id="a_node15"><a xlink:href="rad__mutex_8h_source.html" target="_top" xlink:title=" ">
<polygon fill="white" stroke="black" points="2404.5,-0.5 2404.5,-41.5 2576.5,-41.5 2576.5,-0.5 2404.5,-0.5"/>
<text text-anchor="start" x="2412.5" y="-29.5" font-family="Helvetica,sans-Serif" font-size="10.00">/media/jvincent/Kingspec512</text>
<text text-anchor="start" x="2412.5" y="-18.5" font-family="Helvetica,sans-Serif" font-size="10.00">/repos/RADPx&#45;OS/RADKernel</text>
<text text-anchor="middle" x="2490.5" y="-7.5" font-family="Helvetica,sans-Serif" font-size="10.00">/headers/radkernel/rad_mutex.h</text>
</a>
</g>
</g>
<!-- Node1&#45;&gt;Node15 -->
<g id="edge14" class="edge">
<title>Node1&#45;&gt;Node15</title>
<path fill="none" stroke="midnightblue" d="M2859.66,-85.3C2785.32,-74.78 2678.47,-58.87 2585.5,-42 2582.6,-41.47 2579.65,-40.93 2576.67,-40.36"/>
<polygon fill="midnightblue" stroke="midnightblue" points="2859.54,-88.82 2869.93,-86.75 2860.51,-81.89 2859.54,-88.82"/>
</g>
<!-- Node16 -->
<g id="node16" class="node">
<title>Node16</title>
<g id="a_node16"><a xlink:href="rad__net_8h_source.html" target="_top" xlink:title=" ">
<polygon fill="white" stroke="black" points="2594.5,-0.5 2594.5,-41.5 2752.5,-41.5 2752.5,-0.5 2594.5,-0.5"/>
<text text-anchor="start" x="2602.5" y="-29.5" font-family="Helvetica,sans-Serif" font-size="10.00">/media/jvincent/Kingspec512</text>
<text text-anchor="start" x="2602.5" y="-18.5" font-family="Helvetica,sans-Serif" font-size="10.00">/repos/RADPx&#45;OS/RADKernel</text>
<text text-anchor="middle" x="2673.5" y="-7.5" font-family="Helvetica,sans-Serif" font-size="10.00">/headers/radkernel/rad_net.h</text>
</a>
</g>
</g>
<!-- Node1&#45;&gt;Node16 -->
<g id="edge15" class="edge">
<title>Node1&#45;&gt;Node16</title>
<path fill="none" stroke="midnightblue" d="M2870.96,-75.79C2831.09,-64.93 2783.55,-51.98 2745.11,-41.51"/>
<polygon fill="midnightblue" stroke="midnightblue" points="2870.08,-79.18 2880.65,-78.43 2871.92,-72.42 2870.08,-79.18"/>
</g>
<!-- Node17 -->
<g id="node17" class="node">
<title>Node17</title>
<g id="a_node17"><a xlink:href="rad__overlay_8h_source.html" target="_top" xlink:title=" ">
<polygon fill="white" stroke="black" points="2770.5,-0.5 2770.5,-41.5 2946.5,-41.5 2946.5,-0.5 2770.5,-0.5"/>
<text text-anchor="start" x="2778.5" y="-29.5" font-family="Helvetica,sans-Serif" font-size="10.00">/media/jvincent/Kingspec512</text>
<text text-anchor="start" x="2778.5" y="-18.5" font-family="Helvetica,sans-Serif" font-size="10.00">/repos/RADPx&#45;OS/RADKernel</text>
<text text-anchor="middle" x="2858.5" y="-7.5" font-family="Helvetica,sans-Serif" font-size="10.00">/headers/radkernel/rad_overlay.h</text>
</a>
</g>
</g>
<!-- Node1&#45;&gt;Node17 -->
<g id="edge16" class="edge">
<title>Node1&#45;&gt;Node17</title>
<path fill="none" stroke="midnightblue" d="M2920.42,-72.06C2908.04,-62.06 2894.13,-50.8 2882.63,-41.51"/>
<polygon fill="midnightblue" stroke="midnightblue" points="2918.32,-74.86 2928.29,-78.43 2922.72,-69.42 2918.32,-74.86"/>
</g>
<!-- Node18 -->
<g id="node18" class="node">
<title>Node18</title>
<g id="a_node18"><a xlink:href="rad__posix_8h_source.html" target="_top" xlink:title=" ">
<polygon fill="white" stroke="black" points="2964,-0.5 2964,-41.5 3131,-41.5 3131,-0.5 2964,-0.5"/>
<text text-anchor="start" x="2972" y="-29.5" font-family="Helvetica,sans-Serif" font-size="10.00">/media/jvincent/Kingspec512</text>
<text text-anchor="start" x="2972" y="-18.5" font-family="Helvetica,sans-Serif" font-size="10.00">/repos/RADPx&#45;OS/RADKernel</text>
<text text-anchor="middle" x="3047.5" y="-7.5" font-family="Helvetica,sans-Serif" font-size="10.00">/headers/radkernel/rad_posix.h</text>
</a>
</g>
</g>
<!-- Node1&#45;&gt;Node18 -->
<g id="edge17" class="edge">
<title>Node1&#45;&gt;Node18</title>
<path fill="none" stroke="midnightblue" d="M2984.92,-72.06C2997.43,-62.06 3011.49,-50.8 3023.12,-41.51"/>
<polygon fill="midnightblue" stroke="midnightblue" points="2982.59,-69.45 2976.96,-78.43 2986.96,-74.91 2982.59,-69.45"/>
</g>
<!-- Node19 -->
<g id="node19" class="node">
<title>Node19</title>
<g id="a_node19"><a xlink:href="rad__pty_8h_source.html" target="_top" xlink:title=" ">
<polygon fill="white" stroke="black" points="3148.5,-0.5 3148.5,-41.5 3306.5,-41.5 3306.5,-0.5 3148.5,-0.5"/>
<text text-anchor="start" x="3156.5" y="-29.5" font-family="Helvetica,sans-Serif" font-size="10.00">/media/jvincent/Kingspec512</text>
<text text-anchor="start" x="3156.5" y="-18.5" font-family="Helvetica,sans-Serif" font-size="10.00">/repos/RADPx&#45;OS/RADKernel</text>
<text text-anchor="middle" x="3227.5" y="-7.5" font-family="Helvetica,sans-Serif" font-size="10.00">/headers/radkernel/rad_pty.h</text>
</a>
</g>
</g>
<!-- Node1&#45;&gt;Node19 -->
<g id="edge18" class="edge">
<title>Node1&#45;&gt;Node19</title>
<path fill="none" stroke="midnightblue" d="M3033.12,-75.72C3072.36,-64.87 3119.11,-51.96 3156.92,-41.51"/>
<polygon fill="midnightblue" stroke="midnightblue" points="3032.03,-72.39 3023.32,-78.43 3033.89,-79.14 3032.03,-72.39"/>
</g>
<!-- Node20 -->
<g id="node20" class="node">
<title>Node20</title>
<g id="a_node20"><a xlink:href="rad__service_8h_source.html" target="_top" xlink:title=" ">
<polygon fill="white" stroke="black" points="3324.5,-0.5 3324.5,-41.5 3500.5,-41.5 3500.5,-0.5 3324.5,-0.5"/>
<text text-anchor="start" x="3332.5" y="-29.5" font-family="Helvetica,sans-Serif" font-size="10.00">/media/jvincent/Kingspec512</text>
<text text-anchor="start" x="3332.5" y="-18.5" font-family="Helvetica,sans-Serif" font-size="10.00">/repos/RADPx&#45;OS/RADKernel</text>
<text text-anchor="middle" x="3412.5" y="-7.5" font-family="Helvetica,sans-Serif" font-size="10.00">/headers/radkernel/rad_service.h</text>
</a>
</g>
</g>
<!-- Node1&#45;&gt;Node20 -->
<g id="edge19" class="edge">
<title>Node1&#45;&gt;Node20</title>
<path fill="none" stroke="midnightblue" d="M3045.39,-84.98C3118.85,-74.37 3223.95,-58.49 3315.5,-42 3318.38,-41.48 3321.3,-40.94 3324.25,-40.39"/>
<polygon fill="midnightblue" stroke="midnightblue" points="3044.63,-81.56 3035.23,-86.45 3045.63,-88.48 3044.63,-81.56"/>
</g>
<!-- Node21 -->
<g id="node21" class="node">
<title>Node21</title>
<g id="a_node21"><a xlink:href="rad__spi_8h_source.html" target="_top" xlink:title=" ">
<polygon fill="white" stroke="black" points="3518.5,-0.5 3518.5,-41.5 3676.5,-41.5 3676.5,-0.5 3518.5,-0.5"/>
<text text-anchor="start" x="3526.5" y="-29.5" font-family="Helvetica,sans-Serif" font-size="10.00">/media/jvincent/Kingspec512</text>
<text text-anchor="start" x="3526.5" y="-18.5" font-family="Helvetica,sans-Serif" font-size="10.00">/repos/RADPx&#45;OS/RADKernel</text>
<text text-anchor="middle" x="3597.5" y="-7.5" font-family="Helvetica,sans-Serif" font-size="10.00">/headers/radkernel/rad_spi.h</text>
</a>
</g>
</g>
<!-- Node1&#45;&gt;Node21 -->
<g id="edge20" class="edge">
<title>Node1&#45;&gt;Node21</title>
<path fill="none" stroke="midnightblue" d="M3045.17,-92.19C3156.09,-84.43 3347.19,-68.5 3509.5,-42 3512.44,-41.52 3515.42,-41 3518.44,-40.45"/>
<polygon fill="midnightblue" stroke="midnightblue" points="3044.76,-88.71 3035.02,-92.9 3045.24,-95.7 3044.76,-88.71"/>
</g>
<!-- Node22 -->
<g id="node22" class="node">
<title>Node22</title>
<g id="a_node22"><a xlink:href="rad__task_8h_source.html" target="_top" xlink:title=" ">
<polygon fill="white" stroke="black" points="3695,-0.5 3695,-41.5 3856,-41.5 3856,-0.5 3695,-0.5"/>
<text text-anchor="start" x="3703" y="-29.5" font-family="Helvetica,sans-Serif" font-size="10.00">/media/jvincent/Kingspec512</text>
<text text-anchor="start" x="3703" y="-18.5" font-family="Helvetica,sans-Serif" font-size="10.00">/repos/RADPx&#45;OS/RADKernel</text>
<text text-anchor="middle" x="3775.5" y="-7.5" font-family="Helvetica,sans-Serif" font-size="10.00">/headers/radkernel/rad_task.h</text>
</a>
</g>
</g>
<!-- Node1&#45;&gt;Node22 -->
<g id="edge21" class="edge">
<title>Node1&#45;&gt;Node22</title>
<path fill="none" stroke="midnightblue" d="M3045.33,-95.14C3184.91,-89.9 3456.88,-75.96 3685.5,-42 3688.51,-41.55 3691.57,-41.06 3694.65,-40.54"/>
<polygon fill="midnightblue" stroke="midnightblue" points="3044.96,-91.66 3035.1,-95.52 3045.22,-98.65 3044.96,-91.66"/>
</g>
<!-- Node23 -->
<g id="node23" class="node">
<title>Node23</title>
<g id="a_node23"><a xlink:href="rad__terminal_8h_source.html" target="_top" xlink:title=" ">
<polygon fill="white" stroke="black" points="3874.5,-0.5 3874.5,-41.5 4056.5,-41.5 4056.5,-0.5 3874.5,-0.5"/>
<text text-anchor="start" x="3882.5" y="-29.5" font-family="Helvetica,sans-Serif" font-size="10.00">/media/jvincent/Kingspec512</text>
<text text-anchor="start" x="3882.5" y="-18.5" font-family="Helvetica,sans-Serif" font-size="10.00">/repos/RADPx&#45;OS/RADKernel</text>
<text text-anchor="middle" x="3965.5" y="-7.5" font-family="Helvetica,sans-Serif" font-size="10.00">/headers/radkernel/rad_terminal.h</text>
</a>
</g>
</g>
<!-- Node1&#45;&gt;Node23 -->
<g id="edge22" class="edge">
<title>Node1&#45;&gt;Node23</title>
<path fill="none" stroke="midnightblue" d="M3045.14,-96.48C3210.53,-92.84 3567.22,-80.79 3865.5,-42 3868.4,-41.62 3871.34,-41.21 3874.3,-40.77"/>
<polygon fill="midnightblue" stroke="midnightblue" points="3044.93,-92.98 3035.01,-96.7 3045.08,-99.98 3044.93,-92.98"/>
</g>
<!-- Node24 -->
<g id="node24" class="node">
<title>Node24</title>
<g id="a_node24"><a xlink:href="rad__time_8h_source.html" target="_top" xlink:title=" ">
<polygon fill="white" stroke="black" points="4075,-0.5 4075,-41.5 4238,-41.5 4238,-0.5 4075,-0.5"/>
<text text-anchor="start" x="4083" y="-29.5" font-family="Helvetica,sans-Serif" font-size="10.00">/media/jvincent/Kingspec512</text>
<text text-anchor="start" x="4083" y="-18.5" font-family="Helvetica,sans-Serif" font-size="10.00">/repos/RADPx&#45;OS/RADKernel</text>
<text text-anchor="middle" x="4156.5" y="-7.5" font-family="Helvetica,sans-Serif" font-size="10.00">/headers/radkernel/rad_time.h</text>
</a>
</g>
</g>
<!-- Node1&#45;&gt;Node24 -->
<g id="edge23" class="edge">
<title>Node1&#45;&gt;Node24</title>
<path fill="none" stroke="midnightblue" d="M3045.34,-98.52C3236.93,-98.45 3689.67,-92.4 4065.5,-42 4068.55,-41.59 4071.64,-41.13 4074.76,-40.64"/>
<polygon fill="midnightblue" stroke="midnightblue" points="3045.31,-95.02 3035.31,-98.52 3045.31,-102.02 3045.31,-95.02"/>
</g>
<!-- Node25 -->
<g id="node25" class="node">
<title>Node25</title>
<g id="a_node25"><a xlink:href="rad__tree_8h_source.html" target="_top" xlink:title=" ">
<polygon fill="white" stroke="black" points="4256.5,-0.5 4256.5,-41.5 4416.5,-41.5 4416.5,-0.5 4256.5,-0.5"/>
<text text-anchor="start" x="4264.5" y="-29.5" font-family="Helvetica,sans-Serif" font-size="10.00">/media/jvincent/Kingspec512</text>
<text text-anchor="start" x="4264.5" y="-18.5" font-family="Helvetica,sans-Serif" font-size="10.00">/repos/RADPx&#45;OS/RADKernel</text>
<text text-anchor="middle" x="4336.5" y="-7.5" font-family="Helvetica,sans-Serif" font-size="10.00">/headers/radkernel/rad_tree.h</text>
</a>
</g>
</g>
<!-- Node1&#45;&gt;Node25 -->
<g id="edge24" class="edge">
<title>Node1&#45;&gt;Node25</title>
<path fill="none" stroke="midnightblue" d="M3045.36,-96.13C3301.58,-90.63 4014.85,-72.92 4247.5,-42 4250.33,-41.62 4253.19,-41.2 4256.09,-40.74"/>
<polygon fill="midnightblue" stroke="midnightblue" points="3045.26,-92.63 3035.34,-96.34 3045.41,-99.63 3045.26,-92.63"/>
</g>
<!-- Node26 -->
<g id="node26" class="node">
<title>Node26</title>
<g id="a_node26"><a xlink:href="rad__tty_8h_source.html" target="_top" xlink:title=" ">
<polygon fill="white" stroke="black" points="4434.5,-0.5 4434.5,-41.5 4592.5,-41.5 4592.5,-0.5 4434.5,-0.5"/>
<text text-anchor="start" x="4442.5" y="-29.5" font-family="Helvetica,sans-Serif" font-size="10.00">/media/jvincent/Kingspec512</text>
<text text-anchor="start" x="4442.5" y="-18.5" font-family="Helvetica,sans-Serif" font-size="10.00">/repos/RADPx&#45;OS/RADKernel</text>
<text text-anchor="middle" x="4513.5" y="-7.5" font-family="Helvetica,sans-Serif" font-size="10.00">/headers/radkernel/rad_tty.h</text>
</a>
</g>
</g>
<!-- Node1&#45;&gt;Node26 -->
<g id="edge25" class="edge">
<title>Node1&#45;&gt;Node26</title>
<path fill="none" stroke="midnightblue" d="M3045.2,-96.73C3324.78,-92.53 4156.85,-77.32 4425.5,-42 4428.45,-41.61 4431.45,-41.17 4434.47,-40.69"/>
<polygon fill="midnightblue" stroke="midnightblue" points="3045.04,-93.23 3035.09,-96.88 3045.15,-100.23 3045.04,-93.23"/>
</g>
<!-- Node27 -->
<g id="node27" class="node">
<title>Node27</title>
<g id="a_node27"><a xlink:href="rad__usb_8h_source.html" target="_top" xlink:title=" ">
<polygon fill="white" stroke="black" points="4610.5,-0.5 4610.5,-41.5 4768.5,-41.5 4768.5,-0.5 4610.5,-0.5"/>
<text text-anchor="start" x="4618.5" y="-29.5" font-family="Helvetica,sans-Serif" font-size="10.00">/media/jvincent/Kingspec512</text>
<text text-anchor="start" x="4618.5" y="-18.5" font-family="Helvetica,sans-Serif" font-size="10.00">/repos/RADPx&#45;OS/RADKernel</text>
<text text-anchor="middle" x="4689.5" y="-7.5" font-family="Helvetica,sans-Serif" font-size="10.00">/headers/radkernel/rad_usb.h</text>
</a>
</g>
</g>
<!-- Node1&#45;&gt;Node27 -->
<g id="edge26" class="edge">
<title>Node1&#45;&gt;Node27</title>
<path fill="none" stroke="midnightblue" d="M3045.21,-97.16C3346.65,-94.08 4297.09,-81.4 4601.5,-42 4604.45,-41.62 4607.45,-41.18 4610.47,-40.7"/>
<polygon fill="midnightblue" stroke="midnightblue" points="3045.16,-93.66 3035.19,-97.26 3045.23,-100.66 3045.16,-93.66"/>
</g>
<!-- Node28 -->
<g id="node28" class="node">
<title>Node28</title>
<g id="a_node28"><a xlink:href="rad__vfs_8h_source.html" target="_top" xlink:title=" ">
<polygon fill="white" stroke="black" points="4786.5,-0.5 4786.5,-41.5 4944.5,-41.5 4944.5,-0.5 4786.5,-0.5"/>
<text text-anchor="start" x="4794.5" y="-29.5" font-family="Helvetica,sans-Serif" font-size="10.00">/media/jvincent/Kingspec512</text>
<text text-anchor="start" x="4794.5" y="-18.5" font-family="Helvetica,sans-Serif" font-size="10.00">/repos/RADPx&#45;OS/RADKernel</text>
<text text-anchor="middle" x="4865.5" y="-7.5" font-family="Helvetica,sans-Serif" font-size="10.00">/headers/radkernel/rad_vfs.h</text>
</a>
</g>
</g>
<!-- Node1&#45;&gt;Node28 -->
<g id="edge27" class="edge">
<title>Node1&#45;&gt;Node28</title>
<path fill="none" stroke="midnightblue" d="M3045.3,-97.52C3367.57,-95.47 4437.19,-85.48 4777.5,-42 4780.45,-41.62 4783.45,-41.19 4786.47,-40.72"/>
<polygon fill="midnightblue" stroke="midnightblue" points="3045.04,-94.02 3035.07,-97.58 3045.09,-101.02 3045.04,-94.02"/>
</g>
<!-- Node29 -->
<g id="node29" class="node">
<title>Node29</title>
<g id="a_node29"><a xlink:href="radboot_8h.html" target="_top" xlink:title="Helpers for constructing rad_boot_info_t records during platform handoff.">
<polygon fill="white" stroke="black" points="4962.5,-0.5 4962.5,-41.5 5120.5,-41.5 5120.5,-0.5 4962.5,-0.5"/>
<text text-anchor="start" x="4970.5" y="-29.5" font-family="Helvetica,sans-Serif" font-size="10.00">/media/jvincent/Kingspec512</text>
<text text-anchor="start" x="4970.5" y="-18.5" font-family="Helvetica,sans-Serif" font-size="10.00">/repos/RADPx&#45;OS/RADKernel</text>
<text text-anchor="middle" x="5041.5" y="-7.5" font-family="Helvetica,sans-Serif" font-size="10.00">/boot/radboot.h</text>
</a>
</g>
</g>
<!-- Node1&#45;&gt;Node29 -->
<g id="edge28" class="edge">
<title>Node1&#45;&gt;Node29</title>
<path fill="none" stroke="midnightblue" d="M3045.16,-97.81C3387.02,-96.73 4577.07,-89.58 4953.5,-42 4956.45,-41.63 4959.45,-41.2 4962.48,-40.73"/>
<polygon fill="midnightblue" stroke="midnightblue" points="3045.05,-94.31 3035.06,-97.84 3045.07,-101.31 3045.05,-94.31"/>
</g>
<!-- Node30 -->
<g id="node30" class="node">
<title>Node30</title>
<g id="a_node30"><a xlink:href="radkernel__a53_8h_source.html" target="_top" xlink:title=" ">
<polygon fill="white" stroke="black" points="5138,-0.5 5138,-41.5 5307,-41.5 5307,-0.5 5138,-0.5"/>
<text text-anchor="start" x="5146" y="-29.5" font-family="Helvetica,sans-Serif" font-size="10.00">/media/jvincent/Kingspec512</text>
<text text-anchor="start" x="5146" y="-18.5" font-family="Helvetica,sans-Serif" font-size="10.00">/repos/RADPx&#45;OS/RADKernel</text>
<text text-anchor="middle" x="5222.5" y="-7.5" font-family="Helvetica,sans-Serif" font-size="10.00">/platforms/a53/radkernel_a53.h</text>
</a>
</g>
</g>
<!-- Node1&#45;&gt;Node30 -->
<g id="edge29" class="edge">
<title>Node1&#45;&gt;Node30</title>
<path fill="none" stroke="midnightblue" d="M3045.3,-97.91C3406.2,-97.21 4716.64,-91.27 5129.5,-42 5132.29,-41.67 5135.12,-41.29 5137.97,-40.88"/>
<polygon fill="midnightblue" stroke="midnightblue" points="3045.15,-94.41 3035.16,-97.93 3045.16,-101.41 3045.15,-94.41"/>
</g>
<!-- Node31 -->
<g id="node31" class="node">
<title>Node31</title>
<g id="a_node31"><a xlink:href="x86__cpu_8h_source.html" target="_top" xlink:title=" ">
<polygon fill="white" stroke="black" points="5324.5,-0.5 5324.5,-41.5 5482.5,-41.5 5482.5,-0.5 5324.5,-0.5"/>
<text text-anchor="start" x="5332.5" y="-29.5" font-family="Helvetica,sans-Serif" font-size="10.00">/media/jvincent/Kingspec512</text>
<text text-anchor="start" x="5332.5" y="-18.5" font-family="Helvetica,sans-Serif" font-size="10.00">/repos/RADPx&#45;OS/RADKernel</text>
<text text-anchor="middle" x="5403.5" y="-7.5" font-family="Helvetica,sans-Serif" font-size="10.00">/platforms/x86_64/x86_cpu.h</text>
</a>
</g>
</g>
<!-- Node1&#45;&gt;Node31 -->
<g id="edge30" class="edge">
<title>Node1&#45;&gt;Node31</title>
<path fill="none" stroke="midnightblue" d="M3045.25,-98.31C3425.39,-99.18 4865.41,-98.6 5316.5,-42 5319.11,-41.67 5321.76,-41.3 5324.44,-40.89"/>
<polygon fill="midnightblue" stroke="midnightblue" points="3045.13,-94.81 3035.12,-98.28 3045.11,-101.81 3045.13,-94.81"/>
</g>
<!-- Node32 -->
<g id="node32" class="node">
<title>Node32</title>
<g id="a_node32"><a xlink:href="x86__user_8h_source.html" target="_top" xlink:title=" ">
<polygon fill="white" stroke="black" points="5501,-0.5 5501,-41.5 5662,-41.5 5662,-0.5 5501,-0.5"/>
<text text-anchor="start" x="5509" y="-29.5" font-family="Helvetica,sans-Serif" font-size="10.00">/media/jvincent/Kingspec512</text>
<text text-anchor="start" x="5509" y="-18.5" font-family="Helvetica,sans-Serif" font-size="10.00">/repos/RADPx&#45;OS/RADKernel</text>
<text text-anchor="middle" x="5581.5" y="-7.5" font-family="Helvetica,sans-Serif" font-size="10.00">/platforms/x86_64/x86_user.h</text>
</a>
</g>
</g>
<!-- Node1&#45;&gt;Node32 -->
<g id="edge31" class="edge">
<title>Node1&#45;&gt;Node32</title>
<path fill="none" stroke="midnightblue" d="M3045.1,-98.39C3442.33,-99.71 5003.96,-100.97 5491.5,-42 5494.52,-41.63 5497.59,-41.21 5500.68,-40.75"/>
<polygon fill="midnightblue" stroke="midnightblue" points="3045.11,-94.9 3035.09,-98.36 3045.08,-101.9 3045.11,-94.9"/>
</g>
<!-- Node33 -->
<g id="node33" class="node">
<title>Node33</title>
<g id="a_node33"><a xlink:href="x86__vm_8h_source.html" target="_top" xlink:title=" ">
<polygon fill="white" stroke="black" points="5680.5,-0.5 5680.5,-41.5 5838.5,-41.5 5838.5,-0.5 5680.5,-0.5"/>
<text text-anchor="start" x="5688.5" y="-29.5" font-family="Helvetica,sans-Serif" font-size="10.00">/media/jvincent/Kingspec512</text>
<text text-anchor="start" x="5688.5" y="-18.5" font-family="Helvetica,sans-Serif" font-size="10.00">/repos/RADPx&#45;OS/RADKernel</text>
<text text-anchor="middle" x="5759.5" y="-7.5" font-family="Helvetica,sans-Serif" font-size="10.00">/platforms/x86_64/x86_vm.h</text>
</a>
</g>
</g>
<!-- Node1&#45;&gt;Node33 -->
<g id="edge32" class="edge">
<title>Node1&#45;&gt;Node33</title>
<path fill="none" stroke="midnightblue" d="M3045.4,-97.21C3491.92,-93.24 5406.83,-74.46 5671.5,-42 5674.45,-41.64 5677.46,-41.22 5680.48,-40.75"/>
<polygon fill="midnightblue" stroke="midnightblue" points="3045.1,-93.71 3035.13,-97.3 3045.16,-100.71 3045.1,-93.71"/>
</g>
</g>
</svg>
