<?xml version="1.0" encoding="UTF-8" standalone="no"?>
<!DOCTYPE svg PUBLIC "-//W3C//DTD SVG 1.1//EN"
 "http://www.w3.org/Graphics/SVG/1.1/DTD/svg11.dtd">
<!-- Generated by graphviz version 2.43.0 (0)
 -->
<!-- Title: RADKernel/headers/radkernel/radkernel.h Pages: 1 -->
<svg width="5478pt" height="106pt"
 viewBox="0.00 0.00 5478.00 106.00" xmlns="http://www.w3.org/2000/svg" xmlns:xlink="http://www.w3.org/1999/xlink">
<g id="graph0" class="graph" transform="scale(1 1) rotate(0) translate(4 102)">
<title>RADKernel/headers/radkernel/radkernel.h</title>
<polygon fill="white" stroke="transparent" points="-4,4 -4,-102 5474,-102 5474,4 -4,4"/>
<!-- Node1 -->
<g id="node1" class="node">
<title>Node1</title>
<g id="a_node1"><a xlink:title="Portable RADPx&#45;OS kernel service ABI for RADLib and RADPx&#45;OS targets.">
<polygon fill="#bfbfbf" stroke="black" points="2743,-67.5 2743,-97.5 2902,-97.5 2902,-67.5 2743,-67.5"/>
<text text-anchor="start" x="2751" y="-85.5" font-family="Helvetica,sans-Serif" font-size="10.00">RADKernel/headers/radkernel</text>
<text text-anchor="middle" x="2822.5" y="-74.5" font-family="Helvetica,sans-Serif" font-size="10.00">/radkernel.h</text>
</a>
</g>
</g>
<!-- Node2 -->
<g id="node2" class="node">
<title>Node2</title>
<g id="a_node2"><a xlink:href="rad__audio_8h_source.html" target="_top" xlink:title=" ">
<polygon fill="white" stroke="black" points="0,-0.5 0,-30.5 159,-30.5 159,-0.5 0,-0.5"/>
<text text-anchor="start" x="8" y="-18.5" font-family="Helvetica,sans-Serif" font-size="10.00">RADKernel/headers/radkernel</text>
<text text-anchor="middle" x="79.5" y="-7.5" font-family="Helvetica,sans-Serif" font-size="10.00">/rad_audio.h</text>
</a>
</g>
</g>
<!-- Node1&#45;&gt;Node2 -->
<g id="edge1" class="edge">
<title>Node1&#45;&gt;Node2</title>
<path fill="none" stroke="midnightblue" d="M2732.56,-81.53C2328.89,-81.42 681.72,-78.01 167.5,-31 164.72,-30.75 161.9,-30.46 159.06,-30.14"/>
<polygon fill="midnightblue" stroke="midnightblue" points="2732.72,-85.03 2742.72,-81.54 2732.72,-78.03 2732.72,-85.03"/>
</g>
<!-- Node3 -->
<g id="node3" class="node">
<title>Node3</title>
<g id="a_node3"><a xlink:href="rad__block_8h_source.html" target="_top" xlink:title=" ">
<polygon fill="white" stroke="black" points="177,-0.5 177,-30.5 336,-30.5 336,-0.5 177,-0.5"/>
<text text-anchor="start" x="185" y="-18.5" font-family="Helvetica,sans-Serif" font-size="10.00">RADKernel/headers/radkernel</text>
<text text-anchor="middle" x="256.5" y="-7.5" font-family="Helvetica,sans-Serif" font-size="10.00">/rad_block.h</text>
</a>
</g>
</g>
<!-- Node1&#45;&gt;Node3 -->
<g id="edge2" class="edge">
<title>Node1&#45;&gt;Node3</title>
<path fill="none" stroke="midnightblue" d="M2732.88,-81.39C2346.6,-80.66 822.04,-74.98 344.5,-31 341.72,-30.74 338.9,-30.45 336.06,-30.13"/>
<polygon fill="midnightblue" stroke="midnightblue" points="2732.88,-84.89 2742.88,-81.41 2732.89,-77.89 2732.88,-84.89"/>
</g>
<!-- Node4 -->
<g id="node4" class="node">
<title>Node4</title>
<g id="a_node4"><a xlink:href="rad__cpp_8h.html" target="_top" xlink:title="Small C++ convenience wrappers over the RADPx&#45;OS C kernel ABI.">
<polygon fill="white" stroke="black" points="354,-0.5 354,-30.5 513,-30.5 513,-0.5 354,-0.5"/>
<text text-anchor="start" x="362" y="-18.5" font-family="Helvetica,sans-Serif" font-size="10.00">RADKernel/headers/radkernel</text>
<text text-anchor="middle" x="433.5" y="-7.5" font-family="Helvetica,sans-Serif" font-size="10.00">/rad_cpp.h</text>
</a>
</g>
</g>
<!-- Node1&#45;&gt;Node4 -->
<g id="edge3" class="edge">
<title>Node1&#45;&gt;Node4</title>
<path fill="none" stroke="midnightblue" d="M2732.65,-81.23C2363.5,-79.84 962.23,-71.94 521.5,-31 518.72,-30.74 515.9,-30.45 513.06,-30.13"/>
<polygon fill="midnightblue" stroke="midnightblue" points="2732.74,-84.73 2742.75,-81.26 2732.76,-77.73 2732.74,-84.73"/>
</g>
<!-- Node5 -->
<g id="node5" class="node">
<title>Node5</title>
<g id="a_node5"><a xlink:href="rad__device_8h_source.html" target="_top" xlink:title=" ">
<polygon fill="white" stroke="black" points="531,-0.5 531,-30.5 690,-30.5 690,-0.5 531,-0.5"/>
<text text-anchor="start" x="539" y="-18.5" font-family="Helvetica,sans-Serif" font-size="10.00">RADKernel/headers/radkernel</text>
<text text-anchor="middle" x="610.5" y="-7.5" font-family="Helvetica,sans-Serif" font-size="10.00">/rad_device.h</text>
</a>
</g>
</g>
<!-- Node1&#45;&gt;Node5 -->
<g id="edge4" class="edge">
<title>Node1&#45;&gt;Node5</title>
<path fill="none" stroke="midnightblue" d="M2732.65,-81.04C2381.67,-78.96 1102.61,-68.91 698.5,-31 695.73,-30.74 692.91,-30.44 690.06,-30.12"/>
<polygon fill="midnightblue" stroke="midnightblue" points="2732.74,-84.54 2742.76,-81.09 2732.78,-77.54 2732.74,-84.54"/>
</g>
<!-- Node6 -->
<g id="node6" class="node">
<title>Node6</title>
<g id="a_node6"><a xlink:href="rad__display_8h_source.html" target="_top" xlink:title=" ">
<polygon fill="white" stroke="black" points="708,-0.5 708,-30.5 867,-30.5 867,-0.5 708,-0.5"/>
<text text-anchor="start" x="716" y="-18.5" font-family="Helvetica,sans-Serif" font-size="10.00">RADKernel/headers/radkernel</text>
<text text-anchor="middle" x="787.5" y="-7.5" font-family="Helvetica,sans-Serif" font-size="10.00">/rad_display.h</text>
</a>
</g>
</g>
<!-- Node1&#45;&gt;Node6 -->
<g id="edge5" class="edge">
<title>Node1&#45;&gt;Node6</title>
<path fill="none" stroke="midnightblue" d="M2732.74,-80.81C2400.81,-78.01 1243.13,-65.89 875.5,-31 872.73,-30.74 869.91,-30.44 867.06,-30.11"/>
<polygon fill="midnightblue" stroke="midnightblue" points="2732.76,-84.31 2742.78,-80.89 2732.81,-77.31 2732.76,-84.31"/>
</g>
<!-- Node7 -->
<g id="node7" class="node">
<title>Node7</title>
<g id="a_node7"><a xlink:href="rad__dma_8h_source.html" target="_top" xlink:title=" ">
<polygon fill="white" stroke="black" points="885,-0.5 885,-30.5 1044,-30.5 1044,-0.5 885,-0.5"/>
<text text-anchor="start" x="893" y="-18.5" font-family="Helvetica,sans-Serif" font-size="10.00">RADKernel/headers/radkernel</text>
<text text-anchor="middle" x="964.5" y="-7.5" font-family="Helvetica,sans-Serif" font-size="10.00">/rad_dma.h</text>
</a>
</g>
</g>
<!-- Node1&#45;&gt;Node7 -->
<g id="edge6" class="edge">
<title>Node1&#45;&gt;Node7</title>
<path fill="none" stroke="midnightblue" d="M2732.39,-80.54C2419.85,-76.94 1383.62,-62.86 1052.5,-31 1049.73,-30.73 1046.91,-30.43 1044.06,-30.1"/>
<polygon fill="midnightblue" stroke="midnightblue" points="2732.71,-84.04 2742.75,-80.65 2732.79,-77.04 2732.71,-84.04"/>
</g>
<!-- Node8 -->
<g id="node8" class="node">
<title>Node8</title>
<g id="a_node8"><a xlink:href="rad__event_8h_source.html" target="_top" xlink:title=" ">
<polygon fill="white" stroke="black" points="1062,-0.5 1062,-30.5 1221,-30.5 1221,-0.5 1062,-0.5"/>
<text text-anchor="start" x="1070" y="-18.5" font-family="Helvetica,sans-Serif" font-size="10.00">RADKernel/headers/radkernel</text>
<text text-anchor="middle" x="1141.5" y="-7.5" font-family="Helvetica,sans-Serif" font-size="10.00">/rad_event.h</text>
</a>
</g>
</g>
<!-- Node1&#45;&gt;Node8 -->
<g id="edge7" class="edge">
<title>Node1&#45;&gt;Node8</title>
<path fill="none" stroke="midnightblue" d="M2732.59,-80.21C2441.16,-75.78 1524.45,-59.85 1229.5,-31 1226.73,-30.73 1223.91,-30.42 1221.06,-30.09"/>
<polygon fill="midnightblue" stroke="midnightblue" points="2732.64,-83.71 2742.69,-80.36 2732.74,-76.71 2732.64,-83.71"/>
</g>
<!-- Node9 -->
<g id="node9" class="node">
<title>Node9</title>
<g id="a_node9"><a xlink:href="rad__i2c_8h_source.html" target="_top" xlink:title=" ">
<polygon fill="white" stroke="black" points="1239,-0.5 1239,-30.5 1398,-30.5 1398,-0.5 1239,-0.5"/>
<text text-anchor="start" x="1247" y="-18.5" font-family="Helvetica,sans-Serif" font-size="10.00">RADKernel/headers/radkernel</text>
<text text-anchor="middle" x="1318.5" y="-7.5" font-family="Helvetica,sans-Serif" font-size="10.00">/rad_i2c.h</text>
</a>
</g>
</g>
<!-- Node1&#45;&gt;Node9 -->
<g id="edge8" class="edge">
<title>Node1&#45;&gt;Node9</title>
<path fill="none" stroke="midnightblue" d="M2732.74,-82.26C2508.47,-83.31 1905.81,-80.83 1406.5,-31 1403.73,-30.72 1400.91,-30.41 1398.06,-30.08"/>
<polygon fill="midnightblue" stroke="midnightblue" points="2732.83,-85.76 2742.81,-82.21 2732.79,-78.76 2732.83,-85.76"/>
</g>
<!-- Node10 -->
<g id="node10" class="node">
<title>Node10</title>
<g id="a_node10"><a xlink:href="rad__input_8h_source.html" target="_top" xlink:title=" ">
<polygon fill="white" stroke="black" points="1416,-0.5 1416,-30.5 1575,-30.5 1575,-0.5 1416,-0.5"/>
<text text-anchor="start" x="1424" y="-18.5" font-family="Helvetica,sans-Serif" font-size="10.00">RADKernel/headers/radkernel</text>
<text text-anchor="middle" x="1495.5" y="-7.5" font-family="Helvetica,sans-Serif" font-size="10.00">/rad_input.h</text>
</a>
</g>
</g>
<!-- Node1&#45;&gt;Node10 -->
<g id="edge9" class="edge">
<title>Node1&#45;&gt;Node10</title>
<path fill="none" stroke="midnightblue" d="M2732.81,-81.6C2528.38,-81.02 2012.35,-74.9 1583.5,-31 1580.73,-30.72 1577.91,-30.4 1575.07,-30.06"/>
<polygon fill="midnightblue" stroke="midnightblue" points="2732.89,-85.1 2742.9,-81.63 2732.91,-78.1 2732.89,-85.1"/>
</g>
<!-- Node11 -->
<g id="node11" class="node">
<title>Node11</title>
<g id="a_node11"><a xlink:href="rad__ioctl_8h_source.html" target="_top" xlink:title=" ">
<polygon fill="white" stroke="black" points="1593,-0.5 1593,-30.5 1752,-30.5 1752,-0.5 1593,-0.5"/>
<text text-anchor="start" x="1601" y="-18.5" font-family="Helvetica,sans-Serif" font-size="10.00">RADKernel/headers/radkernel</text>
<text text-anchor="middle" x="1672.5" y="-7.5" font-family="Helvetica,sans-Serif" font-size="10.00">/rad_ioctl.h</text>
</a>
</g>
</g>
<!-- Node1&#45;&gt;Node11 -->
<g id="edge10" class="edge">
<title>Node1&#45;&gt;Node11</title>
<path fill="none" stroke="midnightblue" d="M2732.87,-80.74C2549.7,-78.4 2119.45,-68.98 1760.5,-31 1757.73,-30.71 1754.91,-30.38 1752.07,-30.03"/>
<polygon fill="midnightblue" stroke="midnightblue" points="2732.95,-84.24 2742.99,-80.86 2733.04,-77.24 2732.95,-84.24"/>
</g>
<!-- Node12 -->
<g id="node12" class="node">
<title>Node12</title>
<g id="a_node12"><a xlink:href="rad__irq_8h_source.html" target="_top" xlink:title=" ">
<polygon fill="white" stroke="black" points="1770,-0.5 1770,-30.5 1929,-30.5 1929,-0.5 1770,-0.5"/>
<text text-anchor="start" x="1778" y="-18.5" font-family="Helvetica,sans-Serif" font-size="10.00">RADKernel/headers/radkernel</text>
<text text-anchor="middle" x="1849.5" y="-7.5" font-family="Helvetica,sans-Serif" font-size="10.00">/rad_irq.h</text>
</a>
</g>
</g>
<!-- Node1&#45;&gt;Node12 -->
<g id="edge11" class="edge">
<title>Node1&#45;&gt;Node12</title>
<path fill="none" stroke="midnightblue" d="M2732.65,-79.53C2572.45,-75.31 2227.12,-63.03 1937.5,-31 1934.73,-30.69 1931.91,-30.36 1929.07,-30"/>
<polygon fill="midnightblue" stroke="midnightblue" points="2732.85,-83.03 2742.93,-79.79 2733.03,-76.04 2732.85,-83.03"/>
</g>
<!-- Node13 -->
<g id="node13" class="node">
<title>Node13</title>
<g id="a_node13"><a xlink:href="rad__memory_8h_source.html" target="_top" xlink:title=" ">
<polygon fill="white" stroke="black" points="1947,-0.5 1947,-30.5 2106,-30.5 2106,-0.5 1947,-0.5"/>
<text text-anchor="start" x="1955" y="-18.5" font-family="Helvetica,sans-Serif" font-size="10.00">RADKernel/headers/radkernel</text>
<text text-anchor="middle" x="2026.5" y="-7.5" font-family="Helvetica,sans-Serif" font-size="10.00">/rad_memory.h</text>
</a>
</g>
</g>
<!-- Node1&#45;&gt;Node13 -->
<g id="edge12" class="edge">
<title>Node1&#45;&gt;Node13</title>
<path fill="none" stroke="midnightblue" d="M2732.64,-77.75C2597.96,-71.52 2335.9,-57.08 2114.5,-31 2111.73,-30.67 2108.92,-30.32 2106.08,-29.95"/>
<polygon fill="midnightblue" stroke="midnightblue" points="2732.76,-81.25 2742.91,-78.22 2733.08,-74.26 2732.76,-81.25"/>
</g>
<!-- Node14 -->
<g id="node14" class="node">
<title>Node14</title>
<g id="a_node14"><a xlink:href="rad__module_8h_source.html" target="_top" xlink:title=" ">
<polygon fill="white" stroke="black" points="2124,-0.5 2124,-30.5 2283,-30.5 2283,-0.5 2124,-0.5"/>
<text text-anchor="start" x="2132" y="-18.5" font-family="Helvetica,sans-Serif" font-size="10.00">RADKernel/headers/radkernel</text>
<text text-anchor="middle" x="2203.5" y="-7.5" font-family="Helvetica,sans-Serif" font-size="10.00">/rad_module.h</text>
</a>
</g>
</g>
<!-- Node1&#45;&gt;Node14 -->
<g id="edge13" class="edge">
<title>Node1&#45;&gt;Node14</title>
<path fill="none" stroke="midnightblue" d="M2732.7,-74.85C2626.94,-66.57 2446.07,-51.06 2291.5,-31 2288.74,-30.64 2285.93,-30.26 2283.09,-29.86"/>
<polygon fill="midnightblue" stroke="midnightblue" points="2732.45,-78.34 2742.69,-75.62 2733,-71.36 2732.45,-78.34"/>
</g>
<!-- Node15 -->
<g id="node15" class="node">
<title>Node15</title>
<g id="a_node15"><a xlink:href="rad__mutex_8h_source.html" target="_top" xlink:title=" ">
<polygon fill="white" stroke="black" points="2301,-0.5 2301,-30.5 2460,-30.5 2460,-0.5 2301,-0.5"/>
<text text-anchor="start" x="2309" y="-18.5" font-family="Helvetica,sans-Serif" font-size="10.00">RADKernel/headers/radkernel</text>
<text text-anchor="middle" x="2380.5" y="-7.5" font-family="Helvetica,sans-Serif" font-size="10.00">/rad_mutex.h</text>
</a>
</g>
</g>
<!-- Node1&#45;&gt;Node15 -->
<g id="edge14" class="edge">
<title>Node1&#45;&gt;Node15</title>
<path fill="none" stroke="midnightblue" d="M2732.66,-69.23C2661.06,-59.32 2558.27,-44.8 2468.5,-31 2465.75,-30.58 2462.94,-30.14 2460.11,-29.7"/>
<polygon fill="midnightblue" stroke="midnightblue" points="2732.61,-72.76 2742.99,-70.66 2733.56,-65.82 2732.61,-72.76"/>
</g>
<!-- Node16 -->
<g id="node16" class="node">
<title>Node16</title>
<g id="a_node16"><a xlink:href="rad__net_8h_source.html" target="_top" xlink:title=" ">
<polygon fill="white" stroke="black" points="2478,-0.5 2478,-30.5 2637,-30.5 2637,-0.5 2478,-0.5"/>
<text text-anchor="start" x="2486" y="-18.5" font-family="Helvetica,sans-Serif" font-size="10.00">RADKernel/headers/radkernel</text>
<text text-anchor="middle" x="2557.5" y="-7.5" font-family="Helvetica,sans-Serif" font-size="10.00">/rad_net.h</text>
</a>
</g>
</g>
<!-- Node1&#45;&gt;Node16 -->
<g id="edge15" class="edge">
<title>Node1&#45;&gt;Node16</title>
<path fill="none" stroke="midnightblue" d="M2755.44,-65.05C2712.12,-54.43 2656.33,-40.74 2615.03,-30.61"/>
<polygon fill="midnightblue" stroke="midnightblue" points="2754.78,-68.49 2765.33,-67.48 2756.45,-61.69 2754.78,-68.49"/>
</g>
<!-- Node17 -->
<g id="node17" class="node">
<title>Node17</title>
<g id="a_node17"><a xlink:href="rad__overlay_8h_source.html" target="_top" xlink:title=" ">
<polygon fill="white" stroke="black" points="2655,-0.5 2655,-30.5 2814,-30.5 2814,-0.5 2655,-0.5"/>
<text text-anchor="start" x="2663" y="-18.5" font-family="Helvetica,sans-Serif" font-size="10.00">RADKernel/headers/radkernel</text>
<text text-anchor="middle" x="2734.5" y="-7.5" font-family="Helvetica,sans-Serif" font-size="10.00">/rad_overlay.h</text>
</a>
</g>
</g>
<!-- Node1&#45;&gt;Node17 -->
<g id="edge16" class="edge">
<title>Node1&#45;&gt;Node17</title>
<path fill="none" stroke="midnightblue" d="M2795.36,-61.45C2781.82,-51.45 2765.77,-39.6 2753.56,-30.58"/>
<polygon fill="midnightblue" stroke="midnightblue" points="2793.28,-64.27 2803.41,-67.4 2797.44,-58.64 2793.28,-64.27"/>
</g>
<!-- Node18 -->
<g id="node18" class="node">
<title>Node18</title>
<g id="a_node18"><a xlink:href="rad__posix_8h_source.html" target="_top" xlink:title=" ">
<polygon fill="white" stroke="black" points="2832,-0.5 2832,-30.5 2991,-30.5 2991,-0.5 2832,-0.5"/>
<text text-anchor="start" x="2840" y="-18.5" font-family="Helvetica,sans-Serif" font-size="10.00">RADKernel/headers/radkernel</text>
<text text-anchor="middle" x="2911.5" y="-7.5" font-family="Helvetica,sans-Serif" font-size="10.00">/rad_posix.h</text>
</a>
</g>
</g>
<!-- Node1&#45;&gt;Node18 -->
<g id="edge17" class="edge">
<title>Node1&#45;&gt;Node18</title>
<path fill="none" stroke="midnightblue" d="M2849.95,-61.45C2863.64,-51.45 2879.87,-39.6 2892.23,-30.58"/>
<polygon fill="midnightblue" stroke="midnightblue" points="2847.82,-58.67 2841.81,-67.4 2851.95,-64.32 2847.82,-58.67"/>
</g>
<!-- Node19 -->
<g id="node19" class="node">
<title>Node19</title>
<g id="a_node19"><a xlink:href="rad__pty_8h_source.html" target="_top" xlink:title=" ">
<polygon fill="white" stroke="black" points="3009,-0.5 3009,-30.5 3168,-30.5 3168,-0.5 3009,-0.5"/>
<text text-anchor="start" x="3017" y="-18.5" font-family="Helvetica,sans-Serif" font-size="10.00">RADKernel/headers/radkernel</text>
<text text-anchor="middle" x="3088.5" y="-7.5" font-family="Helvetica,sans-Serif" font-size="10.00">/rad_pty.h</text>
</a>
</g>
</g>
<!-- Node1&#45;&gt;Node19 -->
<g id="edge18" class="edge">
<title>Node1&#45;&gt;Node19</title>
<path fill="none" stroke="midnightblue" d="M2889.81,-65.05C2933.3,-54.43 2989.3,-40.74 3030.75,-30.61"/>
<polygon fill="midnightblue" stroke="midnightblue" points="2888.77,-61.7 2879.89,-67.48 2890.44,-68.5 2888.77,-61.7"/>
</g>
<!-- Node20 -->
<g id="node20" class="node">
<title>Node20</title>
<g id="a_node20"><a xlink:href="rad__service_8h_source.html" target="_top" xlink:title=" ">
<polygon fill="white" stroke="black" points="3186,-0.5 3186,-30.5 3345,-30.5 3345,-0.5 3186,-0.5"/>
<text text-anchor="start" x="3194" y="-18.5" font-family="Helvetica,sans-Serif" font-size="10.00">RADKernel/headers/radkernel</text>
<text text-anchor="middle" x="3265.5" y="-7.5" font-family="Helvetica,sans-Serif" font-size="10.00">/rad_service.h</text>
</a>
</g>
</g>
<!-- Node1&#45;&gt;Node20 -->
<g id="edge19" class="edge">
<title>Node1&#45;&gt;Node20</title>
<path fill="none" stroke="midnightblue" d="M2912.16,-69.3C2983.98,-59.4 3087.29,-44.85 3177.5,-31 3180.25,-30.58 3183.06,-30.14 3185.89,-29.7"/>
<polygon fill="midnightblue" stroke="midnightblue" points="2911.66,-65.84 2902.23,-70.67 2912.62,-72.77 2911.66,-65.84"/>
</g>
<!-- Node21 -->
<g id="node21" class="node">
<title>Node21</title>
<g id="a_node21"><a xlink:href="rad__spi_8h_source.html" target="_top" xlink:title=" ">
<polygon fill="white" stroke="black" points="3363,-0.5 3363,-30.5 3522,-30.5 3522,-0.5 3363,-0.5"/>
<text text-anchor="start" x="3371" y="-18.5" font-family="Helvetica,sans-Serif" font-size="10.00">RADKernel/headers/radkernel</text>
<text text-anchor="middle" x="3442.5" y="-7.5" font-family="Helvetica,sans-Serif" font-size="10.00">/rad_spi.h</text>
</a>
</g>
</g>
<!-- Node1&#45;&gt;Node21 -->
<g id="edge20" class="edge">
<title>Node1&#45;&gt;Node21</title>
<path fill="none" stroke="midnightblue" d="M2912.01,-74.89C3017.91,-66.63 3199.41,-51.11 3354.5,-31 3357.26,-30.64 3360.07,-30.26 3362.91,-29.87"/>
<polygon fill="midnightblue" stroke="midnightblue" points="2911.71,-71.4 2902.01,-75.67 2912.25,-78.38 2911.71,-71.4"/>
</g>
<!-- Node22 -->
<g id="node22" class="node">
<title>Node22</title>
<g id="a_node22"><a xlink:href="rad__task_8h_source.html" target="_top" xlink:title=" ">
<polygon fill="white" stroke="black" points="3540,-0.5 3540,-30.5 3699,-30.5 3699,-0.5 3540,-0.5"/>
<text text-anchor="start" x="3548" y="-18.5" font-family="Helvetica,sans-Serif" font-size="10.00">RADKernel/headers/radkernel</text>
<text text-anchor="middle" x="3619.5" y="-7.5" font-family="Helvetica,sans-Serif" font-size="10.00">/rad_task.h</text>
</a>
</g>
</g>
<!-- Node1&#45;&gt;Node22 -->
<g id="edge21" class="edge">
<title>Node1&#45;&gt;Node22</title>
<path fill="none" stroke="midnightblue" d="M2912.48,-77.75C3047.36,-71.53 3309.78,-57.11 3531.5,-31 3534.27,-30.67 3537.08,-30.32 3539.92,-29.95"/>
<polygon fill="midnightblue" stroke="midnightblue" points="2912.04,-74.27 2902.21,-78.22 2912.35,-81.26 2912.04,-74.27"/>
</g>
<!-- Node23 -->
<g id="node23" class="node">
<title>Node23</title>
<g id="a_node23"><a xlink:href="rad__terminal_8h_source.html" target="_top" xlink:title=" ">
<polygon fill="white" stroke="black" points="3717,-0.5 3717,-30.5 3876,-30.5 3876,-0.5 3717,-0.5"/>
<text text-anchor="start" x="3725" y="-18.5" font-family="Helvetica,sans-Serif" font-size="10.00">RADKernel/headers/radkernel</text>
<text text-anchor="middle" x="3796.5" y="-7.5" font-family="Helvetica,sans-Serif" font-size="10.00">/rad_terminal.h</text>
</a>
</g>
</g>
<!-- Node1&#45;&gt;Node23 -->
<g id="edge22" class="edge">
<title>Node1&#45;&gt;Node23</title>
<path fill="none" stroke="midnightblue" d="M2912.45,-79.53C3072.83,-75.32 3418.55,-63.06 3708.5,-31 3711.27,-30.69 3714.09,-30.36 3716.93,-30"/>
<polygon fill="midnightblue" stroke="midnightblue" points="2912.06,-76.04 2902.16,-79.8 2912.24,-83.04 2912.06,-76.04"/>
</g>
<!-- Node24 -->
<g id="node24" class="node">
<title>Node24</title>
<g id="a_node24"><a xlink:href="rad__time_8h_source.html" target="_top" xlink:title=" ">
<polygon fill="white" stroke="black" points="3894,-0.5 3894,-30.5 4053,-30.5 4053,-0.5 3894,-0.5"/>
<text text-anchor="start" x="3902" y="-18.5" font-family="Helvetica,sans-Serif" font-size="10.00">RADKernel/headers/radkernel</text>
<text text-anchor="middle" x="3973.5" y="-7.5" font-family="Helvetica,sans-Serif" font-size="10.00">/rad_time.h</text>
</a>
</g>
</g>
<!-- Node1&#45;&gt;Node24 -->
<g id="edge23" class="edge">
<title>Node1&#45;&gt;Node24</title>
<path fill="none" stroke="midnightblue" d="M2912.21,-80.74C3095.55,-78.42 3526.21,-69.01 3885.5,-31 3888.27,-30.71 3891.09,-30.38 3893.93,-30.03"/>
<polygon fill="midnightblue" stroke="midnightblue" points="2912.04,-77.24 2902.08,-80.86 2912.13,-84.24 2912.04,-77.24"/>
</g>
<!-- Node25 -->
<g id="node25" class="node">
<title>Node25</title>
<g id="a_node25"><a xlink:href="rad__tree_8h_source.html" target="_top" xlink:title=" ">
<polygon fill="white" stroke="black" points="4071,-0.5 4071,-30.5 4230,-30.5 4230,-0.5 4071,-0.5"/>
<text text-anchor="start" x="4079" y="-18.5" font-family="Helvetica,sans-Serif" font-size="10.00">RADKernel/headers/radkernel</text>
<text text-anchor="middle" x="4150.5" y="-7.5" font-family="Helvetica,sans-Serif" font-size="10.00">/rad_tree.h</text>
</a>
</g>
</g>
<!-- Node1&#45;&gt;Node25 -->
<g id="edge24" class="edge">
<title>Node1&#45;&gt;Node25</title>
<path fill="none" stroke="midnightblue" d="M2912.26,-81.61C3116.86,-81.03 3633.3,-74.93 4062.5,-31 4065.27,-30.72 4068.09,-30.4 4070.93,-30.06"/>
<polygon fill="midnightblue" stroke="midnightblue" points="2912.16,-78.11 2902.17,-81.63 2912.17,-85.11 2912.16,-78.11"/>
</g>
<!-- Node26 -->
<g id="node26" class="node">
<title>Node26</title>
<g id="a_node26"><a xlink:href="rad__tty_8h_source.html" target="_top" xlink:title=" ">
<polygon fill="white" stroke="black" points="4248,-0.5 4248,-30.5 4407,-30.5 4407,-0.5 4248,-0.5"/>
<text text-anchor="start" x="4256" y="-18.5" font-family="Helvetica,sans-Serif" font-size="10.00">RADKernel/headers/radkernel</text>
<text text-anchor="middle" x="4327.5" y="-7.5" font-family="Helvetica,sans-Serif" font-size="10.00">/rad_tty.h</text>
</a>
</g>
</g>
<!-- Node1&#45;&gt;Node26 -->
<g id="edge25" class="edge">
<title>Node1&#45;&gt;Node26</title>
<path fill="none" stroke="midnightblue" d="M2912.33,-82.27C3136.75,-83.33 3739.83,-80.86 4239.5,-31 4242.27,-30.72 4245.09,-30.41 4247.94,-30.08"/>
<polygon fill="midnightblue" stroke="midnightblue" points="2912.27,-78.77 2902.25,-82.22 2912.23,-85.77 2912.27,-78.77"/>
</g>
<!-- Node27 -->
<g id="node27" class="node">
<title>Node27</title>
<g id="a_node27"><a xlink:href="rad__usb_8h_source.html" target="_top" xlink:title=" ">
<polygon fill="white" stroke="black" points="4425,-0.5 4425,-30.5 4584,-30.5 4584,-0.5 4425,-0.5"/>
<text text-anchor="start" x="4433" y="-18.5" font-family="Helvetica,sans-Serif" font-size="10.00">RADKernel/headers/radkernel</text>
<text text-anchor="middle" x="4504.5" y="-7.5" font-family="Helvetica,sans-Serif" font-size="10.00">/rad_usb.h</text>
</a>
</g>
</g>
<!-- Node1&#45;&gt;Node27 -->
<g id="edge26" class="edge">
<title>Node1&#45;&gt;Node27</title>
<path fill="none" stroke="midnightblue" d="M2912.47,-80.21C3204.08,-75.78 4121.36,-59.86 4416.5,-31 4419.27,-30.73 4422.09,-30.42 4424.94,-30.09"/>
<polygon fill="midnightblue" stroke="midnightblue" points="2912.31,-76.71 2902.36,-80.36 2912.41,-83.71 2912.31,-76.71"/>
</g>
<!-- Node28 -->
<g id="node28" class="node">
<title>Node28</title>
<g id="a_node28"><a xlink:href="rad__vfs_8h_source.html" target="_top" xlink:title=" ">
<polygon fill="white" stroke="black" points="4602,-0.5 4602,-30.5 4761,-30.5 4761,-0.5 4602,-0.5"/>
<text text-anchor="start" x="4610" y="-18.5" font-family="Helvetica,sans-Serif" font-size="10.00">RADKernel/headers/radkernel</text>
<text text-anchor="middle" x="4681.5" y="-7.5" font-family="Helvetica,sans-Serif" font-size="10.00">/rad_vfs.h</text>
</a>
</g>
</g>
<!-- Node1&#45;&gt;Node28 -->
<g id="edge27" class="edge">
<title>Node1&#45;&gt;Node28</title>
<path fill="none" stroke="midnightblue" d="M2912.4,-80.54C3224.78,-76.95 4262.1,-62.88 4593.5,-31 4596.27,-30.73 4599.09,-30.43 4601.94,-30.1"/>
<polygon fill="midnightblue" stroke="midnightblue" points="2912,-77.04 2902.04,-80.66 2912.08,-84.04 2912,-77.04"/>
</g>
<!-- Node29 -->
<g id="node29" class="node">
<title>Node29</title>
<g id="a_node29"><a xlink:href="radboot_8h.html" target="_top" xlink:title="Helpers for constructing rad_boot_info_t records during platform handoff.">
<polygon fill="white" stroke="black" points="4779,-6 4779,-25 4922,-25 4922,-6 4779,-6"/>
<text text-anchor="middle" x="4850.5" y="-13" font-family="Helvetica,sans-Serif" font-size="10.00">RADKernel/boot/radboot.h</text>
</a>
</g>
</g>
<!-- Node1&#45;&gt;Node29 -->
<g id="edge28" class="edge">
<title>Node1&#45;&gt;Node29</title>
<path fill="none" stroke="midnightblue" d="M2912.05,-81C3243.84,-78.88 4402.87,-68.86 4770.5,-31 4783.56,-29.66 4797.69,-27.37 4810.38,-25.01"/>
<polygon fill="midnightblue" stroke="midnightblue" points="2911.98,-77.5 2902,-81.07 2912.03,-84.5 2911.98,-77.5"/>
</g>
<!-- Node30 -->
<g id="node30" class="node">
<title>Node30</title>
<g id="a_node30"><a xlink:href="radkernel__a53_8h_source.html" target="_top" xlink:title=" ">
<polygon fill="white" stroke="black" points="4940,-0.5 4940,-30.5 5059,-30.5 5059,-0.5 4940,-0.5"/>
<text text-anchor="start" x="4948" y="-18.5" font-family="Helvetica,sans-Serif" font-size="10.00">RADKernel/platforms</text>
<text text-anchor="middle" x="4999.5" y="-7.5" font-family="Helvetica,sans-Serif" font-size="10.00">/a53/radkernel_a53.h</text>
</a>
</g>
</g>
<!-- Node1&#45;&gt;Node30 -->
<g id="edge29" class="edge">
<title>Node1&#45;&gt;Node30</title>
<path fill="none" stroke="midnightblue" d="M2912.07,-81.58C3261.21,-81.52 4531.35,-78.04 4931.5,-31 4934.26,-30.68 4937.07,-30.29 4939.9,-29.86"/>
<polygon fill="midnightblue" stroke="midnightblue" points="2912.01,-78.08 2902.01,-81.58 2912.01,-85.08 2912.01,-78.08"/>
</g>
<!-- Node31 -->
<g id="node31" class="node">
<title>Node31</title>
<g id="a_node31"><a xlink:href="x86__cpu_8h_source.html" target="_top" xlink:title=" ">
<polygon fill="white" stroke="black" points="5077,-0.5 5077,-30.5 5196,-30.5 5196,-0.5 5077,-0.5"/>
<text text-anchor="start" x="5085" y="-18.5" font-family="Helvetica,sans-Serif" font-size="10.00">RADKernel/platforms</text>
<text text-anchor="middle" x="5136.5" y="-7.5" font-family="Helvetica,sans-Serif" font-size="10.00">/x86_64/x86_cpu.h</text>
</a>
</g>
</g>
<!-- Node1&#45;&gt;Node31 -->
<g id="edge30" class="edge">
<title>Node1&#45;&gt;Node31</title>
<path fill="none" stroke="midnightblue" d="M2912.35,-81.73C3276.07,-82.31 4640.19,-81.03 5068.5,-31 5071.26,-30.68 5074.07,-30.3 5076.9,-29.87"/>
<polygon fill="midnightblue" stroke="midnightblue" points="2912.14,-78.23 2902.14,-81.71 2912.13,-85.23 2912.14,-78.23"/>
</g>
<!-- Node32 -->
<g id="node32" class="node">
<title>Node32</title>
<g id="a_node32"><a xlink:href="x86__user_8h_source.html" target="_top" xlink:title=" ">
<polygon fill="white" stroke="black" points="5214,-0.5 5214,-30.5 5333,-30.5 5333,-0.5 5214,-0.5"/>
<text text-anchor="start" x="5222" y="-18.5" font-family="Helvetica,sans-Serif" font-size="10.00">RADKernel/platforms</text>
<text text-anchor="middle" x="5273.5" y="-7.5" font-family="Helvetica,sans-Serif" font-size="10.00">/x86_64/x86_user.h</text>
</a>
</g>
</g>
<!-- Node1&#45;&gt;Node32 -->
<g id="edge31" class="edge">
<title>Node1&#45;&gt;Node32</title>
<path fill="none" stroke="midnightblue" d="M2912.15,-81.87C3289.31,-83.05 4748.78,-84.05 5205.5,-31 5208.26,-30.68 5211.07,-30.3 5213.9,-29.87"/>
<polygon fill="midnightblue" stroke="midnightblue" points="2912.12,-78.37 2902.1,-81.83 2912.09,-85.37 2912.12,-78.37"/>
</g>
<!-- Node33 -->
<g id="node33" class="node">
<title>Node33</title>
<g id="a_node33"><a xlink:href="x86__vm_8h_source.html" target="_top" xlink:title=" ">
<polygon fill="white" stroke="black" points="5351,-0.5 5351,-30.5 5470,-30.5 5470,-0.5 5351,-0.5"/>
<text text-anchor="start" x="5359" y="-18.5" font-family="Helvetica,sans-Serif" font-size="10.00">RADKernel/platforms</text>
<text text-anchor="middle" x="5410.5" y="-7.5" font-family="Helvetica,sans-Serif" font-size="10.00">/x86_64/x86_vm.h</text>
</a>
</g>
</g>
<!-- Node1&#45;&gt;Node33 -->
<g id="edge32" class="edge">
<title>Node1&#45;&gt;Node33</title>
<path fill="none" stroke="midnightblue" d="M2912.3,-80.71C3332.89,-76.89 5097.72,-59.29 5342.5,-31 5345.26,-30.68 5348.07,-30.3 5350.9,-29.88"/>
<polygon fill="midnightblue" stroke="midnightblue" points="2912,-77.22 2902.03,-80.81 2912.06,-84.22 2912,-77.22"/>
</g>
</g>
</svg>
