<?xml version="1.0" encoding="UTF-8" standalone="no"?>
<!DOCTYPE svg PUBLIC "-//W3C//DTD SVG 1.1//EN"
 "http://www.w3.org/Graphics/SVG/1.1/DTD/svg11.dtd">
<!-- Generated by graphviz version 2.43.0 (0)
 -->
<!-- Title: rad_net_stack_config Pages: 1 -->
<svg width="127pt" height="128pt"
 viewBox="0.00 0.00 127.00 128.00" xmlns="http://www.w3.org/2000/svg" xmlns:xlink="http://www.w3.org/1999/xlink">
<g id="graph0" class="graph" transform="scale(1 1) rotate(0) translate(4 124)">
<title>rad_net_stack_config</title>
<polygon fill="white" stroke="transparent" points="-4,4 -4,-124 123,-124 123,4 -4,4"/>
<!-- Node1 -->
<g id="node1" class="node">
<title>Node1</title>
<g id="a_node1"><a xlink:title="Public data structure for rad_net_stack_config.">
<polygon fill="#bfbfbf" stroke="black" points="0,-0.5 0,-19.5 119,-19.5 119,-0.5 0,-0.5"/>
<text text-anchor="middle" x="59.5" y="-7.5" font-family="Helvetica,sans-Serif" font-size="10.00">rad_net_stack_config</text>
</a>
</g>
</g>
<!-- Node2 -->
<g id="node2" class="node">
<title>Node2</title>
<g id="a_node2"><a xlink:href="structrad__ipv4__address.html" target="_top" xlink:title="Public data structure for rad_ipv4_address.">
<polygon fill="white" stroke="black" points="8.5,-100.5 8.5,-119.5 110.5,-119.5 110.5,-100.5 8.5,-100.5"/>
<text text-anchor="middle" x="59.5" y="-107.5" font-family="Helvetica,sans-Serif" font-size="10.00">rad_ipv4_address</text>
</a>
</g>
</g>
<!-- Node2&#45;&gt;Node1 -->
<g id="edge1" class="edge">
<title>Node2&#45;&gt;Node1</title>
<path fill="none" stroke="#9a32cd" stroke-dasharray="5,2" d="M59.5,-90.22C59.5,-68.95 59.5,-35.22 59.5,-19.54"/>
<polygon fill="#9a32cd" stroke="#9a32cd" points="56,-90.3 59.5,-100.3 63,-90.3 56,-90.3"/>
<text text-anchor="middle" x="85.5" y="-74" font-family="Helvetica,sans-Serif" font-size="10.00"> gateway</text>
<text text-anchor="middle" x="85.5" y="-63" font-family="Helvetica,sans-Serif" font-size="10.00">ipv4</text>
<text text-anchor="middle" x="85.5" y="-52" font-family="Helvetica,sans-Serif" font-size="10.00">netmask</text>
<text text-anchor="middle" x="85.5" y="-41" font-family="Helvetica,sans-Serif" font-size="10.00">ntp_server</text>
</g>
</g>
</svg>
