<?xml version="1.0" encoding="UTF-8" standalone="no"?>
<!DOCTYPE svg PUBLIC "-//W3C//DTD SVG 1.1//EN"
 "http://www.w3.org/Graphics/SVG/1.1/DTD/svg11.dtd">
<!-- Generated by graphviz version 2.43.0 (0)
 -->
<!-- Title: RADUi::MenuBarModel Pages: 1 -->
<svg width="435pt" height="106pt"
 viewBox="0.00 0.00 434.50 106.00" xmlns="http://www.w3.org/2000/svg" xmlns:xlink="http://www.w3.org/1999/xlink">
<g id="graph0" class="graph" transform="scale(1 1) rotate(0) translate(4 102)">
<title>RADUi::MenuBarModel</title>
<polygon fill="white" stroke="transparent" points="-4,4 -4,-102 430.5,-102 430.5,4 -4,4"/>
<!-- Node1 -->
<g id="node1" class="node">
<title>Node1</title>
<g id="a_node1"><a xlink:title="State model for a conventional menu bar.">
<polygon fill="#bfbfbf" stroke="black" points="145.5,-0.5 145.5,-19.5 273.5,-19.5 273.5,-0.5 145.5,-0.5"/>
<text text-anchor="middle" x="209.5" y="-7.5" font-family="Helvetica,sans-Serif" font-size="10.00">RADUi::MenuBarModel</text>
</a>
</g>
</g>
<!-- Node2 -->
<g id="node2" class="node">
<title>Node2</title>
<g id="a_node2"><a xlink:href="classRADCore_1_1RADObject.html" target="_top" xlink:title="Base class for event receivers, senders, and thread&#45;affinity aware objects.">
<polygon fill="white" stroke="black" points="0,-73 0,-92 119,-92 119,-73 0,-73"/>
<text text-anchor="middle" x="59.5" y="-80" font-family="Helvetica,sans-Serif" font-size="10.00">RADCore::RADObject</text>
</a>
</g>
</g>
<!-- Node2&#45;&gt;Node1 -->
<g id="edge1" class="edge">
<title>Node2&#45;&gt;Node1</title>
<path fill="none" stroke="midnightblue" d="M86.77,-68.68C117.11,-54.42 165.29,-31.78 191.34,-19.53"/>
<polygon fill="midnightblue" stroke="midnightblue" points="85.15,-65.57 77.59,-73 88.13,-71.91 85.15,-65.57"/>
</g>
<!-- Node3 -->
<g id="node3" class="node">
<title>Node3</title>
<g id="a_node3"><a xlink:href="classRADCore_1_1Event.html" target="_top" xlink:title=" ">
<polygon fill="white" stroke="black" points="137,-73 137,-92 282,-92 282,-73 137,-73"/>
<text text-anchor="middle" x="209.5" y="-80" font-family="Helvetica,sans-Serif" font-size="10.00">RADCore::Event&lt; void() &gt;</text>
</a>
</g>
</g>
<!-- Node3&#45;&gt;Node1 -->
<g id="edge2" class="edge">
<title>Node3&#45;&gt;Node1</title>
<path fill="none" stroke="#9a32cd" stroke-dasharray="5,2" d="M209.5,-62.44C209.5,-48.53 209.5,-30.32 209.5,-19.72"/>
<polygon fill="#9a32cd" stroke="#9a32cd" points="206,-62.86 209.5,-72.86 213,-62.86 206,-62.86"/>
<text text-anchor="middle" x="232" y="-41" font-family="Helvetica,sans-Serif" font-size="10.00"> changed</text>
</g>
<!-- Node4 -->
<g id="node4" class="node">
<title>Node4</title>
<g id="a_node4"><a xlink:href="classRADCore_1_1Event.html" target="_top" xlink:title=" ">
<polygon fill="white" stroke="black" points="300.5,-67.5 300.5,-97.5 426.5,-97.5 426.5,-67.5 300.5,-67.5"/>
<text text-anchor="start" x="308.5" y="-85.5" font-family="Helvetica,sans-Serif" font-size="10.00">RADCore::Event&lt; void</text>
<text text-anchor="middle" x="363.5" y="-74.5" font-family="Helvetica,sans-Serif" font-size="10.00">(std::string) &gt;</text>
</a>
</g>
</g>
<!-- Node4&#45;&gt;Node1 -->
<g id="edge3" class="edge">
<title>Node4&#45;&gt;Node1</title>
<path fill="none" stroke="#9a32cd" stroke-dasharray="5,2" d="M323.52,-63.2C292.77,-49.12 251.67,-30.3 228.14,-19.53"/>
<polygon fill="#9a32cd" stroke="#9a32cd" points="322.16,-66.42 332.71,-67.4 325.07,-60.06 322.16,-66.42"/>
<text text-anchor="middle" x="326" y="-41" font-family="Helvetica,sans-Serif" font-size="10.00"> itemTriggered</text>
</g>
</g>
</svg>
