<?xml version="1.0" encoding="UTF-8" standalone="no"?>
<!DOCTYPE svg PUBLIC "-//W3C//DTD SVG 1.1//EN"
 "http://www.w3.org/Graphics/SVG/1.1/DTD/svg11.dtd">
<!-- Generated by graphviz version 2.43.0 (0)
 -->
<!-- Title: RADUi::PreferencesModel Pages: 1 -->
<svg width="404pt" height="116pt"
 viewBox="0.00 0.00 404.00 116.00" xmlns="http://www.w3.org/2000/svg" xmlns:xlink="http://www.w3.org/1999/xlink">
<g id="graph0" class="graph" transform="scale(1 1) rotate(0) translate(4 112)">
<title>RADUi::PreferencesModel</title>
<polygon fill="white" stroke="transparent" points="-4,4 -4,-112 400,-112 400,4 -4,4"/>
<!-- Node1 -->
<g id="node1" class="node">
<title>Node1</title>
<g id="a_node1"><a xlink:title="Preferences/settings form model.">
<polygon fill="#bfbfbf" stroke="black" points="254,-44.5 254,-63.5 396,-63.5 396,-44.5 254,-44.5"/>
<text text-anchor="middle" x="325" y="-51.5" font-family="Helvetica,sans-Serif" font-size="10.00">RADUi::PreferencesModel</text>
</a>
</g>
</g>
<!-- Node2 -->
<g id="node2" class="node">
<title>Node2</title>
<g id="a_node2"><a xlink:href="classRADCore_1_1RADObject.html" target="_top" xlink:title="Base class for event receivers, senders, and thread&#45;affinity aware objects.">
<polygon fill="white" stroke="black" points="13,-88.5 13,-107.5 132,-107.5 132,-88.5 13,-88.5"/>
<text text-anchor="middle" x="72.5" y="-95.5" font-family="Helvetica,sans-Serif" font-size="10.00">RADCore::RADObject</text>
</a>
</g>
</g>
<!-- Node2&#45;&gt;Node1 -->
<g id="edge1" class="edge">
<title>Node2&#45;&gt;Node1</title>
<path fill="none" stroke="midnightblue" d="M137.72,-86.72C178.6,-79.54 230.96,-70.34 269.75,-63.53"/>
<polygon fill="midnightblue" stroke="midnightblue" points="137.1,-83.28 127.85,-88.45 138.31,-90.17 137.1,-83.28"/>
</g>
<!-- Node3 -->
<g id="node3" class="node">
<title>Node3</title>
<g id="a_node3"><a xlink:href="classRADCore_1_1Event.html" target="_top" xlink:title=" ">
<polygon fill="white" stroke="black" points="3,-39 3,-69 142,-69 142,-39 3,-39"/>
<text text-anchor="start" x="11" y="-57" font-family="Helvetica,sans-Serif" font-size="10.00">RADCore::Event&lt; void</text>
<text text-anchor="middle" x="72.5" y="-46" font-family="Helvetica,sans-Serif" font-size="10.00">(std::string, std::string) &gt;</text>
</a>
</g>
</g>
<!-- Node3&#45;&gt;Node1 -->
<g id="edge2" class="edge">
<title>Node3&#45;&gt;Node1</title>
<path fill="none" stroke="#9a32cd" stroke-dasharray="5,2" d="M152.62,-54C185.01,-54 222.2,-54 253.63,-54"/>
<polygon fill="#9a32cd" stroke="#9a32cd" points="152.28,-50.5 142.28,-54 152.28,-57.5 152.28,-50.5"/>
<text text-anchor="middle" x="199.5" y="-57" font-family="Helvetica,sans-Serif" font-size="10.00"> valueChanged</text>
</g>
<!-- Node4 -->
<g id="node4" class="node">
<title>Node4</title>
<g id="a_node4"><a xlink:href="classRADCore_1_1Event.html" target="_top" xlink:title=" ">
<polygon fill="white" stroke="black" points="0,-0.5 0,-19.5 145,-19.5 145,-0.5 0,-0.5"/>
<text text-anchor="middle" x="72.5" y="-7.5" font-family="Helvetica,sans-Serif" font-size="10.00">RADCore::Event&lt; void() &gt;</text>
</a>
</g>
</g>
<!-- Node4&#45;&gt;Node1 -->
<g id="edge3" class="edge">
<title>Node4&#45;&gt;Node1</title>
<path fill="none" stroke="#9a32cd" stroke-dasharray="5,2" d="M137.72,-21.28C178.6,-28.46 230.96,-37.66 269.75,-44.47"/>
<polygon fill="#9a32cd" stroke="#9a32cd" points="138.31,-17.83 127.85,-19.55 137.1,-24.72 138.31,-17.83"/>
<text text-anchor="middle" x="199.5" y="-42" font-family="Helvetica,sans-Serif" font-size="10.00"> changed</text>
</g>
</g>
</svg>
