<?xml version="1.0" encoding="UTF-8" standalone="no"?>
<!DOCTYPE svg PUBLIC "-//W3C//DTD SVG 1.1//EN"
 "http://www.w3.org/Graphics/SVG/1.1/DTD/svg11.dtd">
<!-- Generated by graphviz version 2.43.0 (0)
 -->
<!-- Title: RADNet::RADProtocolServer Pages: 1 -->
<svg width="419pt" height="138pt"
 viewBox="0.00 0.00 419.00 138.00" xmlns="http://www.w3.org/2000/svg" xmlns:xlink="http://www.w3.org/1999/xlink">
<g id="graph0" class="graph" transform="scale(1 1) rotate(0) translate(4 134)">
<title>RADNet::RADProtocolServer</title>
<polygon fill="white" stroke="transparent" points="-4,4 -4,-134 415,-134 415,4 -4,4"/>
<!-- Node1 -->
<g id="node1" class="node">
<title>Node1</title>
<g id="a_node1"><a xlink:title="Framed protocol TCP server.">
<polygon fill="#bfbfbf" stroke="black" points="258,-66.5 258,-85.5 411,-85.5 411,-66.5 258,-66.5"/>
<text text-anchor="middle" x="334.5" y="-73.5" font-family="Helvetica,sans-Serif" font-size="10.00">RADNet::RADProtocolServer</text>
</a>
</g>
</g>
<!-- Node2 -->
<g id="node2" class="node">
<title>Node2</title>
<g id="a_node2"><a xlink:href="classRADCore_1_1RADObject.html" target="_top" xlink:title="Base class for event receivers, senders, and thread&#45;affinity aware objects.">
<polygon fill="white" stroke="black" points="12,-110.5 12,-129.5 131,-129.5 131,-110.5 12,-110.5"/>
<text text-anchor="middle" x="71.5" y="-117.5" font-family="Helvetica,sans-Serif" font-size="10.00">RADCore::RADObject</text>
</a>
</g>
</g>
<!-- Node2&#45;&gt;Node1 -->
<g id="edge1" class="edge">
<title>Node2&#45;&gt;Node1</title>
<path fill="none" stroke="midnightblue" d="M139.14,-108.77C181.77,-101.58 236.47,-92.36 276.98,-85.53"/>
<polygon fill="midnightblue" stroke="midnightblue" points="138.41,-105.34 129.13,-110.45 139.58,-112.24 138.41,-105.34"/>
</g>
<!-- Node3 -->
<g id="node3" class="node">
<title>Node3</title>
<g id="a_node3"><a xlink:href="classRADCore_1_1Event.html" target="_top" xlink:title=" ">
<polygon fill="white" stroke="black" points="8.5,-61 8.5,-91 134.5,-91 134.5,-61 8.5,-61"/>
<text text-anchor="start" x="16.5" y="-79" font-family="Helvetica,sans-Serif" font-size="10.00">RADCore::Event&lt; void</text>
<text text-anchor="middle" x="71.5" y="-68" font-family="Helvetica,sans-Serif" font-size="10.00">(std::string) &gt;</text>
</a>
</g>
</g>
<!-- Node3&#45;&gt;Node1 -->
<g id="edge2" class="edge">
<title>Node3&#45;&gt;Node1</title>
<path fill="none" stroke="#9a32cd" stroke-dasharray="5,2" d="M144.87,-76C180.03,-76 222.25,-76 257.83,-76"/>
<polygon fill="#9a32cd" stroke="#9a32cd" points="144.68,-72.5 134.68,-76 144.68,-79.5 144.68,-72.5"/>
<text text-anchor="middle" x="200.5" y="-79" font-family="Helvetica,sans-Serif" font-size="10.00"> errorOccurred</text>
</g>
<!-- Node4 -->
<g id="node4" class="node">
<title>Node4</title>
<g id="a_node4"><a xlink:href="classRADCore_1_1Event.html" target="_top" xlink:title=" ">
<polygon fill="white" stroke="black" points="0,-0.5 0,-41.5 143,-41.5 143,-0.5 0,-0.5"/>
<text text-anchor="start" x="8" y="-29.5" font-family="Helvetica,sans-Serif" font-size="10.00">RADCore::Event&lt; void</text>
<text text-anchor="start" x="8" y="-18.5" font-family="Helvetica,sans-Serif" font-size="10.00">(std::shared_ptr&lt; RADNet</text>
<text text-anchor="middle" x="71.5" y="-7.5" font-family="Helvetica,sans-Serif" font-size="10.00">::RADProtocolSocket &gt;) &gt;</text>
</a>
</g>
</g>
<!-- Node4&#45;&gt;Node1 -->
<g id="edge3" class="edge">
<title>Node4&#45;&gt;Node1</title>
<path fill="none" stroke="#9a32cd" stroke-dasharray="5,2" d="M153.05,-37.97C197.53,-47.35 251.11,-58.64 288.28,-66.47"/>
<polygon fill="#9a32cd" stroke="#9a32cd" points="153.64,-34.52 143.13,-35.88 152.19,-41.37 153.64,-34.52"/>
<text text-anchor="middle" x="200.5" y="-58" font-family="Helvetica,sans-Serif" font-size="10.00"> newConnection</text>
</g>
</g>
</svg>
