<?xml version="1.0" encoding="UTF-8" standalone="no"?>
<!DOCTYPE svg PUBLIC "-//W3C//DTD SVG 1.1//EN"
 "http://www.w3.org/Graphics/SVG/1.1/DTD/svg11.dtd">
<!-- Generated by graphviz version 2.43.0 (0)
 -->
<!-- Title: RADNet::RADTcpServer Pages: 1 -->
<svg width="395pt" height="138pt"
 viewBox="0.00 0.00 395.00 137.50" xmlns="http://www.w3.org/2000/svg" xmlns:xlink="http://www.w3.org/1999/xlink">
<g id="graph0" class="graph" transform="scale(1 1) rotate(0) translate(4 133.5)">
<title>RADNet::RADTcpServer</title>
<polygon fill="white" stroke="transparent" points="-4,4 -4,-133.5 391,-133.5 391,4 -4,4"/>
<!-- Node1 -->
<g id="node1" class="node">
<title>Node1</title>
<g id="a_node1"><a xlink:title="Non&#45;blocking TCP server that emits accepted sockets.">
<polygon fill="#bfbfbf" stroke="black" points="258,-61 258,-80 387,-80 387,-61 258,-61"/>
<text text-anchor="middle" x="322.5" y="-68" font-family="Helvetica,sans-Serif" font-size="10.00">RADNet::RADTcpServer</text>
</a>
</g>
</g>
<!-- Node2 -->
<g id="node2" class="node">
<title>Node2</title>
<g id="a_node2"><a xlink:href="classRADCore_1_1RADObject.html" target="_top" xlink:title="Base class for event receivers, senders, and thread&#45;affinity aware objects.">
<polygon fill="white" stroke="black" points="12,-110 12,-129 131,-129 131,-110 12,-110"/>
<text text-anchor="middle" x="71.5" y="-117" font-family="Helvetica,sans-Serif" font-size="10.00">RADCore::RADObject</text>
</a>
</g>
</g>
<!-- Node2&#45;&gt;Node1 -->
<g id="edge1" class="edge">
<title>Node2&#45;&gt;Node1</title>
<path fill="none" stroke="midnightblue" d="M130.89,-108.01C174.08,-99.51 232.23,-88.07 272.9,-80.06"/>
<polygon fill="midnightblue" stroke="midnightblue" points="129.94,-104.63 120.8,-109.99 131.29,-111.5 129.94,-104.63"/>
</g>
<!-- Node3 -->
<g id="node3" class="node">
<title>Node3</title>
<g id="a_node3"><a xlink:href="classRADCore_1_1Event.html" target="_top" xlink:title=" ">
<polygon fill="white" stroke="black" points="0,-50 0,-91 143,-91 143,-50 0,-50"/>
<text text-anchor="start" x="8" y="-79" font-family="Helvetica,sans-Serif" font-size="10.00">RADCore::Event&lt; void</text>
<text text-anchor="start" x="8" y="-68" font-family="Helvetica,sans-Serif" font-size="10.00">(std::shared_ptr&lt; RADNet</text>
<text text-anchor="middle" x="71.5" y="-57" font-family="Helvetica,sans-Serif" font-size="10.00">::RADTcpSocket &gt;) &gt;</text>
</a>
</g>
</g>
<!-- Node3&#45;&gt;Node1 -->
<g id="edge2" class="edge">
<title>Node3&#45;&gt;Node1</title>
<path fill="none" stroke="#9a32cd" stroke-dasharray="5,2" d="M153.52,-70.5C187.37,-70.5 226.12,-70.5 257.87,-70.5"/>
<polygon fill="#9a32cd" stroke="#9a32cd" points="153.19,-67 143.19,-70.5 153.19,-74 153.19,-67"/>
<text text-anchor="middle" x="200.5" y="-73.5" font-family="Helvetica,sans-Serif" font-size="10.00"> newConnection</text>
</g>
<!-- Node4 -->
<g id="node4" class="node">
<title>Node4</title>
<g id="a_node4"><a xlink:href="classRADCore_1_1Event.html" target="_top" xlink:title=" ">
<polygon fill="white" stroke="black" points="8.5,-0.5 8.5,-30.5 134.5,-30.5 134.5,-0.5 8.5,-0.5"/>
<text text-anchor="start" x="16.5" y="-18.5" font-family="Helvetica,sans-Serif" font-size="10.00">RADCore::Event&lt; void</text>
<text text-anchor="middle" x="71.5" y="-7.5" font-family="Helvetica,sans-Serif" font-size="10.00">(std::string) &gt;</text>
</a>
</g>
</g>
<!-- Node4&#45;&gt;Node1 -->
<g id="edge3" class="edge">
<title>Node4&#45;&gt;Node1</title>
<path fill="none" stroke="#9a32cd" stroke-dasharray="5,2" d="M144.62,-31.43C187.96,-41 241.66,-52.86 278.45,-60.99"/>
<polygon fill="#9a32cd" stroke="#9a32cd" points="145.21,-27.98 134.69,-29.24 143.7,-34.81 145.21,-27.98"/>
<text text-anchor="middle" x="200.5" y="-53.5" font-family="Helvetica,sans-Serif" font-size="10.00"> errorOccurred</text>
</g>
</g>
</svg>
