<?xml version="1.0" encoding="UTF-8" standalone="no"?>
<!DOCTYPE svg PUBLIC "-//W3C//DTD SVG 1.1//EN"
 "http://www.w3.org/Graphics/SVG/1.1/DTD/svg11.dtd">
<!-- Generated by graphviz version 2.43.0 (0)
 -->
<!-- Title: RADCore::RADProcess Pages: 1 -->
<svg width="384pt" height="166pt"
 viewBox="0.00 0.00 384.00 165.50" xmlns="http://www.w3.org/2000/svg" xmlns:xlink="http://www.w3.org/1999/xlink">
<g id="graph0" class="graph" transform="scale(1 1) rotate(0) translate(4 161.5)">
<title>RADCore::RADProcess</title>
<polygon fill="white" stroke="transparent" points="-4,4 -4,-161.5 380,-161.5 380,4 -4,4"/>
<!-- Node1 -->
<g id="node1" class="node">
<title>Node1</title>
<g id="a_node1"><a xlink:title="Child process helper for stdout/stderr capture.">
<polygon fill="#bfbfbf" stroke="black" points="251,-72 251,-91 376,-91 376,-72 251,-72"/>
<text text-anchor="middle" x="313.5" y="-79" font-family="Helvetica,sans-Serif" font-size="10.00">RADCore::RADProcess</text>
</a>
</g>
</g>
<!-- Node2 -->
<g id="node2" class="node">
<title>Node2</title>
<g id="a_node2"><a xlink:href="classRADCore_1_1RADObject.html" target="_top" xlink:title="Base class for event receivers, senders, and thread&#45;affinity aware objects.">
<polygon fill="white" stroke="black" points="13,-138 13,-157 132,-157 132,-138 13,-138"/>
<text text-anchor="middle" x="72.5" y="-145" font-family="Helvetica,sans-Serif" font-size="10.00">RADCore::RADObject</text>
</a>
</g>
</g>
<!-- Node2&#45;&gt;Node1 -->
<g id="edge1" class="edge">
<title>Node2&#45;&gt;Node1</title>
<path fill="none" stroke="midnightblue" d="M129.32,-135.71C160.11,-128.83 198.9,-119.54 233,-109.5 251.53,-104.05 272.09,-96.77 287.65,-91.01"/>
<polygon fill="midnightblue" stroke="midnightblue" points="128.22,-132.37 119.21,-137.94 129.73,-139.2 128.22,-132.37"/>
</g>
<!-- Node3 -->
<g id="node3" class="node">
<title>Node3</title>
<g id="a_node3"><a xlink:href="classRADCore_1_1Event.html" target="_top" xlink:title=" ">
<polygon fill="white" stroke="black" points="9.5,-88.5 9.5,-118.5 135.5,-118.5 135.5,-88.5 9.5,-88.5"/>
<text text-anchor="start" x="17.5" y="-106.5" font-family="Helvetica,sans-Serif" font-size="10.00">RADCore::Event&lt; void</text>
<text text-anchor="middle" x="72.5" y="-95.5" font-family="Helvetica,sans-Serif" font-size="10.00">(int) &gt;</text>
</a>
</g>
</g>
<!-- Node3&#45;&gt;Node1 -->
<g id="edge2" class="edge">
<title>Node3&#45;&gt;Node1</title>
<path fill="none" stroke="#9a32cd" stroke-dasharray="5,2" d="M145.85,-96.84C179.29,-93.76 218.6,-90.14 250.64,-87.19"/>
<polygon fill="#9a32cd" stroke="#9a32cd" points="145.31,-93.38 135.67,-97.78 145.95,-100.35 145.31,-93.38"/>
<text text-anchor="middle" x="198" y="-97.5" font-family="Helvetica,sans-Serif" font-size="10.00"> finished</text>
</g>
<!-- Node4 -->
<g id="node4" class="node">
<title>Node4</title>
<g id="a_node4"><a xlink:href="classRADCore_1_1Event.html" target="_top" xlink:title=" ">
<polygon fill="white" stroke="black" points="0,-50 0,-69 145,-69 145,-50 0,-50"/>
<text text-anchor="middle" x="72.5" y="-57" font-family="Helvetica,sans-Serif" font-size="10.00">RADCore::Event&lt; void() &gt;</text>
</a>
</g>
</g>
<!-- Node4&#45;&gt;Node1 -->
<g id="edge3" class="edge">
<title>Node4&#45;&gt;Node1</title>
<path fill="none" stroke="#9a32cd" stroke-dasharray="5,2" d="M155.51,-66.5C180.4,-68.67 207.83,-71.13 233,-73.5 238.8,-74.05 244.84,-74.63 250.88,-75.22"/>
<polygon fill="#9a32cd" stroke="#9a32cd" points="155.64,-62.99 145.37,-65.61 155.03,-69.97 155.64,-62.99"/>
<text text-anchor="middle" x="198" y="-76.5" font-family="Helvetica,sans-Serif" font-size="10.00"> started</text>
</g>
<!-- Node5 -->
<g id="node5" class="node">
<title>Node5</title>
<g id="a_node5"><a xlink:href="classRADCore_1_1Event.html" target="_top" xlink:title=" ">
<polygon fill="white" stroke="black" points="9.5,-0.5 9.5,-30.5 135.5,-30.5 135.5,-0.5 9.5,-0.5"/>
<text text-anchor="start" x="17.5" y="-18.5" font-family="Helvetica,sans-Serif" font-size="10.00">RADCore::Event&lt; void</text>
<text text-anchor="middle" x="72.5" y="-7.5" font-family="Helvetica,sans-Serif" font-size="10.00">(std::string) &gt;</text>
</a>
</g>
</g>
<!-- Node5&#45;&gt;Node1 -->
<g id="edge4" class="edge">
<title>Node5&#45;&gt;Node1</title>
<path fill="none" stroke="#9a32cd" stroke-dasharray="5,2" d="M145.7,-29.57C173.24,-35.52 204.79,-43.04 233,-51.5 252.5,-57.35 274.08,-65.61 289.83,-71.98"/>
<polygon fill="#9a32cd" stroke="#9a32cd" points="146.26,-26.11 135.75,-27.46 144.8,-32.96 146.26,-26.11"/>
<text text-anchor="middle" x="198" y="-54.5" font-family="Helvetica,sans-Serif" font-size="10.00"> errorOccurred</text>
</g>
</g>
</svg>
