<?xml version="1.0" encoding="UTF-8" standalone="no"?>
<!DOCTYPE svg PUBLIC "-//W3C//DTD SVG 1.1//EN"
 "http://www.w3.org/Graphics/SVG/1.1/DTD/svg11.dtd">
<!-- Generated by graphviz version 2.43.0 (0)
 -->
<!-- Title: RADDsp/headers/RADDsp.h Pages: 1 -->
<svg width="528pt" height="84pt"
 viewBox="0.00 0.00 528.00 84.00" xmlns="http://www.w3.org/2000/svg" xmlns:xlink="http://www.w3.org/1999/xlink">
<g id="graph0" class="graph" transform="scale(1 1) rotate(0) translate(4 80)">
<title>RADDsp/headers/RADDsp.h</title>
<polygon fill="white" stroke="transparent" points="-4,4 -4,-80 524,-80 524,4 -4,4"/>
<!-- Node1 -->
<g id="node1" class="node">
<title>Node1</title>
<g id="a_node1"><a xlink:title="Reusable DSP primitives for audio, SDR/IQ, plotting, and analysis.">
<polygon fill="#bfbfbf" stroke="black" points="218.5,-56.5 218.5,-75.5 368.5,-75.5 368.5,-56.5 218.5,-56.5"/>
<text text-anchor="middle" x="293.5" y="-63.5" font-family="Helvetica,sans-Serif" font-size="10.00">RADDsp/headers/RADDsp.h</text>
</a>
</g>
</g>
<!-- Node2 -->
<g id="node2" class="node">
<title>Node2</title>
<g id="a_node2"><a xlink:title=" ">
<polygon fill="white" stroke="#bfbfbf" points="0,-0.5 0,-19.5 153,-19.5 153,-0.5 0,-0.5"/>
<text text-anchor="middle" x="76.5" y="-7.5" font-family="Helvetica,sans-Serif" font-size="10.00">RADCore/RADLicenseGate.h</text>
</a>
</g>
</g>
<!-- Node1&#45;&gt;Node2 -->
<g id="edge1" class="edge">
<title>Node1&#45;&gt;Node2</title>
<path fill="none" stroke="midnightblue" d="M259.12,-56.44C221.58,-47.1 161.37,-32.12 120.43,-21.93"/>
<polygon fill="midnightblue" stroke="midnightblue" points="121.27,-18.53 110.72,-19.52 119.58,-25.33 121.27,-18.53"/>
</g>
<!-- Node3 -->
<g id="node3" class="node">
<title>Node3</title>
<g id="a_node3"><a xlink:title=" ">
<polygon fill="white" stroke="#bfbfbf" points="171.5,-0.5 171.5,-19.5 213.5,-19.5 213.5,-0.5 171.5,-0.5"/>
<text text-anchor="middle" x="192.5" y="-7.5" font-family="Helvetica,sans-Serif" font-size="10.00">array</text>
</a>
</g>
</g>
<!-- Node1&#45;&gt;Node3 -->
<g id="edge2" class="edge">
<title>Node1&#45;&gt;Node3</title>
<path fill="none" stroke="midnightblue" d="M277.27,-56.32C261.15,-47.7 236.2,-34.36 217.54,-24.39"/>
<polygon fill="midnightblue" stroke="midnightblue" points="219.16,-21.28 208.69,-19.65 215.86,-27.46 219.16,-21.28"/>
</g>
<!-- Node4 -->
<g id="node4" class="node">
<title>Node4</title>
<g id="a_node4"><a xlink:title=" ">
<polygon fill="white" stroke="#bfbfbf" points="232,-0.5 232,-19.5 285,-19.5 285,-0.5 232,-0.5"/>
<text text-anchor="middle" x="258.5" y="-7.5" font-family="Helvetica,sans-Serif" font-size="10.00">cstddef</text>
</a>
</g>
</g>
<!-- Node1&#45;&gt;Node4 -->
<g id="edge3" class="edge">
<title>Node1&#45;&gt;Node4</title>
<path fill="none" stroke="midnightblue" d="M287.72,-56.08C282.83,-48.53 275.67,-37.49 269.67,-28.23"/>
<polygon fill="midnightblue" stroke="midnightblue" points="272.55,-26.24 264.17,-19.75 266.67,-30.05 272.55,-26.24"/>
</g>
<!-- Node5 -->
<g id="node5" class="node">
<title>Node5</title>
<g id="a_node5"><a xlink:title=" ">
<polygon fill="white" stroke="#bfbfbf" points="303.5,-0.5 303.5,-19.5 353.5,-19.5 353.5,-0.5 303.5,-0.5"/>
<text text-anchor="middle" x="328.5" y="-7.5" font-family="Helvetica,sans-Serif" font-size="10.00">cstdint</text>
</a>
</g>
</g>
<!-- Node1&#45;&gt;Node5 -->
<g id="edge4" class="edge">
<title>Node1&#45;&gt;Node5</title>
<path fill="none" stroke="midnightblue" d="M299.28,-56.08C304.17,-48.53 311.33,-37.49 317.33,-28.23"/>
<polygon fill="midnightblue" stroke="midnightblue" points="320.33,-30.05 322.83,-19.75 314.45,-26.24 320.33,-30.05"/>
</g>
<!-- Node6 -->
<g id="node6" class="node">
<title>Node6</title>
<g id="a_node6"><a xlink:title=" ">
<polygon fill="white" stroke="#bfbfbf" points="372,-0.5 372,-19.5 455,-19.5 455,-0.5 372,-0.5"/>
<text text-anchor="middle" x="413.5" y="-7.5" font-family="Helvetica,sans-Serif" font-size="10.00">initializer_list</text>
</a>
</g>
</g>
<!-- Node1&#45;&gt;Node6 -->
<g id="edge5" class="edge">
<title>Node1&#45;&gt;Node6</title>
<path fill="none" stroke="midnightblue" d="M312.51,-56.44C332.09,-47.64 362.81,-33.81 385.23,-23.72"/>
<polygon fill="midnightblue" stroke="midnightblue" points="386.89,-26.81 394.57,-19.52 384.02,-20.43 386.89,-26.81"/>
</g>
<!-- Node7 -->
<g id="node7" class="node">
<title>Node7</title>
<g id="a_node7"><a xlink:title=" ">
<polygon fill="white" stroke="#bfbfbf" points="473,-0.5 473,-19.5 520,-19.5 520,-0.5 473,-0.5"/>
<text text-anchor="middle" x="496.5" y="-7.5" font-family="Helvetica,sans-Serif" font-size="10.00">vector</text>
</a>
</g>
</g>
<!-- Node1&#45;&gt;Node7 -->
<g id="edge6" class="edge">
<title>Node1&#45;&gt;Node7</title>
<path fill="none" stroke="midnightblue" d="M326.65,-56.45C359.11,-48.05 410.23,-34.7 462.9,-20.41"/>
<polygon fill="midnightblue" stroke="midnightblue" points="464.02,-23.73 472.75,-17.73 462.18,-16.98 464.02,-23.73"/>
</g>
</g>
</svg>
