<?xml version="1.0" encoding="UTF-8" standalone="no"?>
<!DOCTYPE svg PUBLIC "-//W3C//DTD SVG 1.1//EN"
 "http://www.w3.org/Graphics/SVG/1.1/DTD/svg11.dtd">
<!-- Generated by graphviz version 2.43.0 (0)
 -->
<!-- Title: RADUi/headers/RADSlintBackend.h Pages: 1 -->
<svg width="508pt" height="84pt"
 viewBox="0.00 0.00 507.50 84.00" xmlns="http://www.w3.org/2000/svg" xmlns:xlink="http://www.w3.org/1999/xlink">
<g id="graph0" class="graph" transform="scale(1 1) rotate(0) translate(4 80)">
<title>RADUi/headers/RADSlintBackend.h</title>
<polygon fill="white" stroke="transparent" points="-4,4 -4,-80 503.5,-80 503.5,4 -4,4"/>
<!-- Node1 -->
<g id="node1" class="node">
<title>Node1</title>
<g id="a_node1"><a xlink:title="Slint backend integration and generated&#45;component binding helpers.">
<polygon fill="#bfbfbf" stroke="black" points="205,-56.5 205,-75.5 391,-75.5 391,-56.5 205,-56.5"/>
<text text-anchor="middle" x="298" y="-63.5" font-family="Helvetica,sans-Serif" font-size="10.00">RADUi/headers/RADSlintBackend.h</text>
</a>
</g>
</g>
<!-- Node2 -->
<g id="node2" class="node">
<title>Node2</title>
<g id="a_node2"><a xlink:title=" ">
<polygon fill="white" stroke="#bfbfbf" points="0,-0.5 0,-19.5 92,-19.5 92,-0.5 0,-0.5"/>
<text text-anchor="middle" x="46" y="-7.5" font-family="Helvetica,sans-Serif" font-size="10.00">RADUi/RADUi.h</text>
</a>
</g>
</g>
<!-- Node1&#45;&gt;Node2 -->
<g id="edge1" class="edge">
<title>Node1&#45;&gt;Node2</title>
<path fill="none" stroke="midnightblue" d="M258.07,-56.44C214.11,-47.02 143.37,-31.87 95.82,-21.68"/>
<polygon fill="midnightblue" stroke="midnightblue" points="96.25,-18.19 85.74,-19.52 94.79,-25.03 96.25,-18.19"/>
</g>
<!-- Node3 -->
<g id="node3" class="node">
<title>Node3</title>
<g id="a_node3"><a xlink:title=" ">
<polygon fill="white" stroke="#bfbfbf" points="110.5,-0.5 110.5,-19.5 225.5,-19.5 225.5,-0.5 110.5,-0.5"/>
<text text-anchor="middle" x="168" y="-7.5" font-family="Helvetica,sans-Serif" font-size="10.00">RADUi/RADTheme.h</text>
</a>
</g>
</g>
<!-- Node1&#45;&gt;Node3 -->
<g id="edge2" class="edge">
<title>Node1&#45;&gt;Node3</title>
<path fill="none" stroke="midnightblue" d="M277.4,-56.44C256.01,-47.56 222.32,-33.56 197.98,-23.45"/>
<polygon fill="midnightblue" stroke="midnightblue" points="199.08,-20.12 188.5,-19.52 196.39,-26.58 199.08,-20.12"/>
</g>
<!-- Node4 -->
<g id="node4" class="node">
<title>Node4</title>
<g id="a_node4"><a xlink:title=" ">
<polygon fill="white" stroke="#bfbfbf" points="243.5,-0.5 243.5,-19.5 290.5,-19.5 290.5,-0.5 243.5,-0.5"/>
<text text-anchor="middle" x="267" y="-7.5" font-family="Helvetica,sans-Serif" font-size="10.00">slint.h</text>
</a>
</g>
</g>
<!-- Node1&#45;&gt;Node4 -->
<g id="edge3" class="edge">
<title>Node1&#45;&gt;Node4</title>
<path fill="none" stroke="midnightblue" d="M292.88,-56.08C288.59,-48.61 282.34,-37.72 277.06,-28.52"/>
<polygon fill="midnightblue" stroke="midnightblue" points="280.04,-26.68 272.02,-19.75 273.97,-30.17 280.04,-26.68"/>
</g>
<!-- Node5 -->
<g id="node5" class="node">
<title>Node5</title>
<g id="a_node5"><a xlink:title=" ">
<polygon fill="white" stroke="#bfbfbf" points="308.5,-0.5 308.5,-19.5 349.5,-19.5 349.5,-0.5 308.5,-0.5"/>
<text text-anchor="middle" x="329" y="-7.5" font-family="Helvetica,sans-Serif" font-size="10.00">tuple</text>
</a>
</g>
</g>
<!-- Node1&#45;&gt;Node5 -->
<g id="edge4" class="edge">
<title>Node1&#45;&gt;Node5</title>
<path fill="none" stroke="midnightblue" d="M303.12,-56.08C307.41,-48.61 313.66,-37.72 318.94,-28.52"/>
<polygon fill="midnightblue" stroke="midnightblue" points="322.03,-30.17 323.98,-19.75 315.96,-26.68 322.03,-30.17"/>
</g>
<!-- Node6 -->
<g id="node6" class="node">
<title>Node6</title>
<g id="a_node6"><a xlink:title=" ">
<polygon fill="white" stroke="#bfbfbf" points="367.5,-0.5 367.5,-19.5 436.5,-19.5 436.5,-0.5 367.5,-0.5"/>
<text text-anchor="middle" x="402" y="-7.5" font-family="Helvetica,sans-Serif" font-size="10.00">type_traits</text>
</a>
</g>
</g>
<!-- Node1&#45;&gt;Node6 -->
<g id="edge5" class="edge">
<title>Node1&#45;&gt;Node6</title>
<path fill="none" stroke="midnightblue" d="M314.71,-56.32C331.31,-47.7 357,-34.36 376.22,-24.39"/>
<polygon fill="midnightblue" stroke="midnightblue" points="378.07,-27.37 385.33,-19.65 374.84,-21.16 378.07,-27.37"/>
</g>
<!-- Node7 -->
<g id="node7" class="node">
<title>Node7</title>
<g id="a_node7"><a xlink:title=" ">
<polygon fill="white" stroke="#bfbfbf" points="454.5,-0.5 454.5,-19.5 499.5,-19.5 499.5,-0.5 454.5,-0.5"/>
<text text-anchor="middle" x="477" y="-7.5" font-family="Helvetica,sans-Serif" font-size="10.00">utility</text>
</a>
</g>
</g>
<!-- Node1&#45;&gt;Node7 -->
<g id="edge6" class="edge">
<title>Node1&#45;&gt;Node7</title>
<path fill="none" stroke="midnightblue" d="M326.36,-56.44C358.52,-46.74 410.86,-30.95 444.61,-20.77"/>
<polygon fill="midnightblue" stroke="midnightblue" points="445.87,-24.05 454.44,-17.81 443.85,-17.34 445.87,-24.05"/>
</g>
</g>
</svg>
