<?xml version="1.0" encoding="UTF-8" standalone="no"?>
<!DOCTYPE svg PUBLIC "-//W3C//DTD SVG 1.1//EN"
 "http://www.w3.org/Graphics/SVG/1.1/DTD/svg11.dtd">
<!-- Generated by graphviz version 2.43.0 (0)
 -->
<!-- Title: RADUi/headers/RADTerminal.h Pages: 1 -->
<svg width="881pt" height="84pt"
 viewBox="0.00 0.00 881.00 84.00" xmlns="http://www.w3.org/2000/svg" xmlns:xlink="http://www.w3.org/1999/xlink">
<g id="graph0" class="graph" transform="scale(1 1) rotate(0) translate(4 80)">
<title>RADUi/headers/RADTerminal.h</title>
<polygon fill="white" stroke="transparent" points="-4,4 -4,-80 877,-80 877,4 -4,4"/>
<!-- Node1 -->
<g id="node1" class="node">
<title>Node1</title>
<g id="a_node1"><a xlink:title="Terminal buffer, ANSI parser, PTY session, and keyboard escape helpers.">
<polygon fill="#bfbfbf" stroke="black" points="410,-56.5 410,-75.5 575,-75.5 575,-56.5 410,-56.5"/>
<text text-anchor="middle" x="492.5" y="-63.5" font-family="Helvetica,sans-Serif" font-size="10.00">RADUi/headers/RADTerminal.h</text>
</a>
</g>
</g>
<!-- Node2 -->
<g id="node2" class="node">
<title>Node2</title>
<g id="a_node2"><a xlink:title=" ">
<polygon fill="white" stroke="#bfbfbf" points="0,-0.5 0,-19.5 153,-19.5 153,-0.5 0,-0.5"/>
<text text-anchor="middle" x="76.5" y="-7.5" font-family="Helvetica,sans-Serif" font-size="10.00">RADCore/RADLicenseGate.h</text>
</a>
</g>
</g>
<!-- Node1&#45;&gt;Node2 -->
<g id="edge1" class="edge">
<title>Node1&#45;&gt;Node2</title>
<path fill="none" stroke="midnightblue" d="M426.58,-56.44C352.04,-46.77 230.84,-31.04 152.41,-20.85"/>
<polygon fill="midnightblue" stroke="midnightblue" points="152.48,-17.33 142.11,-19.52 151.57,-24.27 152.48,-17.33"/>
</g>
<!-- Node3 -->
<g id="node3" class="node">
<title>Node3</title>
<g id="a_node3"><a xlink:title=" ">
<polygon fill="white" stroke="#bfbfbf" points="171.5,-0.5 171.5,-19.5 221.5,-19.5 221.5,-0.5 171.5,-0.5"/>
<text text-anchor="middle" x="196.5" y="-7.5" font-family="Helvetica,sans-Serif" font-size="10.00">atomic</text>
</a>
</g>
</g>
<!-- Node1&#45;&gt;Node3 -->
<g id="edge2" class="edge">
<title>Node1&#45;&gt;Node3</title>
<path fill="none" stroke="midnightblue" d="M433.94,-56.46C382.94,-48.69 306.83,-36.25 231.79,-20.13"/>
<polygon fill="midnightblue" stroke="midnightblue" points="232.21,-16.64 221.69,-17.93 230.72,-23.48 232.21,-16.64"/>
</g>
<!-- Node4 -->
<g id="node4" class="node">
<title>Node4</title>
<g id="a_node4"><a xlink:title=" ">
<polygon fill="white" stroke="#bfbfbf" points="240,-0.5 240,-19.5 293,-19.5 293,-0.5 240,-0.5"/>
<text text-anchor="middle" x="266.5" y="-7.5" font-family="Helvetica,sans-Serif" font-size="10.00">cstddef</text>
</a>
</g>
</g>
<!-- Node1&#45;&gt;Node4 -->
<g id="edge3" class="edge">
<title>Node1&#45;&gt;Node4</title>
<path fill="none" stroke="midnightblue" d="M455.69,-56.42C419.41,-47.94 362.14,-34.46 303.1,-20.12"/>
<polygon fill="midnightblue" stroke="midnightblue" points="303.77,-16.68 293.23,-17.72 302.12,-23.49 303.77,-16.68"/>
</g>
<!-- Node5 -->
<g id="node5" class="node">
<title>Node5</title>
<g id="a_node5"><a xlink:title=" ">
<polygon fill="white" stroke="#bfbfbf" points="311.5,-0.5 311.5,-19.5 361.5,-19.5 361.5,-0.5 311.5,-0.5"/>
<text text-anchor="middle" x="336.5" y="-7.5" font-family="Helvetica,sans-Serif" font-size="10.00">cstdint</text>
</a>
</g>
</g>
<!-- Node1&#45;&gt;Node5 -->
<g id="edge4" class="edge">
<title>Node1&#45;&gt;Node5</title>
<path fill="none" stroke="midnightblue" d="M467.78,-56.44C441.65,-47.4 400.24,-33.06 370.92,-22.92"/>
<polygon fill="midnightblue" stroke="midnightblue" points="371.7,-19.48 361.1,-19.52 369.41,-26.1 371.7,-19.48"/>
</g>
<!-- Node6 -->
<g id="node6" class="node">
<title>Node6</title>
<g id="a_node6"><a xlink:title=" ">
<polygon fill="white" stroke="#bfbfbf" points="380,-0.5 380,-19.5 445,-19.5 445,-0.5 380,-0.5"/>
<text text-anchor="middle" x="412.5" y="-7.5" font-family="Helvetica,sans-Serif" font-size="10.00">functional</text>
</a>
</g>
</g>
<!-- Node1&#45;&gt;Node6 -->
<g id="edge5" class="edge">
<title>Node1&#45;&gt;Node6</title>
<path fill="none" stroke="midnightblue" d="M479.65,-56.32C467.28,-47.98 448.37,-35.21 433.76,-25.35"/>
<polygon fill="midnightblue" stroke="midnightblue" points="435.57,-22.35 425.32,-19.65 431.65,-28.15 435.57,-22.35"/>
</g>
<!-- Node7 -->
<g id="node7" class="node">
<title>Node7</title>
<g id="a_node7"><a xlink:title=" ">
<polygon fill="white" stroke="#bfbfbf" points="463.5,-0.5 463.5,-19.5 521.5,-19.5 521.5,-0.5 463.5,-0.5"/>
<text text-anchor="middle" x="492.5" y="-7.5" font-family="Helvetica,sans-Serif" font-size="10.00">memory</text>
</a>
</g>
</g>
<!-- Node1&#45;&gt;Node7 -->
<g id="edge6" class="edge">
<title>Node1&#45;&gt;Node7</title>
<path fill="none" stroke="midnightblue" d="M492.5,-56.08C492.5,-49.01 492.5,-38.86 492.5,-29.99"/>
<polygon fill="midnightblue" stroke="midnightblue" points="496,-29.75 492.5,-19.75 489,-29.75 496,-29.75"/>
</g>
<!-- Node8 -->
<g id="node8" class="node">
<title>Node8</title>
<g id="a_node8"><a xlink:title=" ">
<polygon fill="white" stroke="#bfbfbf" points="539.5,-0.5 539.5,-19.5 587.5,-19.5 587.5,-0.5 539.5,-0.5"/>
<text text-anchor="middle" x="563.5" y="-7.5" font-family="Helvetica,sans-Serif" font-size="10.00">mutex</text>
</a>
</g>
</g>
<!-- Node1&#45;&gt;Node8 -->
<g id="edge7" class="edge">
<title>Node1&#45;&gt;Node8</title>
<path fill="none" stroke="midnightblue" d="M503.91,-56.32C514.61,-48.18 530.84,-35.84 543.66,-26.09"/>
<polygon fill="midnightblue" stroke="midnightblue" points="546.04,-28.67 551.89,-19.83 541.81,-23.1 546.04,-28.67"/>
</g>
<!-- Node9 -->
<g id="node9" class="node">
<title>Node9</title>
<g id="a_node9"><a xlink:title=" ">
<polygon fill="white" stroke="#bfbfbf" points="605.5,-0.5 605.5,-19.5 649.5,-19.5 649.5,-0.5 605.5,-0.5"/>
<text text-anchor="middle" x="627.5" y="-7.5" font-family="Helvetica,sans-Serif" font-size="10.00">string</text>
</a>
</g>
</g>
<!-- Node1&#45;&gt;Node9 -->
<g id="edge8" class="edge">
<title>Node1&#45;&gt;Node9</title>
<path fill="none" stroke="midnightblue" d="M513.89,-56.44C536.21,-47.52 571.4,-33.44 596.71,-23.32"/>
<polygon fill="midnightblue" stroke="midnightblue" points="598.22,-26.48 606.21,-19.52 595.62,-19.98 598.22,-26.48"/>
</g>
<!-- Node10 -->
<g id="node10" class="node">
<title>Node10</title>
<g id="a_node10"><a xlink:title=" ">
<polygon fill="white" stroke="#bfbfbf" points="668,-0.5 668,-19.5 741,-19.5 741,-0.5 668,-0.5"/>
<text text-anchor="middle" x="704.5" y="-7.5" font-family="Helvetica,sans-Serif" font-size="10.00">string_view</text>
</a>
</g>
</g>
<!-- Node1&#45;&gt;Node10 -->
<g id="edge9" class="edge">
<title>Node1&#45;&gt;Node10</title>
<path fill="none" stroke="midnightblue" d="M526.09,-56.44C562.69,-47.12 621.34,-32.18 661.33,-22"/>
<polygon fill="midnightblue" stroke="midnightblue" points="662.24,-25.38 671.07,-19.52 660.51,-18.59 662.24,-25.38"/>
</g>
<!-- Node11 -->
<g id="node11" class="node">
<title>Node11</title>
<g id="a_node11"><a xlink:title=" ">
<polygon fill="white" stroke="#bfbfbf" points="759.5,-0.5 759.5,-19.5 807.5,-19.5 807.5,-0.5 759.5,-0.5"/>
<text text-anchor="middle" x="783.5" y="-7.5" font-family="Helvetica,sans-Serif" font-size="10.00">thread</text>
</a>
</g>
</g>
<!-- Node1&#45;&gt;Node11 -->
<g id="edge10" class="edge">
<title>Node1&#45;&gt;Node11</title>
<path fill="none" stroke="midnightblue" d="M550.44,-56.48C600.68,-48.74 675.5,-36.34 749.46,-20.06"/>
<polygon fill="midnightblue" stroke="midnightblue" points="750.41,-23.44 759.41,-17.85 748.89,-16.61 750.41,-23.44"/>
</g>
<!-- Node12 -->
<g id="node12" class="node">
<title>Node12</title>
<g id="a_node12"><a xlink:title=" ">
<polygon fill="white" stroke="#bfbfbf" points="826,-0.5 826,-19.5 873,-19.5 873,-0.5 826,-0.5"/>
<text text-anchor="middle" x="849.5" y="-7.5" font-family="Helvetica,sans-Serif" font-size="10.00">vector</text>
</a>
</g>
</g>
<!-- Node1&#45;&gt;Node12 -->
<g id="edge11" class="edge">
<title>Node1&#45;&gt;Node12</title>
<path fill="none" stroke="midnightblue" d="M575.23,-56.47C638.62,-49.25 728.37,-37.56 815.96,-19.87"/>
<polygon fill="midnightblue" stroke="midnightblue" points="816.7,-23.29 825.79,-17.86 815.3,-16.43 816.7,-23.29"/>
</g>
</g>
</svg>
