<?xml version="1.0" encoding="UTF-8" standalone="no"?>
<!DOCTYPE svg PUBLIC "-//W3C//DTD SVG 1.1//EN"
 "http://www.w3.org/Graphics/SVG/1.1/DTD/svg11.dtd">
<!-- Generated by graphviz version 2.43.0 (0)
 -->
<!-- Title: RADUi/headers/RADTheme.h Pages: 1 -->
<svg width="242pt" height="84pt"
 viewBox="0.00 0.00 242.00 84.00" xmlns="http://www.w3.org/2000/svg" xmlns:xlink="http://www.w3.org/1999/xlink">
<g id="graph0" class="graph" transform="scale(1 1) rotate(0) translate(4 80)">
<title>RADUi/headers/RADTheme.h</title>
<polygon fill="white" stroke="transparent" points="-4,4 -4,-80 238,-80 238,4 -4,4"/>
<!-- Node1 -->
<g id="node1" class="node">
<title>Node1</title>
<g id="a_node1"><a xlink:title="RADUi theme tokens, runtime theme manager, and JSON persistence.">
<polygon fill="#bfbfbf" stroke="black" points="74.5,-56.5 74.5,-75.5 231.5,-75.5 231.5,-56.5 74.5,-56.5"/>
<text text-anchor="middle" x="153" y="-63.5" font-family="Helvetica,sans-Serif" font-size="10.00">RADUi/headers/RADTheme.h</text>
</a>
</g>
</g>
<!-- Node2 -->
<g id="node2" class="node">
<title>Node2</title>
<g id="a_node2"><a xlink:title=" ">
<polygon fill="white" stroke="#bfbfbf" points="0,-0.5 0,-19.5 116,-19.5 116,-0.5 0,-0.5"/>
<text text-anchor="middle" x="58" y="-7.5" font-family="Helvetica,sans-Serif" font-size="10.00">RADCore/RADCore.h</text>
</a>
</g>
</g>
<!-- Node1&#45;&gt;Node2 -->
<g id="edge1" class="edge">
<title>Node1&#45;&gt;Node2</title>
<path fill="none" stroke="midnightblue" d="M137.74,-56.32C122.78,-47.82 99.75,-34.73 82.27,-24.8"/>
<polygon fill="midnightblue" stroke="midnightblue" points="83.65,-21.55 73.23,-19.65 80.19,-27.64 83.65,-21.55"/>
</g>
<!-- Node3 -->
<g id="node3" class="node">
<title>Node3</title>
<g id="a_node3"><a xlink:title=" ">
<polygon fill="white" stroke="#bfbfbf" points="134,-0.5 134,-19.5 172,-19.5 172,-0.5 134,-0.5"/>
<text text-anchor="middle" x="153" y="-7.5" font-family="Helvetica,sans-Serif" font-size="10.00">map</text>
</a>
</g>
</g>
<!-- Node1&#45;&gt;Node3 -->
<g id="edge2" class="edge">
<title>Node1&#45;&gt;Node3</title>
<path fill="none" stroke="midnightblue" d="M153,-56.08C153,-49.01 153,-38.86 153,-29.99"/>
<polygon fill="midnightblue" stroke="midnightblue" points="156.5,-29.75 153,-19.75 149.5,-29.75 156.5,-29.75"/>
</g>
<!-- Node4 -->
<g id="node4" class="node">
<title>Node4</title>
<g id="a_node4"><a xlink:title=" ">
<polygon fill="white" stroke="#bfbfbf" points="190,-0.5 190,-19.5 234,-19.5 234,-0.5 190,-0.5"/>
<text text-anchor="middle" x="212" y="-7.5" font-family="Helvetica,sans-Serif" font-size="10.00">string</text>
</a>
</g>
</g>
<!-- Node1&#45;&gt;Node4 -->
<g id="edge3" class="edge">
<title>Node1&#45;&gt;Node4</title>
<path fill="none" stroke="midnightblue" d="M162.48,-56.32C171.2,-48.34 184.34,-36.31 194.9,-26.65"/>
<polygon fill="midnightblue" stroke="midnightblue" points="197.33,-29.17 202.35,-19.83 192.61,-24 197.33,-29.17"/>
</g>
</g>
</svg>
