<?xml version="1.0" encoding="UTF-8" standalone="no"?>
<!DOCTYPE svg PUBLIC "-//W3C//DTD SVG 1.1//EN"
 "http://www.w3.org/Graphics/SVG/1.1/DTD/svg11.dtd">
<!-- Generated by graphviz version 2.43.0 (0)
 -->
<!-- Title: RADUpdate/headers/RADUpdate.h Pages: 1 -->
<svg width="419pt" height="84pt"
 viewBox="0.00 0.00 418.50 84.00" xmlns="http://www.w3.org/2000/svg" xmlns:xlink="http://www.w3.org/1999/xlink">
<g id="graph0" class="graph" transform="scale(1 1) rotate(0) translate(4 80)">
<title>RADUpdate/headers/RADUpdate.h</title>
<polygon fill="white" stroke="transparent" points="-4,4 -4,-80 414.5,-80 414.5,4 -4,4"/>
<!-- Node1 -->
<g id="node1" class="node">
<title>Node1</title>
<g id="a_node1"><a xlink:title="Signed app&#45;bundle update manifests, payload verification, and A/B metadata helpers.">
<polygon fill="#bfbfbf" stroke="black" points="174.5,-56.5 174.5,-75.5 357.5,-75.5 357.5,-56.5 174.5,-56.5"/>
<text text-anchor="middle" x="266" y="-63.5" font-family="Helvetica,sans-Serif" font-size="10.00">RADUpdate/headers/RADUpdate.h</text>
</a>
</g>
</g>
<!-- Node2 -->
<g id="node2" class="node">
<title>Node2</title>
<g id="a_node2"><a xlink:title=" ">
<polygon fill="white" stroke="#bfbfbf" points="0,-0.5 0,-19.5 116,-19.5 116,-0.5 0,-0.5"/>
<text text-anchor="middle" x="58" y="-7.5" font-family="Helvetica,sans-Serif" font-size="10.00">RADCore/RADCore.h</text>
</a>
</g>
</g>
<!-- Node1&#45;&gt;Node2 -->
<g id="edge1" class="edge">
<title>Node1&#45;&gt;Node2</title>
<path fill="none" stroke="midnightblue" d="M233.04,-56.44C197.21,-47.14 139.84,-32.25 100.61,-22.06"/>
<polygon fill="midnightblue" stroke="midnightblue" points="101.36,-18.64 90.8,-19.52 99.6,-25.42 101.36,-18.64"/>
</g>
<!-- Node3 -->
<g id="node3" class="node">
<title>Node3</title>
<g id="a_node3"><a xlink:title=" ">
<polygon fill="white" stroke="#bfbfbf" points="134.5,-0.5 134.5,-19.5 283.5,-19.5 283.5,-0.5 134.5,-0.5"/>
<text text-anchor="middle" x="209" y="-7.5" font-family="Helvetica,sans-Serif" font-size="10.00">RADInstaller/RADInstaller.h</text>
</a>
</g>
</g>
<!-- Node1&#45;&gt;Node3 -->
<g id="edge2" class="edge">
<title>Node1&#45;&gt;Node3</title>
<path fill="none" stroke="midnightblue" d="M256.84,-56.32C248.5,-48.42 235.97,-36.55 225.82,-26.94"/>
<polygon fill="midnightblue" stroke="midnightblue" points="227.99,-24.17 218.32,-19.83 223.18,-29.25 227.99,-24.17"/>
</g>
<!-- Node4 -->
<g id="node4" class="node">
<title>Node4</title>
<g id="a_node4"><a xlink:title=" ">
<polygon fill="white" stroke="#bfbfbf" points="301,-0.5 301,-19.5 345,-19.5 345,-0.5 301,-0.5"/>
<text text-anchor="middle" x="323" y="-7.5" font-family="Helvetica,sans-Serif" font-size="10.00">string</text>
</a>
</g>
</g>
<!-- Node1&#45;&gt;Node4 -->
<g id="edge3" class="edge">
<title>Node1&#45;&gt;Node4</title>
<path fill="none" stroke="midnightblue" d="M275.16,-56.32C283.5,-48.42 296.03,-36.55 306.18,-26.94"/>
<polygon fill="midnightblue" stroke="midnightblue" points="308.82,-29.25 313.68,-19.83 304.01,-24.17 308.82,-29.25"/>
</g>
<!-- Node5 -->
<g id="node5" class="node">
<title>Node5</title>
<g id="a_node5"><a xlink:title=" ">
<polygon fill="white" stroke="#bfbfbf" points="363.5,-0.5 363.5,-19.5 410.5,-19.5 410.5,-0.5 363.5,-0.5"/>
<text text-anchor="middle" x="387" y="-7.5" font-family="Helvetica,sans-Serif" font-size="10.00">vector</text>
</a>
</g>
</g>
<!-- Node1&#45;&gt;Node5 -->
<g id="edge4" class="edge">
<title>Node1&#45;&gt;Node5</title>
<path fill="none" stroke="midnightblue" d="M285.17,-56.44C304.91,-47.64 335.89,-33.81 358.49,-23.72"/>
<polygon fill="midnightblue" stroke="midnightblue" points="360.21,-26.79 367.92,-19.52 357.36,-20.4 360.21,-26.79"/>
</g>
</g>
</svg>
