<?xml version="1.0" encoding="UTF-8" standalone="no"?>
<!DOCTYPE svg PUBLIC "-//W3C//DTD SVG 1.1//EN"
 "http://www.w3.org/Graphics/SVG/1.1/DTD/svg11.dtd">
<!-- Generated by graphviz version 2.43.0 (0)
 -->
<!-- Title: RADUi/headers/RADWidgets.h Pages: 1 -->
<svg width="521pt" height="84pt"
 viewBox="0.00 0.00 520.50 84.00" xmlns="http://www.w3.org/2000/svg" xmlns:xlink="http://www.w3.org/1999/xlink">
<g id="graph0" class="graph" transform="scale(1 1) rotate(0) translate(4 80)">
<title>RADUi/headers/RADWidgets.h</title>
<polygon fill="white" stroke="transparent" points="-4,4 -4,-80 516.5,-80 516.5,4 -4,4"/>
<!-- Node1 -->
<g id="node1" class="node">
<title>Node1</title>
<g id="a_node1"><a xlink:title="Backend&#45;neutral state models for common UI components.">
<polygon fill="#bfbfbf" stroke="black" points="184.5,-56.5 184.5,-75.5 347.5,-75.5 347.5,-56.5 184.5,-56.5"/>
<text text-anchor="middle" x="266" y="-63.5" font-family="Helvetica,sans-Serif" font-size="10.00">RADUi/headers/RADWidgets.h</text>
</a>
</g>
</g>
<!-- Node2 -->
<g id="node2" class="node">
<title>Node2</title>
<g id="a_node2"><a xlink:title=" ">
<polygon fill="white" stroke="#bfbfbf" points="0,-0.5 0,-19.5 92,-19.5 92,-0.5 0,-0.5"/>
<text text-anchor="middle" x="46" y="-7.5" font-family="Helvetica,sans-Serif" font-size="10.00">RADUi/RADUi.h</text>
</a>
</g>
</g>
<!-- Node1&#45;&gt;Node2 -->
<g id="edge1" class="edge">
<title>Node1&#45;&gt;Node2</title>
<path fill="none" stroke="midnightblue" d="M231.14,-56.44C193.08,-47.1 132.04,-32.12 90.54,-21.93"/>
<polygon fill="midnightblue" stroke="midnightblue" points="91.24,-18.5 80.7,-19.52 89.57,-25.3 91.24,-18.5"/>
</g>
<!-- Node3 -->
<g id="node3" class="node">
<title>Node3</title>
<g id="a_node3"><a xlink:title=" ">
<polygon fill="white" stroke="#bfbfbf" points="110.5,-0.5 110.5,-19.5 163.5,-19.5 163.5,-0.5 110.5,-0.5"/>
<text text-anchor="middle" x="137" y="-7.5" font-family="Helvetica,sans-Serif" font-size="10.00">cstddef</text>
</a>
</g>
</g>
<!-- Node1&#45;&gt;Node3 -->
<g id="edge2" class="edge">
<title>Node1&#45;&gt;Node3</title>
<path fill="none" stroke="midnightblue" d="M245.56,-56.44C224.33,-47.56 190.9,-33.56 166.75,-23.45"/>
<polygon fill="midnightblue" stroke="midnightblue" points="167.92,-20.15 157.34,-19.52 165.22,-26.61 167.92,-20.15"/>
</g>
<!-- Node4 -->
<g id="node4" class="node">
<title>Node4</title>
<g id="a_node4"><a xlink:title=" ">
<polygon fill="white" stroke="#bfbfbf" points="182,-0.5 182,-19.5 220,-19.5 220,-0.5 182,-0.5"/>
<text text-anchor="middle" x="201" y="-7.5" font-family="Helvetica,sans-Serif" font-size="10.00">map</text>
</a>
</g>
</g>
<!-- Node1&#45;&gt;Node4 -->
<g id="edge3" class="edge">
<title>Node1&#45;&gt;Node4</title>
<path fill="none" stroke="midnightblue" d="M255.56,-56.32C245.85,-48.26 231.18,-36.08 219.5,-26.37"/>
<polygon fill="midnightblue" stroke="midnightblue" points="221.56,-23.53 211.63,-19.83 217.09,-28.92 221.56,-23.53"/>
</g>
<!-- Node5 -->
<g id="node5" class="node">
<title>Node5</title>
<g id="a_node5"><a xlink:title=" ">
<polygon fill="white" stroke="#bfbfbf" points="238,-0.5 238,-19.5 294,-19.5 294,-0.5 238,-0.5"/>
<text text-anchor="middle" x="266" y="-7.5" font-family="Helvetica,sans-Serif" font-size="10.00">optional</text>
</a>
</g>
</g>
<!-- Node1&#45;&gt;Node5 -->
<g id="edge4" class="edge">
<title>Node1&#45;&gt;Node5</title>
<path fill="none" stroke="midnightblue" d="M266,-56.08C266,-49.01 266,-38.86 266,-29.99"/>
<polygon fill="midnightblue" stroke="midnightblue" points="269.5,-29.75 266,-19.75 262.5,-29.75 269.5,-29.75"/>
</g>
<!-- Node6 -->
<g id="node6" class="node">
<title>Node6</title>
<g id="a_node6"><a xlink:title=" ">
<polygon fill="white" stroke="#bfbfbf" points="312,-0.5 312,-19.5 356,-19.5 356,-0.5 312,-0.5"/>
<text text-anchor="middle" x="334" y="-7.5" font-family="Helvetica,sans-Serif" font-size="10.00">string</text>
</a>
</g>
</g>
<!-- Node1&#45;&gt;Node6 -->
<g id="edge5" class="edge">
<title>Node1&#45;&gt;Node6</title>
<path fill="none" stroke="midnightblue" d="M276.93,-56.32C287.17,-48.18 302.72,-35.84 315,-26.09"/>
<polygon fill="midnightblue" stroke="midnightblue" points="317.22,-28.79 322.88,-19.83 312.87,-23.31 317.22,-28.79"/>
</g>
<!-- Node7 -->
<g id="node7" class="node">
<title>Node7</title>
<g id="a_node7"><a xlink:title=" ">
<polygon fill="white" stroke="#bfbfbf" points="374.5,-0.5 374.5,-19.5 447.5,-19.5 447.5,-0.5 374.5,-0.5"/>
<text text-anchor="middle" x="411" y="-7.5" font-family="Helvetica,sans-Serif" font-size="10.00">string_view</text>
</a>
</g>
</g>
<!-- Node1&#45;&gt;Node7 -->
<g id="edge6" class="edge">
<title>Node1&#45;&gt;Node7</title>
<path fill="none" stroke="midnightblue" d="M288.98,-56.44C313.16,-47.44 351.42,-33.19 378.65,-23.05"/>
<polygon fill="midnightblue" stroke="midnightblue" points="379.98,-26.29 388.13,-19.52 377.54,-19.73 379.98,-26.29"/>
</g>
<!-- Node8 -->
<g id="node8" class="node">
<title>Node8</title>
<g id="a_node8"><a xlink:title=" ">
<polygon fill="white" stroke="#bfbfbf" points="465.5,-0.5 465.5,-19.5 512.5,-19.5 512.5,-0.5 465.5,-0.5"/>
<text text-anchor="middle" x="489" y="-7.5" font-family="Helvetica,sans-Serif" font-size="10.00">vector</text>
</a>
</g>
</g>
<!-- Node1&#45;&gt;Node8 -->
<g id="edge7" class="edge">
<title>Node1&#45;&gt;Node8</title>
<path fill="none" stroke="midnightblue" d="M304.53,-56.43C341.08,-48.19 397.76,-35.12 455.28,-20.37"/>
<polygon fill="midnightblue" stroke="midnightblue" points="456.46,-23.68 465.26,-17.8 454.71,-16.91 456.46,-23.68"/>
</g>
</g>
</svg>
