<?xml version="1.0" encoding="UTF-8" standalone="no"?>
<!DOCTYPE svg PUBLIC "-//W3C//DTD SVG 1.1//EN"
 "http://www.w3.org/Graphics/SVG/1.1/DTD/svg11.dtd">
<!-- Generated by graphviz version 2.43.0 (0)
 -->
<!-- Title: RADUi::Theme Pages: 1 -->
<svg width="432pt" height="95pt"
 viewBox="0.00 0.00 431.50 95.00" xmlns="http://www.w3.org/2000/svg" xmlns:xlink="http://www.w3.org/1999/xlink">
<g id="graph0" class="graph" transform="scale(1 1) rotate(0) translate(4 91)">
<title>RADUi::Theme</title>
<polygon fill="white" stroke="transparent" points="-4,4 -4,-91 427.5,-91 427.5,4 -4,4"/>
<!-- Node1 -->
<g id="node1" class="node">
<title>Node1</title>
<g id="a_node1"><a xlink:title="Complete RADUi theme definition.">
<polygon fill="#bfbfbf" stroke="black" points="170,-0.5 170,-19.5 258,-19.5 258,-0.5 170,-0.5"/>
<text text-anchor="middle" x="214" y="-7.5" font-family="Helvetica,sans-Serif" font-size="10.00">RADUi::Theme</text>
</a>
</g>
</g>
<!-- Node2 -->
<g id="node2" class="node">
<title>Node2</title>
<g id="a_node2"><a xlink:href="structRADUi_1_1ThemeMetrics.html" target="_top" xlink:title="Spacing/radius tokens in logical pixels.">
<polygon fill="white" stroke="black" points="0,-67.5 0,-86.5 124,-86.5 124,-67.5 0,-67.5"/>
<text text-anchor="middle" x="62" y="-74.5" font-family="Helvetica,sans-Serif" font-size="10.00">RADUi::ThemeMetrics</text>
</a>
</g>
</g>
<!-- Node2&#45;&gt;Node1 -->
<g id="edge1" class="edge">
<title>Node2&#45;&gt;Node1</title>
<path fill="none" stroke="#9a32cd" stroke-dasharray="5,2" d="M91.74,-63.28C121.84,-50.41 167.57,-30.85 193.73,-19.67"/>
<polygon fill="#9a32cd" stroke="#9a32cd" points="90,-60.22 82.18,-67.37 92.76,-66.65 90,-60.22"/>
<text text-anchor="middle" x="168" y="-41" font-family="Helvetica,sans-Serif" font-size="10.00"> metrics</text>
</g>
<!-- Node3 -->
<g id="node3" class="node">
<title>Node3</title>
<g id="a_node3"><a xlink:href="structRADUi_1_1ThemeTypography.html" target="_top" xlink:title="Typography tokens.">
<polygon fill="white" stroke="black" points="142,-67.5 142,-86.5 286,-86.5 286,-67.5 142,-67.5"/>
<text text-anchor="middle" x="214" y="-74.5" font-family="Helvetica,sans-Serif" font-size="10.00">RADUi::ThemeTypography</text>
</a>
</g>
</g>
<!-- Node3&#45;&gt;Node1 -->
<g id="edge2" class="edge">
<title>Node3&#45;&gt;Node1</title>
<path fill="none" stroke="#9a32cd" stroke-dasharray="5,2" d="M214,-57.04C214,-44.67 214,-29.12 214,-19.63"/>
<polygon fill="#9a32cd" stroke="#9a32cd" points="210.5,-57.23 214,-67.23 217.5,-57.23 210.5,-57.23"/>
<text text-anchor="middle" x="243.5" y="-41" font-family="Helvetica,sans-Serif" font-size="10.00"> typography</text>
</g>
<!-- Node4 -->
<g id="node4" class="node">
<title>Node4</title>
<g id="a_node4"><a xlink:href="structRADUi_1_1ThemeColors.html" target="_top" xlink:title="Named UI color tokens encoded as CSS&#45;style strings.">
<polygon fill="white" stroke="black" points="304.5,-67.5 304.5,-86.5 423.5,-86.5 423.5,-67.5 304.5,-67.5"/>
<text text-anchor="middle" x="364" y="-74.5" font-family="Helvetica,sans-Serif" font-size="10.00">RADUi::ThemeColors</text>
</a>
</g>
</g>
<!-- Node4&#45;&gt;Node1 -->
<g id="edge3" class="edge">
<title>Node4&#45;&gt;Node1</title>
<path fill="none" stroke="#9a32cd" stroke-dasharray="5,2" d="M334.98,-63.27C318.08,-55.86 296.35,-46.37 277,-38 262.69,-31.81 246.53,-24.88 234.16,-19.6"/>
<polygon fill="#9a32cd" stroke="#9a32cd" points="333.76,-66.55 344.32,-67.36 336.57,-60.14 333.76,-66.55"/>
<text text-anchor="middle" x="316.5" y="-41" font-family="Helvetica,sans-Serif" font-size="10.00"> colors</text>
</g>
</g>
</svg>
